<svg version="1.2" xmlns="http://www.w3.org/2000/svg" viewBox="0 0 1000 1000" width="1000" height="1000">
	<title>Mobile login-ai</title>
	<style>
		.s0 { fill: #e6e6e6 } 
		.s1 { fill: #e0e0e0 } 
		.s2 { fill: #fafafa } 
		.s3 { fill: #f5f5f5 } 
		.s4 { fill: #f0f0f0 } 
		.s5 { fill: #ffffff } 
		.s6 { fill: #e58a7b } 
		.s7 { fill: #407bff } 
		.s8 { opacity: .2;fill: #000000 } 
		.s9 { mix-blend-mode: multiply;fill: #e8ecf1 } 
		.s10 { fill: #263238 } 
		.s11 { fill: #cf6f64 } 
		.s12 { fill: #df5753 } 
		.s13 { opacity: .6;fill: #fafafa } 
		.s14 { opacity: .1;fill: #407bff } 
		.s15 { opacity: .5;fill: #407bff } 
		.s16 { opacity: .1;fill: #ffffff } 
		.s17 { opacity: .6;fill: #000000 } 
		.s18 { opacity: .4;fill: #000000 } 
		.s19 { opacity: .4;fill: #ffffff } 
		.s20 { mix-blend-mode: multiply;fill: #f5f5f5 } 
		.s21 { opacity: .3;fill: #ffffff } 
	</style>
	<g id="Background complete">
		<g id="&lt;Group&gt;">
			<g id="&lt;Group&gt;">
				<path id="&lt;Path&gt;" class="s0" d="m1000 765.3h-1000v-0.5h1000z"/>
				<path id="&lt;Path&gt;" class="s0" d="m249.7 795.6h-66.3v-0.5h66.3z"/>
				<path id="&lt;Path&gt;" class="s0" d="m162.4 795.6h-38.3v-0.5h38.3z"/>
				<path id="&lt;Path&gt;" class="s0" d="m421.1 802.9h-38.4v-0.5h38.4z"/>
				<path id="&lt;Path&gt;" class="s0" d="m621.2 814.1h-86.4v-0.5h86.4z"/>
				<path id="&lt;Path&gt;" class="s0" d="m517 814.1h-12.6v-0.5h12.6z"/>
				<path id="&lt;Path&gt;" class="s0" d="m906.7 802.9h-187.4v-0.5h187.4z"/>
				<g id="&lt;Group&gt;">
					<path id="&lt;Compound Path&gt;" fill-rule="evenodd" class="s0" d="m474 675.6h-386.2c-6.3 0-11.4-5.1-11.4-11.4v-542.9c0-6.3 5.1-11.4 11.4-11.4h386.2c6.3 0 11.4 5.1 11.4 11.4v542.9c0 6.3-5.1 11.4-11.4 11.4zm-386.2-565.2c-6 0-10.9 4.9-10.9 10.9v542.9c0 6 4.9 10.9 10.9 10.9h386.2c6 0 10.9-4.9 10.9-10.9v-542.9c0-6-4.9-10.9-10.9-10.9z"/>
					<path id="&lt;Compound Path&gt;" fill-rule="evenodd" class="s0" d="m906.6 675.6h-386.2c-6.3 0-11.4-5.1-11.4-11.4v-542.9c0-6.3 5.1-11.4 11.4-11.4h386.2c6.3 0 11.4 5.1 11.4 11.4v542.9c0 6.3-5.1 11.4-11.4 11.4zm-386.2-565.2c-6 0-10.9 4.9-10.9 10.9v542.9c0 6 4.9 10.9 10.9 10.9h386.2c6 0 10.9-4.9 10.9-10.9v-542.9c0-6-4.9-10.9-10.9-10.9z"/>
				</g>
			</g>
			<g id="&lt;Group&gt;">
				<path id="&lt;Path&gt;" class="s1" d="m534.8 768.4h-44v-174.4h44z"/>
				<path id="&lt;Path&gt;" class="s2" d="m517.7 744.7h17.1v23.7h-8.4z"/>
				<path id="&lt;Path&gt;" class="s1" d="m342.1 768.4h-44v-174.4h44z"/>
				<path id="&lt;Path&gt;" class="s2" d="m534.8 753.8h-200v-159.8h200z"/>
				<path id="&lt;Compound Path&gt;" fill-rule="evenodd" class="s1" d="m528.3 644.9h-187v-43.9h187zm-186.2-43v42.3h185.4v-42.3z"/>
				<path id="&lt;Path&gt;" class="s2" d="m343.2 768.4h-8.4v-23.7h17.1z"/>
				<circle id="&lt;Path&gt;" class="s0" cx="434.8" cy="623" r="4.4"/>
				<path id="&lt;Compound Path&gt;" fill-rule="evenodd" class="s1" d="m528.3 695.8h-187v-43.8h187zm-186.2-43.1v42.3h185.4v-42.3z"/>
				<circle id="&lt;Path&gt;" class="s0" cx="434.8" cy="673.9" r="4.4"/>
				<path id="&lt;Compound Path&gt;" fill-rule="evenodd" class="s1" d="m528.3 746.8h-187v-43.9h187zm-186.2-43.1v42.3h185.4v-42.3z"/>
				<circle id="&lt;Path&gt;" class="s0" cx="434.8" cy="724.8" r="4.4"/>
			</g>
			<g id="&lt;Group&gt;">
				<path id="&lt;Path&gt;" class="s1" d="m315.2 768.4h-44v-275.8h44z"/>
				<path id="&lt;Path&gt;" class="s2" d="m298.1 744.7h17.1v23.7h-8.3z"/>
				<path id="&lt;Path&gt;" class="s1" d="m150.9 768.4h-44v-275.8h44z"/>
				<path id="&lt;Path&gt;" class="s2" d="m315.2 753.8h-171.6v-261.2h171.6z"/>
				<path id="&lt;Compound Path&gt;" fill-rule="evenodd" class="s1" d="m308.7 560.1h-158.7v-61h158.7zm-157.7-60v59.1h156.8v-59.1z"/>
				<path id="&lt;Compound Path&gt;" fill-rule="evenodd" class="s1" d="m308.7 724.1h-76.5v-158.7h76.5zm-75.6-157.7v156.8h74.7v-156.8z"/>
				<path id="&lt;Compound Path&gt;" fill-rule="evenodd" class="s1" d="m226.6 724.1h-76.6v-158.7h76.6zm-75.6-157.7v156.8h74.7v-156.8z"/>
				<path id="&lt;Path&gt;" class="s2" d="m151.9 768.4h-8.3v-23.7h17.1z"/>
				<circle id="&lt;Path&gt;" class="s0" cx="229.4" cy="529.6" r="4.4"/>
				<circle id="&lt;Path&gt;" class="s0" cx="245.2" cy="641.1" r="4.4"/>
				<circle id="&lt;Path&gt;" class="s0" cx="213.6" cy="641.1" r="4.4"/>
			</g>
			<path id="&lt;Path&gt;" class="s1" d="m200.9 443c0 10.1 14.1 49.6-6 49.6-20.2 0-6.1-39.5-6.1-49.6q0-10.1-3.2-27.3h18.5q-3.2 17.2-3.2 27.3z"/>
			<path id="&lt;Path&gt;" class="s3" d="m194.2 456.3v12.1c0 13.3-10.9 24.2-24.3 24.2h-12c-13.4 0-24.3-10.9-24.3-24.2v-12.1z"/>
			<path id="&lt;Path&gt;" class="s1" d="m478.2 568.5c0 14-15.6 25.5-34.8 25.5h-17.3c-19.1 0-34.8-11.5-34.8-25.5z"/>
			<g id="&lt;Group&gt;">
				<path id="&lt;Path&gt;" class="s1" d="m821.5 616.2c-9.9 19.1-21.8 40-27 58.3-0.1 33.8 0 59.3 0.1 63.2h-2.2c-0.4-15.1-0.7-59.3-0.7-109.4-2.3-4.4-6.4-12-7.6-13.9-5.3-8.5-11.4-22.5-19.8-37.3-8.3-14.9-21.3-70.7-18.9-68.4 10.1 9.8 22.8 38.5 31.1 57.2 6.9 15.6 12.1 35.7 15.2 54.4 0-41.1 0.2-85.2 0.5-120-6.4-16.8-17.7-33.8-29.9-53-13.8-21.7-42.6-71.2-32-64.1 10.5 7.1 24.9 20.7 39.8 40.9 12.1 16.4 18.7 34.5 22.3 61.9 0.3-25.8 0.7-44.3 1.3-49.2 2.7-25.1-1.2-41.9 12.4-71.3 13.7-29.3 24-52.3 37.2-63 3.1-2.6-7.7 48.4-20.2 77.1-8.9 20.3-12.5 31.8-21.9 45.4-1.1 1.6-3 4.6-4.6 7.2-0.4 5-1.3 21.4-1.6 72-0.1 15.5-0.1 35.6-0.2 57.5 2.5-25.9 6.7-52.8 21.6-89.7 4.3-10.7 44.3-85.6 54.7-93.7 5.1-4-12.7 45.8-30.2 87.7-13.1 31.5-18.5 40.4-33.1 76.9-4.3 10.9-10.4 24.8-13.1 30.8 0 23.3-0.1 48-0.2 71 2.4-20.3 7.7-35.7 16.5-50.4 13.3-22 27.7-37.7 38.2-46.2 10.5-8.6-17 47.3-27.7 68.1z"/>
				<g id="&lt;Group&gt;">
					<path id="&lt;Path&gt;" class="s4" d="m824.9 768.4h-62.7l-4.7-61.4h72.1z"/>
					<path id="&lt;Path&gt;" class="s3" d="m834.3 714.1h-81.5l-2.3-20.7h86.1z"/>
				</g>
			</g>
			<g id="&lt;Group&gt;">
				<path id="&lt;Path&gt;" class="s1" d="m248.5 274.1h-112.1v-123.1h112.1z"/>
				<path id="&lt;Path&gt;" class="s3" d="m260.7 274.1h-115.8v-123.1h115.8z"/>
				<path id="&lt;Path&gt;" class="s5" d="m154.6 264.4v-103.7h96.4v103.7z"/>
				<path id="&lt;Path&gt;" class="s3" d="m177.9 239.3v-53.5h49.7v53.5z"/>
			</g>
			<g id="&lt;Group&gt;">
				<g id="&lt;Group&gt;">
					<path id="&lt;Path&gt;" class="s1" d="m820.1 279.7h-104.1v-114.4h104.1z"/>
					<path id="&lt;Path&gt;" class="s3" d="m831.4 279.7h-107.6v-114.4h107.6z"/>
					<path id="&lt;Path&gt;" class="s5" d="m732.8 270.7v-96.3h89.6v96.3z"/>
				</g>
				<circle id="&lt;Path&gt;" class="s3" cx="777.6" cy="222.5" r="27.9"/>
			</g>
			<g id="&lt;Group&gt;">
				<g id="&lt;Group&gt;">
					<path id="&lt;Path&gt;" class="s1" d="m365 315.7h-83.2v-91.3h83.2z"/>
					<path id="&lt;Path&gt;" class="s3" d="m374 315.7h-85.9v-91.3h85.9z"/>
					<path id="&lt;Path&gt;" class="s5" d="m295.3 308.5v-76.9h71.5v76.9z"/>
					<path id="&lt;Path&gt;" class="s3" d="m350.6 284.5h-39.1l19.5-33.9z"/>
				</g>
			</g>
		</g>
	</g>
	<g id="Background simple">
		<g id="&lt;Group&gt;">
			<path id="&lt;Path&gt;" class="s3" d="m244.8 286.1c81.1-69.4 138 34.5 205.7 16.5 98.8-26.3 174.6-220.5 306.8-101.8 95.9 86.1-1.3 274.3-74.8 343.9-142.6 135.2-296.5 51.5-413.6-69.2-48.7-50.2-88.2-134.6-24.1-189.4z"/>
		</g>
	</g>
	<g id="Shadow">
		<ellipse id="&lt;Path&gt;" class="s3" cx="500" cy="832.5" rx="387.8" ry="22.6"/>
	</g>
	<g id="Character 2">
		<g id="&lt;Group&gt;">
			<path id="&lt;Path&gt;" class="s6" d="m658.6 385.8c-7.9 5.9-44.9 13.4-61.7 7.8-0.2-2.3 2.5-8.5 4.2-10.5 12.6-1.7 33.7-10.8 43.9-14.1q7.5-2.4 33.7-50.2l19.8 8.1q-21.9 45.5-39.9 58.9z"/>
			<g id="&lt;Group&gt;">
				<path id="&lt;Path&gt;" class="s7" d="m704.6 316q3.7 13.7-16.3 41.2l-26.4-14.8q4.9-11.3 10.9-22.8c9.7-18.6 27.6-19.2 31.8-3.6z"/>
				<path id="&lt;Path&gt;" class="s8" d="m704.6 316q3.7 13.7-16.3 41.2l-26.4-14.8q4.9-11.3 10.9-22.8c9.7-18.6 27.6-19.2 31.8-3.6z"/>
			</g>
			<path id="&lt;Path&gt;" class="s8" d="m684.6 322.4l-1.8 31.7-10.4-5.8c1.9-7.4 6.2-21.3 12.2-25.9z"/>
			<g id="&lt;Group&gt;">
				<path id="&lt;Path&gt;" class="s7" d="m710.7 301.5c9.1-0.8 24-0.5 34.3 0q13.1 0.7 26.7 3.5c-15.3 58.2-11.1 118.5-12.4 130.9-11.8 0-56.2 0-80.5 0q-11.9-84.7 8.5-130.2 11.4-3.1 23.4-4.2z"/>
				<path id="&lt;Path&gt;" class="s8" d="m710.7 301.5c9.1-0.8 24-0.5 34.3 0q13.1 0.7 26.7 3.5c-15.3 58.2-11.1 118.5-12.4 130.9-11.8 0-56.2 0-80.5 0q-11.9-84.7 8.5-130.2 11.4-3.1 23.4-4.2z"/>
			</g>
			<ellipse id="&lt;Path&gt;" class="s9" cx="737.1" cy="834.3" rx="68.4" ry="3.9"/>
			<path id="&lt;Path&gt;" class="s6" d="m736.6 812.2l-14.3 5.5-12.3-31.9 14.3-5.5z"/>
			<path id="&lt;Path&gt;" class="s6" d="m786.1 818.9h-15.1l-5.5-34.9h15.1z"/>
			<path id="&lt;Path&gt;" class="s10" d="m770.1 817.2h16.9c0.6 0 1.1 0.4 1.2 1l2.2 13.4c0.2 1.4-0.9 2.7-2.4 2.7-5.9-0.1-8.7-0.5-16.1-0.5-4.6 0-14.1 0.5-20.4 0.5-6.2 0-6.8-6.3-4.2-6.8 11.8-2.6 16.4-6.1 20.3-9.4 0.7-0.6 1.6-0.9 2.5-0.9z"/>
			<path id="&lt;Path&gt;" class="s10" d="m719.9 811.9l16.1-4.7c0.6-0.1 1.2 0.1 1.5 0.7l5.9 11.9c0.6 1.3-0.1 2.8-1.5 3.2-5.8 1.6-9.7 2.6-17 4.7-5 1.5-10.1 3.9-15.1 5.4-3.4 1.1-11.5 1.2-15.7 1.2-6.2 0-7.5-6.5-4.9-6.8 6.7-0.8 7.6-0.4 11.3-2.3 6.1-3.1 10.9-5.6 16.2-11.2 0.9-0.9 2-1.7 3.2-2.1z"/>
			<path id="&lt;Path&gt;" class="s6" d="m600.8 394.3q-11 1.8-20.5 0l6.8-18.3 16.6 6.9z"/>
			<path id="&lt;Path&gt;" class="s6" d="m587.1 376l-6.8 18.3-6-6.6 0.5-12.2z"/>
			<g id="&lt;Group&gt;">
				<path id="&lt;Path&gt;" class="s11" d="m724.3 780.3l6.4 16.4-14.4 5.6-6.3-16.5z"/>
				<path id="&lt;Path&gt;" class="s11" d="m783.4 802h-15l-2.9-18h15.1z"/>
			</g>
			<path id="&lt;Path&gt;" class="s8" d="m762.9 353q-0.5 4.8-1 9.4-0.4 4.4-0.7 8.7c-0.4 5.9-0.7 11.5-1 16.8-5.5 8.1-13.6 14-23 16.8l-59.9 19.4q-0.6-5.7-1.1-11.1z"/>
			<path id="&lt;Path&gt;" class="s5" d="m695.8 347.4l-2-0.3c1.1-9.9 8.6-17.8 16.5-17.6l-0.1 2c-6.8-0.2-13.3 6.9-14.4 15.9z"/>
			<path id="&lt;Path&gt;" class="s5" d="m706.5 365.8q-0.2 0-0.4 0l0.1-2c6.9 0.2 13.3-6.9 14.4-15.9l2 0.3c-1.1 9.8-8.4 17.6-16.1 17.6z"/>
			<path id="&lt;Path&gt;" class="s6" d="m743.8 263c-2.8 11-6.1 31.2 1.2 38.5q-5.1 11.2-25.6 11.2-18.7 0-8.7-11.2c12.5-2.9 12.7-12 11.1-20.6z"/>
			<path id="&lt;Path&gt;" class="s11" d="m734.7 276.3c-0.7 4.9-8.4 14.5-12.2 10.7-0.1-2-0.3-4-0.7-6.1l13-10.6c0.4 1.2 0.3 3.5-0.1 6z"/>
			<path id="&lt;Path&gt;" class="s11" d="m703.8 252.9c4.8-0.9 8.7 4.4 9.9 8.4 1.3 4.5-1.1 8.9-5.9 7.8-3.2-0.7-6.6-2.8-8.5-6.2-2.2-4-0.3-9.1 4.5-10z"/>
			<path id="&lt;Path&gt;" class="s10" d="m707.3 227.6c-7.5 3.4-10.2 33.1-0.8 37.5 9.4 4.4 14.9-44 0.8-37.5z"/>
			<path id="&lt;Path&gt;" class="s6" d="m746.1 246.4c-1.8 14.9-2.1 23.7-10 31.4-12.1 11.5-30.1 4.7-32.8-10.2-2.4-13.4 1-35.6 15.9-41.5 14.7-5.9 28.7 5.4 26.9 20.3z"/>
			<path id="&lt;Path&gt;" class="s10" d="m698 209q15.3-8.3 6.2-13.7 15-2.2 6.6 8.5c-11.7 14.9 10.6 15 23.6 5.9 8.1-5.6 22.6 5.9 20 12.7-2.6 7 12.2 5.5 7 17-1.4 3.2-9.2 4.9-7.4 11.2 2.2 7.2-14.6 14.3-18.4 14-6.3-0.6-1.6-12.5 2.2-24.8 3-9.2-5.2-7.3-16.3-4.5-24.8 6.4-39.7-17.5-23.5-26.3z"/>
			<path id="&lt;Path&gt;" class="s6" d="m751.9 262.9c-2.3 3.4-6 5.5-9.2 6.2-5 1.1-6.9-3.3-5-7.8 1.7-4 6.2-9.3 10.9-8.4 4.7 0.9 5.9 6 3.3 10z"/>
			<path id="&lt;Path&gt;" class="s7" d="m731.7 435.9q-17.5 119.4-21.7 170.5-3.9 46.9 24.1 183.1l-24.1 10.1q-46.9-149-45.8-196.8 1.1-45.9 14.6-166.9z"/>
			<path id="&lt;Path&gt;" class="s8" d="m722.1 504.7c-2.5 18.6-5.2 38.7-7.4 57.2-5.8-26.2-13.1-70.4-2.3-92.8 7.2-15 9.4 7.1 9.7 35.6z"/>
			<path id="&lt;Path&gt;" class="s7" d="m733 781.7q0.1-0.1 2.8 7.6l-27.7 11.6-4.3-8.1z"/>
			<path id="&lt;Path&gt;" class="s7" d="m759.3 435.9q6.8 111.7 10.2 162.4 3.1 46.8 19.6 200.2h-27.5q-29.5-157.2-37-204.4-6.9-43.1-17.2-158.2z"/>
			<path id="&lt;Path&gt;" class="s7" d="m789.6 791.4q0.1 0 0.9 7.7h-30.3l-2.2-8.9z"/>
			<path id="&lt;Path&gt;" class="s8" d="m779 782.2c-0.1 0-0.2-0.1-0.3-0.2-0.1-1.4-15-139.9-17.8-181.9-3.1-45.6-9.2-146.6-9.2-147.7 0-0.1 0.1-0.2 0.2-0.2q0 0 0 0c0.2 0 0.3 0.1 0.3 0.2 0 1 6.2 102.1 9.2 147.7 2.8 41.9 17.7 180.5 17.8 181.9 0.1 0.1 0 0.2-0.2 0.2q0 0 0 0z"/>
			<ellipse id="&lt;Path&gt;" class="s10" cx="721.8" cy="250.6" rx="1.4" ry="2.2"/>
			<ellipse id="&lt;Path&gt;" class="s10" cx="708.1" cy="250.6" rx="1.4" ry="2.2"/>
			<path id="&lt;Path&gt;" class="s12" d="m713.2 262.7q-3.7 0.9-5.8-1.1 3.3-3.4 6.4-10.4z"/>
			<path id="&lt;Path&gt;" class="s10" d="m714.2 267.8c-0.2 0-0.3-0.2-0.3-0.4 0-0.2 0.1-0.4 0.3-0.4 5.4 0 8.1-3.7 8.1-3.7 0.1-0.2 0.3-0.2 0.5-0.1 0.2 0.1 0.2 0.3 0.1 0.5-0.1 0.1-3 4.1-8.7 4.1z"/>
			<path id="&lt;Path&gt;" class="s10" d="m725.7 246.9c-0.2 0.1-0.4 0.1-0.6-0.1-2.7-1.6-5.1-0.5-5.1-0.5-0.4 0.2-0.8 0-1-0.3-0.1-0.4 0.1-0.8 0.4-1 0.2 0 3.2-1.4 6.5 0.6 0.3 0.2 0.4 0.7 0.2 1q-0.2 0.2-0.4 0.3z"/>
			<path id="&lt;Path&gt;" class="s10" d="m704.2 242.9q-0.1 0-0.3-0.2c-0.2-0.2-0.2-0.7 0-1 2.8-2.9 6.1-2.5 6.2-2.4 0.4 0 0.6 0.4 0.6 0.8-0.1 0.4-0.5 0.6-0.9 0.6-0.1 0-2.6-0.4-4.8 2-0.2 0.2-0.5 0.3-0.8 0.2z"/>
			<path id="&lt;Path&gt;" class="s6" d="m746.7 387.6c-7.2 6.7-41.7 20-59.6 23.3-1.4-1.9-1.8-8.5-1.2-11 10.5-7.4 35.3-22.8 45.1-27.3q7.3-3.3 27.7-53.5l20.8 5.5q-16.4 47.6-32.8 63z"/>
			<path id="&lt;Compound Path&gt;" fill-rule="evenodd" class="s7" d="m764.9 819.8c-1.1 0-2.2-0.2-2.8-0.8q-0.8-0.7-0.6-1.9c0-0.6 0.4-0.8 0.6-1 1.7-0.8 6.4 2.2 7 2.5 0.1 0.1 0.1 0.2 0.1 0.4 0 0.1-0.1 0.2-0.3 0.3-1 0.2-2.6 0.5-4 0.5zm-2-3.1q-0.3 0-0.5 0.1c-0.1 0-0.2 0.1-0.2 0.4q-0.1 0.8 0.4 1.3c0.8 0.7 2.7 0.8 5.3 0.3-1.6-1-3.9-2.1-5-2.1z"/>
			<path id="&lt;Compound Path&gt;" fill-rule="evenodd" class="s7" d="m768.8 819.3q-0.1 0-0.1-0.1c-1.5-0.8-4.4-4.1-3.9-5.8 0-0.3 0.3-0.8 1.1-0.9q0.9-0.1 1.5 0.4c1.7 1.4 1.8 5.8 1.8 6q0 0.2-0.2 0.3-0.1 0.1-0.2 0.1zm-2.7-6.1q0 0-0.1 0c-0.5 0-0.5 0.2-0.6 0.3-0.2 1 1.6 3.5 3.1 4.7-0.2-1.3-0.5-3.8-1.5-4.7q-0.4-0.3-0.9-0.3z"/>
			<path id="&lt;Compound Path&gt;" fill-rule="evenodd" class="s7" d="m711.8 817.3c-1.4 0.4-2.8 0.5-3.7 0q-0.9-0.5-1-1.5-0.1-0.7 0.4-1.1c1.6-1.4 8.1 0.1 8.9 0.3 0.1 0 0.2 0.1 0.2 0.3 0 0.1-0.1 0.3-0.2 0.4-1.2 0.5-2.9 1.2-4.6 1.6zm-3.2-2.4q-0.4 0.1-0.6 0.3-0.2 0.2-0.2 0.4 0.1 0.8 0.6 1.1c1.1 0.5 3.6 0.1 6.7-1.3-2.2-0.4-5.1-0.8-6.5-0.5z"/>
			<path id="&lt;Compound Path&gt;" fill-rule="evenodd" class="s7" d="m716.3 815.7q0 0-0.1 0c-2-0.4-6.1-2.7-6.1-4.4 0-0.4 0.1-1 1.1-1.3 0.7-0.2 1.4-0.2 2.1 0.1 2.1 1.1 3.3 4.9 3.3 5.1q0.1 0.2-0.1 0.4-0.1 0-0.2 0.1zm-4.7-5.1q-0.1 0.1-0.2 0.1c-0.6 0.2-0.6 0.5-0.6 0.5 0 1.1 2.9 3 4.9 3.6-0.4-1.1-1.4-3.3-2.8-4q-0.6-0.3-1.3-0.2z"/>
			<path id="&lt;Path&gt;" class="s6" d="m690.5 408.6q-4.1 9.3-18.5 10.8l-7.7-5.2 2.4-5.9 20.9-9.6z"/>
			<path id="&lt;Path&gt;" class="s10" d="m688.4 411.2c-1.3-7.8-3.8-11.3-3.8-11.3l3.3-2.5c0.1 0.2 3.1 4.3 4.6 13.1z"/>
			<path id="&lt;Path&gt;" class="s10" d="m692 401.6c0.7 1.7-0.4 3.7-2.4 4.5-2 0.8-4.2 0.1-4.9-1.6-0.7-1.6 0.4-3.7 2.4-4.5 2-0.8 4.2-0.1 4.9 1.6z"/>
			<path id="&lt;Path&gt;" class="s6" d="m666.7 408.3l7.4 2.6-18.7 8-2.8-2.8z"/>
			<path id="&lt;Path&gt;" class="s8" d="m733 781.7q0.1-0.1 2.8 7.6l-27.7 11.6-4.3-8.1z"/>
			<path id="&lt;Path&gt;" class="s8" d="m789.6 791.4q0.1 0 0.9 7.7h-30.3l-2.2-8.9z"/>
			<g id="&lt;Group&gt;">
				<path id="&lt;Path&gt;" class="s7" d="m784.9 318.9q5.5 17.7-15.9 41.9l-29.7-12.1q4.2-12.9 12.1-30.1c9.1-19.6 27.9-17.6 33.5 0.3z"/>
				<path id="&lt;Path&gt;" class="s8" d="m784.9 318.9q5.5 17.7-15.9 41.9l-29.7-12.1q4.2-12.9 12.1-30.1c9.1-19.6 27.9-17.6 33.5 0.3z"/>
			</g>
		</g>
	</g>
	<g id="Screen">
		<g id="&lt;Group&gt;">
			<path id="&lt;Path&gt;" class="s7" d="m489.7 143.2h-12.7v-2.1h12.7z"/>
			<path id="&lt;Path&gt;" class="s7" d="m655.7 257.1l-2-0.1 1.5-34.3 2 0.1z"/>
			<path id="&lt;Path&gt;" class="s7" d="m629.3 641.8h-236l21.9-491.4h236z"/>
			<path id="&lt;Path&gt;" class="s13" d="m622.2 648.6h-236l22-491.5h236z"/>
			<path id="&lt;Path&gt;" class="s14" d="m615.2 655.3h-236l21.9-491.4h236z"/>
			<path id="&lt;Path&gt;" class="s5" d="m608.6 415.8h-201.4l1.6-37.6h201.5z"/>
			<path id="&lt;Path&gt;" class="s7" d="m518.9 367.6h-109.6l0.8-16.8h109.5z"/>
			<path id="&lt;Path&gt;" class="s5" d="m604.1 517.3h-201.5l1.7-37.6h201.4z"/>
			<path id="&lt;Path&gt;" class="s15" d="m566.8 613.1h-135.5l2-45h135.5z"/>
			<path id="&lt;Compound Path&gt;" fill-rule="evenodd" class="s5" d="m559.7 620.1h-135.4q-0.1 0-0.2 0-0.1-0.1-0.1-0.2l2.1-45.1c0-0.1 0.1-0.2 0.2-0.2h135.5q0.1 0 0.1 0.1 0.1 0 0.1 0.1l-2 45.1c0 0.1-0.1 0.2-0.3 0.2zm-135.2-0.4h135l2-44.6h-135z"/>
			<path id="&lt;Path&gt;" class="s7" d="m495.2 469.1h-90.4l0.7-16.8h90.5z"/>
			<path id="&lt;Path&gt;" class="s5" d="m566.2 256.8c-0.5 11.2-4.6 21.6-11.1 30.1-9.9 12.8-25.4 21.1-42.4 21.1-17.1 0-31.8-8.3-40.5-21.1-5.8-8.5-8.9-18.9-8.4-30.1 1.2-28.3 25.2-51.3 53.5-51.3 28.3 0 50.2 23 48.9 51.3z"/>
			<path id="&lt;Path&gt;" class="s7" d="m571 216.2c-0.1 3-1.2 5.8-2.9 8-2.7 3.4-6.8 5.7-11.3 5.7-4.5 0-8.4-2.3-10.8-5.7-1.5-2.2-2.3-5-2.2-8 0.3-7.5 6.7-13.6 14.2-13.6 7.5 0 13.4 6.1 13 13.6z"/>
			<circle id="&lt;Path&gt;" class="s10" cx="424.5" cy="397" r="6"/>
			<circle id="&lt;Path&gt;" class="s10" cx="451.5" cy="397" r="6"/>
			<circle id="&lt;Path&gt;" class="s10" cx="478.5" cy="397" r="6"/>
			<circle id="&lt;Path&gt;" class="s10" cx="420" cy="498.5" r="6"/>
			<circle id="&lt;Path&gt;" class="s10" cx="446.9" cy="498.5" r="6"/>
			<circle id="&lt;Path&gt;" class="s10" cx="473.9" cy="498.5" r="6"/>
			<circle id="&lt;Path&gt;" class="s10" cx="500.9" cy="498.5" r="6"/>
			<circle id="&lt;Path&gt;" class="s10" cx="527.9" cy="498.5" r="6"/>
			<g id="&lt;Group&gt;">
				<path id="&lt;Path&gt;" class="s7" d="m536.5 239.6c-0.5 11.5-10.2 20.8-21.7 20.8-11.4 0-20.3-9.3-19.8-20.8 0.5-11.4 10.2-20.7 21.7-20.7 11.4 0 20.3 9.3 19.8 20.7z"/>
				<path id="&lt;Path&gt;" class="s7" d="m555.1 286.9c-9.9 12.8-25.4 21.1-42.4 21.1-17.1 0-31.8-8.3-40.5-21.1 9.7-9.7 25.1-16 42.1-16 17.1 0 31.9 6.3 40.8 16z"/>
				<path id="&lt;Path&gt;" class="s16" d="m536.5 239.6c-0.5 11.5-10.2 20.8-21.7 20.8-11.4 0-20.3-9.3-19.8-20.8 0.5-11.4 10.2-20.7 21.7-20.7 11.4 0 20.3 9.3 19.8 20.7z"/>
				<path id="&lt;Path&gt;" class="s16" d="m555.1 286.9c-9.9 12.8-25.4 21.1-42.4 21.1-17.1 0-31.8-8.3-40.5-21.1 9.7-9.7 25.1-16 42.1-16 17.1 0 31.9 6.3 40.8 16z"/>
			</g>
		</g>
	</g>
	<g id="Character 1">
		<g id="&lt;Group&gt;">
			<g id="&lt;Group&gt;">
				<path id="&lt;Path&gt;" class="s6" d="m260.8 424.9c-1.9 4.1-3.9 8.7-5.6 13.2-1.8 4.5-3.5 9-5.1 13.5-3 9.2-5.8 18.4-7.1 27.6l-0.5 3c0 0.3 0 0.8 0.2 1.5 0.3 1.2 1 2.9 2.2 4.6 2.2 3.4 5.4 6.8 8.8 10 3.5 3.2 7.2 6.3 11.1 9.2 3.8 3 7.9 5.8 11.8 8.6l-3.7 7c-9.5-4.2-18.4-9.2-27-15.4-4.2-3.2-8.3-6.7-12-11.4-1.9-2.3-3.6-5-4.8-8.5-0.6-1.8-1-3.7-1-5.9 0-0.5 0.1-1.2 0.1-1.5l0.1-1 0.2-2c1.1-10.6 3.4-20.8 6.5-30.7 1.6-4.9 3.2-9.8 5.1-14.6 2-4.8 3.9-9.4 6.3-14.3z"/>
				<path id="&lt;Path&gt;" class="s6" d="m273.8 514.9l14.2-7.2-3.7 15.5q-9.7 2.7-14.2-2z"/>
				<path id="&lt;Path&gt;" class="s6" d="m300.9 510.2l-3.8 12.9-12.8 0.1 3.7-15.5z"/>
				<path id="&lt;Path&gt;" class="s12" d="m320.9 350q1.2 4.5 3.1 7.9-1.6 1.6-3.1 1z"/>
				<ellipse id="&lt;Path&gt;" class="s10" cx="320.4" cy="347.8" rx="1.5" ry="2.3"/>
				<path id="&lt;Path&gt;" class="s10" d="m320.1 345.6l3-0.9q-1.5 2.4-3 0.9z"/>
				<path id="&lt;Path&gt;" class="s6" d="m299.6 379.8c-1.9 7.3-2.1 15 8.3 17.5q9.9 9.4-9.1 9.4-17.3 0-19.9-9.4c6.5-6.3 4.7-23.3 2.9-32.6z"/>
				<path id="&lt;Path&gt;" class="s6" d="m306 322.3c15.2 6.2 17.4 29.3 14 43.2-3.7 15.5-22.6 20.1-34.4 8.1-7.8-8-7.9-14.6-8.9-30.1-0.9-15.6 14.3-27.3 29.3-21.2z"/>
				<path id="&lt;Path&gt;" class="s10" d="m315.7 335.7q2.6 5.6-0.7 20.6-2.6 11.7 6.6 27.9-30.2 6.6-59.8 0.3 6.7-8.3 2.4-33.8c-4.1-24.1 6.3-22 14.1-24.8q10.9-4 37.4 9.8z"/>
				<path id="&lt;Path&gt;" class="s6" d="m316.4 348c2.7 2.1 3.1 7.5 2.6 10.5-0.7 3.3-3.2 4.7-5.3 1.4-1.4-2.1-2.5-5.2-2.4-8.3 0-3.5 2.5-5.6 5.1-3.6z"/>
				<path id="&lt;Path&gt;" class="s10" d="m271.5 328.6c-2.2-6.3 8.4-15.9 31-11.9q22.6 4 23.6 22.8l-4.5-5.4 0.2 5.7-23.3 4.4z"/>
				<g id="&lt;Group&gt;">
					<path id="&lt;Path&gt;" class="s7" d="m273.4 398.3c-0.3-1.9 1-3.7 2.9-4 7.1-1.2 23.1-3.6 31.1-2.4 6 0.8 7.6 4.3 7.8 7.1 0.2 2.2-1.5 3.9-3.7 3.8l-34.7-1.5c-1.7-0.1-3.1-1.3-3.4-3z"/>
					<path id="&lt;Path&gt;" class="s17" d="m273.4 398.3c-0.3-1.9 1-3.7 2.9-4 7.1-1.2 23.1-3.6 31.1-2.4 6 0.8 7.6 4.3 7.8 7.1 0.2 2.2-1.5 3.9-3.7 3.8l-34.7-1.5c-1.7-0.1-3.1-1.3-3.4-3z"/>
				</g>
				<path id="&lt;Path&gt;" class="s6" d="m315.1 718.5l12.9 8.9-21.6 29.3-12.9-9z"/>
				<path id="&lt;Path&gt;" class="s6" d="m282.5 716.2l13.7 7.8-19.1 30.9-13.7-7.8z"/>
				<g id="&lt;Group&gt;">
					<path id="&lt;Path&gt;" class="s11" d="m328 727.4l-11.1 15.1-12.9-8.9 11.1-15.1z"/>
					<path id="&lt;Path&gt;" class="s11" d="m282.5 716.2l13.7 7.8-9.9 15.9-13.6-7.8z"/>
				</g>
				<g id="&lt;Group&gt;">
					<path id="&lt;Path&gt;" class="s7" d="m304.4 496q50.4 63.4 40.9 124.1-7.6 49.1-51.8 115.4l-20.8-10.3q22.6-44.1 37.4-90.9c6.2-19.6 3.6-41.2-8-58.2-25.6-37.2-66.4-15-38.9-80.1z"/>
					<path id="&lt;Path&gt;" class="s17" d="m304.4 496q50.4 63.4 40.9 124.1-7.6 49.1-51.8 115.4l-20.8-10.3q22.6-44.1 37.4-90.9c6.2-19.6 3.6-41.2-8-58.2-25.6-37.2-66.4-15-38.9-80.1z"/>
				</g>
				<path id="&lt;Path&gt;" class="s18" d="m345.3 620.1c-1.1 7.1-2.9 14.6-5.4 22.1-3.9-24.6-18.1-112.1-18.1-112.7l7.3 7.3c11.1 23.2 20.8 53.6 16.2 83.3z"/>
				<g id="&lt;Group&gt;">
					<path id="&lt;Path&gt;" class="s7" d="m326.9 496q60.6 79.7 62.3 127.6 1.5 40-66 117.5l-19.6-12.7q39.4-55.1 49.4-100-3.8-44.6-85.1-132.4z"/>
					<path id="&lt;Path&gt;" class="s17" d="m326.9 496q60.6 79.7 62.3 127.6 1.5 40-66 117.5l-19.6-12.7q39.4-55.1 49.4-100-3.8-44.6-85.1-132.4z"/>
				</g>
				<path id="&lt;Path&gt;" class="s7" d="m270 416q2.9 8.2-5.5 26.8l-25.3-16.9q6.2-23.5 12.7-25.1c8.2-1.9 15 6.7 18.1 15.2z"/>
				<path id="&lt;Path&gt;" class="s8" d="m270.2 424.6q-1.3 8.5-5.7 18.2l-9.4-6.3 1.7-20.5z"/>
				<path id="&lt;Path&gt;" class="s7" d="m334.4 401.3q7.5 2.6-7.5 94.7c-25.3 0-51.4 0-63.7 0 1-26 1.1-42-11.3-95.2q13.3-2.9 27-3.5c10.8-0.6 19.5-0.9 29 0q12.4 1.1 26.5 4z"/>
				<path id="&lt;Path&gt;" class="s6" d="m340.9 415.9c1.4 4 2.9 8.3 4.5 12.4q2.3 6.4 4.8 12.6l4.9 12.6 1.2 3.1 0.6 1.6 0.3 0.8c0.1 0.1 0.1 0.1 0.1 0.1-0.1 0-0.2-0.4-1.4-1.2-0.6-0.4-1.7-0.8-2.6-0.8-1 0-1.8 0.2-2.3 0.4-0.9 0.4-0.9 0.6-0.9 0.6 0.1-0.1 0.3-0.2 0.5-0.5 0.9-1 1.9-2.8 2.8-4.6 1-1.9 1.9-3.8 2.8-5.8 1.7-4 3.4-8.2 5-12.3 1.6-4.2 3.1-8.4 4.6-12.7l4.6-12.8 7.7 2c-1.5 9.1-3.5 18.1-5.8 27-1.2 4.5-2.5 9-4 13.5q-1.2 3.3-2.6 6.8c-1 2.3-2 4.6-3.8 7.2-0.5 0.7-1 1.4-1.8 2.2-0.7 0.7-1.6 1.7-3.6 2.5-1 0.5-2.3 0.8-3.9 0.8-1.5-0.1-3.1-0.6-4.2-1.3-2.2-1.4-3-2.8-3.6-3.8-0.3-0.5-0.6-1-0.8-1.4l-0.4-0.8-0.7-1.5-1.5-3.1c-2-4.2-3.9-8.4-5.8-12.6q-2.7-6.4-5.3-12.8c-1.6-4.4-3.2-8.6-4.7-13.2z"/>
				<path id="&lt;Path&gt;" class="s7" d="m334.4 401.3q7.6 1.8 16.3 24.4l-22.8 19.4q-14.8-24.7-11.8-32.8c3.1-8.5 8.3-13.4 18.3-11z"/>
				<path id="&lt;Path&gt;" class="s6" d="m374 402.4l7.9-6.7 5.6 8.7-4.1 7.2q-6.5 6-12.3 2.9c-1.8-4.2-0.7-9.2 2.9-12.1z"/>
				<path id="&lt;Path&gt;" class="s6" d="m396.4 395.7l-0.6 2.2-12.6 2.1-1.3-4.3z"/>
				<path id="&lt;Path&gt;" class="s7" d="m324.8 742.1l-22.8-14.8 4.1-7.1 25.6 15.8z"/>
				<path id="&lt;Compound Path&gt;" fill-rule="evenodd" class="s10" d="m286 753.9c-1.8 0-4.2-1.2-5.7-2-0.1-0.1-0.2-0.2-0.2-0.4 0-0.1 0.1-0.2 0.3-0.3 0.6-0.2 6-1.8 7.5-0.6 0.3 0.3 0.6 0.6 0.5 1.3q-0.2 1.2-1.2 1.7-0.5 0.3-1.2 0.3zm-4.5-2.2c2.5 1.2 4.5 1.7 5.4 1.2q0.6-0.3 0.7-1.1c0.1-0.4 0-0.5-0.1-0.6-0.8-0.7-3.8-0.1-6 0.5z"/>
				<path id="&lt;Compound Path&gt;" fill-rule="evenodd" class="s10" d="m280.5 751.9q-0.2 0-0.3-0.1-0.1-0.1-0.1-0.3c0.1-0.2 1.3-4.6 3.4-5.5q0.8-0.4 1.6-0.1c0.9 0.4 1 1 1 1.3-0.2 1.8-3.8 4.3-5.5 4.7q-0.1 0-0.1 0zm3.9-5.4q-0.3 0-0.6 0.1c-1.2 0.6-2.2 3-2.7 4.4 1.7-0.8 4.1-2.7 4.2-3.8 0-0.2 0-0.4-0.4-0.6q-0.3-0.1-0.5-0.1z"/>
				<path id="&lt;Compound Path&gt;" fill-rule="evenodd" class="s10" d="m314.5 762.5c-2.2 0-5.4-2.9-7.1-4.7-0.1-0.1-0.1-0.3 0-0.4 0-0.1 0.2-0.2 0.3-0.2 0.8 0.1 7.8 1 8.8 3q0.3 0.6-0.1 1.2-0.5 0.9-1.6 1.1-0.1 0-0.3 0zm-5.8-4.4c2.6 2.4 4.8 3.8 6 3.6q0.7 0 1.1-0.7 0.1-0.2 0-0.5c-0.5-1-4.2-2-7.1-2.4z"/>
				<path id="&lt;Compound Path&gt;" fill-rule="evenodd" class="s10" d="m309 758q-0.8 0-1.4-0.1-0.2 0-0.3-0.2 0-0.2 0.1-0.4c0.1-0.1 2.8-3.4 5.4-3.6q1.2-0.1 2 0.6c0.8 0.7 0.8 1.3 0.6 1.7-0.6 1.3-4.1 2-6.4 2zm-0.6-0.7c2.3 0.1 5.9-0.6 6.3-1.6 0.1-0.1 0.2-0.3-0.3-0.8q-0.7-0.5-1.6-0.5c-1.6 0.2-3.5 2-4.4 2.9z"/>
				<path id="&lt;Path&gt;" class="s7" d="m283.3 751.5c3 4.5 3.9 8.5 15 14.4 2.5 1.3 0.3 7.4-5.9 5.7-6.4-1.8-12.9-4.2-17.5-5.5-7.5-2.1-10.4-2.6-16.4-4.1-1.4-0.4-2.2-2.1-1.6-3.4l5.7-12.9c0.2-0.5 0.9-0.8 1.5-0.7l16.9 4.8c0.9 0.3 1.8 0.9 2.3 1.7z"/>
				<path id="&lt;Path&gt;" class="s7" d="m309.5 757.8c1.4 5.2 3.3 11 11.9 20.1 1.9 2.1-2.2 7.2-7.5 3.5-5.4-3.8-13.2-9.8-17.1-12.5-6.4-4.5-9.1-5.8-14.2-9.3-1.2-0.8-1.4-2.6-0.4-3.7l9.6-10.3c0.4-0.5 1.1-0.5 1.6-0.2l14.5 10.1c0.8 0.5 1.3 1.3 1.6 2.3z"/>
				<path id="&lt;Path&gt;" class="s7" d="m296.1 736.9l-26.1-13 2.7-7.1 27.9 13.7z"/>
				<g id="&lt;Group&gt;">
					<path id="&lt;Path&gt;" class="s7" d="m263.2 491.8h64.6c0.6 0 1.1 0.3 1.1 0.7l-0.6 5.7c0 0.4-0.5 0.6-1.1 0.6h-66.2c-0.7 0-1.2-0.4-1-0.9l2.2-5.7c0.2-0.2 0.6-0.4 1-0.4z"/>
					<path id="&lt;Path&gt;" class="s19" d="m263.2 491.8h64.6c0.6 0 1.1 0.3 1.1 0.7l-0.6 5.7c0 0.4-0.5 0.6-1.1 0.6h-66.2c-0.7 0-1.2-0.4-1-0.9l2.2-5.7c0.2-0.2 0.6-0.4 1-0.4z"/>
				</g>
				<g id="&lt;Group&gt;">
					<path id="&lt;Path&gt;" class="s7" d="m272.6 499.5h-1.7c-0.4 0-0.6-0.2-0.6-0.4l0.8-7.5c0-0.2 0.3-0.3 0.7-0.3h1.7c0.4 0 0.6 0.1 0.6 0.3l-0.8 7.5c0 0.2-0.3 0.4-0.7 0.4z"/>
					<path id="&lt;Path&gt;" class="s7" d="m313.4 499.5h-1.7c-0.3 0-0.6-0.2-0.6-0.4l0.8-7.5c0.1-0.2 0.4-0.3 0.7-0.3h1.7c0.4 0 0.6 0.1 0.6 0.3l-0.8 7.5c0 0.2-0.3 0.4-0.7 0.4z"/>
				</g>
			</g>
			<g id="&lt;Group&gt;">
				<g id="&lt;Group&gt;">
					<ellipse id="&lt;Path&gt;" class="s20" cx="271.1" cy="834.3" rx="53.6" ry="3.9"/>
					<path id="&lt;Path&gt;" class="s1" d="m303 834.3h-31.9-31.8c-3.3 0-3.9-4.6-0.8-5.5 9.5-2.8 19.9-6.3 26.4-10.1q0.2-0.1 0.5-0.2v-42.9h-19.1c-3.1 0-5.7-2.6-5.7-5.7 0-3.2 2.6-5.7 5.7-5.7h19.1v-195.7h11.4v195.7h19.1c3.1 0 5.7 2.5 5.7 5.7 0 3.1-2.6 5.7-5.7 5.7h-19.1v42.9q0.3 0.1 0.6 0.2c6.4 3.8 16.9 7.3 26.3 10.1 3.2 0.9 2.5 5.5-0.7 5.5z"/>
				</g>
				<g id="&lt;Group&gt;">
					<rect id="&lt;Path&gt;" class="s7" x="225.2" y="548.6" width="91.8" height="41.9" rx="10.4"></rect>
					<g id="&lt;Group&gt;">
						<path id="&lt;Path&gt;" class="s7" d="m307.3 590.5v3.6c0 3-3.2 5.5-7.2 5.5h-57.9c-4 0-7.3-2.5-7.3-5.5v-3.6z"/>
						<path id="&lt;Path&gt;" class="s21" d="m307.3 590.5v3.6c0 3-3.2 5.5-7.2 5.5h-57.9c-4 0-7.3-2.5-7.3-5.5v-3.6z"/>
					</g>
				</g>
			</g>
		</g>
	</g>
</svg>