<svg version="1.2" xmlns="http://www.w3.org/2000/svg" viewBox="0 0 1000 1000" width="1000" height="1000">
	<title>6343843-ai</title>
	<style>
		tspan { white-space:pre } 
		.s0 { fill: #ebebeb } 
		.s1 { fill: #e0e0e0 } 
		.s2 { fill: #f5f5f5 } 
		.s3 { fill: #e6e6e6 } 
		.s4 { fill: #263238 } 
		.s5 { opacity: .2;fill: #ffffff } 
		.s6 { fill: none;stroke: #263238;stroke-linecap: round;stroke-linejoin: round;stroke-width: 1.8 } 
		.s7 { fill: #ffffff } 
		.s8 { fill: #407bff } 
		.s9 { opacity: .3;fill: #ffffff } 
		.s10 { opacity: .4;fill: #ffffff } 
		.s11 { opacity: .5;fill: #ffffff } 
		.s12 { opacity: .7;fill: #ffffff } 
		.s13 { fill: #e9b376 } 
		.s14 { opacity: .2;fill: #000000 } 
		.s15 { fill: #ebb376 } 
		.s16 { fill: #ffb573 } 
		.s17 { fill: #ed893e } 
		.s18 { opacity: .6;fill: #ffffff } 
		.s19 { opacity: .3;fill: #000000 } 
		.s20 { fill: none;stroke: #ffffff;stroke-linecap: round;stroke-linejoin: round;stroke-width: 2 } 
	</style>
	<g id="Background Complete">
		<g id="&lt;Group&gt;">
			<path id="&lt;Path&gt;" class="s0" d="m1000 765.3h-1000v-0.5h1000z"/>
			<path id="&lt;Path&gt;" class="s0" d="m833.6 797h66.2v0.5h-66.2z"/>
			<path id="&lt;Path&gt;" class="s0" d="m645.1 802.4h17.3v0.5h-17.3z"/>
			<path id="&lt;Path&gt;" class="s0" d="m793.2 778.4h38.4v0.5h-38.4z"/>
			<path id="&lt;Path&gt;" class="s0" d="m104.9 781.8h86.4v0.5h-86.4z"/>
			<path id="&lt;Path&gt;" class="s0" d="m209.1 781.8h12.7v0.5h-12.7z"/>
			<path id="&lt;Path&gt;" class="s0" d="m262.9 790.2h187.4v0.5h-187.4z"/>
			<path id="&lt;Compound Path&gt;" fill-rule="evenodd" class="s0" d="m474 675.6h-386.2c-6.3 0-11.4-5.1-11.4-11.4v-542.9c0-6.3 5.1-11.4 11.4-11.4h386.2c6.3 0 11.4 5.1 11.4 11.4v542.9c0 6.3-5.1 11.4-11.4 11.4zm-386.2-565.2c-6 0-10.9 4.9-10.9 10.9v542.9c0 6 4.9 10.9 10.9 10.9h386.2c6 0 10.9-4.9 10.9-10.9v-542.9c0-6-4.9-10.9-10.9-10.9z"/>
			<path id="&lt;Compound Path&gt;" fill-rule="evenodd" class="s0" d="m906.6 675.6h-386.2c-6.3 0-11.4-5.1-11.4-11.4v-542.9c0-6.3 5.1-11.4 11.4-11.4h386.2c6.3 0 11.4 5.1 11.4 11.4v542.9c0 6.3-5.1 11.4-11.4 11.4zm-386.2-565.2c-6 0-10.9 4.9-10.9 10.9v542.9c0 6 4.9 10.9 10.9 10.9h386.2c6 0 10.9-4.9 10.9-10.9v-542.9c0-6-4.9-10.9-10.9-10.9z"/>
		</g>
		<g id="&lt;Group&gt;">
			<path id="&lt;Path&gt;" class="s1" d="m163.1 730.7c-0.5-5.7 0.3-13.1 7-15.3 11.3-3.8 18-12.5 17.6-22.4-0.4-9.9 11.5-19.6 20.5-10.3 8.9 9.3 7.7-7.1 19.6-11.1 11.9-4 22 5.7 18.7 14.5-3.2 8.9 8.5 14.4 22.6 6.9 14-7.5 29.5 6.1 26.5 16.8-2.9 10.8-0.5 11.9 8.4 8.4 7.2-2.9 18.9 3.1 20.2 12.5z"/>
			<path id="&lt;Path&gt;" class="s1" d="m724.1 730.7c-0.5-4.5-0.3-11.1 5.3-13 8.8-2.9 14-9.7 13.7-17.4-0.3-7.7 9-15.1 15.9-7.9 6.9 7.2 6-5.6 15.2-8.7 9.3-3.1 17.1 4.4 14.6 11.3-2.5 6.9 6.6 11.2 17.5 5.3 10.9-5.8 22.9 4.8 20.6 13.1-2.3 8.3-0.4 9.3 6.5 6.5 5.8-2.4 15.6 2.9 15.8 10.8z"/>
			<path id="&lt;Path&gt;" class="s1" d="m781.6 730.7h-205.4c-2.9-9.7 4.6-21.2 12.7-22.8 10-2 20.1-19.6 20.6-30.8 0.4-11.2 18.4-45.7 46.4-24.4 28 21.3 19.5 3.1 39.8-2.9 20.2-5.9 33 11.2 24.1 24.1q20.4-5 28.8 14 8.3 19 0 30.8 25.7-0.8 33 12z"/>
			<path id="&lt;Path&gt;" class="s2" d="m399.1 201.2h-60.5c-9.1 0-16.5-7.4-16.5-16.5 0-9.1 7.4-16.5 16.5-16.5q0.2 0 0.3 0.1c0.2-9.8 8.1-17.7 17.9-17.7 6.5 0 12.1 3.5 15.3 8.6q1.8-0.3 3.7-0.3c11.3 0 20.5 9.1 20.5 20.4q0 1.5-0.2 3 1.3-0.4 2.7-0.4c5.4 0 9.7 4.3 9.7 9.6 0 5.3-4.2 9.5-9.4 9.7z"/>
			<path id="&lt;Path&gt;" class="s2" d="m757.6 258.1v0.1h-60.5c-9.1 0-16.5-7.4-16.5-16.5 0-9.1 7.4-16.5 16.5-16.5q0.1 0 0.3 0c0.1-9.7 8.1-17.6 17.9-17.6 6.4 0 12.1 3.4 15.2 8.6q1.9-0.4 3.8-0.4c11.3 0 20.5 9.2 20.5 20.5q-0.1 1.5-0.3 2.9 1.4-0.4 2.8-0.4c5.3 0 9.7 4.4 9.7 9.7 0 5.2-4.2 9.5-9.4 9.6z"/>
			<path id="&lt;Path&gt;" class="s2" d="m541.9 226.5h-37.6c-5.7 0-10.3-4.6-10.3-10.3 0-5.6 4.6-10.2 10.3-10.2q0.1 0 0.2 0c0.1-6.1 5-11 11.1-11 4 0 7.5 2.2 9.5 5.4q1.1-0.2 2.3-0.2c7 0 12.7 5.7 12.7 12.7q0 0.9-0.1 1.8 0.8-0.2 1.7-0.2c3.3 0 6 2.7 6 6 0 3.2-2.6 5.9-5.8 6z"/>
			<path id="&lt;Path&gt;" class="s2" d="m855.6 214.7l0.1 0.1h-37.7c-5.6 0-10.2-4.6-10.2-10.3 0-5.7 4.6-10.2 10.2-10.2q0.1 0 0.2 0c0.1-6.1 5-11 11.1-11 4.1 0 7.6 2.2 9.5 5.3q1.2-0.2 2.4-0.2c7 0 12.7 5.7 12.7 12.7q0 1-0.1 1.9 0.8-0.3 1.7-0.3c3.3 0 6 2.7 6 6 0 3.3-2.6 6-5.9 6z"/>
			<path id="&lt;Path&gt;" class="s2" d="m204 251h-37.6c-5.7 0-10.3-4.5-10.3-10.2 0-5.7 4.6-10.2 10.3-10.2q0.1 0 0.2 0c0.1-6.1 5-11 11.1-11 4 0 7.5 2.1 9.5 5.3q1.1-0.2 2.3-0.2c7.1 0 12.8 5.7 12.8 12.7q-0.1 1-0.2 1.9 0.8-0.3 1.7-0.3c3.4 0 6 2.7 6 6 0 3.3-2.6 6-5.8 6z"/>
			<g id="&lt;Group&gt;">
				<path id="&lt;Path&gt;" class="s0" d="m750.9 419.5c-4.1-1.9-5-4.3-9.6-3.7-3.3 0.4-5.7 2.7-9.3 2.4-0.5-0.1-1-0.1-1.4-0.4-0.5-0.2-0.8-0.7-1.1-1.1-3.2-4.6-5.8-2.7-11-3-0.4 0-0.9 0-1.2-0.3-0.3-0.3-0.4-0.8-0.5-1.2-0.1-1.3 0-2.7 0.4-3.9 0.2-0.7 0.4-1.4 0.2-2.1-0.3-0.9-1.4-1.2-2.3-1.6-3.8-1.9-5-7.6-2.2-10.8 1-1.2 2.6-2.3 2.2-3.9-0.4-1.6-2.6-1.9-4.1-2.7-3.7-1.9-3.2-8.9-0.4-11.3 1.6-1.4 3.7-3.2 3-5.2-0.6-1.7-2.6-2.2-3.8-3.5-2.4-2.6-0.2-6.8 2.6-9 2.8-2.1 6.4-3.8 7.6-7.1 0.3-0.9 0.4-1.8 0.9-2.6 1.8-2.5 5.6-0.9 8.1 0.9 2.4 1.8 6.3 3.4 8 0.9 0.9-1.5 0.4-3.6 1.3-5 1.6-2.5 5.5-1.4 7.7 0.5 2.2 1.9 4.7 4.4 7.5 3.8 2.5-0.6 4-3.4 6.5-3.7 2.6-0.4 4.7 2.3 5.4 4.9 0.6 2.6 0.6 5.4 2 7.7 3.8-0.7 9.1-0.6 10 3.2 0.6 2.5-1.4 4.8-2.9 6.8-1.6 2-2.9 5-1.3 6.9 2.6 0.1 5.4 0.4 7.5 1.9 2.2 1.6 3.5 4.6 2.2 7-0.9 1.7-2.9 2.6-4.8 3.3-10 4 3.1 16.5-1.8 17.3-6.3 1.1-13.8-0.1-14.2 7.7q-0.2 2-0.6 3.7c-1.2 4.3-4.3 6.2-10.6 3.2z"/>
				<path id="&lt;Path&gt;" class="s0" d="m690.3 412.9c-4-1.9-5-4.2-9.6-3.6-3.3 0.4-5.6 2.6-9.2 2.3-0.5 0-1.1-0.1-1.5-0.3-0.4-0.3-0.8-0.7-1.1-1.2-3.2-4.5-5.7-2.7-11-2.9-0.4 0-0.8-0.1-1.1-0.3-0.4-0.3-0.5-0.8-0.5-1.3-0.1-1.3 0-2.6 0.3-3.9 0.2-0.6 0.5-1.4 0.2-2-0.3-0.9-1.3-1.3-2.2-1.7-3.8-1.8-5-7.6-2.2-10.8 1-1.1 2.5-2.3 2.2-3.8-0.4-1.7-2.6-1.9-4.2-2.7-3.6-2-3.1-9-0.4-11.3 1.7-1.4 3.8-3.2 3.1-5.3-0.6-1.6-2.7-2.1-3.8-3.4-2.4-2.6-0.2-6.9 2.6-9 2.8-2.1 6.4-3.8 7.6-7.1 0.3-0.9 0.4-1.9 0.9-2.6 1.7-2.5 5.6-0.9 8 0.9 2.5 1.8 6.4 3.4 8.1 0.8 0.9-1.4 0.4-3.5 1.3-5 1.5-2.5 5.4-1.3 7.6 0.6 2.3 1.9 4.7 4.4 7.6 3.7 2.4-0.6 3.9-3.4 6.4-3.7 2.7-0.3 4.7 2.4 5.4 5 0.7 2.6 0.7 5.4 2.1 7.7 3.8-0.8 9-0.6 9.9 3.1 0.6 2.5-1.3 4.8-2.9 6.8-1.6 2.1-2.9 5-1.3 7 2.7 0.1 5.4 0.4 7.6 1.9 2.2 1.5 3.4 4.6 2.2 6.9-1 1.8-3 2.6-4.8 3.4-10 4 3.1 16.5-1.9 17.3-6.3 1.1-13.7-0.2-14.2 7.6q-0.1 2.1-0.5 3.8c-1.2 4.3-4.3 6.1-10.7 3.1z"/>
				<path id="&lt;Path&gt;" class="s0" d="m684.5 374.4c-4-1.9-5-4.3-9.6-3.7-3.3 0.4-5.7 2.7-9.3 2.4-0.5 0-1-0.1-1.4-0.4-0.5-0.2-0.8-0.7-1.1-1.1-3.2-4.6-5.8-2.7-11-3-0.4 0-0.9 0-1.2-0.3-0.3-0.3-0.4-0.8-0.4-1.2-0.2-1.3 0-2.7 0.3-3.9 0.2-0.7 0.4-1.4 0.2-2.1-0.3-0.9-1.4-1.2-2.3-1.6-3.8-1.9-5-7.6-2.2-10.8 1-1.2 2.6-2.3 2.2-3.9-0.3-1.6-2.6-1.9-4.1-2.7-3.6-1.9-3.1-8.9-0.4-11.3 1.7-1.4 3.8-3.2 3-5.2-0.6-1.7-2.6-2.2-3.8-3.5-2.4-2.6-0.1-6.8 2.7-9 2.8-2.1 6.4-3.8 7.5-7.1 0.3-0.9 0.4-1.8 1-2.6 1.7-2.5 5.6-0.9 8 0.9 2.4 1.8 6.4 3.4 8 0.9 1-1.5 0.4-3.6 1.3-5 1.6-2.5 5.5-1.4 7.7 0.5 2.2 1.9 4.7 4.4 7.5 3.8 2.5-0.6 4-3.4 6.5-3.7 2.6-0.4 4.7 2.4 5.4 4.9 0.7 2.6 0.6 5.4 2 7.7 3.8-0.7 9.1-0.6 10 3.2 0.6 2.5-1.4 4.8-2.9 6.8-1.6 2-2.9 5-1.3 6.9 2.6 0.1 5.4 0.4 7.6 1.9 2.1 1.6 3.4 4.6 2.1 7-0.9 1.7-2.9 2.6-4.8 3.3-9.9 4 3.2 16.5-1.8 17.3-6.3 1.1-13.8-0.1-14.2 7.7q-0.1 2.1-0.6 3.7c-1.2 4.3-4.3 6.2-10.6 3.2z"/>
				<path id="&lt;Path&gt;" class="s0" d="m644.6 393.6c-4-1.9-5-4.3-9.6-3.7-3.3 0.4-5.6 2.7-9.2 2.4-0.6 0-1.1-0.1-1.5-0.4-0.5-0.2-0.8-0.7-1.1-1.1-3.2-4.6-5.7-2.7-11-3-0.4 0-0.8 0-1.2-0.3-0.3-0.3-0.4-0.8-0.4-1.2-0.1-1.3 0-2.7 0.3-3.9 0.2-0.7 0.5-1.4 0.2-2.1-0.3-0.9-1.4-1.2-2.2-1.6-3.9-1.9-5-7.6-2.3-10.8 1.1-1.2 2.6-2.3 2.3-3.8-0.4-1.7-2.7-2-4.2-2.8-3.6-1.9-3.1-8.9-0.4-11.3 1.7-1.4 3.8-3.2 3-5.2-0.5-1.7-2.6-2.2-3.8-3.5-2.3-2.6-0.1-6.8 2.7-9 2.8-2.1 6.4-3.8 7.5-7.1 0.3-0.9 0.5-1.8 1-2.6 1.7-2.5 5.6-0.9 8 0.9 2.5 1.8 6.4 3.4 8 0.9 1-1.5 0.4-3.6 1.4-5 1.5-2.5 5.4-1.3 7.6 0.5 2.3 1.9 4.7 4.4 7.6 3.8 2.4-0.6 3.9-3.4 6.4-3.7 2.7-0.4 4.7 2.4 5.4 4.9 0.7 2.6 0.7 5.5 2.1 7.7 3.7-0.7 9-0.6 9.9 3.2 0.6 2.5-1.3 4.8-2.9 6.8-1.6 2-2.9 5-1.3 7 2.7 0 5.4 0.3 7.6 1.9 2.1 1.5 3.4 4.5 2.2 6.9-1 1.7-3 2.6-4.8 3.3-10 4 3.1 16.5-1.9 17.3-6.3 1.1-13.7-0.1-14.2 7.7q-0.1 2.1-0.6 3.7c-1.2 4.3-4.2 6.2-10.6 3.2z"/>
				<path id="&lt;Path&gt;" class="s0" d="m604.3 384.7c-4-1.9-5-4.2-9.6-3.7-3.3 0.5-5.6 2.7-9.3 2.4-0.5 0-1-0.1-1.4-0.3-0.5-0.3-0.8-0.8-1.1-1.2-3.2-4.6-5.7-2.7-11-2.9-0.4-0.1-0.8-0.1-1.2-0.4-0.3-0.3-0.4-0.7-0.4-1.2-0.2-1.3 0-2.6 0.3-3.9 0.2-0.7 0.5-1.4 0.2-2-0.3-0.9-1.4-1.3-2.2-1.7-3.9-1.8-5-7.6-2.3-10.8 1.1-1.1 2.6-2.3 2.3-3.8-0.4-1.7-2.7-2-4.2-2.8-3.6-1.9-3.1-8.9-0.4-11.2 1.7-1.4 3.8-3.3 3-5.3-0.5-1.6-2.6-2.2-3.8-3.4-2.3-2.7-0.1-6.9 2.7-9 2.8-2.2 6.4-3.8 7.5-7.1 0.3-0.9 0.5-1.9 1-2.7 1.7-2.5 5.6-0.8 8 1 2.4 1.8 6.4 3.3 8 0.8 1-1.5 0.4-3.5 1.4-5 1.5-2.5 5.4-1.3 7.6 0.6 2.2 1.9 4.7 4.4 7.5 3.7 2.5-0.6 4-3.4 6.5-3.7 2.7-0.3 4.7 2.4 5.4 5 0.7 2.5 0.6 5.4 2 7.7 3.8-0.8 9.1-0.6 10 3.1 0.6 2.5-1.3 4.8-2.9 6.8-1.6 2-2.9 5-1.3 7 2.7 0 5.4 0.4 7.6 1.9 2.1 1.5 3.4 4.6 2.2 6.9-1 1.7-3 2.6-4.9 3.3-9.9 4.1 3.2 16.6-1.8 17.4-6.3 1-13.7-0.2-14.2 7.6q-0.1 2.1-0.6 3.7c-1.2 4.4-4.2 6.2-10.6 3.2z"/>
				<path id="&lt;Path&gt;" class="s0" d="m606 427.2c-3.1-1.5-3.9-3.4-7.5-2.9-2.6 0.3-4.5 2.1-7.3 1.8-0.4 0-0.8 0-1.2-0.2-0.3-0.3-0.6-0.6-0.8-1-2.5-3.6-4.5-2.1-8.7-2.3-0.3 0-0.6 0-0.9-0.2-0.3-0.3-0.3-0.6-0.4-1-0.1-1 0-2.1 0.3-3.1 0.2-0.5 0.4-1.1 0.2-1.6-0.3-0.7-1.1-1-1.8-1.3-3-1.4-4-6-1.8-8.5 0.8-0.9 2.1-1.8 1.8-3-0.3-1.3-2.1-1.5-3.3-2.2-2.8-1.5-2.4-7-0.3-8.8 1.3-1.1 3-2.6 2.4-4.2-0.5-1.3-2.1-1.7-3-2.7-1.9-2-0.1-5.4 2.1-7.1 2.2-1.6 5-3 5.9-5.6 0.3-0.7 0.4-1.4 0.8-2 1.3-2 4.4-0.7 6.3 0.7 1.9 1.4 5 2.7 6.3 0.7 0.8-1.2 0.3-2.8 1.1-4 1.2-1.9 4.2-1 6 0.5 1.7 1.5 3.7 3.4 5.9 2.9 1.9-0.5 3.1-2.7 5.1-2.9 2.1-0.3 3.7 1.9 4.2 3.9 0.6 2 0.6 4.3 1.7 6.1 2.9-0.6 7.1-0.5 7.8 2.4 0.5 2-1.1 3.8-2.3 5.4-1.2 1.6-2.3 3.9-1 5.5 2.1 0 4.3 0.3 6 1.5 1.7 1.2 2.7 3.6 1.7 5.4-0.8 1.4-2.4 2.1-3.8 2.7-7.9 3.1 2.4 13-1.4 13.6-5 0.8-10.9-0.1-11.2 6q-0.1 1.7-0.5 3c-0.9 3.4-3.4 4.8-8.4 2.5z"/>
				<path id="&lt;Path&gt;" class="s0" d="m581.2 412.9c-4-1.9-5-4.2-9.6-3.6-3.3 0.4-5.7 2.6-9.3 2.3-0.5 0-1-0.1-1.4-0.3-0.5-0.3-0.8-0.7-1.1-1.2-3.2-4.5-5.8-2.7-11-2.9-0.4 0-0.9-0.1-1.2-0.3-0.3-0.3-0.4-0.8-0.4-1.3-0.2-1.3 0-2.6 0.3-3.9 0.2-0.6 0.4-1.4 0.2-2-0.3-0.9-1.4-1.3-2.3-1.7-3.8-1.8-5-7.6-2.2-10.8 1-1.1 2.6-2.3 2.2-3.8-0.3-1.7-2.6-1.9-4.1-2.7-3.6-2-3.1-9-0.4-11.3 1.7-1.4 3.8-3.2 3-5.3-0.6-1.6-2.6-2.1-3.8-3.4-2.4-2.6-0.1-6.9 2.7-9 2.8-2.1 6.4-3.8 7.5-7.1 0.3-0.9 0.4-1.9 1-2.6 1.7-2.5 5.6-0.9 8 0.9 2.4 1.8 6.4 3.4 8 0.8 1-1.4 0.4-3.5 1.3-5 1.6-2.5 5.5-1.3 7.7 0.6 2.2 1.9 4.7 4.4 7.5 3.7 2.5-0.6 4-3.4 6.5-3.7 2.6-0.3 4.7 2.4 5.4 5 0.7 2.6 0.6 5.4 2 7.7 3.8-0.8 9.1-0.6 10 3.1 0.6 2.5-1.4 4.8-2.9 6.8-1.6 2.1-2.9 5-1.3 7 2.6 0.1 5.4 0.4 7.6 1.9 2.1 1.5 3.4 4.6 2.1 6.9-0.9 1.8-2.9 2.6-4.8 3.4-9.9 4 3.2 16.5-1.8 17.3-6.3 1.1-13.7-0.2-14.2 7.6q-0.1 2.1-0.6 3.8c-1.2 4.3-4.2 6.1-10.6 3.1z"/>
				<path id="&lt;Path&gt;" class="s0" d="m644.6 346.2c-4-1.9-5-4.3-9.6-3.7-3.3 0.4-5.6 2.7-9.2 2.4-0.6-0.1-1.1-0.1-1.5-0.4-0.5-0.3-0.8-0.7-1.1-1.2-3.2-4.5-5.7-2.7-11-2.9-0.4 0-0.8-0.1-1.2-0.3-0.3-0.3-0.4-0.8-0.4-1.2-0.1-1.4 0-2.7 0.3-3.9 0.2-0.7 0.5-1.4 0.2-2.1-0.3-0.9-1.4-1.2-2.2-1.7-3.9-1.8-5-7.5-2.3-10.7 1.1-1.2 2.6-2.4 2.3-3.9-0.4-1.7-2.7-1.9-4.2-2.7-3.6-1.9-3.1-8.9-0.4-11.3 1.7-1.4 3.8-3.2 3-5.3-0.5-1.6-2.6-2.1-3.8-3.4-2.3-2.6-0.1-6.9 2.7-9 2.8-2.1 6.4-3.8 7.5-7.1 0.3-0.9 0.5-1.8 1-2.6 1.7-2.5 5.6-0.9 8 0.9 2.5 1.8 6.4 3.4 8 0.9 1-1.5 0.4-3.6 1.4-5.1 1.5-2.4 5.4-1.3 7.6 0.6 2.3 1.9 4.7 4.4 7.6 3.7 2.4-0.5 3.9-3.4 6.4-3.7 2.7-0.3 4.7 2.4 5.4 5 0.7 2.6 0.7 5.4 2.1 7.7 3.7-0.7 9-0.6 9.9 3.2 0.6 2.4-1.3 4.7-2.9 6.8-1.6 2-2.9 5-1.3 6.9 2.7 0.1 5.4 0.4 7.6 1.9 2.1 1.5 3.4 4.6 2.2 6.9-1 1.8-3 2.6-4.8 3.4-10 4 3.1 16.5-1.9 17.3-6.3 1.1-13.7-0.2-14.2 7.6q-0.1 2.1-0.6 3.8c-1.2 4.3-4.2 6.2-10.6 3.2z"/>
				<path id="&lt;Path&gt;" class="s0" d="m696.4 348.8c-4-1.9-5-4.2-9.6-3.7-3.3 0.5-5.7 2.7-9.3 2.4-0.5 0-1-0.1-1.4-0.3-0.5-0.3-0.8-0.8-1.1-1.2-3.2-4.6-5.8-2.7-11-3-0.4 0-0.9 0-1.2-0.3-0.3-0.3-0.4-0.8-0.4-1.2-0.2-1.3 0-2.6 0.3-3.9 0.2-0.7 0.4-1.4 0.2-2-0.3-0.9-1.4-1.3-2.3-1.7-3.8-1.8-5-7.6-2.2-10.8 1-1.1 2.6-2.3 2.2-3.8-0.3-1.7-2.6-2-4.1-2.8-3.6-1.9-3.1-8.9-0.4-11.2 1.7-1.4 3.8-3.3 3-5.3-0.6-1.7-2.6-2.2-3.8-3.5-2.4-2.6-0.1-6.8 2.7-8.9 2.8-2.2 6.4-3.8 7.5-7.2 0.3-0.8 0.4-1.8 1-2.6 1.7-2.5 5.6-0.8 8 1 2.4 1.8 6.4 3.3 8 0.8 1-1.5 0.4-3.5 1.3-5 1.6-2.5 5.5-1.3 7.7 0.6 2.2 1.8 4.7 4.4 7.5 3.7 2.5-0.6 4-3.4 6.5-3.7 2.6-0.3 4.7 2.4 5.4 5 0.7 2.5 0.6 5.4 2 7.6 3.8-0.7 9.1-0.6 10 3.2 0.6 2.5-1.4 4.8-2.9 6.8-1.6 2-2.9 5-1.3 7 2.6 0 5.4 0.3 7.6 1.9 2.1 1.5 3.4 4.6 2.1 6.9-0.9 1.7-2.9 2.6-4.8 3.3-9.9 4.1 3.2 16.5-1.8 17.4-6.3 1-13.8-0.2-14.2 7.6q-0.1 2.1-0.6 3.7c-1.2 4.4-4.3 6.2-10.6 3.2z"/>
				<path id="&lt;Path&gt;" class="s0" d="m727.8 370c-4-1.9-5-4.3-9.5-3.7-3.3 0.5-5.7 2.7-9.3 2.4-0.5 0-1-0.1-1.5-0.4-0.4-0.2-0.8-0.7-1.1-1.1-3.2-4.6-5.7-2.7-11-3-0.4 0-0.8 0-1.1-0.3-0.4-0.3-0.5-0.8-0.5-1.2-0.1-1.3 0-2.6 0.4-3.9 0.1-0.7 0.4-1.4 0.2-2-0.4-1-1.4-1.3-2.3-1.7-3.8-1.9-5-7.6-2.2-10.8 1-1.2 2.5-2.3 2.2-3.8-0.4-1.7-2.6-2-4.2-2.8-3.6-1.9-3.1-8.9-0.3-11.2 1.6-1.4 3.7-3.3 3-5.3-0.6-1.7-2.7-2.2-3.8-3.5-2.4-2.6-0.2-6.8 2.6-8.9 2.8-2.2 6.4-3.8 7.6-7.2 0.3-0.8 0.4-1.8 0.9-2.6 1.7-2.5 5.6-0.8 8 1 2.5 1.8 6.4 3.3 8.1 0.8 0.9-1.5 0.4-3.5 1.3-5 1.5-2.5 5.4-1.3 7.7 0.6 2.2 1.8 4.6 4.3 7.5 3.7 2.4-0.6 4-3.4 6.4-3.7 2.7-0.3 4.7 2.4 5.4 4.9 0.7 2.6 0.7 5.5 2.1 7.7 3.8-0.7 9-0.6 9.9 3.2 0.6 2.5-1.3 4.8-2.9 6.8-1.5 2-2.9 5-1.2 7 2.6 0 5.4 0.3 7.5 1.9 2.2 1.5 3.4 4.5 2.2 6.9-1 1.7-3 2.6-4.8 3.3-10 4.1 3.1 16.5-1.8 17.4-6.4 1-13.8-0.2-14.3 7.6q-0.1 2.1-0.5 3.7c-1.2 4.4-4.3 6.2-10.7 3.2z"/>
				<path id="&lt;Path&gt;" class="s3" d="m728.9 393.6q-13.1 18.6-17.7 24.5c-4.5 5.9-27.2 42.6-30.3 66.9-0.3 2.6-0.6 4.9-0.9 6.8 9.7 64.4 8.2 182.2 7.9 202.4h-30.9c-0.3-22.8-3-230.7-3.9-237-1.1-6.7-14-32.3-33.9-42.8q-20-10.5-37.2-45.3h6.3q11.8 21.3 28.6 33.1c2.4 1.7 5 3.2 7.6 4.5q-0.6-19.2 6.6-37.6l3.5 3.2c-4.7 19-4.1 31.1-2.7 38.1 5.7 2.8 11.5 6.1 17.4 11.6q17.4-22.6 27.2-74.4l4.4 2.5q-1.4 14-5.7 31.7c-3.3 13.4-12.9 38.6-17.3 50.1 4.4 6.2 8.8 14.1 13.1 24.7q0.7-1.2 1.7-2 11.3-10.3 32.6-58.7 5.2-11.3-2.7-40.8h6l2.6 25.8 15-16.3 2.7 2.3-15.8 20.4-8.2 25.8 21.3-23.6z"/>
			</g>
			<g id="&lt;Group&gt;">
				<path id="&lt;Path&gt;" class="s0" d="m167.3 485.7q-0.3-1.3-0.4-2.9c-0.4-6-6.1-5-10.9-5.9-3.8-0.6 6.2-10.2-1.4-13.3-1.5-0.5-3-1.2-3.7-2.5-1-1.8 0-4.2 1.6-5.3 1.7-1.2 3.8-1.4 5.8-1.5 1.3-1.5 0.3-3.8-0.9-5.3-1.2-1.6-2.7-3.3-2.3-5.3 0.7-2.8 4.8-2.9 7.7-2.4 1-1.7 1-3.9 1.5-5.9 0.6-2 2.1-4 4.2-3.8 1.9 0.2 3.1 2.4 4.9 2.9 2.2 0.5 4.1-1.5 5.8-2.9 1.7-1.5 4.7-2.4 5.9-0.5 0.7 1.2 0.3 2.8 1 3.9 1.3 1.9 4.3 0.7 6.2-0.6 1.8-1.4 4.8-2.7 6.1-0.8 0.4 0.6 0.5 1.4 0.8 2 0.8 2.6 3.6 3.9 5.7 5.5 2.2 1.6 3.9 4.9 2.1 6.9-0.9 1-2.5 1.4-2.9 2.6-0.6 1.6 1 3 2.3 4.1 2.1 1.8 2.5 7.2-0.3 8.6-1.2 0.7-2.9 0.8-3.2 2.1-0.3 1.2 0.9 2.1 1.7 3 2.1 2.4 1.2 6.8-1.7 8.3-0.7 0.3-1.5 0.5-1.7 1.2-0.2 0.5 0 1.1 0.1 1.6 0.3 1 0.4 2 0.3 3-0.1 0.3-0.1 0.7-0.4 0.9-0.2 0.2-0.6 0.3-0.9 0.3-4 0.2-5.9-1.3-8.4 2.2-0.2 0.4-0.5 0.7-0.9 0.9-0.3 0.2-0.7 0.3-1.1 0.3-2.7 0.2-4.5-1.5-7.1-1.8-3.5-0.5-4.2 1.3-7.3 2.8-4.9 2.3-7.3 0.9-8.2-2.4z"/>
				<path id="&lt;Path&gt;" class="s0" d="m213.8 480.6q-0.4-1.2-0.5-2.8c-0.3-6-6-5.1-10.9-5.9-3.8-0.6 6.3-10.2-1.4-13.3-1.4-0.6-2.9-1.2-3.7-2.5-0.9-1.8 0-4.2 1.7-5.3 1.6-1.2 3.8-1.5 5.8-1.5 1.2-1.5 0.2-3.8-1-5.4-1.2-1.5-2.7-3.3-2.2-5.2 0.7-2.9 4.7-3 7.6-2.4 1.1-1.7 1.1-3.9 1.6-5.9 0.5-2 2.1-4.1 4.1-3.8 1.9 0.2 3.1 2.4 5 2.8 2.2 0.5 4.1-1.4 5.8-2.8 1.7-1.5 4.7-2.4 5.8-0.5 0.8 1.2 0.3 2.8 1.1 3.9 1.2 1.9 4.2 0.7 6.1-0.7 1.9-1.3 4.9-2.6 6.2-0.7 0.4 0.6 0.5 1.4 0.7 2 0.9 2.6 3.6 3.8 5.8 5.5 2.1 1.6 3.9 4.9 2 6.9-0.9 1-2.4 1.4-2.9 2.6-0.5 1.6 1.1 3 2.3 4.1 2.1 1.8 2.5 7.1-0.3 8.6-1.1 0.6-2.9 0.8-3.2 2.1-0.2 1.2 1 2.1 1.7 3 2.2 2.4 1.3 6.8-1.7 8.2-0.6 0.4-1.4 0.6-1.7 1.3-0.2 0.5 0 1.1 0.2 1.6 0.2 0.9 0.3 2 0.2 3 0 0.3-0.1 0.7-0.3 0.9-0.3 0.2-0.6 0.2-0.9 0.3-4.1 0.1-6-1.3-8.5 2.2-0.2 0.4-0.4 0.7-0.8 0.9-0.3 0.2-0.7 0.3-1.1 0.3-2.8 0.2-4.6-1.5-7.1-1.8-3.5-0.5-4.3 1.3-7.4 2.8-4.9 2.3-7.2 0.9-8.1-2.5z"/>
				<path id="&lt;Path&gt;" class="s0" d="m218.2 451.1q-0.3-1.3-0.4-2.9c-0.4-6-6.1-5-10.9-5.9-3.8-0.6 6.2-10.2-1.4-13.3-1.4-0.5-3-1.2-3.7-2.5-1-1.8 0-4.2 1.7-5.3 1.6-1.2 3.7-1.4 5.8-1.5 1.2-1.5 0.2-3.8-1-5.3-1.2-1.6-2.7-3.3-2.2-5.3 0.7-2.8 4.7-2.9 7.6-2.4 1.1-1.7 1.1-3.9 1.6-5.9 0.5-2 2.1-4 4.1-3.8 1.9 0.2 3.1 2.4 5 2.9 2.1 0.5 4-1.5 5.7-2.9 1.8-1.5 4.7-2.4 5.9-0.5 0.7 1.2 0.3 2.8 1 3.9 1.3 1.9 4.3 0.7 6.2-0.6 1.9-1.4 4.8-2.7 6.2-0.8 0.4 0.6 0.4 1.4 0.7 2 0.9 2.6 3.6 3.9 5.8 5.5 2.1 1.6 3.8 4.9 2 6.9-0.9 1-2.5 1.4-2.9 2.6-0.6 1.6 1 3 2.3 4.1 2.1 1.8 2.5 7.2-0.3 8.6-1.2 0.7-2.9 0.8-3.2 2.1-0.2 1.2 0.9 2.1 1.7 3 2.2 2.4 1.3 6.8-1.7 8.2-0.6 0.4-1.5 0.6-1.7 1.3-0.2 0.5 0 1.1 0.1 1.6 0.3 1 0.4 2 0.3 3 0 0.3-0.1 0.7-0.4 0.9-0.2 0.2-0.5 0.3-0.8 0.3-4.1 0.2-6-1.3-8.5 2.2-0.2 0.4-0.5 0.7-0.8 0.9-0.4 0.2-0.8 0.3-1.1 0.3-2.8 0.2-4.6-1.5-7.2-1.8-3.5-0.5-4.2 1.3-7.3 2.8-4.9 2.3-7.2 0.9-8.2-2.4z"/>
				<path id="&lt;Path&gt;" class="s0" d="m248.8 465.8q-0.3-1.3-0.4-2.9c-0.4-6-6.1-5-10.9-5.8-3.8-0.7 6.2-10.2-1.4-13.3-1.4-0.6-3-1.2-3.7-2.6-1-1.8 0-4.1 1.7-5.3 1.6-1.2 3.7-1.4 5.8-1.5 1.2-1.5 0.2-3.8-1-5.3-1.2-1.5-2.7-3.3-2.2-5.2 0.7-2.9 4.7-3 7.6-2.4 1.1-1.8 1.1-4 1.6-5.9 0.5-2 2.1-4.1 4.1-3.9 1.9 0.3 3.1 2.4 5 2.9 2.1 0.5 4-1.4 5.7-2.9 1.8-1.4 4.7-2.3 5.9-0.4 0.7 1.1 0.3 2.7 1 3.8 1.3 2 4.3 0.8 6.2-0.6 1.9-1.4 4.8-2.6 6.2-0.7 0.4 0.6 0.4 1.3 0.7 2 0.9 2.5 3.6 3.8 5.8 5.4 2.1 1.7 3.8 4.9 2 6.9-0.9 1-2.5 1.4-2.9 2.7-0.6 1.5 1 2.9 2.3 4 2.1 1.8 2.5 7.2-0.3 8.7-1.2 0.6-2.9 0.8-3.2 2.1-0.2 1.1 0.9 2 1.7 2.9 2.2 2.5 1.3 6.9-1.7 8.3-0.6 0.3-1.5 0.6-1.7 1.3-0.2 0.5 0 1 0.1 1.5 0.3 1 0.4 2 0.3 3 0 0.4-0.1 0.7-0.4 1-0.2 0.2-0.5 0.2-0.8 0.2-4.1 0.2-6-1.2-8.5 2.3-0.2 0.3-0.5 0.7-0.8 0.9-0.4 0.2-0.8 0.2-1.1 0.2-2.8 0.3-4.6-1.5-7.2-1.8-3.5-0.4-4.2 1.4-7.3 2.8-4.9 2.3-7.2 0.9-8.2-2.4z"/>
				<path id="&lt;Path&gt;" class="s0" d="m279.8 459q-0.4-1.3-0.5-2.9c-0.3-6-6-5-10.9-5.8-3.8-0.7 6.3-10.2-1.4-13.3-1.4-0.6-2.9-1.3-3.7-2.6-0.9-1.8 0-4.1 1.7-5.3 1.6-1.2 3.8-1.4 5.8-1.5 1.2-1.5 0.2-3.8-1-5.3-1.2-1.6-2.7-3.3-2.2-5.2 0.7-2.9 4.7-3 7.6-2.4 1.1-1.8 1.1-4 1.6-5.9 0.5-2 2.1-4.1 4.1-3.9 1.9 0.3 3.1 2.4 5 2.9 2.2 0.5 4.1-1.4 5.8-2.9 1.7-1.4 4.7-2.3 5.8-0.4 0.8 1.1 0.3 2.7 1.1 3.8 1.2 2 4.2 0.8 6.1-0.6 1.9-1.4 4.9-2.6 6.2-0.7 0.4 0.6 0.5 1.3 0.7 2 0.9 2.5 3.7 3.8 5.8 5.4 2.1 1.7 3.9 4.9 2 6.9-0.9 1-2.4 1.4-2.9 2.7-0.5 1.5 1.1 2.9 2.3 4 2.1 1.8 2.5 7.2-0.3 8.7-1.1 0.6-2.9 0.8-3.1 2.1-0.3 1.1 0.9 2 1.6 2.9 2.2 2.5 1.3 6.9-1.7 8.3-0.6 0.3-1.4 0.6-1.7 1.3-0.2 0.5 0 1 0.2 1.5 0.2 1 0.3 2 0.2 3 0 0.4-0.1 0.7-0.3 1-0.3 0.2-0.6 0.2-0.9 0.2-4 0.2-6-1.2-8.5 2.3-0.2 0.3-0.4 0.7-0.8 0.9-0.3 0.2-0.7 0.2-1.1 0.2-2.8 0.3-4.6-1.5-7.1-1.8-3.5-0.4-4.3 1.4-7.4 2.8-4.9 2.3-7.2 0.9-8.1-2.4z"/>
				<path id="&lt;Path&gt;" class="s0" d="m280.2 492.1q-0.3-1-0.4-2.3c-0.3-4.7-4.7-4-8.6-4.6-3-0.5 5-8-1.1-10.5-1.1-0.4-2.3-0.9-2.9-2-0.7-1.4 0-3.2 1.3-4.2 1.3-0.9 3-1.1 4.6-1.1 1-1.2 0.2-3-0.8-4.2-0.9-1.2-2.1-2.6-1.7-4.1 0.5-2.3 3.7-2.4 6-1.9 0.8-1.4 0.8-3.1 1.2-4.7 0.4-1.5 1.7-3.2 3.3-3 1.5 0.2 2.4 1.9 3.9 2.2 1.7 0.5 3.2-1.1 4.5-2.2 1.4-1.1 3.7-1.9 4.7-0.4 0.5 0.9 0.2 2.2 0.8 3.1 1 1.5 3.3 0.6 4.8-0.5 1.5-1.1 3.8-2.1 4.9-0.6 0.3 0.5 0.4 1.1 0.5 1.6 0.7 2 2.9 3 4.6 4.3 1.7 1.3 3 3.8 1.6 5.4-0.7 0.8-1.9 1.1-2.3 2.1-0.4 1.2 0.8 2.3 1.8 3.2 1.7 1.4 2 5.6-0.2 6.8-0.9 0.5-2.3 0.6-2.5 1.6-0.2 1 0.7 1.7 1.3 2.4 1.7 1.9 1 5.4-1.3 6.5-0.5 0.2-1.2 0.4-1.4 1-0.1 0.4 0 0.8 0.1 1.2q0.4 1.2 0.3 2.4c-0.1 0.2-0.1 0.5-0.3 0.7-0.2 0.2-0.5 0.2-0.7 0.2-3.2 0.2-4.7-1-6.7 1.8-0.2 0.3-0.4 0.5-0.6 0.7-0.3 0.1-0.6 0.2-0.9 0.2-2.2 0.2-3.6-1.2-5.6-1.4-2.8-0.4-3.4 1-5.8 2.2-3.9 1.8-5.7 0.7-6.4-1.9z"/>
				<path id="&lt;Path&gt;" class="s0" d="m297.5 480.6q-0.3-1.2-0.4-2.8c-0.4-6-6.1-5.1-11-5.9-3.7-0.6 6.3-10.2-1.3-13.3-1.5-0.6-3-1.2-3.7-2.5-1-1.8 0-4.2 1.6-5.3 1.7-1.2 3.8-1.5 5.8-1.5 1.3-1.5 0.3-3.8-0.9-5.4-1.3-1.5-2.7-3.3-2.3-5.2 0.7-2.9 4.7-3 7.7-2.4 1-1.7 1-3.9 1.5-5.9 0.6-2 2.1-4.1 4.2-3.8 1.9 0.2 3 2.4 4.9 2.8 2.2 0.5 4.1-1.4 5.8-2.8 1.7-1.5 4.7-2.4 5.9-0.5 0.7 1.2 0.3 2.8 1 3.9 1.3 1.9 4.3 0.7 6.1-0.7 1.9-1.3 4.9-2.6 6.2-0.7 0.4 0.6 0.5 1.4 0.7 2 0.9 2.6 3.7 3.8 5.8 5.5 2.2 1.6 3.9 4.9 2.1 6.9-0.9 1-2.5 1.4-3 2.6-0.5 1.6 1.1 3 2.4 4.1 2.1 1.8 2.5 7.1-0.3 8.6-1.2 0.6-2.9 0.8-3.2 2.1-0.3 1.2 0.9 2.1 1.7 3 2.1 2.4 1.2 6.8-1.7 8.2-0.7 0.4-1.5 0.6-1.8 1.3-0.1 0.5 0.1 1.1 0.2 1.6 0.3 0.9 0.4 2 0.3 3-0.1 0.3-0.1 0.7-0.4 0.9-0.2 0.2-0.6 0.2-0.9 0.3-4 0.1-6-1.3-8.4 2.2-0.3 0.4-0.5 0.7-0.9 0.9-0.3 0.2-0.7 0.3-1.1 0.3-2.8 0.2-4.6-1.5-7.1-1.8-3.5-0.5-4.3 1.3-7.4 2.8-4.8 2.3-7.2 0.9-8.1-2.5z"/>
				<path id="&lt;Path&gt;" class="s0" d="m248.8 429.4q-0.3-1.3-0.4-2.9c-0.4-5.9-6.1-5-10.9-5.8-3.8-0.6 6.2-10.2-1.4-13.3-1.4-0.6-3-1.2-3.7-2.6-1-1.8 0-4.1 1.7-5.3 1.6-1.2 3.7-1.4 5.8-1.4 1.2-1.6 0.2-3.8-1-5.4-1.2-1.5-2.7-3.3-2.2-5.2 0.7-2.9 4.7-3 7.6-2.4 1.1-1.8 1.1-4 1.6-5.9 0.5-2 2.1-4.1 4.1-3.8 1.9 0.2 3.1 2.4 5 2.8 2.1 0.5 4-1.4 5.7-2.9 1.8-1.4 4.7-2.3 5.9-0.4 0.7 1.1 0.3 2.7 1 3.8 1.3 2 4.3 0.8 6.2-0.6 1.9-1.4 4.8-2.6 6.2-0.7 0.4 0.6 0.4 1.3 0.7 2 0.9 2.5 3.6 3.8 5.8 5.5 2.1 1.6 3.8 4.8 2 6.8-0.9 1-2.5 1.4-2.9 2.7-0.6 1.6 1 3 2.3 4 2.1 1.8 2.5 7.2-0.3 8.7-1.2 0.6-2.9 0.8-3.2 2.1-0.2 1.1 0.9 2 1.7 2.9 2.2 2.5 1.3 6.9-1.7 8.3-0.6 0.3-1.5 0.6-1.7 1.3-0.2 0.5 0 1 0.1 1.5 0.3 1 0.4 2 0.3 3 0 0.4-0.1 0.7-0.4 1-0.2 0.2-0.5 0.2-0.8 0.2-4.1 0.2-6-1.2-8.5 2.3-0.2 0.3-0.5 0.7-0.8 0.9-0.4 0.2-0.8 0.2-1.1 0.3-2.8 0.2-4.6-1.5-7.2-1.9-3.5-0.4-4.2 1.4-7.3 2.9-4.9 2.2-7.2 0.8-8.2-2.5z"/>
				<path id="&lt;Path&gt;" class="s0" d="m209.1 431.4q-0.3-1.2-0.4-2.8c-0.4-6-6.1-5.1-10.9-5.9-3.8-0.6 6.2-10.2-1.4-13.3-1.5-0.6-3-1.2-3.7-2.6-1-1.7 0-4.1 1.6-5.3 1.7-1.1 3.8-1.4 5.8-1.4 1.3-1.5 0.3-3.8-0.9-5.4-1.2-1.5-2.7-3.3-2.3-5.2 0.7-2.9 4.8-3 7.7-2.4 1-1.7 1-3.9 1.5-5.9 0.6-2 2.1-4.1 4.2-3.8 1.9 0.2 3.1 2.4 4.9 2.8 2.2 0.5 4.1-1.4 5.8-2.8 1.7-1.5 4.7-2.4 5.9-0.5 0.7 1.2 0.3 2.8 1 3.9 1.3 1.9 4.3 0.7 6.2-0.7 1.8-1.3 4.8-2.6 6.1-0.7 0.4 0.6 0.5 1.3 0.8 2 0.8 2.6 3.6 3.8 5.7 5.5 2.2 1.6 3.9 4.9 2.1 6.9-0.9 1-2.5 1.4-2.9 2.6-0.6 1.6 1 3 2.3 4.1 2.1 1.8 2.5 7.1-0.3 8.6-1.2 0.6-2.9 0.8-3.2 2.1-0.3 1.2 0.9 2.1 1.7 3 2.1 2.4 1.2 6.8-1.7 8.2-0.7 0.3-1.5 0.6-1.8 1.3-0.1 0.5 0.1 1.1 0.2 1.6 0.3 0.9 0.4 2 0.3 3-0.1 0.3-0.1 0.7-0.4 0.9-0.2 0.2-0.6 0.2-0.9 0.3-4 0.1-6-1.3-8.4 2.2-0.2 0.4-0.5 0.7-0.9 0.9-0.3 0.2-0.7 0.3-1.1 0.3-2.7 0.2-4.6-1.5-7.1-1.8-3.5-0.5-4.2 1.3-7.3 2.8-4.9 2.3-7.3 0.9-8.2-2.5z"/>
				<path id="&lt;Path&gt;" class="s0" d="m185 447.7q-0.4-1.3-0.5-2.9c-0.3-6-6-5-10.9-5.8-3.8-0.7 6.3-10.2-1.4-13.3-1.4-0.6-2.9-1.2-3.7-2.6-0.9-1.8 0.1-4.1 1.7-5.3 1.7-1.2 3.8-1.4 5.8-1.5 1.3-1.5 0.2-3.7-1-5.3-1.2-1.5-2.6-3.3-2.2-5.2 0.7-2.9 4.7-3 7.6-2.4 1.1-1.8 1.1-4 1.6-5.9 0.5-2 2.1-4.1 4.1-3.9 2 0.3 3.1 2.4 5 2.9 2.2 0.5 4.1-1.4 5.8-2.9 1.7-1.4 4.7-2.3 5.9-0.4 0.7 1.1 0.2 2.7 1 3.8 1.2 2 4.3 0.8 6.1-0.6 1.9-1.4 4.9-2.6 6.2-0.7 0.4 0.6 0.5 1.3 0.7 2 0.9 2.5 3.7 3.8 5.8 5.4 2.2 1.7 3.9 4.9 2 6.9-0.9 1-2.4 1.4-2.9 2.7-0.5 1.5 1.1 2.9 2.3 4 2.2 1.8 2.5 7.2-0.3 8.7-1.1 0.6-2.8 0.8-3.1 2.1-0.3 1.1 0.9 2 1.7 2.9 2.1 2.5 1.2 6.9-1.7 8.3-0.7 0.3-1.5 0.6-1.8 1.3-0.2 0.5 0 1 0.2 1.5 0.3 1 0.3 2 0.2 3 0 0.4-0.1 0.7-0.3 1-0.3 0.2-0.6 0.2-0.9 0.2-4 0.2-6-1.2-8.4 2.3-0.3 0.3-0.5 0.7-0.9 0.9-0.3 0.2-0.7 0.2-1.1 0.2-2.8 0.3-4.6-1.5-7.1-1.8-3.5-0.4-4.3 1.4-7.4 2.8-4.8 2.3-7.2 0.9-8.1-2.4z"/>
				<path id="&lt;Path&gt;" class="s3" d="m194.4 465.1l16.3 18.1-6.2-19.8-12.2-15.7 2.1-1.7 11.5 12.5 2-19.8h4.6q-6.1 22.7-2.1 31.3 16.3 37.2 25 45 0.8 0.7 1.3 1.6c3.3-8.1 6.7-14.2 10.1-19-3.4-8.8-10.8-28.1-13.3-38.4q-3.3-13.6-4.4-24.4l3.4-1.8q7.5 39.7 20.9 57.1c4.5-4.3 9-6.8 13.3-8.9 1.1-5.4 1.6-14.7-2-29.3l2.6-2.4q5.6 14.1 5.2 28.8c1.9-1 3.9-2.1 5.8-3.4q12.8-9.1 21.9-25.4h4.9q-13.3 26.6-28.6 34.7c-15.3 8.1-25.2 27.7-26 32.8-0.7 4.9-2.8 164.4-3 181.9h-23.7c-0.3-15.5-1.4-105.9 6.1-155.3q-0.4-2.2-0.8-5.2c-2.4-18.6-19.8-46.8-23.2-51.4q-3.5-4.5-13.6-18.7z"/>
			</g>
			<path id="&lt;Path&gt;" class="s1" d="m132.4 726.8h735.2c8.7 0 15.8 7.1 15.8 15.8v23.9h-766.8v-23.9c0-8.7 7.1-15.8 15.8-15.8z"/>
		</g>
	</g>
	<g id="Shadow">
		<ellipse id="&lt;Path&gt; 359 " class="s2" cx="500" cy="832.5" rx="387.8" ry="22.6"/>
	</g>
	<g id="Plant">
		<g id="&lt;Group&gt;">
			<path id="&lt;Path&gt;" class="s4" d="m182.6 779.8c-3.3-10.2 2.9-6.7-4.7-17.6-7.6-10.9 1.3-22.1 4.7-18.3 3.4 3.8-0.6 13.6 12.5 15.8q13 2.3 15.7 22.6c1.2 16.9-25 7.6-28.2-2.5z"/>
			<path id="&lt;Path&gt;" class="s5" d="m182.6 779.8c-3.3-10.2 2.9-6.7-4.7-17.6-7.6-10.9 1.3-22.1 4.7-18.3 3.4 3.8-0.6 13.6 12.5 15.8q13 2.3 15.7 22.6c1.2 16.9-25 7.6-28.2-2.5z"/>
			<path id="&lt;Path&gt;" class="s6" d="m186.5 566.6c-9.8 26.4 9.8 53 26.9 90.2 17.1 37.2-2.6 50.3-7.8 84.2q-5.3 33.8 4.7 54.5"/>
			<path id="&lt;Path&gt;" class="s4" d="m202.8 791.5q-8.4-12.7 3.7-19.2c12.2-6.5 14.6-1.3 22.1-6 7.5-4.7 13.2-16 14.5-8.8 1.3 7.3-7.4 11.4-4.3 14.8 3 3.3-20.5 24.9-36 19.2z"/>
			<g id="&lt;Group&gt;">
				<path id="&lt;Path&gt;" class="s4" d="m182.9 577.2q-8.2-24.9 10.5-25.4c18.6-0.6-1.9 22.7-10.5 25.4z"/>
				<path id="&lt;Path&gt;" class="s4" d="m199.1 596.3q5.6-22.6 18.8-17.8c13.2 4.7-5.6 18.3-18.8 17.8z"/>
				<path id="&lt;Path&gt;" class="s4" d="m176.7 598.3q2-18.1-12.1-18.4c-14-0.4-7.7 15.5 12.1 18.4z"/>
				<path id="&lt;Path&gt;" class="s4" d="m186 635.2q-18.8-16.8-25.6-4.3c-6.8 12.5 14.2 15.1 25.6 4.3z"/>
				<path id="&lt;Path&gt;" class="s4" d="m219.4 632.2q3.5-27.9 18.7-19.2c15.2 8.8-5.5 22-18.7 19.2z"/>
				<path id="&lt;Path&gt;" class="s4" d="m232.8 672.1q-11.3-28.2 9.6-25c20.9 3.2 5.1 18.2-9.6 25z"/>
				<path id="&lt;Path&gt;" class="s4" d="m200.7 682.2q-17.6-20.8-31.1-14.2c-13.5 6.6-2.4 27.2 31.1 14.2z"/>
				<path id="&lt;Path&gt;" class="s4" d="m216.7 728.2q15-33.4 28.4-22.1c13.3 11.2-8.5 28-28.4 22.1z"/>
				<path id="&lt;Path&gt;" class="s4" d="m194.9 726.2q4-25.8-10.9-23.7c-14.9 2-11 17.9 10.9 23.7z"/>
				<g id="&lt;Group&gt;" style="opacity: .2">
					<path id="&lt;Path&gt;" class="s7" d="m182.9 577.2q-8.2-24.9 10.5-25.4c18.6-0.6-1.9 22.7-10.5 25.4z"/>
					<path id="&lt;Path&gt;" class="s7" d="m199.1 596.3q5.6-22.6 18.8-17.8c13.2 4.7-5.6 18.3-18.8 17.8z"/>
					<path id="&lt;Path&gt;" class="s7" d="m176.7 598.3q2-18.1-12.1-18.4c-14-0.4-7.7 15.5 12.1 18.4z"/>
					<path id="&lt;Path&gt;" class="s7" d="m186 635.2q-18.8-16.8-25.6-4.3c-6.8 12.5 14.2 15.1 25.6 4.3z"/>
					<path id="&lt;Path&gt;" class="s7" d="m219.4 632.2q3.5-27.9 18.7-19.2c15.2 8.8-5.5 22-18.7 19.2z"/>
					<path id="&lt;Path&gt;" class="s7" d="m232.8 672.1q-11.3-28.2 9.6-25c20.9 3.2 5.1 18.2-9.6 25z"/>
					<path id="&lt;Path&gt;" class="s7" d="m200.7 682.2q-17.6-20.8-31.1-14.2c-13.5 6.6-2.4 27.2 31.1 14.2z"/>
					<path id="&lt;Path&gt;" class="s7" d="m216.7 728.2q15-33.4 28.4-22.1c13.3 11.2-8.5 28-28.4 22.1z"/>
					<path id="&lt;Path&gt;" class="s7" d="m194.9 726.2q4-25.8-10.9-23.7c-14.9 2-11 17.9 10.9 23.7z"/>
				</g>
			</g>
			<path id="&lt;Path&gt;" class="s6" d="m203.9 593q-5.6 3.4-12.9 17.4-11-6.1-19-18"/>
			<path id="&lt;Path&gt;" class="s6" d="m228.8 622.9q-11.7 7-20.7 22.1-16.1-12.2-36.5-11.5"/>
			<path id="&lt;Path&gt;" class="s6" d="m238.9 658.8q-8.8 23-19.9 32-23.2-13.5-40.2-13.8"/>
			<path id="&lt;Path&gt;" class="s6" d="m230.9 721.6q-17.2 5.2-25.2 16.5-8.5-4.9-20-27.3"/>
			<path id="&lt;Path&gt;" class="s4" d="m174.1 769.9c3-5.6 6.5 3.8 14.6 5.4q8.2 1.7 15.4 13.1c-24.8 5.9-33-12.8-30-18.5z"/>
			<g id="&lt;Group&gt;">
				<path id="&lt;Path&gt;" class="s8" d="m161.4 784.9h89.3l-5.3 48.6h-78.8z"/>
				<path id="&lt;Path&gt;" class="s8" d="m158.3 783.8h95.4l-1.2 10.3h-93z"/>
				<path id="&lt;Path&gt;" class="s9" d="m158.3 783.8h95.4l-1.2 10.3h-93z"/>
			</g>
		</g>
	</g>
	<g id="Lamp">
		<g id="&lt;Group&gt;">
			<path id="&lt;Path&gt;" class="s4" d="m857.8 308.1l-6.8 65.7h-34.3l-6.8-65.7z"/>
			<path id="&lt;Path&gt;" class="s9" d="m857.8 308.1l-6.8 65.7h-34.3l-6.8-65.7z"/>
			<path id="&lt;Path&gt;" class="s4" d="m840.2 833.5h-12.7v-473.8h12.7z"/>
			<path id="&lt;Path&gt;" class="s9" d="m840.2 833.5h-12.7v-473.8h12.7z"/>
			<path id="&lt;Path&gt;" class="s8" d="m847.4 369.8h-27.1l-6-57.7h39.1z"/>
			<path id="&lt;Path&gt;" class="s10" d="m847.4 369.8h-27.1l-6-57.7h39.1z"/>
			<path id="&lt;Path&gt;" class="s4" d="m830.3 370.7h-1.9l-2-60.6h1.9z"/>
			<path id="&lt;Path&gt;" class="s9" d="m830.3 370.7h-1.9l-2-60.6h1.9z"/>
			<path id="&lt;Path&gt;" class="s5" d="m857.8 308.1l-6.8 65.7h-21.6l-2.5-65.7z"/>
			<path id="&lt;Path&gt;" class="s4" d="m869.7 307l-4.8 3.2h-31.1-31l-4.8-3.2q15.5 0 35.8-20 20.3 20 35.9 20z"/>
			<path id="&lt;Path&gt;" class="s10" d="m869.7 307l-4.8 3.2h-62.1l-4.8-3.2q15.5 0 35.8-20 20.3 20 35.9 20z"/>
			<path id="&lt;Path&gt;" class="s5" d="m869.7 307l-4.8 3.2h-40.3q-1.3-2-2.1-3.4 10.8-5 11.3-19.8 20.3 20 35.9 20z"/>
			<path id="&lt;Path&gt;" class="s4" d="m849.7 829.7v3.8h-31.7v-3.8c0-2.8 2.2-5 4.9-5h21.9c2.7 0 4.9 2.2 4.9 5z"/>
			<path id="&lt;Path&gt;" class="s11" d="m849.7 829.7v3.8h-31.7v-3.8c0-2.8 2.2-5 4.9-5h21.9c2.7 0 4.9 2.2 4.9 5z"/>
		</g>
	</g>
	<g id="Speech bubble">
		<g id="&lt;Group&gt;">
			<g id="&lt;Group&gt;">
				<path id="&lt;Path&gt;" class="s8" d="m721 309v50c0 9.8-7.9 17.7-17.7 17.7h-22.7l-6 15.8-6-15.8h-22.7c-9.8 0-17.7-7.9-17.7-17.7v-50c0-9.8 7.9-17.7 17.7-17.7h57.4c9.8 0 17.7 7.9 17.7 17.7z"/>
				<path id="&lt;Path&gt;" class="s12" d="m721 309v50c0 9.8-7.9 17.7-17.7 17.7h-22.7l-6 15.8-6-15.8h-22.7c-9.8 0-17.7-7.9-17.7-17.7v-50c0-9.8 7.9-17.7 17.7-17.7h57.4c9.8 0 17.7 7.9 17.7 17.7z"/>
			</g>
			<g id="&lt;Group&gt;">
				<g id="&lt;Group&gt;">
					<circle id="&lt;Path&gt;" class="s8" cx="674.6" cy="333.8" r="28.5"/>
				</g>
				<g id="&lt;Group&gt;">
					<path id="&lt;Path&gt;" class="s7" d="m671.6 346.5c-0.8 0-1.5-0.3-2-0.9l-11.2-13.2c-0.9-1.1-0.8-2.7 0.3-3.7 1.1-0.9 2.8-0.8 3.7 0.3l9.2 10.9 15.2-17.9c0.9-1.1 2.6-1.3 3.7-0.3 1.1 0.9 1.2 2.6 0.3 3.7l-17.2 20.2c-0.5 0.6-1.2 0.9-2 0.9z"/>
				</g>
			</g>
		</g>
	</g>
	<g id="Character">
		<g id="&lt;Group&gt;">
			<path id="&lt;Path&gt;" class="s4" d="m754.4 681.1h13.2l27 152.4h-13.2z"/>
			<path id="&lt;Path&gt;" class="s4" d="m464.1 681.1h13.2l27 152.4h-13.2z"/>
			<path id="&lt;Path&gt;" class="s9" d="m754.4 681.1h13.2l27 152.4h-13.2z"/>
			<path id="&lt;Path&gt;" class="s9" d="m464.1 681.1h13.2l27 152.4h-13.2z"/>
			<path id="&lt;Path&gt;" class="s4" d="m376.2 757.3h398.3v13.4h-398.3z"/>
			<path id="&lt;Path&gt;" class="s11" d="m376.2 757.3h398.3v13.4h-398.3z"/>
			<path id="&lt;Path&gt;" class="s4" d="m659.6 833.5h-13.2l27-152.4h13.2z"/>
			<path id="&lt;Path&gt;" class="s4" d="m369.3 833.5h-13.2l27-152.4h13.2z"/>
			<path id="&lt;Path&gt;" class="s9" d="m659.6 833.5h-13.2l27-152.4h13.2z"/>
			<path id="&lt;Path&gt;" class="s9" d="m369.3 833.5h-13.2l27-152.4h13.2z"/>
			<path id="&lt;Path&gt;" class="s4" d="m511 552.9h13.2l-22 122.3h-13.2z"/>
			<path id="&lt;Path&gt;" class="s9" d="m511 552.9h13.2l-22 122.3h-13.2z"/>
			<path id="&lt;Path&gt;" class="s4" d="m772 552.9h13.2l-22 122.3h-13.2z"/>
			<path id="&lt;Path&gt;" class="s4" d="m641.5 552.9h13.2l-22 122.3h-13.2z"/>
			<path id="&lt;Path&gt;" class="s9" d="m772 552.9h13.2l-22 122.3h-13.2z"/>
			<path id="&lt;Path&gt;" class="s9" d="m641.5 552.9h13.2l-22 122.3h-13.2z"/>
			<path id="&lt;Path&gt;" class="s4" d="m470.5 538.4h345.1l-4.1 22.8h-345.2z"/>
			<path id="&lt;Path&gt;" class="s4" d="m463 579.8h345.2l-4.2 22.8h-345.1z"/>
			<path id="&lt;Path&gt;" class="s4" d="m455.6 621.2h345.1l-4.1 22.8h-345.2z"/>
			<path id="&lt;Path&gt;" class="s4" d="m353.3 671.6h439.9v15.8h-439.9z"/>
			<path id="&lt;Path&gt;" class="s11" d="m470.5 538.4h345.1l-4.1 22.8h-345.2z"/>
			<path id="&lt;Path&gt;" class="s11" d="m463 579.8h345.2l-4.2 22.8h-345.1z"/>
			<path id="&lt;Path&gt;" class="s11" d="m455.6 621.2h345.1l-4.1 22.8h-345.2z"/>
			<path id="&lt;Path&gt;" class="s11" d="m353.3 671.6h439.9v15.8h-439.9z"/>
			<path id="&lt;Path&gt;" class="s5" d="m353.3 671.6h331.9v15.8h-331.9z"/>
		</g>
		<g id="&lt;Group&gt;">
			<g id="&lt;Group&gt;">
				<path id="&lt;Path&gt;" class="s13" d="m651.2 508.4c-5.6 6.2-11.4 11.9-17.6 17.5-3.1 2.8-6.3 5.5-9.9 8.1-1.7 1.3-3.6 2.6-5.6 3.8-1.1 0.7-2.2 1.3-3.5 1.9-1.2 0.6-2.6 1.2-4.7 1.8-1.1 0.2-2.3 0.4-4.1 0.4-0.5-0.1-1-0.1-1.4-0.2l-0.8-0.1c-0.4-0.2-0.9-0.3-1.4-0.4-1.7-0.6-3.1-1.2-4.3-1.9-2.4-1.3-4.3-2.7-6.1-4.2-3.5-2.8-6.5-5.9-9.4-8.9-5.7-6.2-10.6-12.7-15.2-19.7-1.5-2.3-0.9-5.4 1.4-6.9 1.9-1.2 4.3-1 6 0.4l0.1 0.1c6 5.1 12 10.2 18 14.9 3 2.4 6.1 4.6 9 6.4 1.5 0.9 2.9 1.7 4.1 2.1 0.6 0.3 1 0.4 1.3 0.4 0 0 0 0 0 0-0.1 0-0.4-0.1-0.6-0.1-0.8 0-1.1 0-1.2 0-0.1 0 0.3-0.2 0.8-0.5 0.5-0.3 1.1-0.7 1.7-1.2 1.3-0.9 2.7-2 4.1-3.2 2.7-2.3 5.5-4.9 8.2-7.6 5.5-5.3 11.1-10.9 16.4-16.4l0.1-0.1c3.8-4 10.1-4.1 14.1-0.3 3.9 3.8 4.1 9.9 0.5 13.9z"/>
			</g>
			<path id="&lt;Path&gt;" class="s8" d="m646.1 490.5v28.7q-6.1 5-13.5 10.6c-3.7 2.7-7.8 5.6-11.6 8.1-5.8 3.8-11 6.5-13.6 6.4q-7.9-0.5-25-12.7l11.3-18.8q12.9 7.9 13.7 8.5c0.8 0.5 27.9-30.6 38.7-30.8z"/>
			<path id="&lt;Path&gt;" class="s14" d="m632.6 529.8c-3.7 2.7-7.8 5.6-11.6 8.1q0.9-16.4 8.7-22.8c2.4 4.6 3.1 9.8 2.9 14.7z"/>
			<path id="&lt;Path&gt;" class="s4" d="m690.5 409.8c19.4 4.1 39.8 56.6 21.4 64.8q-18.4 8.2-51.5 5.5c-15.5-21.3-17.2-53.7-3.4-65q14.1-9.5 33.5-5.3z"/>
			<path id="&lt;Path&gt;" class="s4" d="m657.8 448.8c-5-8.7-10-32.3 11-39.5 26.2-9.1 38 7.6 40.3 24.2 2.3 16.6-7.1 29.2-24.5 27.9-17.3-1.2-23.3-6.6-26.8-12.6z"/>
			<path id="&lt;Path&gt;" class="s4" d="m651.7 489.6c3.2-0.2 6.6-0.5 9.9-0.6 9.8-0.4 18.9 0.5 29.9 1.6 2.8 0.3 5.5 0.6 8.1 1.1 9.7 1.5 15.4 11.1 12.1 20.6q-1.1 3.2-2.1 6.2c-4.5 13.7-7.8 24.8-10.1 33.9-4.1 15.6-5.3 25.4-5.3 32.2l-61.9-7.2c-0.7-21.5-5.2-50.1-2.7-62.3 2.4-11.3 10.4-24.5 22.1-25.5z"/>
			<g id="&lt;Group&gt;">
				<path id="&lt;Path&gt;" class="s15" d="m691.1 456.8c-3.1 9.5-7.2 27-1.3 33.7q-9-1.8-29 9.1-5.2-8.3-0.9-10.7c11.1-2 11.8-9.9 10.9-17.4z"/>
				<path id="&lt;Path&gt;" class="s14" d="m682.4 468c-1 4.2-7.2 8.4-11.4 8.8 0.1-1.8 0-3.6-0.2-5.4l12.1-8.6c0.2 1 0 3.1-0.5 5.2z"/>
			</g>
			<g id="&lt;Group&gt;">
				<path id="&lt;Path&gt;" class="s16" d="m695.3 434.7c0.2 15.8 0.6 22.5-6.7 31.2-11.1 13-30.6 9.8-35.5-5.6-4.5-13.9-4.1-37.5 10.9-44.9 14.7-7.3 31.1 3.5 31.3 19.3z"/>
				<path id="&lt;Path&gt;" class="s4" d="m681.9 419.9c-4.4 5.5 5.6 22.8 13.4 25.7 15.3-5-0.3-42.1-13.4-25.7z"/>
				<path id="&lt;Path&gt;" class="s4" d="m689.3 416.5q8.5 7.1-7.2 4.2-22.3 10-31 9.4c0.7-4.1 6.2-15 12-17.6q17.8-3.1 26.2 4z"/>
				<ellipse id="&lt;Path&gt;" class="s4" cx="667.4" cy="441.2" rx="1.5" ry="2.3"/>
				<ellipse id="&lt;Path&gt;" class="s4" cx="652.9" cy="442.3" rx="1.5" ry="2.3"/>
				<path id="&lt;Path&gt;" class="s4" d="m653.1 440l-3.1-0.6q1.8 2.3 3.1 0.6z"/>
				<path id="&lt;Path&gt;" class="s17" d="m661.3 452.8q-2.8 1-4.6-0.5 2.1-2.8 3.9-8.5z"/>
				<path id="&lt;Path&gt;" class="s4" d="m668.7 457.3q-0.9 0.3-1.9 0.3c-0.2 0-0.4-0.1-0.4-0.3 0-0.2 0.1-0.4 0.3-0.4 5.7-0.4 8-4.6 8-4.6 0.1-0.2 0.3-0.3 0.5-0.2 0.2 0.1 0.3 0.4 0.2 0.5-0.1 0.2-2.1 3.7-6.7 4.7z"/>
				<path id="&lt;Path&gt;" class="s16" d="m700.6 448.8c-0.9 3.2-3.1 5.6-5.5 6.9-3.6 1.9-6.2-1.1-6-4.9 0.2-3.4 2.3-8.6 6.3-9 3.9-0.3 6.2 3.4 5.2 7z"/>
				<path id="&lt;Path&gt;" class="s4" d="m676.1 437.4c-0.3 0-0.7-0.1-0.9-0.4-1.8-3-6.2-3.3-6.3-3.3-0.4-0.1-0.7-0.4-0.7-0.9 0-0.4 0.4-0.7 0.8-0.7 0.2 0.1 5.3 0.5 7.5 4.1 0.3 0.4 0.1 0.8-0.2 1.1q-0.1 0-0.2 0.1z"/>
				<path id="&lt;Path&gt;" class="s4" d="m651.1 435.5c-0.2 0-0.5-0.1-0.7-0.3-0.3-0.3-0.3-0.7 0-1 3-2.9 6.4-2.2 6.6-2.1 0.4 0.1 0.6 0.5 0.5 0.9 0 0.4-0.5 0.6-0.9 0.5-0.1 0-2.7-0.5-5.1 1.8q-0.2 0.1-0.4 0.2z"/>
				<path id="&lt;Path&gt;" class="s4" d="m667.6 439l-3.1-0.7q1.8 2.3 3.1 0.7z"/>
			</g>
			<path id="&lt;Path&gt;" class="s15" d="m613 491.6l4.5-4c2-1.7 5-1.5 6.8 0.5l2 2.3q8 7.2 9.9 15.1l-1.7 1.3c-2.7 2.1-6.3 2.7-9.6 1.6l-8.3-2.6c-1.7-0.6-3.1-2-3.7-3.7l-1.5-4.7c-0.6-2.1 0-4.4 1.6-5.8z"/>
			<path id="&lt;Path&gt;" class="s15" d="m557.6 495.9l4.6-4c2-1.8 4.9-1.5 6.7 0.5l2.1 2.3q7.9 7.2 9.9 15.1l-1.7 1.3c-2.8 2-6.4 2.7-9.7 1.6l-8.2-2.6c-1.8-0.6-3.2-2-3.7-3.7l-1.5-4.7c-0.7-2.1-0.1-4.5 1.5-5.8z"/>
			<path id="&lt;Path&gt;" class="s14" d="m684.1 505.6c10.9-1.6 19.4 4.4 25.5 12.9-4.5 13.7-7.8 24.8-10.1 33.9-9.8-5.2-19.9-13.9-23.9-25.6q-4-11.9 8.5-21.2z"/>
			<g id="&lt;Group&gt;">
				<path id="&lt;Path&gt;" class="s15" d="m541.6 588.5c26-10.9 81.2 15.6 82.9 16.4q0 0 0 0 1.1-3.2 2.6-7.1c1.5-4.1 3.4-8.9 4.7-11.2q7-12.3 63.3 7.5 17.1 52-11.8 71.7c-28.9 19.7-90.1-12.8-119.8-31.1q-8.2-5-96.9 128.8l-10.5-4.2q59.1-159.7 85.5-170.8z"/>
			</g>
			<path id="&lt;Path&gt;" class="s15" d="m648.5 672.9q-27.9 1.9-66.1-11.1-9.4 106.5-15.8 164.4l-12.8-1.8q-21.8-157.9-17.5-177.1 4.4-19.3 27.6-20.6 44.6 32.8 84.6 46.2z"/>
			<path id="&lt;Path&gt;" class="s8" d="m648.5 672.9c-0.6-0.1-27.9 1.1-55.8-6.9l3.6-15.1c14.1 9.2 33.7 14.9 52.2 22z"/>
			<path id="&lt;Path&gt;" class="s10" d="m648.5 672.9c-0.6-0.1-27.9 1.1-55.8-6.9l3.6-15.1c14.1 9.2 33.7 14.9 52.2 22z"/>
			<path id="&lt;Path&gt;" class="s8" d="m599.6 653l-3.9 14.9-5.1-1.7 3.4-16.9z"/>
			<path id="&lt;Path&gt;" class="s18" d="m599.6 653l-3.9 14.9-5.1-1.7 3.4-16.9z"/>
			<path id="&lt;Path&gt;" class="s14" d="m540.9 720.2c-3.7-34-6.3-65.1-4.6-72.9q4.3-19.3 27.6-20.5 13 11.3 32.4 24.1c14.1 9.2 30.1 17.5 52.2 22-0.5-0.1-22.1-0.8-36.7-3.9q0 0 0 0c-1.1-0.4-40.2-14.5-49.1-37.2q-10.8 1.5-17.7 10.2c-6.9 8.7-6 30.4-4 72.4q0.1 2.5-0.1 5.8z"/>
			<g id="&lt;Group&gt;">
				<path id="&lt;Compound Path&gt;" fill-rule="evenodd" class="s4" d="m445.7 750.5c-0.2-0.4-0.3-1 0.4-1.9q0.5-0.6 1.4-0.7c1-0.1 2.4 0.6 3.7 1.3-0.9-1.3-1.7-2.7-1.4-3.5q0.4-0.9 1.7-0.9 1.3 0 2.1 0.9c1.8 1.9 1.4 6.3 1.4 6.5q0 0.1-0.1 0.2 0 0-0.1 0.1 0 0-0.1 0.1-0.1 0-0.2 0c-0.8 0-3.4 0-5.6-0.4-1.5-0.3-2.8-0.8-3.2-1.7zm1.8-1.6q-0.4 0-0.7 0.3c-0.4 0.6-0.3 0.8-0.3 0.9 0.5 1 3.9 1.5 6.7 1.5-1.6-1.2-4.2-2.9-5.7-2.7zm4-3.2c-0.2 0.1-0.7 0.1-0.8 0.3-0.3 0.8 1.4 3.1 3.4 5.1 0-1.4-0.2-3.7-1.2-4.8q-0.4-0.4-0.9-0.5-0.3-0.1-0.5-0.1z"/>
			</g>
			<g id="&lt;Group&gt;">
				<path id="&lt;Compound Path&gt;" fill-rule="evenodd" class="s4" d="m541.3 815.2c-0.3-0.2-0.7-0.8-0.4-1.8q0.1-0.8 0.9-1.2c0.9-0.6 2.4-0.6 3.9-0.5-1.4-0.8-2.7-1.7-2.7-2.6q-0.1-0.9 1.1-1.5 1.1-0.5 2.3-0.1c2.4 1 3.9 5.1 4 5.2q0 0.1 0 0.3 0 0 0 0.1 0 0 0 0-0.1 0.1-0.1 0.1-0.1 0.1-0.1 0.1 0 0 0 0-0.1 0-0.1 0c-0.9 0.5-4.8 2.3-7.3 2.3-0.6 0-1.1-0.1-1.5-0.4zm1-2.2q-0.5 0.2-0.5 0.6c-0.2 0.7 0 0.9 0.1 0.9 0.8 0.7 4-0.3 6.6-1.5-2-0.4-5-0.8-6.2 0zm2.2-4.6c-0.2 0.2-0.6 0.4-0.6 0.6 0 0.8 2.6 2.2 5.2 3.1-0.6-1.2-1.7-3.2-3.1-3.7q-0.3-0.2-0.7-0.2-0.4 0-0.8 0.2z"/>
			</g>
			<path id="&lt;Path&gt;" class="s4" d="m461.4 777.8c-7.6-3.5-15.7-7.2-26.4-12.2-10.7-4.9-13.4-13.1-2.8-10.9q10.6 2.1 25.1-3.4 16.4 6.4 15.9 7.7c-5.9 13.7-4.2 22.3-11.8 18.8z"/>
			<path id="&lt;Path&gt;" class="s4" d="m567.2 833.1c-8.3 0.1-17.3 0.3-29.1 0.4-11.8 0.1-17.7-6.1-7.2-8.7q10.5-2.6 21.2-13.8 17.6-1.3 17.6 0.1c0.6 14.9 5.9 21.9-2.5 22z"/>
			<g id="&lt;Group&gt;">
				<path id="&lt;Path&gt;" class="s8" d="m690.7 665.8c-17.4 11.8-59.7 9.9-89.7-6.7l18.8-56.3q4.6 2.1 4.7 2.1 0 0 0 0 1.1-3.2 2.6-7.1c1.5-4.1 3.4-8.9 4.7-11.2q7-12.3 63.3 7.5 24.5 52-4.4 71.7z"/>
			</g>
			<g id="&lt;Group&gt;" style="opacity: .4">
				<path id="&lt;Path&gt;" class="s7" d="m690.7 665.8c-17.4 11.8-59.7 9.9-89.7-6.7l18.8-56.3q4.6 2.1 4.7 2.1 0 0 0 0 1.1-3.2 2.6-7.1c1.5-4.1 3.4-8.9 4.7-11.2q7-12.3 63.3 7.5 24.5 52-4.4 71.7z"/>
			</g>
			<path id="&lt;Path&gt;" class="s19" d="m627.1 597.8q13.2 6.9 29.9 20.9l-32.5-13.8q1.1-3.2 2.6-7.1z"/>
			<g id="&lt;Group&gt;">
				<path id="&lt;Path&gt;" class="s8" d="m631 588.1l1.2-13.9 62.9 8.4 0.8 13.4z"/>
				<path id="&lt;Path&gt;" class="s10" d="m631 588.1l1.2-13.9 62.9 8.4 0.8 13.4z"/>
				<g id="&lt;Group&gt;">
					<path id="&lt;Path&gt;" class="s4" d="m632.3 575.6l3.3 0.5-1 10.8-2.7-0.3z"/>
					<path id="&lt;Path&gt;" class="s4" d="m638.7 576.5l35.5 5.2-0.9 9.8-35.6-4.2z"/>
					<path id="&lt;Path&gt;" class="s4" d="m695.1 594.1l-18.7-2.2 0.9-9.8 16.9 2.5z"/>
					<path id="&lt;Path&gt;" class="s14" d="m632.3 575.6l3.3 0.5-1 10.8-2.7-0.3z"/>
					<path id="&lt;Path&gt;" class="s14" d="m638.7 576.5l35.5 5.2-0.9 9.8-35.6-4.2z"/>
					<path id="&lt;Path&gt;" class="s14" d="m695.1 594.1l-18.7-2.2 0.9-9.8 16.9 2.5z"/>
				</g>
				<path id="&lt;Path&gt;" class="s20" d="m645.5 586.5l0.9-6.8c0.2-1 1.1-1.7 2.1-1.6l10.1 1.3c1.1 0.2 1.8 1.1 1.6 2.1l-0.8 6.8c-0.2 1-1.1 1.7-2.1 1.6l-10.1-1.3c-1.1-0.2-1.8-1.1-1.7-2.1z"/>
				<path id="&lt;Path&gt;" class="s20" d="m654.4 584l3.6 0.6"/>
			</g>
			<g id="&lt;Group&gt;">
				<path id="&lt;Path&gt;" class="s8" d="m617.2 598.9l5.2 2.8-17.8 60.4-7.4-1.5z"/>
				<path id="&lt;Path&gt;" class="s18" d="m617.2 598.9l5.2 2.8-17.8 60.4-7.4-1.5z"/>
			</g>
			<g id="&lt;Group&gt;">
				<path id="&lt;Path&gt;" class="s4" d="m613 537.9h-44.1c-1.7 0-3.2-1.4-3.3-3.1l-6.2-58.5c-0.1-1.7 1.1-3.1 2.8-3.1h44.1c1.7 0 3.2 1.4 3.3 3.1l6.2 58.5c0.1 1.7-1.1 3.1-2.8 3.1z"/>
				<path id="&lt;Path&gt;" class="s18" d="m613 537.9h-44.1c-1.7 0-3.2-1.4-3.3-3.1l-6.2-58.5c-0.1-1.7 1.1-3.1 2.8-3.1h44.1c1.7 0 3.2 1.4 3.3 3.1l6.2 58.5c0.1 1.7-1.1 3.1-2.8 3.1z"/>
				<path id="&lt;Path&gt;" class="s5" d="m611.1 537.9h-42.2c-1.7 0-3.2-1.4-3.3-3.1l-6.2-58.5c-0.1-1.7 1.1-3.1 2.8-3.1h42.2c1.7 0 3.2 1.4 3.4 3.1l6.1 58.5c0.2 1.7-1.1 3.1-2.8 3.1z"/>
				<path id="&lt;Path&gt;" class="s4" d="m590.6 505.6c0.2 2.6-1.7 4.8-4.3 4.8-2.7 0-5-2.2-5.2-4.8-0.3-2.7 1.7-4.8 4.3-4.8 0.3 2.6 2.6 4.8 5.2 4.8z"/>
				<path id="&lt;Path&gt;" class="s19" d="m595 477.9h-23.3c-1.1 0-2.2-0.7-2.7-1.8l-1.4-2.9h30.7l-0.9 2.9c-0.3 1.1-1.3 1.8-2.4 1.8z"/>
			</g>
			<path id="&lt;Path&gt;" class="s8" d="m707.3 611.7h-8.2q-10.2-30.6-16.1-56.6c-1.8-7.7-3.2-15-3.9-20.9-0.9-8.8 0.2-16.7 2-23.2q3.7-12.7 10.4-20.4l-1.7-0.1c15.5-0.2 23.9 5.2 24.9 14.8 1.1 9.7-16.1 66.9-16.9 74.5q-0.8 7.7 9.5 31.9z"/>
			<path id="&lt;Path&gt;" class="s8" d="m654.5 489.4q-16.4 25.8-20.8 36.8-4.4 11-1.8 42.3-8.4-37.7-3-56.5c5.4-18.7 14.7-22.5 25.6-22.6z"/>
			<g id="&lt;Group&gt;">
				<path id="&lt;Path&gt;" class="s13" d="m710.6 512.7c-5 7.5-10.3 14.2-16.5 20.8-3.2 3.3-6.5 6.5-10.8 9.5-2.1 1.5-4.4 3-7.7 4.2-1.6 0.5-3.6 1.1-6 1.1-1.3 0.1-2.6 0-4-0.4-0.6-0.1-1.4-0.4-2-0.6l-1-0.5c-2.7-1.3-4.9-2.8-6.8-4.3-2-1.6-3.8-3.1-5.4-4.8-3.3-3.2-6.2-6.5-8.9-9.9-5.5-6.9-10.2-14-14.5-21.6-1.3-2.4-0.5-5.4 1.9-6.8 2.1-1.1 4.5-0.7 6.1 0.9l0.1 0.1c5.6 5.9 11.5 11.8 17.3 17.2 3 2.7 6 5.3 9 7.6 2.9 2.3 6.1 4.3 8.4 5.1l0.4 0.2c-0.1-0.1-0.4-0.2-0.5-0.2-0.4-0.1-0.7-0.2-0.9-0.2-0.3 0-0.2 0 0.1-0.2 0.6-0.3 1.8-1.1 3-2.1 2.5-2.1 5.1-4.8 7.6-7.7 5-5.7 10-12.3 14.5-18.6l0.1-0.2c3.3-4.5 9.5-5.5 14-2.3 4.4 3.2 5.4 9.2 2.5 13.7z"/>
			</g>
			<path id="&lt;Path&gt;" class="s14" d="m708.4 520.1q-14.4 24.5-25.4 35c-1.8-7.7-3.2-15-3.9-20.9-0.9-8.8 0.2-16.7 2-23.2 4.6-3.7 9.1-7.5 11.4-9.4q5.7-4.7 15.9 18.5z"/>
			<path id="&lt;Path&gt;" class="s8" d="m709.4 497.4c7.6 4 5.3 14.9-4.6 27.8-9.9 13-27.8 30.4-37.2 27.2q-9.3-3.2-20-15.7l6.9-19.3q13.4 10.2 16.2 9.7c2.9-0.6 16.6-18.3 20.5-23.8 4-5.5 10-10.4 18.2-5.9z"/>
			<path id="&lt;Path&gt;" class="s16" d="m568.9 498.5l-0.3 3.8c-0.2 2.1-1.7 3.8-3.8 4.1l-5.2 0.7 1.3-14 4.3 0.7c2.3 0.4 3.8 2.4 3.7 4.7z"/>
		</g>
	</g>
</svg>