<svg version="1.2" xmlns="http://www.w3.org/2000/svg" viewBox="0 0 1000 1000" width="1000" height="1000">
	<title>6343824-ai</title>
	<style>
		.s0 { fill: #ebebeb } 
		.s1 { fill: #fafafa } 
		.s2 { fill: #f0f0f0 } 
		.s3 { fill: #e0e0e0 } 
		.s4 { fill: #f0f0f0;stroke: #e0e0e0;stroke-linecap: round;stroke-linejoin: round;stroke-width: 4 } 
		.s5 { fill: #f5f5f5 } 
		.s6 { fill: #e6e6e6 } 
		.s7 { fill: #407bff } 
		.s8 { opacity: .2;fill: #ffffff } 
		.s9 { opacity: .3;fill: #ffffff } 
		.s10 { fill: #263238 } 
		.s11 { fill: #ffffff } 
		.s12 { opacity: .7;fill: #ffffff } 
		.s13 { opacity: .2;fill: #000000 } 
		.s14 { opacity: .1;fill: #ffffff } 
		.s15 { opacity: .6;fill: #ffffff } 
		.s16 { fill: #b65b52 } 
		.s17 { fill: #b55b52 } 
		.s18 { opacity: .4;fill: #ffffff } 
		.s19 { fill: #a02724 } 
		.s20 { opacity: .5;fill: #ffffff } 
		.s21 { opacity: .1;fill: #000000 } 
	</style>
	<g id="Background Complete">
		<g id="&lt;Group&gt;">
			<path id="&lt;Path&gt;" class="s0" d="m1000 765.3h-1000v-0.5h1000z"/>
			<path id="&lt;Path&gt;" class="s0" d="m833.6 797h66.2v0.5h-66.2z"/>
			<path id="&lt;Path&gt;" class="s0" d="m645.1 802.4h17.3v0.5h-17.3z"/>
			<path id="&lt;Path&gt;" class="s0" d="m793.2 778.4h38.4v0.5h-38.4z"/>
			<path id="&lt;Path&gt;" class="s0" d="m104.9 781.8h86.4v0.5h-86.4z"/>
			<path id="&lt;Path&gt;" class="s0" d="m209.1 781.8h12.7v0.5h-12.7z"/>
			<path id="&lt;Path&gt;" class="s0" d="m262.9 790.2h187.4v0.5h-187.4z"/>
			<path id="&lt;Compound Path&gt;" fill-rule="evenodd" class="s0" d="m474 675.6h-386.2c-6.3 0-11.4-5.1-11.4-11.4v-542.9c0-6.3 5.1-11.4 11.4-11.4h386.2c6.3 0 11.4 5.1 11.4 11.4v542.9c0 6.3-5.1 11.4-11.4 11.4zm-386.2-565.2c-6 0-10.9 4.9-10.9 10.9v542.9c0 6 4.9 10.9 10.9 10.9h386.2c6 0 10.9-4.9 10.9-10.9v-542.9c0-6-4.9-10.9-10.9-10.9z"/>
			<path id="&lt;Compound Path&gt;" fill-rule="evenodd" class="s0" d="m906.6 675.6h-386.2c-6.3 0-11.4-5.1-11.4-11.4v-542.9c0-6.3 5.1-11.4 11.4-11.4h386.2c6.3 0 11.4 5.1 11.4 11.4v542.9c0 6.3-5.1 11.4-11.4 11.4zm-386.2-565.2c-6 0-10.9 4.9-10.9 10.9v542.9c0 6 4.9 10.9 10.9 10.9h386.2c6 0 10.9-4.9 10.9-10.9v-542.9c0-6-4.9-10.9-10.9-10.9z"/>
		</g>
		<g id="&lt;Group&gt;">
			<g id="&lt;Group&gt;">
				<path id="&lt;Path&gt;" class="s0" d="m497.7 205.3v379.9h-339v-379.9z"/>
				<path id="&lt;Path&gt;" class="s1" d="m497.7 211.5v367h-332.4v-367z"/>
				<g id="&lt;Group&gt;">
					<path id="&lt;Path&gt;" class="s2" d="m177.6 406.3v-25.8h7.4v-17.2h9.8v-25.8h2.5v25.8h9.8v17.2h7.3v25.8h13.6v7.3h6.1v28.3h1.2v-40.6h3.7v25.8h3.7v-61.4h2.4v25.8h9.9v-8.6h3.7v-35.6h7.3v-35.6h2.5v4.9h50.3v-14.7h8.6v-56.5h3.7v56.5h12.3v14.7h4.9v73.7h25.8v-22.1h-8.6v-3.7h8.6v-6.1h24.5v-56.5h6.2v-8.6h29.4v8.6h3.7v78.6h13.5v35.6h7.4v-28.3h6.1v-7.3h13.5v-25.8h7.4v-17.2h8.6v-25.8h3.3v266.8h-332.4v-172.2z"/>
					<g id="&lt;Group&gt;">
						<path id="&lt;Path&gt;" class="s1" d="m296.5 320.5h3.5v3.5h-3.5z"/>
						<path id="&lt;Path&gt;" class="s1" d="m296.5 326.3h3.5v3.5h-3.5z"/>
						<path id="&lt;Path&gt;" class="s1" d="m296.5 349.6h3.5v3.5h-3.5z"/>
						<path id="&lt;Path&gt;" class="s1" d="m296.5 355.5h3.5v3.4h-3.5z"/>
						<path id="&lt;Path&gt;" class="s1" d="m296.5 361.3h3.5v3.5h-3.5z"/>
						<path id="&lt;Path&gt;" class="s1" d="m296.5 378.8h3.5v3.5h-3.5z"/>
						<path id="&lt;Path&gt;" class="s1" d="m296.5 384.6h3.5v3.5h-3.5z"/>
						<path id="&lt;Path&gt;" class="s1" d="m302.1 343.8h3.4v3.5h-3.4z"/>
						<path id="&lt;Path&gt;" class="s1" d="m302.1 349.6h3.4v3.5h-3.4z"/>
						<path id="&lt;Path&gt;" class="s1" d="m302.1 355.5h3.4v3.4h-3.4z"/>
						<path id="&lt;Path&gt;" class="s1" d="m302.1 361.3h3.4v3.5h-3.4z"/>
						<path id="&lt;Path&gt;" class="s1" d="m302.1 367.1h3.4v3.5h-3.4z"/>
						<path id="&lt;Path&gt;" class="s1" d="m302.1 378.8h3.4v3.5h-3.4z"/>
						<path id="&lt;Path&gt;" class="s1" d="m302.1 384.6h3.4v3.5h-3.4z"/>
						<path id="&lt;Path&gt;" class="s1" d="m307.6 320.5h3.5v3.5h-3.5z"/>
						<path id="&lt;Path&gt;" class="s1" d="m307.6 326.3h3.5v3.5h-3.5z"/>
						<path id="&lt;Path&gt;" class="s1" d="m307.6 332.1h3.5v3.5h-3.5z"/>
						<path id="&lt;Path&gt;" class="s1" d="m307.6 338h3.5v3.5h-3.5z"/>
						<path id="&lt;Path&gt;" class="s1" d="m307.6 343.8h3.5v3.5h-3.5z"/>
						<path id="&lt;Path&gt;" class="s1" d="m307.6 349.6h3.5v3.5h-3.5z"/>
						<path id="&lt;Path&gt;" class="s1" d="m307.6 355.5h3.5v3.4h-3.5z"/>
						<path id="&lt;Path&gt;" class="s1" d="m307.6 361.3h3.5v3.5h-3.5z"/>
						<path id="&lt;Path&gt;" class="s1" d="m307.6 367.1h3.5v3.5h-3.5z"/>
						<path id="&lt;Path&gt;" class="s1" d="m307.6 373h3.5v3.4h-3.5z"/>
						<path id="&lt;Path&gt;" class="s1" d="m307.6 384.6h3.5v3.5h-3.5z"/>
						<path id="&lt;Path&gt;" class="s1" d="m313.1 320.5h3.5v3.5h-3.5z"/>
						<path id="&lt;Path&gt;" class="s1" d="m313.1 326.3h3.5v3.5h-3.5z"/>
						<path id="&lt;Path&gt;" class="s1" d="m313.1 332.1h3.5v3.5h-3.5z"/>
						<path id="&lt;Path&gt;" class="s1" d="m313.1 338h3.5v3.5h-3.5z"/>
						<path id="&lt;Path&gt;" class="s1" d="m313.1 343.8h3.5v3.5h-3.5z"/>
						<path id="&lt;Path&gt;" class="s1" d="m313.1 349.6h3.5v3.5h-3.5z"/>
						<path id="&lt;Path&gt;" class="s1" d="m313.1 355.5h3.5v3.4h-3.5z"/>
						<path id="&lt;Path&gt;" class="s1" d="m313.1 408h3.5v3.4h-3.5z"/>
						<path id="&lt;Path&gt;" class="s1" d="m318.6 320.5h3.5v3.5h-3.5z"/>
						<path id="&lt;Path&gt;" class="s1" d="m318.6 326.3h3.5v3.5h-3.5z"/>
						<path id="&lt;Path&gt;" class="s1" d="m318.6 332.1h3.5v3.5h-3.5z"/>
						<path id="&lt;Path&gt;" class="s1" d="m318.6 338h3.5v3.5h-3.5z"/>
						<path id="&lt;Path&gt;" class="s1" d="m318.6 343.8h3.5v3.5h-3.5z"/>
						<path id="&lt;Path&gt;" class="s1" d="m318.6 349.6h3.5v3.5h-3.5z"/>
						<path id="&lt;Path&gt;" class="s1" d="m318.6 355.5h3.5v3.4h-3.5z"/>
						<path id="&lt;Path&gt;" class="s1" d="m318.6 361.3h3.5v3.5h-3.5z"/>
						<path id="&lt;Path&gt;" class="s1" d="m318.6 396.3h3.5v3.5h-3.5z"/>
						<path id="&lt;Path&gt;" class="s1" d="m318.6 402.1h3.5v3.5h-3.5z"/>
						<path id="&lt;Path&gt;" class="s1" d="m318.6 408h3.5v3.4h-3.5z"/>
						<path id="&lt;Path&gt;" class="s1" d="m318.6 413.8h3.5v3.5h-3.5z"/>
						<path id="&lt;Path&gt;" class="s1" d="m318.6 437.1h3.5v3.5h-3.5z"/>
						<path id="&lt;Path&gt;" class="s1" d="m324.2 320.5h3.4v3.5h-3.4z"/>
						<path id="&lt;Path&gt;" class="s1" d="m324.2 326.3h3.4v3.5h-3.4z"/>
						<path id="&lt;Path&gt;" class="s1" d="m324.2 332.1h3.4v3.5h-3.4z"/>
						<path id="&lt;Path&gt;" class="s1" d="m324.2 338h3.4v3.5h-3.4z"/>
						<path id="&lt;Path&gt;" class="s1" d="m324.2 343.8h3.4v3.5h-3.4z"/>
						<path id="&lt;Path&gt;" class="s1" d="m324.2 349.6h3.4v3.5h-3.4z"/>
						<path id="&lt;Path&gt;" class="s1" d="m324.2 355.5h3.4v3.4h-3.4z"/>
						<path id="&lt;Path&gt;" class="s1" d="m324.2 361.3h3.4v3.5h-3.4z"/>
						<path id="&lt;Path&gt;" class="s1" d="m324.2 367.1h3.4v3.5h-3.4z"/>
						<path id="&lt;Path&gt;" class="s1" d="m324.2 373h3.4v3.4h-3.4z"/>
						<path id="&lt;Path&gt;" class="s1" d="m324.2 390.5h3.4v3.4h-3.4z"/>
						<path id="&lt;Path&gt;" class="s1" d="m324.2 396.3h3.4v3.5h-3.4z"/>
						<path id="&lt;Path&gt;" class="s1" d="m324.2 402.1h3.4v3.5h-3.4z"/>
						<path id="&lt;Path&gt;" class="s1" d="m324.2 408h3.4v3.4h-3.4z"/>
						<path id="&lt;Path&gt;" class="s1" d="m324.2 413.8h3.4v3.5h-3.4z"/>
						<path id="&lt;Path&gt;" class="s1" d="m324.2 437.1h3.4v3.5h-3.4z"/>
						<path id="&lt;Path&gt;" class="s1" d="m329.7 320.5h3.5v3.5h-3.5z"/>
						<path id="&lt;Path&gt;" class="s1" d="m329.7 326.3h3.5v3.5h-3.5z"/>
						<path id="&lt;Path&gt;" class="s1" d="m329.7 332.1h3.5v3.5h-3.5z"/>
						<path id="&lt;Path&gt;" class="s1" d="m329.7 338h3.5v3.5h-3.5z"/>
						<path id="&lt;Path&gt;" class="s1" d="m329.7 343.8h3.5v3.5h-3.5z"/>
						<path id="&lt;Path&gt;" class="s1" d="m329.7 349.6h3.5v3.5h-3.5z"/>
						<path id="&lt;Path&gt;" class="s1" d="m329.7 355.5h3.5v3.4h-3.5z"/>
						<path id="&lt;Path&gt;" class="s1" d="m329.7 361.3h3.5v3.5h-3.5z"/>
						<path id="&lt;Path&gt;" class="s1" d="m329.7 367.1h3.5v3.5h-3.5z"/>
						<path id="&lt;Path&gt;" class="s1" d="m329.7 373h3.5v3.4h-3.5z"/>
						<path id="&lt;Path&gt;" class="s1" d="m329.7 378.8h3.5v3.5h-3.5z"/>
						<path id="&lt;Path&gt;" class="s1" d="m329.7 384.6h3.5v3.5h-3.5z"/>
						<path id="&lt;Path&gt;" class="s1" d="m329.7 390.5h3.5v3.4h-3.5z"/>
						<path id="&lt;Path&gt;" class="s1" d="m329.7 396.3h3.5v3.5h-3.5z"/>
						<path id="&lt;Path&gt;" class="s1" d="m329.7 402.1h3.5v3.5h-3.5z"/>
						<path id="&lt;Path&gt;" class="s1" d="m329.7 408h3.5v3.4h-3.5z"/>
						<path id="&lt;Path&gt;" class="s1" d="m329.7 413.8h3.5v3.5h-3.5z"/>
						<path id="&lt;Path&gt;" class="s1" d="m329.7 419.6h3.5v3.5h-3.5z"/>
						<path id="&lt;Path&gt;" class="s1" d="m335.2 320.5h3.5v3.5h-3.5z"/>
						<path id="&lt;Path&gt;" class="s1" d="m335.2 326.3h3.5v3.5h-3.5z"/>
						<path id="&lt;Path&gt;" class="s1" d="m335.2 332.1h3.5v3.5h-3.5z"/>
						<path id="&lt;Path&gt;" class="s1" d="m335.2 338h3.5v3.5h-3.5z"/>
						<path id="&lt;Path&gt;" class="s1" d="m335.2 343.8h3.5v3.5h-3.5z"/>
						<path id="&lt;Path&gt;" class="s1" d="m335.2 349.6h3.5v3.5h-3.5z"/>
						<path id="&lt;Path&gt;" class="s1" d="m335.2 355.5h3.5v3.4h-3.5z"/>
						<path id="&lt;Path&gt;" class="s1" d="m335.2 361.3h3.5v3.5h-3.5z"/>
						<path id="&lt;Path&gt;" class="s1" d="m335.2 367.1h3.5v3.5h-3.5z"/>
						<path id="&lt;Path&gt;" class="s1" d="m335.2 373h3.5v3.4h-3.5z"/>
						<path id="&lt;Path&gt;" class="s1" d="m335.2 390.5h3.5v3.4h-3.5z"/>
						<path id="&lt;Path&gt;" class="s1" d="m335.2 396.3h3.5v3.5h-3.5z"/>
						<path id="&lt;Path&gt;" class="s1" d="m335.2 402.1h3.5v3.5h-3.5z"/>
						<path id="&lt;Path&gt;" class="s1" d="m335.2 408h3.5v3.4h-3.5z"/>
						<path id="&lt;Path&gt;" class="s1" d="m340.7 320.5h3.5v3.5h-3.5z"/>
						<path id="&lt;Path&gt;" class="s1" d="m340.7 326.3h3.5v3.5h-3.5z"/>
						<path id="&lt;Path&gt;" class="s1" d="m340.7 332.1h3.5v3.5h-3.5z"/>
						<path id="&lt;Path&gt;" class="s1" d="m340.7 338h3.5v3.5h-3.5z"/>
						<path id="&lt;Path&gt;" class="s1" d="m340.7 343.8h3.5v3.5h-3.5z"/>
						<path id="&lt;Path&gt;" class="s1" d="m340.7 349.6h3.5v3.5h-3.5z"/>
						<path id="&lt;Path&gt;" class="s1" d="m340.7 355.5h3.5v3.4h-3.5z"/>
						<path id="&lt;Path&gt;" class="s1" d="m340.7 361.3h3.5v3.5h-3.5z"/>
						<path id="&lt;Path&gt;" class="s1" d="m340.7 367.1h3.5v3.5h-3.5z"/>
						<path id="&lt;Path&gt;" class="s1" d="m340.7 373h3.5v3.4h-3.5z"/>
						<path id="&lt;Path&gt;" class="s1" d="m340.7 390.5h3.5v3.4h-3.5z"/>
						<path id="&lt;Path&gt;" class="s1" d="m340.7 396.3h3.5v3.5h-3.5z"/>
						<path id="&lt;Path&gt;" class="s1" d="m340.7 402.1h3.5v3.5h-3.5z"/>
						<path id="&lt;Path&gt;" class="s1" d="m402.9 305.3h3.5v3.5h-3.5z"/>
						<path id="&lt;Path&gt;" class="s1" d="m402.9 311.2h3.5v3.4h-3.5z"/>
						<path id="&lt;Path&gt;" class="s1" d="m402.9 317h3.5v3.5h-3.5z"/>
						<path id="&lt;Path&gt;" class="s1" d="m402.9 322.8h3.5v3.5h-3.5z"/>
						<path id="&lt;Path&gt;" class="s1" d="m402.9 328.7h3.5v3.4h-3.5z"/>
						<path id="&lt;Path&gt;" class="s1" d="m402.9 334.5h3.5v3.5h-3.5z"/>
						<path id="&lt;Path&gt;" class="s1" d="m402.9 340.3h3.5v3.5h-3.5z"/>
						<path id="&lt;Path&gt;" class="s1" d="m402.9 346.2h3.5v3.4h-3.5z"/>
						<path id="&lt;Path&gt;" class="s1" d="m402.9 363.7h3.5v3.4h-3.5z"/>
						<path id="&lt;Path&gt;" class="s1" d="m402.9 369.5h3.5v3.5h-3.5z"/>
						<path id="&lt;Path&gt;" class="s1" d="m408.5 305.3h3.4v3.5h-3.4z"/>
						<path id="&lt;Path&gt;" class="s1" d="m408.5 311.2h3.4v3.4h-3.4z"/>
						<path id="&lt;Path&gt;" class="s1" d="m408.5 317h3.4v3.5h-3.4z"/>
						<path id="&lt;Path&gt;" class="s1" d="m408.5 322.8h3.4v3.5h-3.4z"/>
						<path id="&lt;Path&gt;" class="s1" d="m408.5 328.7h3.4v3.4h-3.4z"/>
						<path id="&lt;Path&gt;" class="s1" d="m408.5 334.5h3.4v3.5h-3.4z"/>
						<path id="&lt;Path&gt;" class="s1" d="m408.5 340.3h3.4v3.5h-3.4z"/>
						<path id="&lt;Path&gt;" class="s1" d="m408.5 346.2h3.4v3.4h-3.4z"/>
						<path id="&lt;Path&gt;" class="s1" d="m408.5 369.5h3.4v3.5h-3.4z"/>
						<path id="&lt;Path&gt;" class="s1" d="m414 305.3h3.5v3.5h-3.5z"/>
						<path id="&lt;Path&gt;" class="s1" d="m414 311.2h3.5v3.4h-3.5z"/>
						<path id="&lt;Path&gt;" class="s1" d="m414 317h3.5v3.5h-3.5z"/>
						<path id="&lt;Path&gt;" class="s1" d="m414 322.8h3.5v3.5h-3.5z"/>
						<path id="&lt;Path&gt;" class="s1" d="m414 328.7h3.5v3.4h-3.5z"/>
						<path id="&lt;Path&gt;" class="s1" d="m414 334.5h3.5v3.5h-3.5z"/>
						<path id="&lt;Path&gt;" class="s1" d="m414 340.3h3.5v3.5h-3.5z"/>
						<path id="&lt;Path&gt;" class="s1" d="m414 346.2h3.5v3.4h-3.5z"/>
						<path id="&lt;Path&gt;" class="s1" d="m419.5 305.3h3.5v3.5h-3.5z"/>
						<path id="&lt;Path&gt;" class="s1" d="m419.5 311.2h3.5v3.4h-3.5z"/>
						<path id="&lt;Path&gt;" class="s1" d="m419.5 317h3.5v3.5h-3.5z"/>
						<path id="&lt;Path&gt;" class="s1" d="m419.5 322.8h3.5v3.5h-3.5z"/>
						<path id="&lt;Path&gt;" class="s1" d="m419.5 328.7h3.5v3.4h-3.5z"/>
						<path id="&lt;Path&gt;" class="s1" d="m419.5 334.5h3.5v3.5h-3.5z"/>
						<path id="&lt;Path&gt;" class="s1" d="m419.5 346.2h3.5v3.4h-3.5z"/>
						<path id="&lt;Path&gt;" class="s1" d="m419.5 352h3.5v3.5h-3.5z"/>
						<path id="&lt;Path&gt;" class="s1" d="m419.5 369.5h3.5v3.5h-3.5z"/>
						<path id="&lt;Path&gt;" class="s1" d="m419.5 375.3h3.5v3.5h-3.5z"/>
						<path id="&lt;Path&gt;" class="s1" d="m419.5 381.2h3.5v3.4h-3.5z"/>
						<path id="&lt;Path&gt;" class="s1" d="m419.5 387h3.5v3.5h-3.5z"/>
						<path id="&lt;Path&gt;" class="s1" d="m419.5 392.8h3.5v3.5h-3.5z"/>
						<path id="&lt;Path&gt;" class="s1" d="m419.5 398.6h3.5v3.5h-3.5z"/>
						<path id="&lt;Path&gt;" class="s1" d="m419.5 404.5h3.5v3.5h-3.5z"/>
						<path id="&lt;Path&gt;" class="s1" d="m425 305.3h3.5v3.5h-3.5z"/>
						<path id="&lt;Path&gt;" class="s1" d="m425 311.2h3.5v3.4h-3.5z"/>
						<path id="&lt;Path&gt;" class="s1" d="m425 317h3.5v3.5h-3.5z"/>
						<path id="&lt;Path&gt;" class="s1" d="m425 322.8h3.5v3.5h-3.5z"/>
						<path id="&lt;Path&gt;" class="s1" d="m425 328.7h3.5v3.4h-3.5z"/>
						<path id="&lt;Path&gt;" class="s1" d="m425 334.5h3.5v3.5h-3.5z"/>
						<path id="&lt;Path&gt;" class="s1" d="m425 352h3.5v3.5h-3.5z"/>
						<path id="&lt;Path&gt;" class="s1" d="m425 357.8h3.5v3.5h-3.5z"/>
						<path id="&lt;Path&gt;" class="s1" d="m425 363.7h3.5v3.4h-3.5z"/>
						<path id="&lt;Path&gt;" class="s1" d="m425 369.5h3.5v3.5h-3.5z"/>
						<path id="&lt;Path&gt;" class="s1" d="m425 375.3h3.5v3.5h-3.5z"/>
						<path id="&lt;Path&gt;" class="s1" d="m425 381.2h3.5v3.4h-3.5z"/>
						<path id="&lt;Path&gt;" class="s1" d="m425 387h3.5v3.5h-3.5z"/>
						<path id="&lt;Path&gt;" class="s1" d="m425 392.8h3.5v3.5h-3.5z"/>
						<path id="&lt;Path&gt;" class="s1" d="m425 398.6h3.5v3.5h-3.5z"/>
						<path id="&lt;Path&gt;" class="s1" d="m425 404.5h3.5v3.5h-3.5z"/>
						<path id="&lt;Path&gt;" class="s1" d="m425 410.3h3.5v3.5h-3.5z"/>
						<path id="&lt;Path&gt;" class="s1" d="m425 422h3.5v3.5h-3.5z"/>
						<path id="&lt;Path&gt;" class="s1" d="m430.6 305.3h3.4v3.5h-3.4z"/>
						<path id="&lt;Path&gt;" class="s1" d="m430.6 311.2h3.4v3.4h-3.4z"/>
						<path id="&lt;Path&gt;" class="s1" d="m430.6 317h3.4v3.5h-3.4z"/>
						<path id="&lt;Path&gt;" class="s1" d="m430.6 322.8h3.4v3.5h-3.4z"/>
						<path id="&lt;Path&gt;" class="s1" d="m430.6 328.7h3.4v3.4h-3.4z"/>
						<path id="&lt;Path&gt;" class="s1" d="m430.6 334.5h3.4v3.5h-3.4z"/>
						<path id="&lt;Path&gt;" class="s1" d="m430.6 352h3.4v3.5h-3.4z"/>
						<path id="&lt;Path&gt;" class="s1" d="m430.6 357.8h3.4v3.5h-3.4z"/>
						<path id="&lt;Path&gt;" class="s1" d="m430.6 363.7h3.4v3.4h-3.4z"/>
						<path id="&lt;Path&gt;" class="s1" d="m430.6 369.5h3.4v3.5h-3.4z"/>
						<path id="&lt;Path&gt;" class="s1" d="m430.6 387h3.4v3.5h-3.4z"/>
						<path id="&lt;Path&gt;" class="s1" d="m430.6 392.8h3.4v3.5h-3.4z"/>
						<path id="&lt;Path&gt;" class="s1" d="m430.6 398.6h3.4v3.5h-3.4z"/>
						<path id="&lt;Path&gt;" class="s1" d="m430.6 404.5h3.4v3.5h-3.4z"/>
						<path id="&lt;Path&gt;" class="s1" d="m430.6 410.3h3.4v3.5h-3.4z"/>
						<path id="&lt;Path&gt;" class="s1" d="m430.6 422h3.4v3.5h-3.4z"/>
						<path id="&lt;Path&gt;" class="s1" d="m430.6 427.8h3.4v3.5h-3.4z"/>
						<path id="&lt;Path&gt;" class="s1" d="m480.7 359.6h3.5v3.4h-3.5z"/>
						<path id="&lt;Path&gt;" class="s1" d="m480.7 365.4h3.5v3.5h-3.5z"/>
						<path id="&lt;Path&gt;" class="s1" d="m480.7 371.2h3.5v3.5h-3.5z"/>
						<path id="&lt;Path&gt;" class="s1" d="m480.7 377.1h3.5v3.4h-3.5z"/>
						<path id="&lt;Path&gt;" class="s1" d="m480.7 382.9h3.5v3.5h-3.5z"/>
						<path id="&lt;Path&gt;" class="s1" d="m480.7 388.7h3.5v3.5h-3.5z"/>
						<path id="&lt;Path&gt;" class="s1" d="m480.7 394.6h3.5v3.4h-3.5z"/>
						<path id="&lt;Path&gt;" class="s1" d="m480.7 412.1h3.5v3.4h-3.5z"/>
						<path id="&lt;Path&gt;" class="s1" d="m480.7 417.9h3.5v3.5h-3.5z"/>
						<path id="&lt;Path&gt;" class="s1" d="m480.7 423.7h3.5v3.5h-3.5z"/>
						<path id="&lt;Path&gt;" class="s1" d="m486.2 359.6h3.5v3.4h-3.5z"/>
						<path id="&lt;Path&gt;" class="s1" d="m486.2 365.4h3.5v3.5h-3.5z"/>
						<path id="&lt;Path&gt;" class="s1" d="m486.2 371.2h3.5v3.5h-3.5z"/>
						<path id="&lt;Path&gt;" class="s1" d="m486.2 377.1h3.5v3.4h-3.5z"/>
						<path id="&lt;Path&gt;" class="s1" d="m486.2 382.9h3.5v3.5h-3.5z"/>
						<path id="&lt;Path&gt;" class="s1" d="m486.2 388.7h3.5v3.5h-3.5z"/>
						<path id="&lt;Path&gt;" class="s1" d="m486.2 394.6h3.5v3.4h-3.5z"/>
						<path id="&lt;Path&gt;" class="s1" d="m491.8 359.6h5v3.4h-5z"/>
						<path id="&lt;Path&gt;" class="s1" d="m491.8 365.4h5v3.5h-5z"/>
						<path id="&lt;Path&gt;" class="s1" d="m491.8 371.2h5v3.5h-5z"/>
						<path id="&lt;Path&gt;" class="s1" d="m491.8 377.1h5v3.4h-5z"/>
						<path id="&lt;Path&gt;" class="s1" d="m491.8 382.9h5v3.5h-5z"/>
						<path id="&lt;Path&gt;" class="s1" d="m491.8 388.7h5v3.5h-5z"/>
						<path id="&lt;Path&gt;" class="s1" d="m491.8 394.6h5v3.4h-5z"/>
						<path id="&lt;Path&gt;" class="s1" d="m187.9 367.1h3.5v3.5h-3.5z"/>
						<path id="&lt;Path&gt;" class="s1" d="m187.9 373h3.5v3.4h-3.5z"/>
						<path id="&lt;Path&gt;" class="s1" d="m187.9 378.8h3.5v3.5h-3.5z"/>
						<path id="&lt;Path&gt;" class="s1" d="m187.9 384.6h3.5v3.5h-3.5z"/>
						<path id="&lt;Path&gt;" class="s1" d="m187.9 390.5h3.5v3.4h-3.5z"/>
						<path id="&lt;Path&gt;" class="s1" d="m187.9 396.3h3.5v3.5h-3.5z"/>
						<path id="&lt;Path&gt;" class="s1" d="m187.9 402.1h3.5v3.5h-3.5z"/>
						<path id="&lt;Path&gt;" class="s1" d="m187.9 408h3.5v3.4h-3.5z"/>
						<path id="&lt;Path&gt;" class="s1" d="m187.9 413.8h3.5v3.5h-3.5z"/>
						<path id="&lt;Path&gt;" class="s1" d="m187.9 419.6h3.5v3.5h-3.5z"/>
						<path id="&lt;Path&gt;" class="s1" d="m187.9 425.5h3.5v3.4h-3.5z"/>
						<path id="&lt;Path&gt;" class="s1" d="m187.9 431.3h3.5v3.5h-3.5z"/>
						<path id="&lt;Path&gt;" class="s1" d="m187.9 437.1h3.5v3.5h-3.5z"/>
						<path id="&lt;Path&gt;" class="s1" d="m187.9 443h3.5v3.4h-3.5z"/>
						<path id="&lt;Path&gt;" class="s1" d="m187.9 448.8h3.5v3.5h-3.5z"/>
						<path id="&lt;Path&gt;" class="s1" d="m187.9 454.6h3.5v3.5h-3.5z"/>
						<path id="&lt;Path&gt;" class="s1" d="m187.9 460.4h3.5v3.5h-3.5z"/>
						<path id="&lt;Path&gt;" class="s1" d="m187.9 466.3h3.5v3.5h-3.5z"/>
						<path id="&lt;Path&gt;" class="s1" d="m187.9 472.1h3.5v3.5h-3.5z"/>
						<path id="&lt;Path&gt;" class="s1" d="m187.9 477.9h3.5v3.5h-3.5z"/>
						<path id="&lt;Path&gt;" class="s1" d="m193.4 367.1h3.5v3.5h-3.5z"/>
						<path id="&lt;Path&gt;" class="s1" d="m193.4 373h3.5v3.4h-3.5z"/>
						<path id="&lt;Path&gt;" class="s1" d="m193.4 378.8h3.5v3.5h-3.5z"/>
						<path id="&lt;Path&gt;" class="s1" d="m193.4 384.6h3.5v3.5h-3.5z"/>
						<path id="&lt;Path&gt;" class="s1" d="m193.4 390.5h3.5v3.4h-3.5z"/>
						<path id="&lt;Path&gt;" class="s1" d="m193.4 396.3h3.5v3.5h-3.5z"/>
						<path id="&lt;Path&gt;" class="s1" d="m193.4 402.1h3.5v3.5h-3.5z"/>
						<path id="&lt;Path&gt;" class="s1" d="m193.4 408h3.5v3.4h-3.5z"/>
						<path id="&lt;Path&gt;" class="s1" d="m193.4 413.8h3.5v3.5h-3.5z"/>
						<path id="&lt;Path&gt;" class="s1" d="m193.4 419.6h3.5v3.5h-3.5z"/>
						<path id="&lt;Path&gt;" class="s1" d="m193.4 425.5h3.5v3.4h-3.5z"/>
						<path id="&lt;Path&gt;" class="s1" d="m193.4 431.3h3.5v3.5h-3.5z"/>
						<path id="&lt;Path&gt;" class="s1" d="m193.4 437.1h3.5v3.5h-3.5z"/>
						<path id="&lt;Path&gt;" class="s1" d="m193.4 443h3.5v3.4h-3.5z"/>
						<path id="&lt;Path&gt;" class="s1" d="m193.4 448.8h3.5v3.5h-3.5z"/>
						<path id="&lt;Path&gt;" class="s1" d="m193.4 454.6h3.5v3.5h-3.5z"/>
						<path id="&lt;Path&gt;" class="s1" d="m193.4 460.4h3.5v3.5h-3.5z"/>
						<path id="&lt;Path&gt;" class="s1" d="m193.4 466.3h3.5v3.5h-3.5z"/>
						<path id="&lt;Path&gt;" class="s1" d="m198.9 367.1h3.5v3.5h-3.5z"/>
						<path id="&lt;Path&gt;" class="s1" d="m198.9 373h3.5v3.4h-3.5z"/>
						<path id="&lt;Path&gt;" class="s1" d="m198.9 378.8h3.5v3.5h-3.5z"/>
						<path id="&lt;Path&gt;" class="s1" d="m198.9 384.6h3.5v3.5h-3.5z"/>
						<path id="&lt;Path&gt;" class="s1" d="m198.9 390.5h3.5v3.4h-3.5z"/>
						<path id="&lt;Path&gt;" class="s1" d="m198.9 396.3h3.5v3.5h-3.5z"/>
						<path id="&lt;Path&gt;" class="s1" d="m198.9 402.1h3.5v3.5h-3.5z"/>
						<path id="&lt;Path&gt;" class="s1" d="m198.9 408h3.5v3.4h-3.5z"/>
						<path id="&lt;Path&gt;" class="s1" d="m198.9 413.8h3.5v3.5h-3.5z"/>
						<path id="&lt;Path&gt;" class="s1" d="m198.9 419.6h3.5v3.5h-3.5z"/>
						<path id="&lt;Path&gt;" class="s1" d="m198.9 425.5h3.5v3.4h-3.5z"/>
						<path id="&lt;Path&gt;" class="s1" d="m198.9 431.3h3.5v3.5h-3.5z"/>
						<path id="&lt;Path&gt;" class="s1" d="m198.9 437.1h3.5v3.5h-3.5z"/>
						<path id="&lt;Path&gt;" class="s1" d="m198.9 443h3.5v3.4h-3.5z"/>
						<path id="&lt;Path&gt;" class="s1" d="m198.9 448.8h3.5v3.5h-3.5z"/>
						<path id="&lt;Path&gt;" class="s1" d="m198.9 454.6h3.5v3.5h-3.5z"/>
						<path id="&lt;Path&gt;" class="s1" d="m198.9 460.4h3.5v3.5h-3.5z"/>
						<path id="&lt;Path&gt;" class="s1" d="m198.9 466.3h3.5v3.5h-3.5z"/>
						<path id="&lt;Path&gt;" class="s1" d="m167.2 409.7h3.5v3.5h-3.5z"/>
						<path id="&lt;Path&gt;" class="s1" d="m167.2 415.5h3.5v3.5h-3.5z"/>
						<path id="&lt;Path&gt;" class="s1" d="m167.2 421.4h3.5v3.4h-3.5z"/>
						<path id="&lt;Path&gt;" class="s1" d="m167.2 427.2h3.5v3.5h-3.5z"/>
						<path id="&lt;Path&gt;" class="s1" d="m167.2 433h3.5v3.5h-3.5z"/>
						<path id="&lt;Path&gt;" class="s1" d="m167.2 438.9h3.5v3.4h-3.5z"/>
						<path id="&lt;Path&gt;" class="s1" d="m167.2 444.7h3.5v3.5h-3.5z"/>
						<path id="&lt;Path&gt;" class="s1" d="m167.2 450.5h3.5v3.5h-3.5z"/>
						<path id="&lt;Path&gt;" class="s1" d="m167.2 456.4h3.5v3.4h-3.5z"/>
						<path id="&lt;Path&gt;" class="s1" d="m167.2 462.2h3.5v3.5h-3.5z"/>
						<path id="&lt;Path&gt;" class="s1" d="m167.2 468h3.5v3.5h-3.5z"/>
						<path id="&lt;Path&gt;" class="s1" d="m167.2 473.9h3.5v3.4h-3.5z"/>
						<path id="&lt;Path&gt;" class="s1" d="m167.2 479.7h3.5v3.5h-3.5z"/>
						<path id="&lt;Path&gt;" class="s1" d="m172.7 409.7h3.5v3.5h-3.5z"/>
						<path id="&lt;Path&gt;" class="s1" d="m172.7 415.5h3.5v3.5h-3.5z"/>
						<path id="&lt;Path&gt;" class="s1" d="m172.7 421.4h3.5v3.4h-3.5z"/>
						<path id="&lt;Path&gt;" class="s1" d="m172.7 427.2h3.5v3.5h-3.5z"/>
						<path id="&lt;Path&gt;" class="s1" d="m172.7 433h3.5v3.5h-3.5z"/>
						<path id="&lt;Path&gt;" class="s1" d="m172.7 438.9h3.5v3.4h-3.5z"/>
						<path id="&lt;Path&gt;" class="s1" d="m172.7 444.7h3.5v3.5h-3.5z"/>
						<path id="&lt;Path&gt;" class="s1" d="m172.7 450.5h3.5v3.5h-3.5z"/>
						<path id="&lt;Path&gt;" class="s1" d="m172.7 456.4h3.5v3.4h-3.5z"/>
						<path id="&lt;Path&gt;" class="s1" d="m172.7 462.2h3.5v3.5h-3.5z"/>
						<path id="&lt;Path&gt;" class="s1" d="m172.7 468h3.5v3.5h-3.5z"/>
						<path id="&lt;Path&gt;" class="s1" d="m172.7 473.9h3.5v3.4h-3.5z"/>
						<path id="&lt;Path&gt;" class="s1" d="m172.7 479.7h3.5v3.5h-3.5z"/>
						<path id="&lt;Path&gt;" class="s1" d="m178.3 409.7h3.4v3.5h-3.4z"/>
						<path id="&lt;Path&gt;" class="s1" d="m178.3 415.5h3.4v3.5h-3.4z"/>
						<path id="&lt;Path&gt;" class="s1" d="m178.3 421.4h3.4v3.4h-3.4z"/>
						<path id="&lt;Path&gt;" class="s1" d="m178.3 427.2h3.4v3.5h-3.4z"/>
						<path id="&lt;Path&gt;" class="s1" d="m178.3 433h3.4v3.5h-3.4z"/>
						<path id="&lt;Path&gt;" class="s1" d="m178.3 438.9h3.4v3.4h-3.4z"/>
						<path id="&lt;Path&gt;" class="s1" d="m178.3 444.7h3.4v3.5h-3.4z"/>
						<path id="&lt;Path&gt;" class="s1" d="m178.3 450.5h3.4v3.5h-3.4z"/>
						<path id="&lt;Path&gt;" class="s1" d="m178.3 456.4h3.4v3.4h-3.4z"/>
						<path id="&lt;Path&gt;" class="s1" d="m178.3 462.2h3.4v3.5h-3.4z"/>
						<path id="&lt;Path&gt;" class="s1" d="m178.3 468h3.4v3.5h-3.4z"/>
						<path id="&lt;Path&gt;" class="s1" d="m178.3 473.9h3.4v3.4h-3.4z"/>
						<path id="&lt;Path&gt;" class="s1" d="m178.3 479.7h3.4v3.5h-3.4z"/>
						<path id="&lt;Path&gt;" class="s1" d="m178.3 485.5h3.4v3.5h-3.4z"/>
						<path id="&lt;Path&gt;" class="s1" d="m209 411.4h3.4v3.5h-3.4z"/>
						<path id="&lt;Path&gt;" class="s1" d="m209 417.3h3.4v3.4h-3.4z"/>
						<path id="&lt;Path&gt;" class="s1" d="m209 423.1h3.4v3.5h-3.4z"/>
						<path id="&lt;Path&gt;" class="s1" d="m209 428.9h3.4v3.5h-3.4z"/>
						<path id="&lt;Path&gt;" class="s1" d="m209 434.8h3.4v3.4h-3.4z"/>
						<path id="&lt;Path&gt;" class="s1" d="m209 440.6h3.4v3.5h-3.4z"/>
						<path id="&lt;Path&gt;" class="s1" d="m209 446.4h3.4v3.5h-3.4z"/>
						<path id="&lt;Path&gt;" class="s1" d="m209 452.3h3.4v3.4h-3.4z"/>
						<path id="&lt;Path&gt;" class="s1" d="m209 458.1h3.4v3.5h-3.4z"/>
						<path id="&lt;Path&gt;" class="s1" d="m209 463.9h3.4v3.5h-3.4z"/>
						<path id="&lt;Path&gt;" class="s1" d="m209 481.4h3.4v3.5h-3.4z"/>
						<path id="&lt;Path&gt;" class="s1" d="m214.5 411.4h3.5v3.5h-3.5z"/>
						<path id="&lt;Path&gt;" class="s1" d="m214.5 417.3h3.5v3.4h-3.5z"/>
						<path id="&lt;Path&gt;" class="s1" d="m214.5 423.1h3.5v3.5h-3.5z"/>
						<path id="&lt;Path&gt;" class="s1" d="m214.5 428.9h3.5v3.5h-3.5z"/>
						<path id="&lt;Path&gt;" class="s1" d="m214.5 434.8h3.5v3.4h-3.5z"/>
						<path id="&lt;Path&gt;" class="s1" d="m214.5 440.6h3.5v3.5h-3.5z"/>
						<path id="&lt;Path&gt;" class="s1" d="m214.5 446.4h3.5v3.5h-3.5z"/>
						<path id="&lt;Path&gt;" class="s1" d="m214.5 452.3h3.5v3.4h-3.5z"/>
						<path id="&lt;Path&gt;" class="s1" d="m214.5 458.1h3.5v3.5h-3.5z"/>
						<path id="&lt;Path&gt;" class="s1" d="m214.5 475.6h3.5v3.5h-3.5z"/>
						<path id="&lt;Path&gt;" class="s1" d="m214.5 481.4h3.5v3.5h-3.5z"/>
						<path id="&lt;Path&gt;" class="s1" d="m220 411.4h3.5v3.5h-3.5z"/>
						<path id="&lt;Path&gt;" class="s1" d="m220 417.3h3.5v3.4h-3.5z"/>
						<path id="&lt;Path&gt;" class="s1" d="m220 423.1h3.5v3.5h-3.5z"/>
						<path id="&lt;Path&gt;" class="s1" d="m220 428.9h3.5v3.5h-3.5z"/>
						<path id="&lt;Path&gt;" class="s1" d="m220 434.8h3.5v3.4h-3.5z"/>
						<path id="&lt;Path&gt;" class="s1" d="m220 440.6h3.5v3.5h-3.5z"/>
						<path id="&lt;Path&gt;" class="s1" d="m220 446.4h3.5v3.5h-3.5z"/>
						<path id="&lt;Path&gt;" class="s1" d="m220 452.3h3.5v3.4h-3.5z"/>
						<path id="&lt;Path&gt;" class="s1" d="m220 469.8h3.5v3.4h-3.5z"/>
						<path id="&lt;Path&gt;" class="s1" d="m220 475.6h3.5v3.5h-3.5z"/>
						<path id="&lt;Path&gt;" class="s1" d="m220 481.4h3.5v3.5h-3.5z"/>
						<path id="&lt;Path&gt;" class="s1" d="m271.4 322.8h3.4v3.5h-3.4z"/>
						<path id="&lt;Path&gt;" class="s1" d="m271.4 328.7h3.4v3.4h-3.4z"/>
						<path id="&lt;Path&gt;" class="s1" d="m271.4 334.5h3.4v3.5h-3.4z"/>
						<path id="&lt;Path&gt;" class="s1" d="m271.4 340.3h3.4v3.5h-3.4z"/>
						<path id="&lt;Path&gt;" class="s1" d="m271.4 346.2h3.4v3.4h-3.4z"/>
						<path id="&lt;Path&gt;" class="s1" d="m271.4 352h3.4v3.5h-3.4z"/>
						<path id="&lt;Path&gt;" class="s1" d="m271.4 357.8h3.4v3.5h-3.4z"/>
						<path id="&lt;Path&gt;" class="s1" d="m271.4 363.7h3.4v3.4h-3.4z"/>
						<path id="&lt;Path&gt;" class="s1" d="m271.4 369.5h3.4v3.5h-3.4z"/>
						<path id="&lt;Path&gt;" class="s1" d="m271.4 375.3h3.4v3.5h-3.4z"/>
						<path id="&lt;Path&gt;" class="s1" d="m271.4 381.2h3.4v3.4h-3.4z"/>
						<path id="&lt;Path&gt;" class="s1" d="m271.4 387h3.4v3.5h-3.4z"/>
						<path id="&lt;Path&gt;" class="s1" d="m271.4 392.8h3.4v3.5h-3.4z"/>
						<path id="&lt;Path&gt;" class="s1" d="m271.4 398.6h3.4v3.5h-3.4z"/>
						<path id="&lt;Path&gt;" class="s1" d="m271.4 404.5h3.4v3.5h-3.4z"/>
						<path id="&lt;Path&gt;" class="s1" d="m271.4 410.3h3.4v3.5h-3.4z"/>
						<path id="&lt;Path&gt;" class="s1" d="m271.4 416.1h3.4v3.5h-3.4z"/>
						<path id="&lt;Path&gt;" class="s1" d="m271.4 427.8h3.4v3.5h-3.4z"/>
						<path id="&lt;Path&gt;" class="s1" d="m271.4 433.6h3.4v3.5h-3.4z"/>
						<path id="&lt;Path&gt;" class="s1" d="m271.4 439.5h3.4v3.5h-3.4z"/>
						<path id="&lt;Path&gt;" class="s1" d="m271.4 445.3h3.4v3.5h-3.4z"/>
						<path id="&lt;Path&gt;" class="s1" d="m271.4 451.1h3.4v3.5h-3.4z"/>
						<path id="&lt;Path&gt;" class="s1" d="m276.9 322.8h3.5v3.5h-3.5z"/>
						<path id="&lt;Path&gt;" class="s1" d="m276.9 328.7h3.5v3.4h-3.5z"/>
						<path id="&lt;Path&gt;" class="s1" d="m276.9 334.5h3.5v3.5h-3.5z"/>
						<path id="&lt;Path&gt;" class="s1" d="m276.9 340.3h3.5v3.5h-3.5z"/>
						<path id="&lt;Path&gt;" class="s1" d="m276.9 346.2h3.5v3.4h-3.5z"/>
						<path id="&lt;Path&gt;" class="s1" d="m276.9 352h3.5v3.5h-3.5z"/>
						<path id="&lt;Path&gt;" class="s1" d="m276.9 357.8h3.5v3.5h-3.5z"/>
						<path id="&lt;Path&gt;" class="s1" d="m276.9 363.7h3.5v3.4h-3.5z"/>
						<path id="&lt;Path&gt;" class="s1" d="m276.9 369.5h3.5v3.5h-3.5z"/>
						<path id="&lt;Path&gt;" class="s1" d="m276.9 375.3h3.5v3.5h-3.5z"/>
						<path id="&lt;Path&gt;" class="s1" d="m276.9 381.2h3.5v3.4h-3.5z"/>
						<path id="&lt;Path&gt;" class="s1" d="m276.9 387h3.5v3.5h-3.5z"/>
						<path id="&lt;Path&gt;" class="s1" d="m276.9 392.8h3.5v3.5h-3.5z"/>
						<path id="&lt;Path&gt;" class="s1" d="m276.9 398.6h3.5v3.5h-3.5z"/>
						<path id="&lt;Path&gt;" class="s1" d="m276.9 404.5h3.5v3.5h-3.5z"/>
						<path id="&lt;Path&gt;" class="s1" d="m276.9 410.3h3.5v3.5h-3.5z"/>
						<path id="&lt;Path&gt;" class="s1" d="m276.9 445.3h3.5v3.5h-3.5z"/>
						<path id="&lt;Path&gt;" class="s1" d="m276.9 451.1h3.5v3.5h-3.5z"/>
						<path id="&lt;Path&gt;" class="s1" d="m282.4 322.8h3.5v3.5h-3.5z"/>
						<path id="&lt;Path&gt;" class="s1" d="m282.4 328.7h3.5v3.4h-3.5z"/>
						<path id="&lt;Path&gt;" class="s1" d="m282.4 334.5h3.5v3.5h-3.5z"/>
						<path id="&lt;Path&gt;" class="s1" d="m282.4 340.3h3.5v3.5h-3.5z"/>
						<path id="&lt;Path&gt;" class="s1" d="m282.4 346.2h3.5v3.4h-3.5z"/>
						<path id="&lt;Path&gt;" class="s1" d="m282.4 352h3.5v3.5h-3.5z"/>
						<path id="&lt;Path&gt;" class="s1" d="m282.4 357.8h3.5v3.5h-3.5z"/>
						<path id="&lt;Path&gt;" class="s1" d="m282.4 363.7h3.5v3.4h-3.5z"/>
						<path id="&lt;Path&gt;" class="s1" d="m282.4 369.5h3.5v3.5h-3.5z"/>
						<path id="&lt;Path&gt;" class="s1" d="m282.4 375.3h3.5v3.5h-3.5z"/>
						<path id="&lt;Path&gt;" class="s1" d="m282.4 381.2h3.5v3.4h-3.5z"/>
						<path id="&lt;Path&gt;" class="s1" d="m282.4 387h3.5v3.5h-3.5z"/>
						<path id="&lt;Path&gt;" class="s1" d="m282.4 392.8h3.5v3.5h-3.5z"/>
						<path id="&lt;Path&gt;" class="s1" d="m282.4 398.6h3.5v3.5h-3.5z"/>
						<path id="&lt;Path&gt;" class="s1" d="m282.4 404.5h3.5v3.5h-3.5z"/>
						<path id="&lt;Path&gt;" class="s1" d="m282.4 410.3h3.5v3.5h-3.5z"/>
						<path id="&lt;Path&gt;" class="s1" d="m282.4 422h3.5v3.5h-3.5z"/>
						<path id="&lt;Path&gt;" class="s1" d="m282.4 427.8h3.5v3.5h-3.5z"/>
						<path id="&lt;Path&gt;" class="s1" d="m282.4 433.6h3.5v3.5h-3.5z"/>
						<path id="&lt;Path&gt;" class="s1" d="m282.4 439.5h3.5v3.5h-3.5z"/>
						<path id="&lt;Path&gt;" class="s1" d="m282.4 451.1h3.5v3.5h-3.5z"/>
						<path id="&lt;Path&gt;" class="s1" d="m251.3 396.3h3.5v3.5h-3.5z"/>
						<path id="&lt;Path&gt;" class="s1" d="m251.3 402.1h3.5v3.5h-3.5z"/>
						<path id="&lt;Path&gt;" class="s1" d="m251.3 408h3.5v3.4h-3.5z"/>
						<path id="&lt;Path&gt;" class="s1" d="m251.3 413.8h3.5v3.5h-3.5z"/>
						<path id="&lt;Path&gt;" class="s1" d="m251.3 419.6h3.5v3.5h-3.5z"/>
						<path id="&lt;Path&gt;" class="s1" d="m251.3 425.5h3.5v3.4h-3.5z"/>
						<path id="&lt;Path&gt;" class="s1" d="m251.3 431.3h3.5v3.5h-3.5z"/>
						<path id="&lt;Path&gt;" class="s1" d="m251.3 443h3.5v3.4h-3.5z"/>
						<path id="&lt;Path&gt;" class="s1" d="m251.3 448.8h3.5v3.5h-3.5z"/>
						<path id="&lt;Path&gt;" class="s1" d="m251.3 454.6h3.5v3.5h-3.5z"/>
						<path id="&lt;Path&gt;" class="s1" d="m251.3 460.4h3.5v3.5h-3.5z"/>
						<path id="&lt;Path&gt;" class="s1" d="m251.3 466.3h3.5v3.5h-3.5z"/>
						<path id="&lt;Path&gt;" class="s1" d="m251.3 472.1h3.5v3.5h-3.5z"/>
						<path id="&lt;Path&gt;" class="s1" d="m251.3 477.9h3.5v3.5h-3.5z"/>
						<path id="&lt;Path&gt;" class="s1" d="m251.3 483.8h3.5v3.5h-3.5z"/>
						<path id="&lt;Path&gt;" class="s1" d="m256.8 396.3h3.5v3.5h-3.5z"/>
						<path id="&lt;Path&gt;" class="s1" d="m256.8 402.1h3.5v3.5h-3.5z"/>
						<path id="&lt;Path&gt;" class="s1" d="m256.8 408h3.5v3.4h-3.5z"/>
						<path id="&lt;Path&gt;" class="s1" d="m256.8 413.8h3.5v3.5h-3.5z"/>
						<path id="&lt;Path&gt;" class="s1" d="m256.8 419.6h3.5v3.5h-3.5z"/>
						<path id="&lt;Path&gt;" class="s1" d="m256.8 425.5h3.5v3.4h-3.5z"/>
						<path id="&lt;Path&gt;" class="s1" d="m256.8 443h3.5v3.4h-3.5z"/>
						<path id="&lt;Path&gt;" class="s1" d="m256.8 448.8h3.5v3.5h-3.5z"/>
						<path id="&lt;Path&gt;" class="s1" d="m256.8 454.6h3.5v3.5h-3.5z"/>
						<path id="&lt;Path&gt;" class="s1" d="m256.8 460.4h3.5v3.5h-3.5z"/>
						<path id="&lt;Path&gt;" class="s1" d="m256.8 466.3h3.5v3.5h-3.5z"/>
						<path id="&lt;Path&gt;" class="s1" d="m256.8 472.1h3.5v3.5h-3.5z"/>
						<path id="&lt;Path&gt;" class="s1" d="m256.8 477.9h3.5v3.5h-3.5z"/>
						<path id="&lt;Path&gt;" class="s1" d="m256.8 483.8h3.5v3.5h-3.5z"/>
						<path id="&lt;Path&gt;" class="s1" d="m262.4 396.3h3.4v3.5h-3.4z"/>
						<path id="&lt;Path&gt;" class="s1" d="m262.4 402.1h3.4v3.5h-3.4z"/>
						<path id="&lt;Path&gt;" class="s1" d="m262.4 408h3.4v3.4h-3.4z"/>
						<path id="&lt;Path&gt;" class="s1" d="m262.4 413.8h3.4v3.5h-3.4z"/>
						<path id="&lt;Path&gt;" class="s1" d="m262.4 419.6h3.4v3.5h-3.4z"/>
						<path id="&lt;Path&gt;" class="s1" d="m262.4 425.5h3.4v3.4h-3.4z"/>
						<path id="&lt;Path&gt;" class="s1" d="m262.4 437.1h3.4v3.5h-3.4z"/>
						<path id="&lt;Path&gt;" class="s1" d="m262.4 443h3.4v3.4h-3.4z"/>
						<path id="&lt;Path&gt;" class="s1" d="m262.4 448.8h3.4v3.5h-3.4z"/>
						<path id="&lt;Path&gt;" class="s1" d="m262.4 454.6h3.4v3.5h-3.4z"/>
						<path id="&lt;Path&gt;" class="s1" d="m262.4 460.4h3.4v3.5h-3.4z"/>
						<path id="&lt;Path&gt;" class="s1" d="m262.4 466.3h3.4v3.5h-3.4z"/>
						<path id="&lt;Path&gt;" class="s1" d="m262.4 472.1h3.4v3.5h-3.4z"/>
						<path id="&lt;Path&gt;" class="s1" d="m262.4 477.9h3.4v3.5h-3.4z"/>
						<path id="&lt;Path&gt;" class="s1" d="m262.4 483.8h3.4v3.5h-3.4z"/>
						<path id="&lt;Path&gt;" class="s1" d="m378.8 363.7h3.5v3.4h-3.5z"/>
						<path id="&lt;Path&gt;" class="s1" d="m378.8 369.5h3.5v3.5h-3.5z"/>
						<path id="&lt;Path&gt;" class="s1" d="m378.8 375.3h3.5v3.5h-3.5z"/>
						<path id="&lt;Path&gt;" class="s1" d="m378.8 381.2h3.5v3.4h-3.5z"/>
						<path id="&lt;Path&gt;" class="s1" d="m378.8 387h3.5v3.5h-3.5z"/>
						<path id="&lt;Path&gt;" class="s1" d="m378.8 392.8h3.5v3.5h-3.5z"/>
						<path id="&lt;Path&gt;" class="s1" d="m378.8 398.6h3.5v3.5h-3.5z"/>
						<path id="&lt;Path&gt;" class="s1" d="m378.8 404.5h3.5v3.5h-3.5z"/>
						<path id="&lt;Path&gt;" class="s1" d="m378.8 410.3h3.5v3.5h-3.5z"/>
						<path id="&lt;Path&gt;" class="s1" d="m378.8 416.1h3.5v3.5h-3.5z"/>
						<path id="&lt;Path&gt;" class="s1" d="m378.8 422h3.5v3.5h-3.5z"/>
						<path id="&lt;Path&gt;" class="s1" d="m378.8 427.8h3.5v3.5h-3.5z"/>
						<path id="&lt;Path&gt;" class="s1" d="m378.8 433.6h3.5v3.5h-3.5z"/>
						<path id="&lt;Path&gt;" class="s1" d="m378.8 445.3h3.5v3.5h-3.5z"/>
						<path id="&lt;Path&gt;" class="s1" d="m378.8 451.1h3.5v3.5h-3.5z"/>
						<path id="&lt;Path&gt;" class="s1" d="m378.8 457h3.5v3.4h-3.5z"/>
						<path id="&lt;Path&gt;" class="s1" d="m378.8 462.8h3.5v3.5h-3.5z"/>
						<path id="&lt;Path&gt;" class="s1" d="m378.8 474.5h3.5v3.4h-3.5z"/>
						<path id="&lt;Path&gt;" class="s1" d="m378.8 480.3h3.5v3.5h-3.5z"/>
						<path id="&lt;Path&gt;" class="s1" d="m378.8 486.1h3.5v3.5h-3.5z"/>
						<path id="&lt;Path&gt;" class="s1" d="m384.3 363.7h3.5v3.4h-3.5z"/>
						<path id="&lt;Path&gt;" class="s1" d="m384.3 369.5h3.5v3.5h-3.5z"/>
						<path id="&lt;Path&gt;" class="s1" d="m384.3 375.3h3.5v3.5h-3.5z"/>
						<path id="&lt;Path&gt;" class="s1" d="m384.3 381.2h3.5v3.4h-3.5z"/>
						<path id="&lt;Path&gt;" class="s1" d="m384.3 387h3.5v3.5h-3.5z"/>
						<path id="&lt;Path&gt;" class="s1" d="m384.3 392.8h3.5v3.5h-3.5z"/>
						<path id="&lt;Path&gt;" class="s1" d="m384.3 398.6h3.5v3.5h-3.5z"/>
						<path id="&lt;Path&gt;" class="s1" d="m384.3 404.5h3.5v3.5h-3.5z"/>
						<path id="&lt;Path&gt;" class="s1" d="m384.3 410.3h3.5v3.5h-3.5z"/>
						<path id="&lt;Path&gt;" class="s1" d="m384.3 416.1h3.5v3.5h-3.5z"/>
						<path id="&lt;Path&gt;" class="s1" d="m384.3 422h3.5v3.5h-3.5z"/>
						<path id="&lt;Path&gt;" class="s1" d="m384.3 427.8h3.5v3.5h-3.5z"/>
						<path id="&lt;Path&gt;" class="s1" d="m384.3 433.6h3.5v3.5h-3.5z"/>
						<path id="&lt;Path&gt;" class="s1" d="m384.3 451.1h3.5v3.5h-3.5z"/>
						<path id="&lt;Path&gt;" class="s1" d="m384.3 457h3.5v3.4h-3.5z"/>
						<path id="&lt;Path&gt;" class="s1" d="m384.3 468.6h3.5v3.5h-3.5z"/>
						<path id="&lt;Path&gt;" class="s1" d="m384.3 474.5h3.5v3.4h-3.5z"/>
						<path id="&lt;Path&gt;" class="s1" d="m384.3 480.3h3.5v3.5h-3.5z"/>
						<path id="&lt;Path&gt;" class="s1" d="m384.3 486.1h3.5v3.5h-3.5z"/>
						<path id="&lt;Path&gt;" class="s1" d="m389.8 363.7h3.5v3.4h-3.5z"/>
						<path id="&lt;Path&gt;" class="s1" d="m389.8 369.5h3.5v3.5h-3.5z"/>
						<path id="&lt;Path&gt;" class="s1" d="m389.8 375.3h3.5v3.5h-3.5z"/>
						<path id="&lt;Path&gt;" class="s1" d="m389.8 381.2h3.5v3.4h-3.5z"/>
						<path id="&lt;Path&gt;" class="s1" d="m389.8 387h3.5v3.5h-3.5z"/>
						<path id="&lt;Path&gt;" class="s1" d="m389.8 392.8h3.5v3.5h-3.5z"/>
						<path id="&lt;Path&gt;" class="s1" d="m389.8 398.6h3.5v3.5h-3.5z"/>
						<path id="&lt;Path&gt;" class="s1" d="m389.8 404.5h3.5v3.5h-3.5z"/>
						<path id="&lt;Path&gt;" class="s1" d="m389.8 410.3h3.5v3.5h-3.5z"/>
						<path id="&lt;Path&gt;" class="s1" d="m389.8 416.1h3.5v3.5h-3.5z"/>
						<path id="&lt;Path&gt;" class="s1" d="m389.8 422h3.5v3.5h-3.5z"/>
						<path id="&lt;Path&gt;" class="s1" d="m389.8 427.8h3.5v3.5h-3.5z"/>
						<path id="&lt;Path&gt;" class="s1" d="m389.8 433.6h3.5v3.5h-3.5z"/>
						<path id="&lt;Path&gt;" class="s1" d="m389.8 439.5h3.5v3.5h-3.5z"/>
						<path id="&lt;Path&gt;" class="s1" d="m389.8 451.1h3.5v3.5h-3.5z"/>
						<path id="&lt;Path&gt;" class="s1" d="m389.8 462.8h3.5v3.5h-3.5z"/>
						<path id="&lt;Path&gt;" class="s1" d="m389.8 468.6h3.5v3.5h-3.5z"/>
						<path id="&lt;Path&gt;" class="s1" d="m389.8 474.5h3.5v3.4h-3.5z"/>
						<path id="&lt;Path&gt;" class="s1" d="m389.8 480.3h3.5v3.5h-3.5z"/>
						<path id="&lt;Path&gt;" class="s1" d="m389.8 486.1h3.5v3.5h-3.5z"/>
						<path id="&lt;Path&gt;" class="s1" d="m356.3 396.9h3.5v3.5h-3.5z"/>
						<path id="&lt;Path&gt;" class="s1" d="m356.3 402.7h3.5v3.5h-3.5z"/>
						<path id="&lt;Path&gt;" class="s1" d="m356.3 408.6h3.5v3.5h-3.5z"/>
						<path id="&lt;Path&gt;" class="s1" d="m356.3 414.4h3.5v3.5h-3.5z"/>
						<path id="&lt;Path&gt;" class="s1" d="m356.3 420.2h3.5v3.5h-3.5z"/>
						<path id="&lt;Path&gt;" class="s1" d="m356.3 426.1h3.5v3.4h-3.5z"/>
						<path id="&lt;Path&gt;" class="s1" d="m356.3 443.6h3.5v3.4h-3.5z"/>
						<path id="&lt;Path&gt;" class="s1" d="m356.3 449.4h3.5v3.5h-3.5z"/>
						<path id="&lt;Path&gt;" class="s1" d="m356.3 455.2h3.5v3.5h-3.5z"/>
						<path id="&lt;Path&gt;" class="s1" d="m356.3 461.1h3.5v3.4h-3.5z"/>
						<path id="&lt;Path&gt;" class="s1" d="m356.3 466.9h3.5v3.5h-3.5z"/>
						<path id="&lt;Path&gt;" class="s1" d="m356.3 472.7h3.5v3.5h-3.5z"/>
						<path id="&lt;Path&gt;" class="s1" d="m356.3 478.6h3.5v3.4h-3.5z"/>
						<path id="&lt;Path&gt;" class="s1" d="m361.8 396.9h3.5v3.5h-3.5z"/>
						<path id="&lt;Path&gt;" class="s1" d="m361.8 402.7h3.5v3.5h-3.5z"/>
						<path id="&lt;Path&gt;" class="s1" d="m361.8 408.6h3.5v3.5h-3.5z"/>
						<path id="&lt;Path&gt;" class="s1" d="m361.8 414.4h3.5v3.5h-3.5z"/>
						<path id="&lt;Path&gt;" class="s1" d="m361.8 420.2h3.5v3.5h-3.5z"/>
						<path id="&lt;Path&gt;" class="s1" d="m361.8 426.1h3.5v3.4h-3.5z"/>
						<path id="&lt;Path&gt;" class="s1" d="m361.8 443.6h3.5v3.4h-3.5z"/>
						<path id="&lt;Path&gt;" class="s1" d="m361.8 449.4h3.5v3.5h-3.5z"/>
						<path id="&lt;Path&gt;" class="s1" d="m361.8 455.2h3.5v3.5h-3.5z"/>
						<path id="&lt;Path&gt;" class="s1" d="m361.8 461.1h3.5v3.4h-3.5z"/>
						<path id="&lt;Path&gt;" class="s1" d="m361.8 466.9h3.5v3.5h-3.5z"/>
						<path id="&lt;Path&gt;" class="s1" d="m361.8 472.7h3.5v3.5h-3.5z"/>
						<path id="&lt;Path&gt;" class="s1" d="m361.8 484.4h3.5v3.5h-3.5z"/>
					</g>
				</g>
				<g id="&lt;Group&gt;">
					<path id="&lt;Path&gt;" class="s0" d="m497.7 206.2v379h-6.9v-379z"/>
					<path id="&lt;Path&gt;" class="s0" d="m386.8 206.2v379h-5.8v-379z"/>
					<path id="&lt;Path&gt;" class="s0" d="m277 206.2v379h-5.9v-379z"/>
				</g>
			</g>
			<g id="&lt;Group&gt;">
				<circle id="&lt;Path&gt;" class="s3" cx="689.8" cy="192.9" r="28.3"/>
				<circle id="&lt;Path&gt;" class="s2" cx="689.8" cy="192.9" r="24.1"/>
				<path id="&lt;Path&gt;" class="s4" d="m688.7 176.3v16.9l-11.2-6.3"/>
			</g>
			<g id="&lt;Group&gt;">
				<path id="&lt;Path&gt;" class="s5" d="m831.2 404h-125.2v-165.4h125.2z"/>
				<path id="&lt;Path&gt;" class="s0" d="m780.9 256.2l-3.4 71.1-28.9 1.6v-72.7z"/>
				<path id="&lt;Path&gt;" class="s3" d="m772 270.3h44.6l-0.4 63.6-23.1 0.4z"/>
				<path id="&lt;Path&gt;" class="s6" d="m728.6 260.9h11.8l-4.1 56.8-14.7 3.6z"/>
			</g>
			<g id="&lt;Group&gt;">
				<path id="&lt;Path&gt;" class="s6" d="m562.7 272.2h124.9v151.9h-124.9z"/>
				<path id="&lt;Path&gt;" class="s3" d="m585.9 310.3l71 11.7-65.6 64.5z"/>
				<path id="&lt;Path&gt;" class="s2" d="m605.6 371.7l3.6-37.8 49.4-12.2-3.3 49.5z"/>
				<circle id="&lt;Path&gt;" class="s1" cx="590.7" cy="301.6" r="19.9"/>
				<circle id="&lt;Path&gt;" class="s3" cx="658.6" cy="388.8" r="9.7"/>
				<path id="&lt;Path&gt;" class="s5" d="m656.3 405.8l-28-17 23.5-19.3z"/>
				<path id="&lt;Path&gt;" class="s3" d="m617.8 291.5h5.5v121.3h-5.5z"/>
				<path id="&lt;Path&gt;" class="s0" d="m675.9 407.5h-7.1v-116h7.1z"/>
				<path id="&lt;Path&gt;" class="s0" d="m611.6 408h-36.3v-36.3h36.3z"/>
			</g>
			<g id="&lt;Group&gt;">
				<path id="&lt;Path&gt;" class="s6" d="m822.8 746h-131.3v-119.2h131.3z"/>
				<path id="&lt;Path&gt;" class="s6" d="m842.8 764.3h-16.5v-148h16.5z"/>
				<path id="&lt;Path&gt;" class="s1" d="m723.2 680.7h-10.8v-42.8h10.8z"/>
				<path id="&lt;Path&gt;" class="s5" d="m767.8 680.7h-10.8v-42.8h10.8z"/>
				<path id="&lt;Path&gt;" class="s5" d="m733.9 680.7h-10.7v-39.1h10.7z"/>
				<path id="&lt;Path&gt;" class="s1" d="m757 680.7h-10.7v-39.1h10.7z"/>
				<path id="&lt;Path&gt;" class="s0" d="m746.3 680.7h-7v-42.8h7z"/>
				<path id="&lt;Path&gt;" class="s1" d="m739.3 680.7h-5.4v-39.1h5.4z"/>
				<path id="&lt;Path&gt;" class="s0" d="m778.5 680.7h-10.7v-42.8h10.7z"/>
				<path id="&lt;Path&gt;" class="s6" d="m789.3 680.7h-10.8v-39.1h10.8z"/>
				<path id="&lt;Path&gt;" class="s6" d="m812.4 680.7h-10.8v-39.1h10.8z"/>
				<path id="&lt;Path&gt;" class="s1" d="m801.6 680.7h-6.9v-42.8h6.9z"/>
				<path id="&lt;Path&gt;" class="s0" d="m794.7 680.7h-5.4v-39.1h5.4z"/>
				<path id="&lt;Path&gt;" class="s1" d="m817.7 680.7h-5.3v-41.6h5.3z"/>
				<path id="&lt;Path&gt;" class="s1" d="m807 698.6h10.7v40.8h-10.7z"/>
				<path id="&lt;Path&gt;" class="s1" d="m762.4 698.6h10.8v40.8h-10.8z"/>
				<path id="&lt;Path&gt;" class="s2" d="m796.2 702.3h10.8v37.1h-10.8z"/>
				<path id="&lt;Path&gt;" class="s0" d="m773.2 702.3h10.7v37.1h-10.7z"/>
				<path id="&lt;Path&gt;" class="s1" d="m783.9 698.6h7v40.8h-7z"/>
				<path id="&lt;Path&gt;" class="s5" d="m790.9 702.3h5.3v37.1h-5.3z"/>
				<path id="&lt;Path&gt;" class="s0" d="m751.6 698.6h10.8v40.8h-10.8z"/>
				<path id="&lt;Path&gt;" class="s5" d="m740.9 702.3h10.7v37.1h-10.7z"/>
				<path id="&lt;Path&gt;" class="s6" d="m717.8 702.3h10.8v37.1h-10.8z"/>
				<path id="&lt;Path&gt;" class="s1" d="m728.6 698.6h6.9v40.8h-6.9z"/>
				<path id="&lt;Path&gt;" class="s1" d="m705.5 698.6h6.9v40.8h-6.9z"/>
				<path id="&lt;Path&gt;" class="s0" d="m735.5 702.3h5.4v37.1h-5.4z"/>
				<path id="&lt;Path&gt;" class="s2" d="m712.4 699.9h5.4v39.5h-5.4z"/>
				<path id="&lt;Compound Path&gt;" fill-rule="evenodd" class="s2" d="m826.5 616.3v148h-8.8v-9.5h-130.3v-138.5zm-8.8 73.2h-122.1v49.9h122.1zm0-57.9h-122.1v49.1h122.1z"/>
				<path id="&lt;Path&gt;" class="s6" d="m560.1 626.8h131.2v119.2h-131.2z"/>
				<path id="&lt;Path&gt;" class="s6" d="m565.1 753.1h16.5v11.2h-16.5z"/>
				<path id="&lt;Path&gt;" class="s1" d="m676.2 637.9h10.7v42.8h-10.7z"/>
				<path id="&lt;Path&gt;" class="s5" d="m631.6 637.9h10.7v42.8h-10.7z"/>
				<path id="&lt;Path&gt;" class="s5" d="m665.4 641.6h10.8v39.1h-10.8z"/>
				<path id="&lt;Path&gt;" class="s1" d="m642.3 641.6h10.8v39.1h-10.8z"/>
				<path id="&lt;Path&gt;" class="s0" d="m653.1 637.9h6.9v42.8h-6.9z"/>
				<path id="&lt;Path&gt;" class="s1" d="m660 641.6h5.4v39.1h-5.4z"/>
				<path id="&lt;Path&gt;" class="s0" d="m627.9 637.9h10.8v42.8h-10.8z"/>
				<path id="&lt;Path&gt;" class="s6" d="m617.1 641.6h10.8v39.1h-10.8z"/>
				<path id="&lt;Path&gt;" class="s6" d="m594.1 641.6h10.7v39.1h-10.7z"/>
				<path id="&lt;Path&gt;" class="s1" d="m604.8 637.9h7v42.8h-7z"/>
				<path id="&lt;Path&gt;" class="s0" d="m611.8 641.6h5.3v39.1h-5.3z"/>
				<path id="&lt;Path&gt;" class="s5" d="m588.7 639.1h5.4v41.6h-5.4z"/>
				<path id="&lt;Path&gt;" class="s1" d="m594.4 739.4h-10.8v-40.8h10.8z"/>
				<path id="&lt;Path&gt;" class="s1" d="m639 739.4h-10.8v-40.8h10.8z"/>
				<path id="&lt;Path&gt;" class="s5" d="m605.1 739.4h-10.7v-37.1h10.7z"/>
				<path id="&lt;Path&gt;" class="s0" d="m628.2 739.4h-10.7v-37.1h10.7z"/>
				<path id="&lt;Path&gt;" class="s1" d="m617.5 739.4h-7v-40.8h7z"/>
				<path id="&lt;Path&gt;" class="s5" d="m610.5 739.4h-5.4v-37.1h5.4z"/>
				<path id="&lt;Path&gt;" class="s0" d="m642.6 739.4h-10.7v-40.8h10.7z"/>
				<path id="&lt;Path&gt;" class="s5" d="m653.4 739.4h-10.8v-37.1h10.8z"/>
				<path id="&lt;Path&gt;" class="s6" d="m676.5 739.4h-10.8v-37.1h10.8z"/>
				<path id="&lt;Path&gt;" class="s1" d="m665.7 739.4h-6.9v-40.8h6.9z"/>
				<path id="&lt;Path&gt;" class="s1" d="m687.4 739.4h-7v-40.8h7z"/>
				<path id="&lt;Path&gt;" class="s0" d="m658.8 739.4h-5.4v-37.1h5.4z"/>
				<path id="&lt;Path&gt;" class="s0" d="m681.9 739.4h-5.4v-39.5h5.4z"/>
				<path id="&lt;Compound Path&gt;" fill-rule="evenodd" class="s2" d="m695.5 616.3v138.5h-130.4v9.5h-8.8v-148zm-130.3 123.1h122v-49.9h-122zm0-58.7h122v-49h-122z"/>
			</g>
		</g>
	</g>
	<g id="Shadow">
		<ellipse id="&lt;Path&gt; 359 " class="s5" cx="500" cy="832.5" rx="387.8" ry="22.6"/>
	</g>
	<g id="Plant">
		<g id="&lt;Group&gt;">
			<g id="&lt;Group&gt;">
				<path id="&lt;Path&gt;" class="s7" d="m764.1 757.1q-7.4 6.3-18.9 5.8c-11.4-0.6-16.5-18.9-6.5-27.5q9.9-8.6 25.4 9.8z"/>
				<path id="&lt;Path&gt;" class="s8" d="m764.1 757.1q-7.4 6.3-18.9 5.8c-11.4-0.6-16.5-18.9-6.5-27.5q9.9-8.6 25.4 9.8z"/>
				<path id="&lt;Path&gt;" class="s7" d="m827.4 698.4q13-13.6 21-11.3c8.1 2.3 7.3 34.9-17.7 21.7z"/>
				<path id="&lt;Path&gt;" class="s9" d="m827.4 698.4q13-13.6 21-11.3c8.1 2.3 7.3 34.9-17.7 21.7z"/>
				<path id="&lt;Path&gt;" class="s7" d="m780.8 800.2q-42.8-58.5-8-70.4c34.7-11.8 40.9 47.1 31 63.5q-9.9 16.5-23 6.9z"/>
				<path id="&lt;Path&gt;" class="s7" d="m789.6 687.1c-45.3-9.1-41-72.1-1.7-70.2q39.3 1.8 12.8 63.5z"/>
				<path id="&lt;Path&gt;" class="s9" d="m780.8 800.2q-42.8-58.5-8-70.4c34.7-11.8 40.9 47.1 31 63.5q-9.9 16.5-23 6.9z"/>
				<path id="&lt;Path&gt;" class="s9" d="m789.6 687.1c-45.3-9.1-41-72.1-1.7-70.2q39.3 1.8 12.8 63.5z"/>
				<path id="&lt;Path&gt;" class="s7" d="m791.3 730.8q-12.9-54.4 11.9-58.7c24.8-4.4 49.3 44.8-2.1 69.5q-8.8-5.4-9.8-10.8z"/>
				<path id="&lt;Path&gt;" class="s8" d="m791.3 730.8q-12.9-54.4 11.9-58.7c24.8-4.4 49.3 44.8-2.1 69.5q-8.8-5.4-9.8-10.8z"/>
			</g>
			<g id="&lt;Group&gt;">
				<path id="&lt;Path&gt;" class="s10" d="m750 791.9h71.9l-6 46h-59.9z"/>
			</g>
			<g id="&lt;Group&gt;">
				<path id="&lt;Path&gt;" class="s7" d="m787.4 676c-3.8-2.8-7-6.1-9.9-9.8-2.9-3.7-5.3-7.8-7.1-12.2-1.7-4.4-2.6-9.1-2.5-13.8-0.1-4.8 1.3-9.4 3.2-13.6q-0.4 1.7-0.8 3.4l-0.4 1.7c-0.1 0.5-0.1 1.1-0.2 1.7-0.1 1.1-0.3 2.2-0.4 3.4l0.1 3.4c0.3 4.4 1.2 8.9 2.9 13.1 1.6 4.2 3.9 8.2 6.4 12q1.9 2.8 4.1 5.5c1.4 1.8 3 3.5 4.6 5.2z"/>
			</g>
			<g id="&lt;Group&gt;">
				<path id="&lt;Path&gt;" class="s7" d="m778 623.1c2.2 0.3 4.3 1.2 6.4 2.2 2 1.1 4 2.3 5.7 3.8 3.5 3 6.2 7 8 11.2 1.8 4.3 2.5 8.9 2.7 13.5 0.1 2.2-0.1 4.5-0.2 6.8-0.4 2.2-0.7 4.4-1.2 6.7 0-2.3 0.2-4.6 0.2-6.8-0.1-2.2-0.1-4.4-0.3-6.6-0.4-2.2-0.4-4.5-1.1-6.6-0.3-1-0.5-2.1-0.8-3.1l-1.2-3.1c-3.3-8.1-9.8-14.8-18.2-18z"/>
			</g>
			<g id="&lt;Group&gt;">
				<path id="&lt;Path&gt;" class="s7" d="m808.1 676c5.7 2 10.4 6.8 13 12.5 1.3 2.8 2.1 5.9 2.4 9 0.2 0.7 0.2 1.5 0.2 2.3-0.1 0.8 0 1.6-0.1 2.4-0.3 1.6-0.4 3.2-0.9 4.6-0.9 3.1-2.3 5.9-3.8 8.6-1.7 2.6-3.4 5.1-5.4 7.5-3.9 4.7-8.4 8.9-13.3 12.5 2.2-2.1 4.3-4.3 6.3-6.5 2.1-2.3 4-4.6 5.8-7 3.6-4.8 6.8-10 8.4-15.6 0.6-1.4 0.7-2.9 1-4.3 0.1-0.7 0-1.4 0-2.2 0-0.7 0.1-1.4 0-2.1-0.2-3-1-5.9-2-8.6-1.1-2.8-2.6-5.4-4.6-7.6-2-2.2-4.3-4.2-7-5.5z"/>
			</g>
			<g id="&lt;Group&gt;">
				<path id="&lt;Path&gt;" class="s7" d="m800.7 680.4c1.4 4 2.4 8.1 2.7 12.4 0.3 2.2 0.2 4.3 0 6.5-0.3 2.2-0.8 4.4-2 6.4-2.4 3.3-3.2 7.4-3.7 11.5-0.2 2.1-0.3 4.2-0.3 6.3 0 2.1 0.1 4.2 0.2 6.3-1-4.1-1.5-8.4-1.4-12.7q0.1-3.2 0.8-6.4c0.3-1.1 0.6-2.2 1.1-3.2 0.3-1 1.1-2 1.6-2.9 1-1.6 1.5-3.5 1.8-5.5 0.4-2.1 0.4-4.1 0.4-6.2q0-3.1-0.4-6.3c-0.2-2.1-0.5-4.1-0.8-6.2z"/>
			</g>
			<g id="&lt;Group&gt;">
				<path id="&lt;Path&gt;" class="s7" d="m783.2 735.4c1.1 0.3 2 1.2 2.7 2 0.7 0.9 1.3 1.9 1.9 2.8 1.1 2 1.9 4.1 2.7 6.2 1.5 4.3 2.6 8.6 3.6 13 0.9 4.3 1.6 8.7 2.1 13.2 0.4 4.4 0.9 8.9 0.7 13.3q-0.5-3.3-1.1-6.5-0.5-3.3-1.2-6.6c-0.8-4.3-1.6-8.7-2.5-13q-1.3-6.5-3.1-12.9c-0.5-2.1-1.2-4.2-2.1-6.2-0.4-1-0.8-2-1.4-3-0.6-0.9-1.3-1.8-2.3-2.3z"/>
			</g>
			<g id="&lt;Group&gt;">
				<path id="&lt;Path&gt;" class="s7" d="m771.1 737.3c-1.2 4-1.8 8.1-2 12.1-0.3 4.1 0 8.2 0.8 12.1 0.8 4 2.1 7.8 4.1 11.4 1.8 3.7 4.3 6.9 6.8 10.2q-1.1-1-2.3-2.1c-0.7-0.7-1.5-1.4-2.2-2.2-1.3-1.7-2.7-3.3-3.7-5.1-1.2-1.8-2-3.7-2.9-5.7-0.4-1-0.6-2-0.9-3-0.4-1-0.6-2-0.8-3.1-0.9-4.1-1-8.4-0.5-12.6 0.5-4.2 1.7-8.3 3.6-12z"/>
			</g>
			<g id="&lt;Group&gt;">
				<path id="&lt;Path&gt;" class="s7" d="m837.5 705.1c2.3-0.7 4.4-1.2 6.3-2.1 1-0.3 1.9-0.9 2.8-1.5 0.9-0.5 1.7-1.3 2.6-2.1-0.2 1.2-0.7 2.4-1.5 3.3-0.9 0.9-1.9 1.7-3.1 2.2-1.1 0.5-2.4 0.7-3.6 0.8-1.2 0-2.4-0.1-3.5-0.6z"/>
			</g>
			<g id="&lt;Group&gt;">
				<path id="&lt;Path&gt;" class="s7" d="m834.8 696.1c0.6-1.1 1.4-2 2.4-2.8 0.9-0.8 2-1.4 3.3-1.8 1.2-0.3 2.6-0.4 3.9 0 1.2 0.4 2.3 1.2 3 2.3-1.2-0.4-2.3-0.7-3.3-0.8q-1.6 0-3.1 0.5c-1 0.2-2 0.7-3 1.1z"/>
			</g>
			<g id="&lt;Group&gt;">
				<path id="&lt;Path&gt;" class="s7" d="m757 748c-2.7-2.1-5.2-4.2-7.9-5.7-1.3-0.8-2.7-1.4-4.2-1.6-1.5-0.1-3 0.2-4.5 0.9 1-1.4 2.7-2.3 4.6-2.4 1.8-0.1 3.6 0.5 5.1 1.4q2.3 1.3 4 3.2c1.2 1.3 2.2 2.6 2.9 4.2z"/>
			</g>
			<g id="&lt;Group&gt;">
				<path id="&lt;Path&gt;" class="s7" d="m757 757.1c-1.9 0.7-3.8 1.1-5.8 1.3q-3 0.3-6-0.2c-2-0.3-4.1-1-5.8-2.3-1.7-1.3-2.8-3.4-2.8-5.4 0.8 1.9 2.1 3.2 3.7 4.1 1.6 0.8 3.3 1.3 5.2 1.6 3.7 0.6 7.5 0.7 11.5 0.9z"/>
			</g>
		</g>
	</g>
	<g id="Trash bin">
		<g id="&lt;Group&gt;">
			<g id="&lt;Group&gt;">
				<path id="&lt;Path&gt;" class="s7" d="m635.3 799.5q-1.2 14.5-2.4 28.9c-0.1 2.2-0.6 4.8-2.6 5.9-0.9 0.5-2 0.5-3.1 0.5q-22.1 0.1-44.2 0.3c-2.1 0-4.2 0-6.1-0.8-3.8-1.7-5.5-6.4-5.6-10.7-0.1-5.4 1.7-10.8 1.8-16.2 0-2.8-0.4-5.7 0.3-8.4 0.6-2.7 2.5-5.3 5.3-5.5-0.1 3.3 7.5 11.7 11 8.7 1.3 2.3 3.8 2.4 6.2 2.7 2.4 0.3 5.4 2.2 4.4 4.4 1.4 2.1 4.8 0.4 5.8-2 1-2.3 1.3-5.2 3.4-6.6 1-0.6 2.3-0.7 3.1-1.6 2.7-2.9-4-7.5-2.1-11.1 0.4-0.7 1.1-1.2 1.8-1.7q4.5-3.3 9-6.5c0.4-0.3 0.9-0.7 1.5-0.7 0.5 0 1 0.3 1.4 0.7 3.3 2.5 4.7 7.3 3.3 11.2 3.1 0.1 5.4 4.2 3.8 6.9q2 0.8 4 1.6z"/>
				<path id="&lt;Path&gt;" class="s9" d="m635.3 799.5q-1.2 14.5-2.4 28.9c-0.1 2.2-0.6 4.8-2.6 5.9-0.9 0.5-2 0.5-3.1 0.5q-22.1 0.1-44.2 0.3c-2.1 0-4.2 0-6.1-0.8-3.8-1.7-5.5-6.4-5.6-10.7-0.1-5.4 1.7-10.8 1.8-16.2 0-2.8-0.4-5.7 0.3-8.4 0.6-2.7 2.5-5.3 5.3-5.5-0.1 3.3 7.5 11.7 11 8.7 1.3 2.3 3.8 2.4 6.2 2.7 2.4 0.3 5.4 2.2 4.4 4.4 1.4 2.1 4.8 0.4 5.8-2 1-2.3 1.3-5.2 3.4-6.6 1-0.6 2.3-0.7 3.1-1.6 2.7-2.9-4-7.5-2.1-11.1 0.4-0.7 1.1-1.2 1.8-1.7q4.5-3.3 9-6.5c0.4-0.3 0.9-0.7 1.5-0.7 0.5 0 1 0.3 1.4 0.7 3.3 2.5 4.7 7.3 3.3 11.2 3.1 0.1 5.4 4.2 3.8 6.9q2 0.8 4 1.6z"/>
			</g>
			<g id="&lt;Group&gt;">
				<g id="&lt;Group&gt;">
					<path id="&lt;Compound Path&gt;" fill-rule="evenodd" class="s7" d="m641.6 751.1l-0.5 7-0.4 4.9-1.1 12.9-0.6 7.4-0.8 9.9-0.3 4.2-0.1 1.3-0.4 4.9-0.6 6.8-0.3 4.3-0.4 4.2-0.4 5-0.3 3.8-0.3 4.2-0.2 1.8h-63l-0.1-1.8-0.4-4.2-0.3-3.8-0.4-4.9-0.3-4.3-0.4-4.3-0.5-6.8-0.4-4.9-0.1-1.3-0.4-4.2-0.8-9.9-0.6-7.4-1-12.9-0.4-4.9-0.6-7zm-3.5 3.2h-1.4l1.3 1.4zm-6 0h-1.4l-6.4 6.3 7.1 7 6.1-6.1 0.2-1.7zm4.1 22.8l-4.9-4.9-7 7.1 7 7 4.5-4.5zm-65.3 4.7l4.5 4.5 7-7-7-7.1-4.9 4.9zm51.1-18.9l-7 7 7 7.1 7.1-7.1zm0-4.5l4-4h-8zm-9.4 13.8l-7 7.1 7 7 7.1-7zm-9.4 23.4l7.1-7.1-7.1-7-7 7zm-9.3-4.7l-7.1 7 7.1 7.1 7-7.1zm11.6 7.1l7.1 7 7-7-7-7.1zm4.7-28l-7-7-7.1 7 7.1 7.1zm-16.4 2.3l-7 7 7 7.1 7.1-7.1zm-2.3-2.3l-7.1-7-7 7 7 7.1zm-14.1 18.6l7.1 7.1 7-7.1-7-7zm7 11.6l-7 7.1 7 7 7-7zm2.3 16.3l7.1 7.1 7-7.1-7-7zm16.4-2.3l7-7-7-7.1-7.1 7.1zm2.3 2.3l7 7 7.1-7-7.1-7.1zm9.4 9.3l4.5 4.6h5l4.6-4.6-7.1-7zm7.1-11.6l7-7.1-7-7-7.1 7zm0-18.6l7.1-7.1-7.1-7-7 7zm-8.6-41.3h-1.5l-6.3 6.3 7 7 7.1-7zm-6.1 0h-8l4 4zm-12.6 0h-1.5l-6.3 6.3 7 7.1 7.1-7.1zm-14.1 0l4 4.1 4-4.1zm-6 0l-5.5 5.6 0.1 1.7 6.1 6.1 7.1-7.1-6.3-6.3zm-6 0l0.1 1.3 1.3-1.3zm1.5 18.6l3-2.9-3.5-3.5zm2.9 15.7l-1.8-1.8 0.3 3.4zm-0.6 13.5l2.9 2.8 7-7-7-7-3.5 3.4zm0.6 5.2l-0.2-0.2v0.3zm1.1 15.2l1.2 1.2 7.1-7.1-7.1-7-2.1 2.1 0.9 10.8zm3.5 8l-2.3-2.3-0.7 0.7 0.2 1.6zm4.5 0h5l4.5-4.5-7-7.1-7 7.1zm14.1 0l-2.3-2.3-2.3 2.3zm9.5 0l4.6-4.6-7.1-7-7 7 4.5 4.6zm9.2 0l-2.3-2.3-2.3 2.3zm17-1.6l-0.6-0.7-2.3 2.3h2.8zm1.4-17.3l-2.1-2.1-7 7.1 7 7 1.2-1.2zm0.4-4.5l-0.2 0.2 0.2 0.1v-0.3zm1-12.7l-3.4-3.5-7.1 7.1 7.1 7 2.8-2.9zm0.6-7.5l-1.8 1.8 1.5 1.5zm-1.8-16.8l3 2.9 0.5-6.4z"/>
				</g>
				<g id="&lt;Group&gt;" style="opacity: .6">
					<path id="&lt;Compound Path&gt;" fill-rule="evenodd" class="s11" d="m641.6 751.1l-0.5 7-0.4 4.9-1.1 12.9-0.6 7.4-0.8 9.9-0.3 4.2-0.1 1.3-0.4 4.9-0.6 6.8-0.3 4.3-0.4 4.2-0.4 5-0.3 3.8-0.3 4.2-0.2 1.8h-63l-0.1-1.8-0.4-4.2-0.3-3.8-0.4-4.9-0.3-4.3-0.4-4.3-0.5-6.8-0.4-4.9-0.1-1.3-0.4-4.2-0.8-9.9-0.6-7.4-1-12.9-0.4-4.9-0.6-7zm-3.5 3.2h-1.4l1.3 1.4zm-6 0h-1.4l-6.4 6.3 7.1 7 6.1-6.1 0.2-1.7zm4.1 22.8l-4.9-4.9-7 7.1 7 7 4.5-4.5zm-65.3 4.7l4.5 4.5 7-7-7-7.1-4.9 4.9zm51.1-18.9l-7 7 7 7.1 7.1-7.1zm0-4.5l4-4h-8zm-9.4 13.8l-7 7.1 7 7 7.1-7zm-9.4 23.4l7.1-7.1-7.1-7-7 7zm-9.3-4.7l-7.1 7 7.1 7.1 7-7.1zm11.6 7.1l7.1 7 7-7-7-7.1zm4.7-28l-7-7-7.1 7 7.1 7.1zm-16.4 2.3l-7 7 7 7.1 7.1-7.1zm-2.3-2.3l-7.1-7-7 7 7 7.1zm-14.1 18.6l7.1 7.1 7-7.1-7-7zm7 11.6l-7 7.1 7 7 7-7zm2.3 16.3l7.1 7.1 7-7.1-7-7zm16.4-2.3l7-7-7-7.1-7.1 7.1zm2.3 2.3l7 7 7.1-7-7.1-7.1zm9.4 9.3l4.5 4.6h5l4.6-4.6-7.1-7zm7.1-11.6l7-7.1-7-7-7.1 7zm0-18.6l7.1-7.1-7.1-7-7 7zm-8.6-41.3h-1.5l-6.3 6.3 7 7 7.1-7zm-6.1 0h-8l4 4zm-12.6 0h-1.5l-6.3 6.3 7 7.1 7.1-7.1zm-14.1 0l4 4.1 4-4.1zm-6 0l-5.5 5.6 0.1 1.7 6.1 6.1 7.1-7.1-6.3-6.3zm-6 0l0.1 1.3 1.3-1.3zm1.5 18.6l3-2.9-3.5-3.5zm2.9 15.7l-1.8-1.8 0.3 3.4zm-0.6 13.5l2.9 2.8 7-7-7-7-3.5 3.4zm0.6 5.2l-0.2-0.2v0.3zm1.1 15.2l1.2 1.2 7.1-7.1-7.1-7-2.1 2.1 0.9 10.8zm3.5 8l-2.3-2.3-0.7 0.7 0.2 1.6zm4.5 0h5l4.5-4.5-7-7.1-7 7.1zm14.1 0l-2.3-2.3-2.3 2.3zm9.5 0l4.6-4.6-7.1-7-7 7 4.5 4.6zm9.2 0l-2.3-2.3-2.3 2.3zm17-1.6l-0.6-0.7-2.3 2.3h2.8zm1.4-17.3l-2.1-2.1-7 7.1 7 7 1.2-1.2zm0.4-4.5l-0.2 0.2 0.2 0.1v-0.3zm1-12.7l-3.4-3.5-7.1 7.1 7.1 7 2.8-2.9zm0.6-7.5l-1.8 1.8 1.5 1.5zm-1.8-16.8l3 2.9 0.5-6.4z"/>
				</g>
			</g>
			<rect id="&lt;Path&gt;" class="s7" x="560.8" y="748.2" width="85.2" height="9" rx="3.3"></rect>
			<rect id="&lt;Path&gt;" class="s7" x="567" y="828.9" width="72.9" height="9" rx="3.3"></rect>
		</g>
	</g>
	<g id="Speech bubble">
		<g id="&lt;Group&gt;">
			<g id="&lt;Group&gt;">
				<path id="&lt;Path&gt;" class="s7" d="m380.2 314.2v50c0 9.8-7.9 17.7-17.6 17.7h-28.8l-26 27.8 14.1-27.8h-16.8c-9.8 0-17.7-7.9-17.7-17.7v-50c0-9.8 7.9-17.7 17.7-17.7h57.5c9.7 0 17.6 7.9 17.6 17.7z"/>
				<path id="&lt;Path&gt;" class="s12" d="m380.2 314.2v50c0 9.8-7.9 17.7-17.6 17.7h-28.8l-26 27.8 14.1-27.8h-16.8c-9.8 0-17.7-7.9-17.7-17.7v-50c0-9.8 7.9-17.7 17.7-17.7h57.5c9.7 0 17.6 7.9 17.6 17.7z"/>
			</g>
			<g id="&lt;Group&gt;">
				<g id="&lt;Group&gt;">
					<circle id="&lt;Path&gt;" class="s7" cx="333.8" cy="339" r="28.5"/>
				</g>
				<g id="&lt;Group&gt;">
					<path id="&lt;Path&gt;" class="s11" d="m330.8 351.7c-0.7 0-1.5-0.3-2-0.9l-11.2-13.2c-0.9-1.1-0.8-2.7 0.3-3.7 1.1-0.9 2.8-0.8 3.7 0.3l9.2 10.9 15.2-17.9c0.9-1.1 2.6-1.2 3.7-0.3 1.1 0.9 1.2 2.6 0.3 3.7l-17.2 20.2c-0.5 0.6-1.2 0.9-2 0.9z"/>
				</g>
			</g>
		</g>
	</g>
	<g id="Character">
		<g id="&lt;Group&gt;">
			<g id="&lt;Group&gt;">
				<path id="&lt;Path&gt;" class="s10" d="m404 828.2v-249.6c0-3.3 2.7-6 6-6h118.7v7.8c0 2.3-1.9 4.2-4.2 4.2h-108.5v237.6h110.4c1.2 0 2.3 1.1 2.3 2.3v7.4c0 1.3-1.1 2.3-2.3 2.3h-116.4c-3.3 0-6-2.6-6-6z"/>
			</g>
			<g id="&lt;Group&gt;" style="opacity: .3">
				<path id="&lt;Path&gt;" class="s11" d="m410 572.6h118.7v7.8c0 2.3-1.9 4.2-4.2 4.2h-108.5v237.6h110.4c1.2 0 2.3 1.1 2.3 2.3v7.4c0 1.3-1.1 2.3-2.3 2.3h-116.4c-3.3 0-6-2.7-6-6v-249.6c0-3.3 2.7-6 6-6z"/>
			</g>
			<path id="&lt;Path&gt;" class="s13" d="m410 572.6h118.7v7.8c0 2.3-1.9 4.2-4.2 4.2h-108.5v60.6q-6-1.4-12-2.9v-63.7c0-3.3 2.7-6 6-6z"/>
			<g id="&lt;Group&gt;">
				<path id="&lt;Path&gt;" class="s10" d="m193.5 800.7l47.7-4.1v-62.7h16.8v62.7l47.9 4.1c4.2 0.5 7.4 4 7.4 8.2v6.4h-62-3.2-62v-6.4c0-4.2 3.2-7.7 7.4-8.2z"/>
				<path id="&lt;Path&gt;" class="s14" d="m193.5 800.7l47.7-4.1v-62.7h16.8v62.7l47.9 4.1c4.2 0.5 7.4 4 7.4 8.2v6.4h-62-3.2-62v-6.4c0-4.2 3.2-7.7 7.4-8.2z"/>
				<circle id="&lt;Path&gt;" class="s10" cx="308.9" cy="823.2" r="11"/>
				<circle id="&lt;Path&gt;" class="s10" cx="190.5" cy="823.2" r="11"/>
				<path id="&lt;Path&gt;" class="s10" d="m238.3 739.3v-54h22.6v54c0 4.1-3.3 7.4-7.4 7.4h-7.7c-4.1 0-7.5-3.3-7.5-7.4z"/>
				<path id="&lt;Path&gt;" class="s8" d="m238.3 739.3v-54h22.6v54c0 4.1-3.3 7.4-7.4 7.4h-7.7c-4.1 0-7.5-3.3-7.5-7.4z"/>
				<path id="&lt;Path&gt;" class="s10" d="m200.1 561.3q5.2 103.7 27.5 121.5h-23.9q-21.3-35.3-22.8-121.5z"/>
				<path id="&lt;Path&gt;" class="s14" d="m200.1 561.3q5.2 103.7 27.5 121.5h-23.9q-21.3-35.3-22.8-121.5z"/>
				<path id="&lt;Path&gt;" class="s7" d="m313 683.2v8.2h-123.8v-8.2c0-4.9 4-9 9-9h105.8c5 0 9 4.1 9 9z"/>
				<g id="&lt;Group&gt;">
					<rect id="&lt;Path&gt;" class="s10" x="184.5" y="682.8" width="133.2" height="8.6" rx="3.6"></rect>
					<rect id="&lt;Path&gt;" class="s15" x="184.5" y="682.8" width="133.2" height="8.6" rx="3.6"></rect>
				</g>
				<path id="&lt;Path&gt;" class="s7" d="m154.2 561.5l-1.7-16.5c-1.2-12.5 6.9-22.5 18.1-22.5h38.3c11.2 0 21.2 10 22.5 22.5l1.6 16.5c1.2 12.4-6.9 22.5-18.1 22.5h-38.2c-11.2 0-21.3-10.1-22.5-22.5z"/>
			</g>
			<g id="&lt;Group&gt; 3 ">
				<g id="&lt;Group&gt;">
					<path id="&lt;Path&gt;" class="s16" d="m302.9 494.6l1.9 5.6q0.9 2.9 2 5.8c1.4 3.8 2.8 7.5 4.4 11.2 1.5 3.6 3.2 7.1 5 10.2 1.8 3.1 3.9 6 5.5 7.4 1 1.2 4.1 2.6 7.5 3.5 3.5 0.9 7.4 1.6 11.4 2 8 1.1 16.5 1.4 24.8 1.8l1.5 11.2c-8.8 2.4-17.6 3.7-26.8 4.2-4.7 0.2-9.4 0.2-14.4-0.4-2.5-0.4-5.1-0.8-7.8-1.6q-2.1-0.6-4.3-1.7c-1.4-0.6-3.1-1.6-4.3-2.5-5.3-3.8-8.5-8-11.4-12.1-2.9-4.1-5.2-8.3-7.2-12.5-2.1-4.3-3.9-8.5-5.5-12.8q-1.2-3.2-2.2-6.5c-0.8-2.2-1.4-4.2-2-6.7z"/>
				</g>
				<path id="&lt;Path&gt;" class="s10" d="m293.1 484c6.3 2.2 12 11.3 27.9 47.6q2.5 4.4 15.4 7.2l-1.2 20.4q-18.3-0.8-22.6-3.7-4.3-3-29.8-45z"/>
				<path id="&lt;Path&gt;" class="s8" d="m336.4 538.8l-1.2 20.4q-14.7-0.6-20.8-2.9-1.1-0.4-1.8-0.8c-2.5-1.7-12.1-16.5-19.7-28.7q-5.6-8.8-10.1-16.3l10.3-26.5c6.3 2.2 12 11.3 27.9 47.6q2.5 4.4 15.4 7.2z"/>
				<path id="&lt;Path&gt;" class="s13" d="m314.4 556.3q-1.1-0.4-1.8-0.8c-2.5-1.7-12.1-16.5-19.7-28.7q3.3-11.4 7-20.3 14.7 29.3 14.5 49.8z"/>
				<g id="&lt;Group&gt;">
					<path id="&lt;Path&gt;" class="s17" d="m361.1 543.1l14.3-5.2-1.7 19.2q-13.2 1.7-14.8-5.2z"/>
					<path id="&lt;Path&gt;" class="s17" d="m387.3 541.8l-2.2 15.8-11.4-0.5 1.7-19.2z"/>
				</g>
				<path id="&lt;Path&gt;" class="s10" d="m336.5 537.9l7.3 2.2-2.7 19.9-7.3 1.2z"/>
				<path id="&lt;Path&gt;" class="s7" d="m303.5 610.2q96.8 38.2 119.3 54.1 22.5 16 79.2 123.6l-23.4 18.1q-67.7-98.3-76-105-8.2-6.7-116-39.7z"/>
				<path id="&lt;Path&gt;" class="s18" d="m502 787.9l-23.4 18.1q-15.8-23-33.1-47.4c-18.4-26.2-38.6-54.1-42.9-57.6-6-4.9-65.3-23.9-96.7-33.7q-11.5-3.6-19.3-6l16.9-51.1q96.8 38.2 119.3 54.1 22.5 16 79.2 123.6z"/>
				<path id="&lt;Path&gt;" class="s17" d="m487.8 797.8l11.3-11.4 18.5 28.6-11.3 11.4z"/>
				<path id="&lt;Path&gt;" class="s13" d="m487.8 797.8l11.3-11.3 10.6 16.3-11.7 10.8z"/>
				<g id="&lt;Group&gt;">
					<path id="&lt;Compound Path&gt;" fill-rule="evenodd" class="s7" d="m519.4 813.7c0 0 0.2-0.2 0.1-0.2 0 0 0.2-0.2 0.2-0.2q0 0 0 0c0 0-0.2 0.2-0.2 0.2-0.1-0.2-3-3.7-2.6-5.9q0.2-0.8 1-1.2c0.6-0.4 1.3-0.3 1.8 0.2 0.7 0.7 0.9 2.3 0.9 3.9 0.8-1.5 1.9-3.1 3-3.4 0.5-0.1 1 0.1 1.3 0.4 0.6 0.5 0.9 1.3 0.8 2-0.4 1-1.1 1.9-2.1 2.4q-1.8 1.1-3.8 1.8 0 0.1-0.1 0.1c-0.1 0-0.1 0-0.1 0q-0.1 0-0.2-0.1zm-0.3-6.5c-0.1-0.2-0.4-0.3-0.9-0.1l-0.1 0.1c-0.3 0.2-0.4 0.4-0.5 0.7-0.3 1.3 1 3.5 1.9 4.7q0.1-0.1 0.2-0.3c0.3-1.8 0.2-4.3-0.6-5.1zm5.8 2.2c0.1-0.5-0.1-1-0.5-1.3-0.1-0.1-0.4-0.2-0.6-0.2-1.1 0.3-2.6 2.9-3.5 4.9 2.7-1.1 4.4-2.4 4.6-3.4z"/>
				</g>
				<path id="&lt;Path&gt;" class="s10" d="m520.2 812c5.7 0.4 15.9-1.1 21.9-4.6 2.4-1.5 7.1 3.2 2.2 7.8-4.9 4.5-13.1 9.5-17.2 12.2-6.5 4.5-8.8 6.5-13.9 10-1.3 0.9-3.1 0.5-3.9-0.8l-7.2-12.3q0 0 0 0c-0.4-0.5-0.2-1.2 0.4-1.5l14.9-10c0.8-0.6 1.8-0.9 2.8-0.8z"/>
				<path id="&lt;Path&gt;" class="s7" d="m470.4 802.6l31.8-22.1 6.7 13.8-29.3 19.5z"/>
				<path id="&lt;Path&gt;" class="s8" d="m470.4 802.6l31.8-22.1 6.7 13.8-29.3 19.5z"/>
				<path id="&lt;Path&gt;" class="s13" d="m445.5 758.6c-18.4-26.2-38.6-54.1-42.9-57.6-6-4.9-65.3-23.9-96.7-33.7l-3.6-38.1 11.4-2 1.3 2.9q71.8 16.2 92 26.4c13.1 6.6 30.6 70.7 38.5 102.1z"/>
				<g id="&lt;Group&gt;">
					<path id="&lt;Compound Path&gt;" fill-rule="evenodd" class="s7" d="m441.1 817.5c0-0.1 0.2-0.2 0.2-0.2 0 0 0.2-0.2 0.2-0.2q0 0 0 0c0 0-0.2 0.2-0.2 0.2-0.1-0.3-1.7-4.5-0.5-6.4q0.5-0.8 1.3-0.9c0.7-0.1 1.3 0.2 1.6 0.8 0.4 0.9 0.1 2.5-0.4 4 1.3-1.2 2.8-2.3 3.9-2.2 0.5 0.1 0.9 0.4 1.1 0.9 0.4 0.6 0.5 1.4 0.1 2.1-0.7 0.8-1.7 1.4-2.7 1.5q-2.1 0.5-4.2 0.5-0.1 0.1-0.2 0.1c0-0.1 0-0.1-0.1-0.1q-0.1-0.1-0.1-0.1zm1.9-6.3c-0.1-0.2-0.3-0.4-0.8-0.4l-0.2 0.1c-0.3 0.1-0.5 0.2-0.7 0.5-0.7 1.1-0.2 3.6 0.3 5.1q0.1-0.1 0.2-0.3c0.9-1.5 1.6-4 1.2-5zm4.8 4c0.2-0.4 0.1-0.9-0.1-1.3-0.1-0.3-0.3-0.4-0.6-0.4-1.1-0.2-3.3 1.8-4.8 3.4 2.9-0.2 4.9-0.8 5.5-1.7z"/>
				</g>
				<path id="&lt;Path&gt;" class="s17" d="m416 790.7l14.4-7 8.6 34.4-14.5 7z"/>
				<path id="&lt;Path&gt;" class="s13" d="m416 790.7l14.4-7 4.9 19.7-14.6 6.2z"/>
				<path id="&lt;Path&gt;" class="s10" d="m442.4 816.1c5.2 2.3 15.4 4.3 22.2 2.9 2.8-0.6 5.6 5.4-0.5 8.1-6.2 2.7-15.6 4.6-20.3 5.9-7.6 2-10.4 3.1-16.4 4.8-1.5 0.3-3.1-0.6-3.5-2.1l-2.7-14q0 0 0 0c-0.1-0.6 0.3-1.2 0.9-1.3l17.4-4.5c1-0.3 2-0.2 2.9 0.2z"/>
				<path id="&lt;Path&gt;" class="s7" d="m406.7 793.8q-25.9-96.1-34.4-99.6c-8.5-3.4-139.3-10.5-148.1-25.9q-8.9-15.4-10.7-72.9l87-3.4 13.2 35.2-11.4 2q97.6 19.4 105.7 31.3 5 7.3 29.4 129.7z"/>
				<path id="&lt;Path&gt;" class="s18" d="m406.7 793.8q-25.9-96.1-34.4-99.6c-8.5-3.4-139.3-10.5-148.1-25.9q-8.9-15.4-10.7-72.9l87-3.4 13.2 35.2-11.4 2q97.6 19.4 105.7 31.3 5 7.3 29.4 129.7z"/>
				<path id="&lt;Path&gt;" class="s7" d="m402.3 791l37.3-10.3 1.8 15.3-34.1 8.6z"/>
				<path id="&lt;Path&gt;" class="s8" d="m402.3 791l37.3-10.3 1.8 15.3-34.1 8.6z"/>
				<g id="&lt;Group&gt;">
					<path id="&lt;Path&gt;" class="s10" d="m242.1 604.6l-26.8-0.6 0.5-7.7 25.2 0.5z"/>
					<path id="&lt;Path&gt;" class="s10" d="m300.4 596.5l1.9 7.2-56.3 0.8-1.1-7.9z"/>
					<path id="&lt;Path&gt;" class="s11" d="m274 595.7l9-0.3c1.3 0 2.5 1 2.7 2.2l0.7 5.3c0.2 1.3-0.7 2.3-2 2.4l-9 0.2c-1.3 0.1-2.5-0.9-2.7-2.2l-0.7-5.2c-0.2-1.3 0.7-2.4 2-2.4z"/>
				</g>
				<g id="&lt;Group&gt;">
					<path id="&lt;Path&gt;" class="s10" d="m211 590.5c0.1-7.4 0-19.9-1.1-34.5-4-55.5 0-73.3 4.1-75q11.3-2 22.8-2.3 16.9-0.6 33.7 0.7c7.6 1 15.2 2.5 22.6 4.6q19.5 27.7 9.3 107.7c-0.3 2-2 3.5-4.1 3.5h-82.6c-2.6 0-4.7-2.1-4.7-4.7z"/>
					<path id="&lt;Path&gt;" class="s10" d="m281.5 512.3h15.9l1.2 19-8.5 5.6-8.6-4.3z"/>
					<path id="&lt;Path&gt;" class="s8" d="m302.4 591.7c-0.3 2-2 3.5-4.1 3.5h-82.6c-2.6 0-4.7-2.1-4.7-4.7 0.1-7.4 0-19.9-1.1-34.5q-0.9-11.9-1.2-21.6c-0.7-15.7-0.5-27.2 0.2-35.5 1-12 3-17 5.1-17.9 7.6-1.3 15.2-2.1 22.9-2.3q16.8-0.6 33.6 0.7 11.5 1.5 22.6 4.6 19.5 27.7 9.3 107.7z"/>
				</g>
				<path id="&lt;Path&gt;" class="s17" d="m246.5 446.1l17.8 20.5c-2.2 5.3-1.5 8.2 1.1 12.7l-1.1 7.7-26.7-9.1c7.5-7 9.4-21.3 8.9-31.8z"/>
				<path id="&lt;Path&gt;" class="s11" d="m256.8 487h5l7.2-1.6 4.6 2.4-2.5 5.2-1 2.6q2.4 10.5 9.1 64.6l-5.4 4.4-5.1-4.2q1.7-29.5-4.4-64.4l-4.6-2.9-5.2-2.2z"/>
				<path id="&lt;Path&gt;" class="s13" d="m253.7 454.5l10.6 12.1q-1.2 2.8-1.9 5.7c-4.5-1.3-10-7.2-9.8-12.1 0.1-1.9 0.4-3.9 1.1-5.7z"/>
				<path id="&lt;Path&gt;" class="s10" d="m239.3 473q10.3 7.3 24 12.5 1.6-6 0-11.3l11.8 5.9q1 9.1-1.7 13.9l-8.7-6.4-9.7 8q-18.4-7.1-21.3-16.8z"/>
				<path id="&lt;Path&gt;" class="s13" d="m299.3 544.1l-27.3 22c-39.2 8.7-56.4-15.7-63.3-31.7-0.7-15.7-0.5-27.2 0.2-35.5 9.4-0.4 21.1-0.4 24.2 2 5.5 4.2 24.7 33.8 27.5 36q2.9 2.1 38.7 7.2z"/>
				<g id="&lt;Group&gt;">
					<path id="&lt;Path&gt;" class="s17" d="m314.8 543l14.3-5.2-1.7 19.2q-13.2 1.7-14.8-5.3z"/>
					<path id="&lt;Path&gt;" class="s17" d="m341 541.7l-2.2 15.8-11.4-0.5 1.7-19.2z"/>
				</g>
				<g id="&lt;Group&gt;">
					<path id="&lt;Path&gt;" class="s16" d="m231.4 504.2l3.2 6.2q1.7 3.1 3.5 6.2c2.3 4.1 4.8 8.1 7.3 12 2.5 3.7 5.2 7.4 7.9 10.2 1.3 1.4 2.6 2.7 3.7 3.4 0.4 0.3 0.4 0.3 0.5 0.4 0.1 0.1 0.5 0.2 0.7 0.3 0.3 0.1 0.7 0.2 1 0.3l1.3 0.3c3.7 0.9 8.4 1.1 13.1 1.2 4.7 0.1 9.5-0.1 14.4-0.3 9.7-0.5 19.7-1.3 29.4-2.1l2.4 11c-9.8 3.2-19.7 5.7-29.9 7.7-5 1-10.2 1.7-15.5 2.2-5.4 0.5-10.8 0.8-17 0.1-0.8-0.1-1.6-0.2-2.4-0.3-0.9-0.2-1.7-0.4-2.6-0.6-1-0.3-1.8-0.5-2.9-1-1-0.4-2.1-0.9-2.9-1.3-3.2-1.8-5.8-3.8-8.1-5.8-4.5-4.1-8.1-8.4-11.4-12.8-3.3-4.3-6.2-8.8-8.9-13.4q-2-3.4-3.8-6.9c-1.3-2.4-2.4-4.6-3.6-7.2z"/>
				</g>
				<path id="&lt;Path&gt;" class="s10" d="m233.6 499.8c8 14.1 19.8 40 25.7 41.4q3.6 0.9 16 2.4l-1.7 22.3q-23.8 3-37.9-4.2c-14-7.2-47.5-71.4-21.7-80.7q11.6 4.8 19.6 18.8z"/>
				<path id="&lt;Path&gt;" class="s8" d="m233.6 499.8c8 14.1 19.8 40 25.7 41.4q3.6 0.9 16 2.4l-1.7 22.3q-23.8 3-37.9-4.2c-14-7.2-47.5-71.4-21.7-80.7q11.6 4.8 19.6 18.8z"/>
				<path id="&lt;Path&gt;" class="s10" d="m279.2 543.4l-1.9 23.1-7.4 1.4 2.1-25.9z"/>
				<g id="&lt;Group&gt;">
					<path id="&lt;Path&gt;" class="s10" d="m292.4 425.1c1 5.9-1.6 17.6-9.1 12.7-7.5-4.9 7.3-23 9.1-12.7z"/>
					<path id="&lt;Path&gt;" class="s17" d="m282.3 414.4c12.7 9.3 9.1 31.2 2.6 43.4-7.2 13.5-26.8 15.6-34.9 1.7-5.4-9.2-2.9-17.7-0.1-32.3 2.9-14.6 20-21.9 32.4-12.8z"/>
					<path id="&lt;Path&gt;" class="s10" d="m243 411.1l16.5-0.8 0.5 9.5c-0.3-0.2-0.7-0.3-1-0.5q-1 13.9-9 18.6c-10.7-8.2-13.9-21.6-7-26.8z"/>
					<path id="&lt;Path&gt;" class="s17" d="m249.5 430.9c4.6 1.4 5.7 8.2 5 12.4-0.8 4.6-4.8 7.4-8.6 4.2-2.4-2.2-4.5-5.7-4.7-9.7-0.2-4.6 3.7-8.4 8.3-6.9z"/>
					<path id="&lt;Path&gt;" class="s10" d="m272.8 435c0.8 0.2 1.1 1.3 0.8 2.4-0.3 1.2-1.2 2-1.9 1.8-0.8-0.2-1.2-1.3-0.9-2.5 0.3-1.1 1.2-1.9 2-1.7z"/>
					<path id="&lt;Path&gt;" class="s10" d="m286.1 438.3c0.8 0.2 1.1 1.3 0.8 2.5-0.3 1.2-1.1 2-1.9 1.8-0.8-0.2-1.2-1.3-0.9-2.5 0.4-1.2 1.2-2 2-1.8z"/>
					<path id="&lt;Path&gt;" class="s19" d="m279.8 439.6q1 7.2 3.2 11.1-2.6 1.3-5.9-0.4z"/>
					<path id="&lt;Path&gt;" class="s10" d="m264 447.7c-0.1-0.2 0-0.4 0.2-0.5 0.2-0.1 0.4 0 0.5 0.2 0 0.1 1.4 4.3 6.6 5.6 0.2 0 0.3 0.2 0.3 0.4-0.1 0.2-0.3 0.3-0.5 0.3q-0.8-0.3-1.5-0.5c-4.3-1.8-5.6-5.4-5.6-5.5z"/>
					<path id="&lt;Path&gt;" class="s10" d="m267.6 431.2c-0.3-0.3-0.2-0.7 0.1-1 3.1-2.4 6.2-1.5 6.4-1.4 0.3 0.1 0.5 0.5 0.4 0.9-0.1 0.4-0.5 0.6-0.9 0.4 0 0-2.5-0.8-5 1.2-0.2 0.2-0.5 0.2-0.7 0.1q-0.2 0-0.3-0.2z"/>
					<path id="&lt;Path&gt;" class="s10" d="m290.6 436.5c-0.6-3.1-2.9-4.1-3-4.1-0.4-0.2-0.6-0.6-0.4-1 0.1-0.3 0.5-0.5 0.9-0.4 0.1 0.1 3.2 1.3 4 5.2 0 0.4-0.2 0.7-0.6 0.8q-0.2 0.1-0.4 0c-0.2-0.1-0.4-0.3-0.5-0.5z"/>
					<path id="&lt;Path&gt;" class="s10" d="m239.4 421.3c-1.6-5.4 3.1-17.9 13.4-21.2q10.4-3.4 13.3 1.4 22.8-2 26.6 7.3 3.7 9.3 1.8 16.2 1 0.4 2.6-1.5 1.6 3.9-1.8 6.7 1.1 0.9 2.9-0.2 1.1 2-5.3 3.9c-6.5 1.8-4.4-11.7-7.4-15.4q-3-3.7-7.1-2.5c-11.7-5.9-13 5.8-17.1 7.8-2.8 1.4-5.1 0.5-6.4-0.2q-0.6-0.4-1-0.8"/>
				</g>
			</g>
			<g id="&lt;Group&gt;">
				<path id="&lt;Path&gt;" class="s10" d="m299.3 555.5l1-2.8 28-2.8h60.6l1.5 5.6z"/>
				<path id="&lt;Path&gt;" class="s20" d="m299.3 555.5l1-2.8 28-2.8h60.6l1.5 5.6z"/>
				<path id="&lt;Path&gt;" class="s13" d="m388.9 549.9l1.5 5.6h-62.1v-5.6z"/>
			</g>
			<g id="&lt;Group&gt;">
				<path id="&lt;Path&gt;" class="s10" d="m354.3 463.7c0.3-2.9 2.9-5.3 5.8-5.3h92.9c2.4 0 4.2 1.5 4.7 3.6q0.2 0.8 0.2 1.7l-5.6 59.5c-0.2 2.9-2.8 5.3-5.8 5.3h-92.9c-2.9 0-5.1-2.4-4.8-5.3z"/>
				<path id="&lt;Path&gt;" class="s20" d="m354.3 463.7c0.3-2.9 2.9-5.3 5.8-5.3h92.9c2.4 0 4.2 1.5 4.7 3.6q0.2 0.8 0.2 1.7l-5.6 59.5c-0.2 2.9-2.8 5.3-5.8 5.3h-92.9c-2.9 0-5.1-2.4-4.8-5.3z"/>
				<path id="&lt;Path&gt;" class="s21" d="m353.8 526.8l5.5-59.5c0.3-2.9 2.9-5.3 5.8-5.3h92.6q0.2 0.8 0.2 1.7l-5.6 59.5c-0.2 2.9-2.8 5.3-5.8 5.3h-92.6q-0.2-0.8-0.1-1.7z"/>
				<path id="&lt;Path&gt;" class="s10" d="m424.2 547.1l13.1 4.5v3.9h-64v-3.9l30.4-4.5-5.2-55.1h19.3z"/>
				<path id="&lt;Path&gt;" class="s20" d="m424.2 547.1l13.1 4.5v3.9h-64v-3.9l30.4-4.5-5.2-55.1h19.3z"/>
				<path id="&lt;Path&gt;" class="s8" d="m417.8 492l6.4 62.3-11.4 0.3-14.3-62.6z"/>
			</g>
			<g id="&lt;Group&gt;">
				<g id="&lt;Group&gt;">
					<path id="&lt;Path&gt;" class="s10" d="m233.9 828.2v-249.6c0-3.3 2.7-6 6-6h118.7v7.8c0 2.3-1.9 4.2-4.2 4.2h-108.5v237.6h110.4c1.2 0 2.3 1.1 2.3 2.3v7.4c0 1.3-1.1 2.3-2.3 2.3h-116.4c-3.3 0-6-2.6-6-6z"/>
				</g>
				<g id="&lt;Group&gt;" style="opacity: .4">
					<path id="&lt;Path&gt;" class="s11" d="m233.9 828.2v-249.6c0-3.3 2.7-6 6-6h118.7v7.8c0 2.3-1.9 4.2-4.2 4.2h-108.5v237.6h110.4c1.2 0 2.3 1.1 2.3 2.3v7.4c0 1.3-1.1 2.3-2.3 2.3h-116.4c-3.3 0-6-2.6-6-6z"/>
				</g>
				<g id="&lt;Group&gt;">
					<path id="&lt;Path&gt;" class="s7" d="m221.1 570.7v-9.5h314.6v9.5c0 2.1-1.7 3.9-3.9 3.9h-306.8c-2.2 0-3.9-1.8-3.9-3.9z"/>
				</g>
				<path id="&lt;Path&gt;" class="s13" d="m221.1 561.2h314.6v6.7h-314.6z"/>
				<g id="&lt;Group&gt;">
					<path id="&lt;Path&gt;" class="s7" d="m210.7 559.2c0-2 1.7-3.7 3.8-3.7h327.8c2.1 0 3.8 1.7 3.8 3.7 0 2.1-1.7 3.8-3.8 3.8h-327.8c-2.1 0-3.8-1.7-3.8-3.8z"/>
				</g>
			</g>
		</g>
	</g>
</svg>