<svg version="1.2" xmlns="http://www.w3.org/2000/svg" viewBox="0 0 1152 580" width="1152" height="580">
	<title>17209-ai</title>
	<defs>
		<clipPath clipPathUnits="userSpaceOnUse" id="cp1">
			<path d="m1153 577h-1152v-576h1152z"/>
		</clipPath>
	</defs>
	<style>
		.s0 { fill: #c4c4c4 } 
		.s1 { fill: #231f20 } 
	</style>
	<g id="Layer 1">
		<g id="&lt;Group&gt;">
			<g id="&lt;Clip Group&gt;" clip-path="url(#cp1)">
				<g id="&lt;Group&gt;">
					<g id="&lt;Group&gt;">
						<g id="triangle36 1455 ">
							<path id="&lt;Path&gt;" class="s0" d="m1204.3-96.9l-113.1-62.5q-0.2-0.1-0.2-0.4 0-0.2 0.1-0.4l31-27.7c0.2-0.2 0.5-0.2 0.6-0.1l81.8 60.1v1.2l-82-60.3-30.2 27.1 112 61.9z"/>
						</g>
						<g id="triangle36 1454 ">
							<path id="&lt;Path&gt;" class="s0" d="m1203.9-11.7l-112.8-147.8c-0.2-0.2-0.1-0.5 0-0.6 0.1-0.2 0.4-0.2 0.6-0.1l112.6 62.2v1.1l-111.1-61.4 110.7 145.1z"/>
						</g>
						<g id="triangle36 1451 ">
							<path id="&lt;Path&gt;" class="s0" d="m744.7 679.6l153.1-69.1q0.2-0.1 0.5 0 0.1 0.1 0.2 0.4l14.9 69.6h-0.9l-14.8-68.9-150.8 68z"/>
						</g>
						<g id="triangle36 1439 ">
							<path id="&lt;Path&gt;" class="s0" d="m1200.5 650.8l-95.8 30.6h-3.1l98.9-31.6z"/>
						</g>
						<g id="triangle36 1423 ">
							<path id="&lt;Path&gt;" class="s0" d="m1204.5-126.7l-82.3-60.5c-0.2-0.1-0.2-0.3-0.2-0.5 0.1-0.2 0.2-0.3 0.4-0.4l82.4-2.7v1l-81 2.6 80.7 59.3z"/>
						</g>
						<g id="triangle36 1422 ">
							<path id="&lt;Path&gt;" class="s0" d="m1202.8 211l-110.8-6.6c-0.2 0-0.3-0.1-0.4-0.3 0-0.2 0.1-0.4 0.2-0.5l89.8-54.5c0.2-0.1 0.4-0.1 0.5 0.1l20.9 16.2v1.2l-21.2-16.5-88.2 53.5 109.2 6.4z"/>
						</g>
						<g id="triangle36 1420 ">
							<path id="&lt;Path&gt;" class="s0" d="m391.5 677.8l19-32.3c0.1-0.2 0.3-0.3 0.5-0.3 0.2 0.1 0.3 0.2 0.3 0.4l3.8 32.3h-0.9l-3.6-30.8-18 30.7z"/>
						</g>
						<g id="triangle36 1419 ">
							<path id="&lt;Path&gt;" class="s0" d="m1200.5 650.8l-95.8 30.6h-3.1l98.9-31.6z"/>
							<path id="&lt;Path&gt;" class="s0" d="m1200.6 645.7l-103.5-25.7-15.5 61.3h-1l15.7-62c0-0.2 0.3-0.4 0.6-0.3l103.7 25.7z"/>
						</g>
						<g id="triangle36 1418 ">
							<path id="&lt;Path&gt;" class="s0" d="m1201.7 431l-56.4 32.3q-0.1 0.1-0.2 0.1-0.1 0-0.2-0.1l-44.3-11.8c-0.2-0.1-0.4-0.2-0.4-0.4 0-0.2 0.1-0.4 0.3-0.5l101.2-38.8v1l-99.5 38.2 42.8 11.4 56.7-32.5z"/>
						</g>
						<g id="triangle36 1417 ">
							<path id="&lt;Path&gt;" class="s0" d="m912.5 680.5l-14.9-69.4c-0.1-0.2 0-0.4 0.1-0.5 0.2-0.1 0.3-0.1 0.5-0.1l58.5 20.8q0.2 0.1 0.3 0.3 0.1 0.2 0 0.3l-24.8 48.7h-1l24.7-48.6-57.2-20.3 14.7 68.8z"/>
						</g>
						<g id="triangle36 1416 ">
							<path id="&lt;Path&gt;" class="s0" d="m931.2 680.6l25-49.1c0-0.1 0.2-0.2 0.3-0.2 0.2-0.1 0.4 0 0.5 0.2l31.1 49.3h-1.2l-30.3-48.1-24.4 47.9z"/>
						</g>
						<g id="triangle36 1415 ">
							<path id="&lt;Path&gt;" class="s0" d="m956.2 632c-0.1-0.2-0.1-0.4 0-0.6 0.2-0.1 0.4-0.2 0.6-0.1l106.6 49.9h-2.3l-103.3-48.4 30.3 48h-1.2z"/>
						</g>
						<g id="triangle36 1414 ">
							<path id="&lt;Path&gt;" class="s0" d="m956.1 631.6c0-0.2 0.2-0.3 0.4-0.3l140.2-12.4c0.1 0 0.3 0.1 0.4 0.2q0.1 0.2 0.1 0.4l-15.6 61.8h-1l15.5-61.4-137.8 12.1 105.1 49.2h-2.3l-104.7-49c-0.2-0.1-0.3-0.3-0.3-0.6z"/>
						</g>
						<g id="triangle36 1412 ">
							<path id="&lt;Path&gt;" class="s0" d="m414.2 677.9l-3.8-32.2c0-0.1 0.1-0.3 0.2-0.4 0.2-0.1 0.4-0.1 0.5 0l50.8 32.9-1.7-0.1-48.7-31.5 3.6 31.3z"/>
						</g>
						<g id="triangle36 1411 ">
							<path id="&lt;Compound Path&gt;" fill-rule="evenodd" class="s0" d="m726.5 361.7q-0.1 0-0.2-0.1-0.2-0.1-0.3-0.3l-4.8-23.3q0-0.2 0.1-0.4 0.1-0.1 0.3-0.2l119.2-13.8c0.3 0 0.5 0.2 0.5 0.4 0.1 0.2-0.1 0.5-0.3 0.5l-114.4 37.1q0 0.1-0.1 0.1zm-4.3-23.4l4.6 22.3 109.4-35.5z"/>
						</g>
						<g id="triangle36 1409 ">
							<path id="&lt;Path&gt;" class="s0" d="m347.6 677.6l6.2-68.1q0-0.2 0.3-0.3c0.1-0.1 0.3-0.1 0.4 0l56.6 36.1c0.2 0.1 0.3 0.4 0.2 0.6l-18.7 31.9h-1.1l18.7-32-55.5-35.4-6.2 67.2z"/>
						</g>
						<g id="triangle36 1408 ">
							<path id="&lt;Compound Path&gt;" fill-rule="evenodd" class="s0" d="m410.9 646.2q-0.2 0-0.3-0.1l-56.6-36.1q-0.2-0.2-0.2-0.4 0-0.3 0.2-0.4l96.6-67.9c0.2-0.1 0.4-0.1 0.6 0 0.2 0.1 0.2 0.4 0.1 0.6l-40 104q-0.1 0.2-0.3 0.2 0 0.1-0.1 0.1zm-55.8-36.6l55.5 35.4 39.3-102z"/>
						</g>
						<g id="triangle36 1407 ">
							<path id="&lt;Compound Path&gt;" fill-rule="evenodd" class="s0" d="m582.4 648.9q0 0 0 0l-171.5-2.7q-0.3-0.1-0.4-0.2-0.1-0.3-0.1-0.5l40.1-104q0.1-0.2 0.3-0.3 0.2 0 0.4 0.1l131.5 106.8c0.2 0.1 0.3 0.3 0.2 0.5-0.1 0.2-0.3 0.3-0.5 0.3zm-170.8-3.7l169.5 2.7-130-105.4z"/>
						</g>
						<g id="triangle36 1406 ">
							<path id="&lt;Path&gt;" class="s0" d="m410.6 646.1c-0.2-0.1-0.2-0.3-0.2-0.5 0.1-0.2 0.3-0.4 0.5-0.4l171.6 2.8c0.2 0 0.4 0.1 0.4 0.3 0.1 0.2 0 0.4-0.2 0.5l-53.9 29.7h-1.9l53.8-29.6-168.2-2.7 49.4 32-1.7-0.1z"/>
						</g>
						<g id="triangle36 1405 ">
							<path id="&lt;Path&gt;" class="s0" d="m526.9 678.5l55.3-30.5c0.2-0.1 0.4-0.1 0.6 0.1 0.1 0.2 0.2 0.4 0.1 0.6l-18.5 30h-1.1l17.8-29-52.3 28.8z"/>
						</g>
						<g id="triangle36 1404 ">
							<path id="&lt;Path&gt;" class="s0" d="m563.3 678.7l18.7-30.5c0.2-0.2 0.4-0.3 0.6-0.2l107.4 31.3h-3.4l-103.9-30.3-18.3 29.7z"/>
						</g>
						<g id="triangle36 1382 ">
							<path id="&lt;Compound Path&gt;" fill-rule="evenodd" class="s0" d="m1039.2 404.2q-0.1 0-0.2 0l-198.3-79.7c-0.2 0-0.3-0.2-0.3-0.3 0-0.2 0-0.4 0.2-0.5l100.4-82.7q0.1-0.2 0.4-0.1 0.2 0 0.3 0.2l97.9 162.4c0.1 0.2 0.1 0.4 0 0.5q-0.2 0.2-0.4 0.2zm-197.4-80.2l196.3 78.8-96.9-160.8z"/>
						</g>
						<g id="triangle36 1381 ">
							<path id="&lt;Compound Path&gt;" fill-rule="evenodd" class="s0" d="m1039.2 404.2q-0.3 0-0.4-0.2l-97.9-162.4q-0.1-0.2-0.1-0.4 0.1-0.2 0.3-0.3l82.3-36.8q0.2-0.1 0.4 0 0.2 0.2 0.2 0.4l15.7 199.2c0 0.2-0.1 0.4-0.4 0.5q0 0-0.1 0zm-97.2-162.6l96.6 160.2-15.5-196.6z"/>
						</g>
						<g id="triangle36 1380 ">
							<path id="&lt;Compound Path&gt;" fill-rule="evenodd" class="s0" d="m1039.2 404.2q0 0 0 0c-0.3 0-0.4-0.2-0.5-0.4l-15.6-199.2q0-0.2 0.1-0.4 0.1-0.1 0.4-0.1l68.5-0.6c0.1 0 0.2 0.1 0.3 0.2q0.2 0.2 0.1 0.4l-52.8 199.8c-0.1 0.2-0.3 0.3-0.5 0.3zm-15.1-199.2l15.4 195.9 52-196.5z"/>
						</g>
						<g id="triangle36 1379 ">
							<path id="&lt;Path&gt;" class="s0" d="m1201.7 412.8l-100.8 38.7q-0.1 0-0.2 0-0.2 0-0.3-0.1l-61.5-47.3c-0.1-0.1-0.2-0.3-0.1-0.5 0-0.2 0.2-0.3 0.4-0.3l162.7-17.5v1l-161.5 17.3 60.4 46.4 100.9-38.7z"/>
						</g>
						<g id="triangle36 1378 ">
							<path id="&lt;Compound Path&gt;" fill-rule="evenodd" class="s0" d="m1023.6 205c-0.2 0-0.4-0.1-0.5-0.3-0.1-0.2 0-0.4 0.1-0.5l68.3-65.2c0.1-0.2 0.3-0.2 0.5-0.1 0.1 0 0.3 0.2 0.3 0.4l0.2 64.7c0 0.2-0.2 0.4-0.4 0.4l-68.5 0.6q0 0 0 0zm67.7-64.6l-66.6 63.7 66.9-0.6z"/>
						</g>
						<g id="triangle36 1377 ">
							<path id="&lt;Path&gt;" class="s0" d="m1203.4 85.8l-111.4 53.9q-0.1 0.1-0.2 0.1-0.2 0-0.3-0.1c-0.1-0.1-0.2-0.2-0.2-0.4l-0.3-299.1c0-0.2 0.1-0.4 0.3-0.5 0.2 0 0.4 0 0.5 0.2l112.1 146.9v1.5l-112-146.7 0.4 297 111.1-53.9z"/>
						</g>
						<g id="triangle36 1376 ">
							<path id="&lt;Compound Path&gt;" fill-rule="evenodd" class="s0" d="m1092.1 204.4q-0.2 0-0.3 0c-0.1-0.1-0.2-0.3-0.2-0.4l-0.3-64.7q0-0.2 0.2-0.3 0.1-0.2 0.3-0.2l90.1 10.3c0.2 0 0.4 0.1 0.4 0.3 0 0.2 0 0.4-0.2 0.5l-89.8 54.5q-0.1 0-0.2 0zm0.2-64.6l0.2 63.3 87.9-53.3z"/>
						</g>
						<g id="triangle36 1375 ">
							<path id="&lt;Path&gt;" class="s0" d="m1203.2 124.9l-21 24.9q-0.1 0.2-0.4 0.2 0 0 0 0l-90.1-10.2c-0.2-0.1-0.3-0.2-0.4-0.4 0-0.2 0.1-0.4 0.3-0.5l111.8-54.2v1.1l-110 53.2 88.2 10 21.6-25.6z"/>
						</g>
						<g id="triangle36 1374 ">
							<path id="&lt;Path&gt;" class="s0" d="m1203 160.6l-21.4-10.7q-0.2-0.1-0.2-0.3-0.1-0.2 0.1-0.4l21.7-25.8v1.5l-20.6 24.5 20.4 10.1z"/>
						</g>
						<g id="triangle36 1373 ">
							<path id="&lt;Path&gt;" class="s0" d="m1203 166.6l-21.4-16.7c-0.2-0.1-0.3-0.4-0.2-0.6 0.2-0.2 0.4-0.3 0.7-0.2l20.9 10.4v1.1l-17.2-8.6 17.2 13.4z"/>
						</g>
						<g id="triangle36 1366 ">
							<path id="&lt;Path&gt;" class="s0" d="m582 648.5c0-0.2 0.1-0.4 0.2-0.5l190.6-98.1c0.2-0.1 0.4-0.1 0.6 0.1 0.1 0.1 0.2 0.3 0.1 0.5l-45.8 129h-1l45.5-128.2-188.5 97 106.3 31h-3.4l-104.3-30.4c-0.2-0.1-0.3-0.2-0.3-0.4z"/>
						</g>
						<g id="triangle36 1365 ">
							<path id="&lt;Path&gt;" class="s0" d="m726.7 679.5l45.9-129.3q0.1-0.2 0.3-0.3 0.2-0.1 0.4 0l124.9 60.6c0.2 0.1 0.3 0.3 0.3 0.5 0 0.1-0.1 0.3-0.3 0.4l-151.3 68.2h-2.2l152.2-68.7-123.6-59.9-45.6 128.5z"/>
						</g>
						<g id="triangle36 1363 ">
							<path id="&lt;Compound Path&gt;" fill-rule="evenodd" class="s0" d="m781.2 402.9q-0.1 0-0.3-0.1l-54.7-41.2c-0.2-0.2-0.2-0.4-0.1-0.6 0.1-0.2 0.3-0.3 0.6-0.2l86.8 31.6c0.2 0 0.3 0.2 0.3 0.4 0 0.2-0.1 0.4-0.3 0.5l-32.2 9.6q0 0-0.1 0zm-51.9-40.2l52 39.2 30.6-9.1z"/>
						</g>
						<g id="triangle36 1362 ">
							<path id="&lt;Compound Path&gt;" fill-rule="evenodd" class="s0" d="m813.4 393.3q-0.1 0-0.2 0l-86.9-31.7c-0.2 0-0.3-0.2-0.3-0.4 0-0.2 0.2-0.4 0.3-0.4l114.4-37.1c0.2-0.1 0.4-0.1 0.5 0.1 0.1 0.1 0.2 0.3 0.1 0.5l-27.5 68.7c-0.1 0.2-0.3 0.3-0.4 0.3zm-85.5-32.1l85.2 31 27-67.3z"/>
						</g>
						<g id="triangle36 1361 ">
							<path id="&lt;Compound Path&gt;" fill-rule="evenodd" class="s0" d="m773.1 550.8q-0.1 0-0.1 0c-0.3-0.1-0.4-0.3-0.4-0.5l8.1-147.9c0.1-0.2 0.2-0.4 0.4-0.4l32.1-9.6c0.2-0.1 0.4 0 0.5 0.1 0.1 0.1 0.2 0.3 0.1 0.4l-40.3 157.5c0 0.2-0.2 0.4-0.4 0.4zm8.6-148l-7.9 142.8 38.9-152.1z"/>
						</g>
						<g id="triangle36 1360 ">
							<path id="&lt;Compound Path&gt;" fill-rule="evenodd" class="s0" d="m1039.2 404.2q0 0 0 0l-225.9-10.9q-0.2 0-0.3-0.2-0.2-0.2-0.1-0.5l27.5-68.7q0.1-0.2 0.3-0.2 0.2-0.1 0.3 0l198.4 79.6c0.2 0.1 0.3 0.3 0.3 0.5-0.1 0.3-0.3 0.4-0.5 0.4zm-225.2-11.8l222.4 10.7-195.3-78.4z"/>
						</g>
						<g id="triangle36 1359 ">
							<path id="&lt;Compound Path&gt;" fill-rule="evenodd" class="s0" d="m840.9 324.6q-0.1 0-0.2-0.1c-0.2 0-0.3-0.2-0.3-0.3l-23.2-179.3c0-0.1 0.1-0.3 0.3-0.4 0.1-0.1 0.3-0.1 0.5 0l123.6 96.5q0.1 0.1 0.1 0.3 0 0.3-0.1 0.4l-100.4 82.8q-0.2 0.1-0.3 0.1zm-22.6-178.6l22.9 177.2 99.3-81.8z"/>
						</g>
						<g id="triangle36 1358 ">
							<path id="&lt;Compound Path&gt;" fill-rule="evenodd" class="s0" d="m941.3 241.8q-0.2 0-0.3-0.1l-123.6-96.5q-0.2-0.1-0.2-0.4c0.1-0.1 0.2-0.3 0.3-0.3l107.7-48.3q0.2-0.1 0.4 0 0.2 0.1 0.2 0.3l15.9 144.8c0.1 0.2 0 0.4-0.2 0.5q-0.1 0-0.2 0zm-122.7-96.8l122.1 95.3-15.7-143z"/>
						</g>
						<g id="triangle36 1357 ">
							<path id="&lt;Compound Path&gt;" fill-rule="evenodd" class="s0" d="m925.3 97.1q0 0 0-0.1c-0.2 0-0.4-0.1-0.4-0.3l-51.4-213.3q0-0.2 0.1-0.4 0.1-0.2 0.3-0.2l217.5-43.1c0.1 0 0.3 0.1 0.4 0.2 0.2 0.2 0.2 0.4 0.1 0.5l-166.2 256.4q-0.1 0.2-0.4 0.3zm-50.8-213.5l51.1 211.8 164.9-254.6z"/>
						</g>
						<g id="triangle36 1356 ">
							<path id="&lt;Compound Path&gt;" fill-rule="evenodd" class="s0" d="m941.3 241.8q-0.1 0-0.3-0.1-0.2-0.1-0.2-0.3l-15.9-144.8c0-0.2 0.1-0.4 0.3-0.4 0.1-0.1 0.4-0.1 0.5 0.1l98.2 107.9q0.2 0.2 0.1 0.4 0 0.3-0.3 0.4l-82.2 36.8q-0.1 0-0.2 0zm-15.3-143.8l15.7 142.7 81.1-36.3z"/>
						</g>
						<g id="triangle36 1355 ">
							<path id="&lt;Compound Path&gt;" fill-rule="evenodd" class="s0" d="m1023.6 205q-0.1 0-0.1 0-0.2 0-0.3-0.1l-98.2-108c-0.1-0.2-0.2-0.4-0.1-0.6 0.2-0.1 0.4-0.2 0.6-0.2l166.4 42.7c0.2 0.1 0.3 0.2 0.3 0.4 0.1 0.1 0 0.3-0.1 0.4l-68.2 65.3q-0.2 0.1-0.3 0.1zm-96.8-107.6l96.8 106.5 67.2-64.4z"/>
						</g>
						<g id="triangle36 1353 ">
							<path id="&lt;Compound Path&gt;" fill-rule="evenodd" class="s0" d="m1091.8 139.8q-0.1 0-0.1 0l-166.5-42.8q-0.2 0-0.3-0.2-0.1-0.3 0.1-0.5l166.1-256.4c0.1-0.2 0.3-0.2 0.5-0.2 0.2 0.1 0.3 0.3 0.3 0.5l0.4 299.1q-0.1 0.2-0.2 0.4-0.2 0.1-0.3 0.1zm-165.7-43.5l165.2 42.4-0.3-296.9z"/>
						</g>
						<g id="triangle36 1343 ">
							<path id="&lt;Compound Path&gt;" fill-rule="evenodd" class="s0" d="m773.1 550.8q-0.2 0-0.4-0.2-0.2-0.2-0.1-0.4l40.3-157.5q0.1-0.2 0.3-0.3 0.2-0.1 0.4 0l171 118.1c0.2 0.1 0.2 0.3 0.2 0.5 0 0.2-0.2 0.3-0.4 0.4l-211.3 39.4q0 0 0 0zm40.5-157.2l-39.9 156.1 209.4-39z"/>
						</g>
						<g id="triangle36 1342 ">
							<path id="&lt;Compound Path&gt;" fill-rule="evenodd" class="s0" d="m898 611.4q-0.1 0-0.2 0l-125-60.7c-0.1-0.1-0.2-0.3-0.2-0.5 0-0.2 0.2-0.3 0.4-0.4l211.3-39.3c0.2-0.1 0.3 0 0.4 0.2 0.1 0.2 0.1 0.4 0 0.5l-86.3 100.1q-0.2 0.1-0.4 0.1zm-123.5-60.9l123.4 59.9 85.2-98.8z"/>
						</g>
						<g id="triangle36 1341 ">
							<path id="&lt;Compound Path&gt;" fill-rule="evenodd" class="s0" d="m984.3 511.4q-0.1 0-0.2-0.1l-171-118.1c-0.2-0.1-0.3-0.3-0.2-0.5 0.1-0.2 0.3-0.4 0.5-0.4l225.8 11q0.3 0 0.4 0.2 0.1 0.2 0 0.4l-54.8 107.2q-0.1 0.2-0.3 0.3-0.1 0-0.2 0zm-169.3-118l169.2 116.8 54.3-106z"/>
						</g>
						<g id="triangle36 1340 ">
							<path id="&lt;Compound Path&gt;" fill-rule="evenodd" class="s0" d="m956.6 632.2q-0.1 0-0.2 0l-58.5-20.8q-0.2-0.1-0.3-0.3-0.1-0.3 0.1-0.4l86.3-100.1c0.1-0.2 0.4-0.2 0.6-0.1 0.1 0.1 0.2 0.3 0.2 0.5l-27.8 120.8q0 0.2-0.2 0.3-0.1 0.1-0.2 0.1zm-57.8-21.5l57.4 20.4 27.3-118.4z"/>
						</g>
						<g id="triangle36 1339 ">
							<path id="&lt;Compound Path&gt;" fill-rule="evenodd" class="s0" d="m956.6 632.2q-0.2 0-0.4-0.2-0.1-0.1-0.1-0.4l27.8-120.8c0-0.2 0.1-0.3 0.3-0.3 0.2-0.1 0.3 0 0.5 0.1l112.4 108.5c0.1 0.1 0.1 0.3 0.1 0.5-0.1 0.1-0.2 0.3-0.4 0.3l-140.2 12.3q0 0 0 0zm28-120.4l-27.4 119.4 138.5-12.2z"/>
						</g>
						<g id="triangle36 1338 ">
							<path id="&lt;Compound Path&gt;" fill-rule="evenodd" class="s0" d="m984.3 511.4q-0.1 0-0.3-0.2c-0.1-0.1-0.2-0.3-0.1-0.5l54.9-107.2q0.1-0.2 0.3-0.2 0.2-0.1 0.4 0.1l61.5 47.3q0.2 0.1 0.2 0.4-0.1 0.2-0.3 0.3l-116.3 59.9q-0.1 0.1-0.3 0.1zm55.1-107l-54 105.4 114.4-58.8z"/>
						</g>
						<g id="triangle36 1337 ">
							<path id="&lt;Compound Path&gt;" fill-rule="evenodd" class="s0" d="m1096.7 619.9q-0.1 0-0.3-0.1l-112.4-108.5c-0.1-0.2-0.2-0.3-0.1-0.5 0-0.2 0.1-0.3 0.3-0.3l160.7-48.1c0.2 0 0.4 0 0.5 0.2 0.1 0.1 0.2 0.3 0.1 0.4l-48.3 156.6q-0.1 0.2-0.3 0.3-0.1 0-0.2 0zm-111.5-108.8l111.3 107.4 47.9-154.9z"/>
						</g>
						<g id="triangle36 1336 ">
							<path id="&lt;Compound Path&gt;" fill-rule="evenodd" class="s0" d="m984.3 511.4c-0.1 0-0.3-0.1-0.4-0.3-0.1-0.2 0-0.5 0.2-0.6l116.4-59.9q0.1-0.1 0.3 0l44.4 11.8c0.2 0.1 0.3 0.3 0.3 0.5 0 0.2-0.1 0.4-0.3 0.4l-160.7 48.1q-0.1 0-0.2 0zm116.4-59.9l-111.6 57.5 154.2-46.1z"/>
						</g>
						<g id="triangle36 1324 ">
							<path id="&lt;Compound Path&gt;" fill-rule="evenodd" class="s0" d="m290.3 571.1c-0.2 0-0.4-0.1-0.5-0.3 0-0.2 0.1-0.4 0.2-0.6l133.1-77.9q0.2-0.1 0.4-0.1 0.2 0.1 0.3 0.3l27.5 49q0.1 0.2 0 0.4-0.1 0.2-0.3 0.2l-160.6 29q-0.1 0-0.1 0zm132.9-77.8l-130.4 76.4 157.4-28.4z"/>
						</g>
						<g id="triangle36 1322 ">
							<path id="&lt;Compound Path&gt;" fill-rule="evenodd" class="s0" d="m450.9 542.2q0 0 0 0-0.3-0.1-0.4-0.3l-27.5-49q-0.1-0.2 0-0.4 0.1-0.2 0.3-0.3l82.2-16.3c0.2 0 0.4 0.1 0.5 0.2 0.1 0.2 0 0.4-0.1 0.6l-54.6 65.3q-0.2 0.2-0.4 0.2zm-26.8-49.2l26.9 47.9 53.3-63.8z"/>
						</g>
						<g id="triangle36 1462 ">
							<path id="&lt;Path&gt;" class="s0" d="m683.4 212.1q0 0-0.1 0c-0.2-0.1-0.4-0.3-0.3-0.6l25.8-99.4c0.1-0.2 0.3-0.4 0.6-0.3 0.2 0 0.4 0.3 0.3 0.5l-25.8 99.5c-0.1 0.2-0.3 0.3-0.5 0.3z"/>
						</g>
						<g id="triangle36 1316 ">
							<path id="&lt;Compound Path&gt;" fill-rule="evenodd" class="s0" d="m683.4 212.1q-0.1 0-0.3-0.1c-0.1-0.1-0.2-0.3-0.1-0.5l25.8-99.4q0-0.2 0.2-0.3 0.2-0.1 0.4 0l108.4 32.6c0.2 0.1 0.4 0.2 0.4 0.4 0 0.2-0.1 0.4-0.3 0.5l-134.3 66.8q-0.1 0-0.2 0zm26.2-99.3l-25.5 98 132.3-65.8z"/>
						</g>
						<g id="triangle36 1315 ">
							<path id="&lt;Compound Path&gt;" fill-rule="evenodd" class="s0" d="m721.7 338.4c-0.2 0-0.4-0.2-0.5-0.3l-38.2-126.3c-0.1-0.2 0-0.4 0.2-0.5 0.1-0.2 0.3-0.2 0.5 0l157.4 112.4c0.2 0.1 0.3 0.3 0.2 0.5 0 0.2-0.2 0.3-0.4 0.4l-119.2 13.8q0 0 0 0zm-37.4-125.6l37.7 124.6 117.6-13.6z"/>
						</g>
						<g id="triangle36 1314 ">
							<path id="&lt;Compound Path&gt;" fill-rule="evenodd" class="s0" d="m840.9 324.6q-0.2 0-0.3-0.1l-157.4-112.5c-0.2-0.1-0.2-0.2-0.2-0.4q0-0.2 0.2-0.4l134.3-66.7q0.2-0.1 0.4 0 0.2 0.1 0.3 0.3l23.1 179.2c0.1 0.2 0 0.4-0.2 0.5q-0.1 0.1-0.2 0.1zm-156.6-112.9l156 111.4-23-177.5z"/>
						</g>
						<g id="triangle36 1165 ">
							<path id="&lt;Compound Path&gt;" fill-rule="evenodd" class="s0" d="m639.7 426.8q-0.2 0-0.3-0.1c-0.2-0.2-0.2-0.5 0-0.7l81.9-88.4c0.1-0.1 0.3-0.2 0.5-0.1 0.2 0 0.3 0.1 0.3 0.3l4.9 23.3c0 0.2-0.1 0.4-0.2 0.5l-86.8 65.1q-0.1 0.1-0.3 0.1zm81.7-87.9l-77.8 83.9 82.4-61.8z"/>
						</g>
						<g id="triangle36 1164 ">
							<path id="&lt;Compound Path&gt;" fill-rule="evenodd" class="s0" d="m639.7 426.8c-0.1 0-0.3-0.1-0.4-0.3-0.1-0.2 0-0.4 0.2-0.5l86.7-65.2c0.2-0.1 0.4-0.1 0.6 0l54.7 41.2c0.1 0.2 0.2 0.3 0.2 0.5-0.1 0.2-0.2 0.3-0.4 0.4l-141.5 23.9q0 0-0.1 0zm86.8-65l-84.9 63.8 138.5-23.5z"/>
						</g>
						<g id="triangle36 1160 ">
							<path id="&lt;Compound Path&gt;" fill-rule="evenodd" class="s0" d="m773.1 550.8q-0.2 0-0.4-0.1l-133.3-124c-0.1-0.1-0.2-0.3-0.1-0.5 0.1-0.2 0.2-0.3 0.4-0.3l141.4-23.9q0.3-0.1 0.4 0.1 0.2 0.1 0.2 0.3l-8.2 147.9c0 0.2-0.1 0.4-0.3 0.4q-0.1 0.1-0.1 0.1zm-132.3-124.1l131.8 122.6 8.1-146.3z"/>
						</g>
						<g id="triangle36 1159 ">
							<path id="&lt;Path&gt;" class="s0" d="m1202.3 301.6l-162.8 102.5q-0.2 0.1-0.3 0.1-0.1 0-0.3-0.1c-0.1-0.1-0.2-0.3-0.2-0.5l52.9-199.8q0.1-0.2 0.3-0.3 0.2 0 0.4 0l110.3 46.6v1.1l-110.2-46.6-52.4 198.1 162.3-102.2z"/>
						</g>
						<g id="triangle36 1158 ">
							<path id="&lt;Path&gt;" class="s0" d="m1201.9 386.8l-162.6 17.4q-0.1 0-0.1 0c-0.2 0-0.4-0.1-0.4-0.3-0.1-0.2 0-0.4 0.2-0.6l163.3-102.8v1.1l-161.1 101.5 160.7-17.3z"/>
						</g>
						<g id="triangle36 1153 ">
							<path id="&lt;Path&gt;" class="s0" d="m1202.6 251.2l-110.7-46.8c-0.2-0.1-0.3-0.3-0.3-0.5 0.1-0.3 0.2-0.4 0.5-0.4l110.7 6.5v1l-108-6.4 107.8 45.5z"/>
						</g>
						<g id="triangle36 1145 ">
							<path id="&lt;Compound Path&gt;" fill-rule="evenodd" class="s0" d="m450.9 542.2q-0.2 0-0.4-0.2c-0.1-0.2-0.1-0.4 0.1-0.6l54.6-65.3q0.1-0.2 0.4-0.2l108-0.4q0 0 0 0c0.2 0 0.4 0.2 0.4 0.4 0.1 0.2 0 0.4-0.3 0.5l-162.6 65.7q-0.1 0.1-0.2 0.1zm54.9-65.4l-53.3 63.7 158.6-64z"/>
						</g>
						<g id="triangle36 1144 ">
							<path id="&lt;Compound Path&gt;" fill-rule="evenodd" class="s0" d="m582.4 648.9q-0.1 0-0.2-0.1l-131.6-106.7c-0.1-0.2-0.2-0.3-0.2-0.5 0.1-0.1 0.2-0.3 0.3-0.3l162.7-65.7c0.2-0.1 0.3-0.1 0.5 0 0.1 0.1 0.2 0.3 0.1 0.5l-31.1 172.4c0 0.2-0.1 0.3-0.3 0.4q-0.1 0-0.2 0zm-130.6-107.1l130.3 105.8 30.9-170.9z"/>
						</g>
						<g id="triangle36 1142 ">
							<path id="&lt;Compound Path&gt;" fill-rule="evenodd" class="s0" d="m505.6 476.8c-0.3 0-0.5-0.1-0.5-0.3 0-0.3 0.1-0.5 0.3-0.6l134.2-50c0.2-0.1 0.4 0 0.5 0.1 0.1 0.2 0.2 0.4 0.1 0.6l-26.2 49.6c-0.1 0.2-0.3 0.3-0.4 0.3l-108 0.3q0 0 0 0zm133.2-49.6l-130.6 48.7 105.1-0.4z"/>
						</g>
						<g id="triangle36 1141 ">
							<path id="&lt;Compound Path&gt;" fill-rule="evenodd" class="s0" d="m582.4 648.9q-0.1 0-0.2-0.1c-0.2-0.1-0.2-0.3-0.2-0.5l31.1-172.4q0.1-0.2 0.3-0.3 0.2-0.1 0.4 0l159.5 74.3c0.1 0.1 0.2 0.2 0.2 0.4 0 0.2-0.1 0.3-0.2 0.4l-190.6 98.1q-0.1 0.1-0.3 0.1zm31.5-172.2l-30.8 170.9 188.9-97.3z"/>
						</g>
						<g id="triangle36 1140 ">
							<path id="&lt;Compound Path&gt;" fill-rule="evenodd" class="s0" d="m773.1 550.8q-0.1 0-0.2-0.1l-159.5-74.3q-0.2-0.1-0.3-0.3 0-0.1 0.1-0.3l26.1-49.7q0.1-0.2 0.4-0.2 0.2 0 0.4 0.1l133.3 124c0.1 0.1 0.2 0.4 0 0.6q-0.1 0.2-0.3 0.2zm-158.9-75l156.4 72.8-130.7-121.5z"/>
						</g>
						<g id="triangle36 1139 ">
							<path id="&lt;Path&gt;" class="s0" d="m1201.4 484.4l-56.5-21.1c-0.2 0-0.3-0.2-0.3-0.4 0-0.2 0.1-0.3 0.2-0.4l56.9-32.6v1.1l-55.5 31.8 55.2 20.6z"/>
						</g>
						<g id="triangle36 1460 ">
							<path id="&lt;Path&gt;" class="s0" d="m709.2 112.7q-0.2 0-0.3-0.2c-0.2-0.2-0.1-0.5 0.1-0.7l108.4-72.4c0.2-0.2 0.5-0.1 0.6 0.1 0.2 0.2 0.1 0.5-0.1 0.6l-108.4 72.5q-0.1 0.1-0.3 0.1z"/>
						</g>
						<g id="triangle36 1126 ">
							<path id="&lt;Compound Path&gt;" fill-rule="evenodd" class="s0" d="m817.7 145.3q-0.1 0-0.1 0l-108.5-32.6c-0.2-0.1-0.3-0.2-0.3-0.4 0-0.2 0-0.4 0.2-0.5l108.4-72.4c0.1-0.1 0.3-0.2 0.4-0.1 0.2 0.1 0.3 0.3 0.3 0.4l0.1 105.2q0 0.2-0.2 0.4-0.1 0-0.3 0zm-107.4-33.2l106.9 32.1v-103.6z"/>
						</g>
						<g id="triangle36 1121 ">
							<path id="&lt;Compound Path&gt;" fill-rule="evenodd" class="s0" d="m817.7 145.3q-0.1 0-0.2 0-0.3-0.2-0.3-0.4v-105.2c0-0.1 0-0.3 0.2-0.4q0.2-0.1 0.4 0l107.8 56.9c0.1 0.1 0.2 0.2 0.2 0.4 0 0.2-0.1 0.3-0.3 0.4l-107.6 48.3q-0.1 0-0.2 0zm0.4-104.8l0.1 103.7 106.1-47.7z"/>
						</g>
						<g id="triangle36 1117 ">
							<path id="&lt;Compound Path&gt;" fill-rule="evenodd" class="s0" d="m925.3 97.1q-0.1 0-0.2-0.1l-107.7-56.8c-0.2-0.2-0.3-0.4-0.2-0.6l56.3-156.5c0.1-0.2 0.3-0.3 0.5-0.3 0.2 0 0.4 0.1 0.4 0.3l51.4 213.4c0.1 0.2 0 0.3-0.2 0.5q-0.1 0.1-0.3 0.1zm-107.1-57.6l106.5 56.2-50.8-210.8z"/>
						</g>
						<g id="triangle36 1116 ">
							<path id="&lt;Path&gt;" class="s0" d="m1201 549.6l-104 70.2q-0.1 0.1-0.3 0.1-0.1 0-0.2-0.1c-0.2-0.1-0.3-0.3-0.2-0.5l48.3-156.5c0.1-0.2 0.2-0.3 0.4-0.4q0.3 0 0.4 0.2l55.7 71.7v1.5l-55.9-71.9-47.6 154.4 103.5-69.9z"/>
						</g>
						<g id="triangle36 1115 ">
							<path id="&lt;Path&gt;" class="s0" d="m1200.6 645.7l-104-25.8c-0.2-0.1-0.3-0.2-0.3-0.4-0.1-0.2 0-0.4 0.2-0.5l104.6-70.6-0.1 1.2-103.1 69.6 102.7 25.5z"/>
						</g>
						<g id="triangle36 1114 ">
							<path id="&lt;Path&gt;" class="s0" d="m1201.1 535.8l-56.4-72.6c-0.1-0.2-0.1-0.4 0-0.6 0.1-0.2 0.3-0.2 0.5-0.2l56.2 21v1l-55-20.5 54.7 70.4z"/>
						</g>
					</g>
					<g id="&lt;Group&gt;">
						<g id="&lt;Group&gt;">
							<circle id="&lt;Path&gt;" class="s0" cx="1122.5" cy="-187.6" r="4.9"/>
							<path id="&lt;Compound Path&gt;" fill-rule="evenodd" class="s1" d="m1129.2-187.5c0 3.7-3 6.7-6.8 6.7-3.7 0-6.7-3.1-6.7-6.8 0-3.8 3.1-6.8 6.8-6.8 3.7 0.1 6.7 3.1 6.7 6.9zm-11.6-0.1c0 2.7 2.1 4.9 4.8 4.9 2.7 0 4.9-2.2 5-4.9 0-2.7-2.2-4.9-4.9-4.9-2.7 0-4.9 2.2-4.9 4.9z"/>
						</g>
						<g id="&lt;Group&gt;">
							<circle id="&lt;Path&gt;" class="s0" cx="354.3" cy="609.6" r="3"/>
							<path id="&lt;Compound Path&gt;" fill-rule="evenodd" class="s1" d="m359.2 609.6c0 2.7-2.2 4.9-4.9 4.9-2.7 0-4.9-2.2-4.9-4.9 0-2.7 2.2-4.9 4.9-4.9 2.7 0 4.9 2.2 4.9 4.9zm-7.9 0c-0.1 1.6 1.3 3 3 3 1.6 0 3-1.3 3-3 0-1.7-1.3-3-3-3-1.7 0-3 1.3-3 3z"/>
						</g>
						<g id="&lt;Group&gt;">
							<circle id="&lt;Path&gt;" class="s0" cx="410.9" cy="645.7" r="4.2"/>
							<path id="&lt;Compound Path&gt;" fill-rule="evenodd" class="s1" d="m416.9 645.7c0 3.4-2.7 6.1-6.1 6-3.3 0-6-2.7-6-6 0-3.4 2.8-6.1 6.1-6.1 3.3 0 6.1 2.8 6 6.1zm-10.2 0c0 2.3 1.8 4.2 4.2 4.2 2.3 0 4.1-1.9 4.2-4.2 0-2.3-1.9-4.2-4.2-4.2-2.3 0-4.2 1.9-4.2 4.2z"/>
						</g>
						<g id="&lt;Group&gt;">
							<circle id="&lt;Path&gt;" class="s0" cx="1181.8" cy="149.5" r="3.6"/>
							<path id="&lt;Compound Path&gt;" fill-rule="evenodd" class="s1" d="m1187.3 149.6c0 3-2.4 5.4-5.5 5.4-3 0-5.5-2.5-5.5-5.5 0.1-3 2.5-5.5 5.6-5.5 3 0 5.5 2.5 5.4 5.6zm-9.1-0.1c0 2 1.6 3.6 3.6 3.7 2 0 3.7-1.6 3.7-3.7 0-2-1.6-3.6-3.6-3.6-2 0-3.7 1.6-3.7 3.6z"/>
						</g>
						<g id="&lt;Group&gt;">
							<circle id="&lt;Path&gt;" class="s0" cx="941.3" cy="241.3" r="6.2"/>
							<path id="&lt;Compound Path&gt;" fill-rule="evenodd" class="s1" d="m949.4 241.4c-0.1 4.4-3.7 8.1-8.2 8-4.4 0-8-3.6-8-8.1 0-4.5 3.7-8.1 8.1-8.1 4.5 0.1 8.1 3.7 8.1 8.2zm-14.3-0.1c-0.1 3.4 2.7 6.2 6.1 6.3 3.5 0 6.3-2.8 6.3-6.2 0-3.5-2.8-6.3-6.2-6.3-3.4 0-6.2 2.8-6.2 6.2z"/>
						</g>
						<g id="&lt;Group&gt;">
							<circle id="&lt;Path&gt;" class="s0" cx="1023.6" cy="204.5" r="2.7"/>
							<path id="&lt;Compound Path&gt;" fill-rule="evenodd" class="s1" d="m1028.1 204.6c0 2.5-2.1 4.5-4.6 4.5-2.5 0-4.5-2.1-4.5-4.6 0-2.5 2.1-4.5 4.6-4.5 2.5 0 4.5 2.1 4.5 4.6zm-7.2-0.1c0 1.5 1.2 2.7 2.6 2.7 1.5 0 2.7-1.2 2.7-2.6 0-1.5-1.2-2.7-2.6-2.7-1.5 0-2.7 1.2-2.7 2.6z"/>
						</g>
						<g id="&lt;Group&gt;">
							<circle id="&lt;Path&gt;" class="s0" cx="1091.8" cy="139.3" r="6.1"/>
							<path id="&lt;Compound Path&gt;" fill-rule="evenodd" class="s1" d="m1099.8 139.3c0 4.5-3.6 8-8.1 8-4.4 0-7.9-3.6-7.9-8 0-4.5 3.6-8 8-8 4.4 0 8 3.6 8 8zm-14.1 0c-0.1 3.4 2.7 6.1 6.1 6.1 3.3 0 6.1-2.7 6.1-6.1 0-3.4-2.7-6.1-6.1-6.1-3.4 0-6.1 2.7-6.1 6.1z"/>
						</g>
						<g id="&lt;Group&gt;">
							<circle id="&lt;Path&gt;" class="s0" cx="1091.5" cy="-159.8" r="3.8"/>
							<path id="&lt;Compound Path&gt;" fill-rule="evenodd" class="s1" d="m1097.2-159.8c-0.1 3.1-2.6 5.7-5.8 5.7-3.1 0-5.7-2.6-5.6-5.8 0-3.1 2.5-5.6 5.7-5.6 3.1 0 5.7 2.6 5.7 5.7zm-9.6 0c0 2.1 1.7 3.8 3.8 3.8 2.2 0 3.9-1.7 3.9-3.8 0-2.1-1.7-3.8-3.8-3.9-2.1 0-3.9 1.7-3.9 3.9z"/>
						</g>
						<g id="&lt;Group&gt;">
							<circle id="&lt;Path&gt;" class="s0" cx="813.4" cy="392.8" r="5.5"/>
							<path id="&lt;Compound Path&gt;" fill-rule="evenodd" class="s1" d="m820.8 392.8c-0.1 4.1-3.4 7.4-7.5 7.4-4.1 0-7.4-3.3-7.4-7.4 0.1-4.1 3.4-7.4 7.5-7.4 4.1 0 7.4 3.4 7.4 7.4zm-13 0c0 3 2.5 5.5 5.5 5.5 3.1 0.1 5.6-2.4 5.6-5.5 0-3-2.5-5.5-5.5-5.5-3.1 0-5.6 2.4-5.6 5.5z"/>
						</g>
						<g id="&lt;Group&gt;">
							<circle id="&lt;Path&gt;" class="s0" cx="898" cy="611" r="4.8"/>
							<path id="&lt;Compound Path&gt;" fill-rule="evenodd" class="s1" d="m904.7 611c0 3.6-3 6.6-6.7 6.6-3.7 0-6.6-3-6.6-6.7 0-3.6 3-6.6 6.7-6.6 3.6 0 6.6 3 6.6 6.7zm-11.4-0.1c0 2.7 2.1 4.8 4.7 4.8 2.6 0 4.8-2.1 4.8-4.7 0-2.6-2.1-4.8-4.7-4.8-2.7 0-4.8 2.1-4.8 4.7z"/>
						</g>
						<g id="&lt;Group&gt;">
							<circle id="&lt;Path&gt;" class="s0" cx="956.6" cy="631.7" r="6.2"/>
							<path id="&lt;Compound Path&gt;" fill-rule="evenodd" class="s1" d="m964.6 631.8c0 4.4-3.6 8-8.1 8-4.4-0.1-8-3.7-8-8.1 0-4.4 3.7-8 8.1-8 4.4 0 8 3.6 8 8.1zm-14.2-0.1c0 3.4 2.7 6.2 6.1 6.2 3.4 0 6.2-2.7 6.2-6.1 0-3.4-2.7-6.2-6.1-6.2-3.4-0.1-6.2 2.7-6.2 6.1z"/>
						</g>
						<g id="&lt;Group&gt;">
							<circle id="&lt;Path&gt;" class="s0" cx="984.3" cy="510.9" r="3.5"/>
							<path id="&lt;Compound Path&gt;" fill-rule="evenodd" class="s1" d="m989.7 510.9c0 3-2.4 5.4-5.4 5.3-2.9 0-5.3-2.4-5.3-5.3 0-2.9 2.4-5.3 5.4-5.3 2.9 0 5.3 2.4 5.3 5.3zm-8.8 0c0 1.9 1.5 3.5 3.4 3.5 1.9 0 3.5-1.6 3.5-3.5 0-1.9-1.5-3.4-3.4-3.4-1.9 0-3.5 1.5-3.5 3.4z"/>
						</g>
						<g id="&lt;Group&gt;">
							<circle id="&lt;Path&gt;" class="s0" cx="1100.7" cy="451" r="6.7"/>
							<path id="&lt;Compound Path&gt;" fill-rule="evenodd" class="s1" d="m1109.2 451.1c0 4.7-3.8 8.5-8.6 8.5-4.7 0-8.5-3.9-8.5-8.6 0.1-4.7 3.9-8.5 8.6-8.5 4.7 0 8.6 3.9 8.5 8.6zm-15.2-0.1c0 3.7 3 6.7 6.6 6.7 3.7 0 6.7-2.9 6.8-6.6 0-3.7-3-6.7-6.7-6.7-3.7-0.1-6.7 2.9-6.7 6.6z"/>
						</g>
						<g id="&lt;Group&gt;">
							<circle id="&lt;Path&gt;" class="s0" cx="290.3" cy="570.6" r="2.7"/>
							<path id="&lt;Compound Path&gt;" fill-rule="evenodd" class="s1" d="m294.9 570.7c0 2.5-2.1 4.6-4.6 4.6-2.6 0-4.7-2.1-4.6-4.7 0-2.5 2.1-4.6 4.6-4.6 2.6 0 4.6 2.1 4.6 4.7zm-7.4-0.1c0 1.5 1.3 2.8 2.8 2.8 1.5 0 2.7-1.2 2.7-2.7 0-1.6-1.2-2.8-2.7-2.8-1.5 0-2.8 1.2-2.8 2.7z"/>
						</g>
						<g id="&lt;Group&gt;">
							<circle id="&lt;Path&gt;" class="s0" cx="423.4" cy="492.7" r="4.4"/>
							<path id="&lt;Compound Path&gt;" fill-rule="evenodd" class="s1" d="m429.7 492.7c0 3.5-2.9 6.3-6.3 6.3-3.5 0-6.4-2.8-6.3-6.3 0-3.5 2.8-6.3 6.3-6.3 3.5 0 6.3 2.8 6.3 6.3zm-10.8 0c0 2.4 2 4.4 4.5 4.4 2.4 0.1 4.4-1.9 4.4-4.4 0-2.4-1.9-4.4-4.4-4.4-2.4-0.1-4.4 1.9-4.5 4.4z"/>
						</g>
						<g id="&lt;Group&gt;">
							<circle id="&lt;Path&gt;" class="s0" cx="683.4" cy="211.6" r="2.7"/>
							<path id="&lt;Compound Path&gt;" fill-rule="evenodd" class="s1" d="m688 211.7c0 2.5-2.1 4.5-4.6 4.5-2.5 0-4.5-2.1-4.5-4.6 0-2.5 2-4.5 4.6-4.5 2.5 0 4.5 2.1 4.5 4.6zm-7.2-0.1c-0.1 1.5 1.1 2.7 2.6 2.7 1.5 0 2.7-1.2 2.7-2.6 0-1.5-1.2-2.7-2.7-2.7-1.4 0-2.6 1.2-2.6 2.6z"/>
						</g>
						<g id="&lt;Group&gt;">
							<circle id="&lt;Path&gt;" class="s0" cx="840.9" cy="324.1" r="6.1"/>
							<path id="&lt;Compound Path&gt;" fill-rule="evenodd" class="s1" d="m848.9 324.1c-0.1 4.4-3.7 8-8.1 8-4.4 0-7.9-3.6-7.9-8 0-4.4 3.6-8 8-8 4.4 0 8 3.6 8 8zm-14.1 0c-0.1 3.3 2.7 6.1 6 6.1 3.4 0 6.2-2.7 6.2-6.1 0-3.3-2.7-6.1-6.1-6.1-3.4 0-6.1 2.7-6.1 6.1z"/>
						</g>
						<g id="&lt;Group&gt;">
							<circle id="&lt;Path&gt;" class="s0" cx="721.7" cy="337.9" r="3.1"/>
							<path id="&lt;Compound Path&gt;" fill-rule="evenodd" class="s1" d="m726.6 337.9c0 2.8-2.2 5-5 4.9-2.7 0-4.9-2.2-4.9-4.9 0.1-2.7 2.3-4.9 5-4.9 2.7 0 4.9 2.2 4.9 4.9zm-8 0c0 1.7 1.4 3.1 3.1 3.1 1.6 0 3-1.4 3-3.1 0-1.7-1.3-3-3-3-1.7 0-3.1 1.3-3.1 3z"/>
						</g>
						<g id="&lt;Group&gt;">
							<circle id="&lt;Path&gt;" class="s0" cx="726.5" cy="361.2" r="3.4"/>
							<path id="&lt;Compound Path&gt;" fill-rule="evenodd" class="s1" d="m731.8 361.2c0 3-2.4 5.3-5.3 5.3-3 0-5.3-2.4-5.3-5.3 0-3 2.4-5.3 5.3-5.3 3 0 5.3 2.4 5.3 5.3zm-8.8 0c0 1.9 1.6 3.4 3.5 3.4 1.9 0.1 3.4-1.5 3.4-3.4 0.1-1.9-1.5-3.4-3.4-3.4-1.9-0.1-3.4 1.5-3.5 3.4z"/>
						</g>
						<g id="&lt;Group&gt;">
							<circle id="&lt;Path&gt;" class="s0" cx="781.2" cy="402.4" r="2.7"/>
							<path id="&lt;Compound Path&gt;" fill-rule="evenodd" class="s1" d="m785.8 402.4c0 2.6-2.1 4.6-4.6 4.6-2.5 0-4.6-2.1-4.6-4.6 0.1-2.5 2.1-4.6 4.6-4.6 2.6 0.1 4.6 2.1 4.6 4.6zm-7.3 0c0 1.5 1.2 2.7 2.7 2.7 1.5 0 2.7-1.2 2.7-2.7 0-1.5-1.2-2.7-2.7-2.7-1.5 0-2.7 1.2-2.7 2.7z"/>
						</g>
						<g id="&lt;Group&gt;">
							<circle id="&lt;Path&gt;" class="s0" cx="1039.2" cy="403.7" r="4.7"/>
							<path id="&lt;Compound Path&gt;" fill-rule="evenodd" class="s1" d="m1045.8 403.8c0 3.6-3 6.5-6.6 6.5-3.7 0-6.6-3-6.6-6.6 0.1-3.6 3-6.6 6.6-6.5 3.7 0 6.6 2.9 6.6 6.6zm-11.3-0.1c0 2.6 2.1 4.7 4.7 4.7 2.6 0 4.7-2.1 4.7-4.6 0-2.6-2.1-4.7-4.7-4.8-2.6 0-4.7 2.1-4.7 4.7z"/>
						</g>
						<g id="&lt;Group&gt;">
							<circle id="&lt;Path&gt;" class="s0" cx="1092.1" cy="204" r="5.4"/>
							<path id="&lt;Compound Path&gt;" fill-rule="evenodd" class="s1" d="m1099.3 204c0 4-3.3 7.3-7.3 7.2-4 0-7.2-3.3-7.2-7.3 0-4 3.3-7.2 7.3-7.2 4 0 7.3 3.3 7.2 7.3zm-12.6-0.1c0 3 2.4 5.4 5.3 5.5 3 0 5.4-2.4 5.5-5.4 0-3-2.4-5.4-5.4-5.4-3 0-5.4 2.4-5.4 5.3z"/>
						</g>
						<g id="&lt;Group&gt;">
							<circle id="&lt;Path&gt;" class="s0" cx="450.9" cy="541.7" r="5.8"/>
							<path id="&lt;Compound Path&gt;" fill-rule="evenodd" class="s1" d="m458.6 541.7c0 4.3-3.5 7.7-7.7 7.7-4.3 0-7.7-3.5-7.7-7.8 0-4.2 3.5-7.7 7.7-7.6 4.3 0 7.8 3.5 7.7 7.7zm-13.5 0c-0.1 3.2 2.5 5.8 5.8 5.8 3.2 0.1 5.8-2.6 5.9-5.8 0-3.2-2.6-5.8-5.9-5.9-3.2 0-5.8 2.6-5.8 5.9z"/>
						</g>
						<g id="&lt;Group&gt;">
							<circle id="&lt;Path&gt;" class="s0" cx="505.6" cy="476.4" r="3.4"/>
							<path id="&lt;Compound Path&gt;" fill-rule="evenodd" class="s1" d="m510.8 476.4c0 2.9-2.4 5.2-5.3 5.2-2.9 0-5.2-2.4-5.2-5.3 0-2.8 2.4-5.2 5.3-5.2 2.9 0 5.2 2.4 5.2 5.3zm-8.6 0c0 1.8 1.5 3.3 3.3 3.3 1.9 0.1 3.4-1.4 3.4-3.3 0-1.9-1.5-3.4-3.3-3.4-1.9 0-3.4 1.5-3.4 3.4z"/>
						</g>
						<g id="&lt;Group&gt;">
							<circle id="&lt;Path&gt;" class="s0" cx="582.4" cy="648.4" r="5.3"/>
							<path id="&lt;Compound Path&gt;" fill-rule="evenodd" class="s1" d="m589.6 648.5c0 3.9-3.2 7.1-7.2 7.1-3.9 0-7.1-3.3-7.1-7.2 0-4 3.2-7.2 7.2-7.1 3.9 0 7.1 3.2 7.1 7.2zm-12.4-0.1c-0.1 2.9 2.3 5.3 5.2 5.3 2.9 0 5.3-2.3 5.3-5.2 0.1-3-2.3-5.4-5.2-5.4-2.9 0-5.3 2.4-5.3 5.3z"/>
						</g>
						<g id="&lt;Group&gt;">
							<circle id="&lt;Path&gt;" class="s0" cx="613.6" cy="476" r="5.5"/>
							<path id="&lt;Compound Path&gt;" fill-rule="evenodd" class="s1" d="m621 476c0 4.1-3.4 7.4-7.5 7.4-4.1 0-7.4-3.4-7.3-7.4 0-4.1 3.3-7.4 7.4-7.4 4.1 0 7.4 3.3 7.4 7.4zm-13 0c0 3 2.5 5.5 5.5 5.5 3.1 0 5.6-2.4 5.6-5.5 0-3-2.4-5.5-5.5-5.5-3.1-0.1-5.5 2.4-5.6 5.5z"/>
						</g>
						<g id="&lt;Group&gt;">
							<circle id="&lt;Path&gt;" class="s0" cx="773.1" cy="550.3" r="4.8"/>
							<path id="&lt;Compound Path&gt;" fill-rule="evenodd" class="s1" d="m779.8 550.3c-0.1 3.7-3.1 6.7-6.8 6.7-3.7 0-6.7-3-6.7-6.7 0.1-3.7 3.1-6.7 6.8-6.7 3.7 0 6.7 3 6.7 6.7zm-11.6 0c0 2.7 2.2 4.8 4.8 4.8 2.7 0.1 4.9-2.1 4.9-4.8 0-2.6-2.2-4.8-4.8-4.8-2.7 0-4.9 2.1-4.9 4.8z"/>
						</g>
						<g id="&lt;Group&gt;">
							<circle id="&lt;Path&gt;" class="s0" cx="639.7" cy="426.4" r="3.5"/>
							<path id="&lt;Compound Path&gt;" fill-rule="evenodd" class="s1" d="m645.2 426.4c0 3-2.5 5.4-5.5 5.4-3 0-5.4-2.5-5.4-5.5 0-3 2.5-5.4 5.5-5.4 3 0 5.4 2.5 5.4 5.5zm-9-0.1c0 2 1.6 3.6 3.5 3.6 2 0 3.6-1.6 3.6-3.5 0-2-1.6-3.6-3.5-3.6-2 0-3.6 1.6-3.6 3.5z"/>
						</g>
						<g id="&lt;Group&gt;">
							<circle id="&lt;Path&gt;" class="s0" cx="709.2" cy="112.2" r="4.2"/>
							<path id="&lt;Compound Path&gt;" fill-rule="evenodd" class="s1" d="m715.4 112.3c-0.1 3.3-2.8 6.1-6.2 6-3.4 0-6.1-2.7-6.1-6.1 0-3.4 2.8-6.1 6.2-6.1 3.4 0 6.1 2.8 6.1 6.2zm-10.4-0.1c0 2.3 1.9 4.3 4.2 4.3 2.4 0 4.3-1.9 4.3-4.3 0-2.3-1.9-4.2-4.2-4.2-2.4 0-4.3 1.9-4.3 4.2z"/>
						</g>
						<g id="&lt;Group&gt;">
							<circle id="&lt;Path&gt;" class="s0" cx="817.7" cy="144.9" r="3.1"/>
							<path id="&lt;Compound Path&gt;" fill-rule="evenodd" class="s1" d="m822.7 144.9c0 2.8-2.2 5-5 5-2.8 0-5-2.3-5-5 0-2.8 2.3-5.1 5-5 2.8 0 5 2.2 5 5zm-8.1 0c0 1.7 1.4 3.1 3.1 3.1 1.7 0 3.1-1.4 3.2-3.1 0-1.7-1.4-3.2-3.2-3.2-1.7 0-3.1 1.4-3.1 3.2z"/>
						</g>
						<g id="&lt;Group&gt;">
							<circle id="&lt;Path&gt;" class="s0" cx="829" cy="-130.9" r="5"/>
							<path id="&lt;Compound Path&gt;" fill-rule="evenodd" class="s1" d="m835.9-130.9c0 3.8-3.1 6.9-6.9 6.9-3.8-0.1-6.9-3.2-6.9-7 0-3.8 3.1-6.8 6.9-6.8 3.8 0 6.9 3.1 6.9 6.9zm-11.9-0.1c0 2.8 2.2 5.1 5 5.1 2.7 0 5-2.2 5-5 0-2.8-2.2-5-5-5-2.7 0-5 2.2-5 4.9z"/>
						</g>
						<g id="&lt;Group&gt;">
							<circle id="&lt;Path&gt;" class="s0" cx="817.6" cy="39.7" r="6.8"/>
							<path id="&lt;Compound Path&gt;" fill-rule="evenodd" class="s1" d="m826.3 39.8c0 4.8-3.9 8.6-8.7 8.6-4.8 0-8.7-3.9-8.6-8.7 0-4.8 3.9-8.6 8.7-8.6 4.7 0 8.6 3.9 8.6 8.7zm-15.4-0.1c-0.1 3.8 3 6.8 6.7 6.8 3.7 0 6.8-3 6.8-6.7 0-3.8-3-6.8-6.7-6.8-3.8-0.1-6.8 3-6.8 6.7z"/>
						</g>
						<g id="&lt;Group&gt;">
							<circle id="&lt;Path&gt;" class="s0" cx="925.4" cy="96.6" r="3.5"/>
							<path id="&lt;Compound Path&gt;" fill-rule="evenodd" class="s1" d="m930.7 96.6c0 3-2.4 5.3-5.4 5.3-2.9 0-5.3-2.4-5.3-5.3 0-3 2.4-5.4 5.4-5.4 2.9 0.1 5.3 2.5 5.3 5.4zm-8.8 0c0 1.9 1.5 3.4 3.4 3.4 1.9 0.1 3.5-1.5 3.5-3.4 0-1.9-1.5-3.5-3.4-3.5-1.9 0-3.5 1.6-3.5 3.5z"/>
						</g>
						<g id="&lt;Group&gt;">
							<circle id="&lt;Path&gt;" class="s0" cx="874" cy="-116.7" r="3.8"/>
							<path id="&lt;Compound Path&gt;" fill-rule="evenodd" class="s1" d="m879.7-116.7c0 3.1-2.6 5.7-5.8 5.7-3.1 0-5.7-2.6-5.6-5.8 0-3.1 2.6-5.7 5.7-5.7 3.2 0 5.7 2.6 5.7 5.8zm-9.6-0.1c0 2.2 1.7 3.9 3.9 3.9 2.1 0 3.8-1.7 3.8-3.8 0-2.1-1.7-3.9-3.8-3.9-2.1 0-3.9 1.7-3.9 3.8z"/>
						</g>
						<g id="&lt;Group&gt;">
							<circle id="&lt;Path&gt;" class="s0" cx="1096.7" cy="619.4" r="3.6"/>
							<path id="&lt;Compound Path&gt;" fill-rule="evenodd" class="s1" d="m1102.2 619.4c0 3.1-2.5 5.5-5.5 5.5-3 0-5.4-2.5-5.4-5.5 0-3 2.4-5.5 5.5-5.5 3 0.1 5.4 2.5 5.4 5.5zm-9.1 0c0 2 1.6 3.6 3.6 3.6 2 0 3.6-1.6 3.6-3.6 0-1.9-1.6-3.6-3.5-3.6-2 0-3.6 1.6-3.7 3.6z"/>
						</g>
						<g id="&lt;Group&gt;">
							<circle id="&lt;Path&gt;" class="s0" cx="1145.1" cy="462.9" r="4.5"/>
							<path id="&lt;Compound Path&gt;" fill-rule="evenodd" class="s1" d="m1151.4 462.9c0 3.5-2.9 6.4-6.4 6.3-3.5 0-6.3-2.8-6.3-6.3 0-3.5 2.9-6.4 6.4-6.4 3.5 0.1 6.3 2.9 6.3 6.4zm-10.8 0c0 2.4 2 4.4 4.4 4.5 2.5 0 4.5-2 4.5-4.5 0-2.5-1.9-4.5-4.4-4.5-2.5 0-4.5 2-4.5 4.5z"/>
						</g>
					</g>
				</g>
			</g>
		</g>
	</g>
</svg>