<svg version="1.2" xmlns="http://www.w3.org/2000/svg" viewBox="0 0 3000 1500" width="3000" height="1500">
	<title>delivery5-ai</title>
	<defs>
		<linearGradient id="g1" x1="909.1" y1="1460.9" x2="924.1" y2="1460.9" gradientUnits="userSpaceOnUse">
			<stop offset="0" stop-color="#60a1e3"/>
			<stop offset="1" stop-color="#5d5fd0"/>
		</linearGradient>
		<linearGradient id="g2" x1="734.9" y1="1460.2" x2="749.9" y2="1460.2" gradientUnits="userSpaceOnUse">
			<stop offset="0" stop-color="#60a1e3"/>
			<stop offset="1" stop-color="#5d5fd0"/>
		</linearGradient>
		<linearGradient id="g3" x1="704.4" y1="1416.4" x2="827.7" y2="1416.4" gradientUnits="userSpaceOnUse">
			<stop offset="0" stop-color="#ff31c4"/>
			<stop offset="1" stop-color="#9a2e9e"/>
		</linearGradient>
		<linearGradient id="g4" x1="698.4" y1="1357.6" x2="746.1" y2="1357.6" gradientUnits="userSpaceOnUse">
			<stop offset="0" stop-color="#ffc572"/>
			<stop offset="1" stop-color="#ff4eb3"/>
		</linearGradient>
		<linearGradient id="g5" x1="684.4" y1="1356.9" x2="731.5" y2="1357.4" gradientUnits="userSpaceOnUse">
			<stop offset="0" stop-color="#ffc572"/>
			<stop offset="1" stop-color="#ff4eb3"/>
		</linearGradient>
		<linearGradient id="g6" x1="789.5" y1="1377.5" x2="909.3" y2="1377.5" gradientUnits="userSpaceOnUse">
			<stop offset="0" stop-color="#ff31c4"/>
			<stop offset="1" stop-color="#9a2e9e"/>
		</linearGradient>
		<linearGradient id="g7" x1="822.5" y1="1285" x2="850.3" y2="1285" gradientUnits="userSpaceOnUse">
			<stop offset="0" stop-color="#ffc572"/>
			<stop offset="1" stop-color="#ff4eb3"/>
		</linearGradient>
		<linearGradient id="g8" x1="813.3" y1="1318.5" x2="839.2" y2="1329.7" gradientUnits="userSpaceOnUse">
			<stop offset="0" stop-color="#92d2ff"/>
			<stop offset="1" stop-color="#28a0ff"/>
		</linearGradient>
		<linearGradient id="g9" x1="879.6" y1="1398.6" x2="867.9" y2="1428.9" gradientUnits="userSpaceOnUse">
			<stop offset="0" stop-color="#60a1e3"/>
			<stop offset="1" stop-color="#5d5fd0"/>
		</linearGradient>
		<linearGradient id="g10" x1="876.6" y1="1355.3" x2="860.7" y2="1388.1" gradientUnits="userSpaceOnUse">
			<stop offset="0" stop-color="#92d2ff"/>
			<stop offset="1" stop-color="#28a0ff"/>
		</linearGradient>
		<linearGradient id="g11" x1="2420.7" y1="1137.1" x2="2509" y2="1137.1" gradientUnits="userSpaceOnUse">
			<stop offset="0" stop-color="#ffc572"/>
			<stop offset="1" stop-color="#ff4eb3"/>
		</linearGradient>
		<linearGradient id="g12" x1="2344.8" y1="1265.2" x2="2660.4" y2="1342.2" gradientUnits="userSpaceOnUse">
			<stop offset="0" stop-color="#68d2ff"/>
			<stop offset="1" stop-color="#2287d9"/>
		</linearGradient>
		<linearGradient id="g13" x1="2329.1" y1="1329.9" x2="2644.6" y2="1406.8" gradientUnits="userSpaceOnUse">
			<stop offset="0" stop-color="#68d2ff"/>
			<stop offset="1" stop-color="#2287d9"/>
		</linearGradient>
		<linearGradient id="g14" x1="1440.7" y1="1426.4" x2="1851.8" y2="1426.4" gradientUnits="userSpaceOnUse">
			<stop offset="0" stop-color="#68d2ff"/>
			<stop offset="1" stop-color="#2287d9"/>
		</linearGradient>
		<linearGradient id="g15" x1="1646.1" y1="1460" x2="1851.8" y2="1460" gradientUnits="userSpaceOnUse">
			<stop offset="0" stop-color="#68d2ff"/>
			<stop offset="1" stop-color="#2287d9"/>
		</linearGradient>
		<linearGradient id="g16" x1="1851.8" y1="1302.3" x2="1978.8" y2="1302.3" gradientUnits="userSpaceOnUse">
			<stop offset="0" stop-color="#68d2ff"/>
			<stop offset="1" stop-color="#2287d9"/>
		</linearGradient>
		<linearGradient id="g17" x1="1971.7" y1="1410" x2="1978.8" y2="1410" gradientUnits="userSpaceOnUse">
			<stop offset="0" stop-color="#ffc572"/>
			<stop offset="1" stop-color="#ff4eb3"/>
		</linearGradient>
		<linearGradient id="g18" x1="1871" y1="1413.1" x2="1869.6" y2="1344.3" gradientUnits="userSpaceOnUse">
			<stop offset="0" stop-color="#d2dfef"/>
			<stop offset="1" stop-color="#f2f2f2"/>
		</linearGradient>
		<linearGradient id="g19" x1="1870.2" y1="1377.8" x2="1893.2" y2="1377.8" gradientUnits="userSpaceOnUse">
			<stop offset="0" stop-color="#ffc572"/>
			<stop offset="1" stop-color="#ff4eb3"/>
		</linearGradient>
		<linearGradient id="g20" x1="1440.7" y1="1460" x2="1575.9" y2="1460" gradientUnits="userSpaceOnUse">
			<stop offset="0" stop-color="#68d2ff"/>
			<stop offset="1" stop-color="#2287d9"/>
		</linearGradient>
		<linearGradient id="g21" x1="1595.6" y1="1449.5" x2="1625.6" y2="1449.5" gradientUnits="userSpaceOnUse">
			<stop offset="0" stop-color="#60a1e3"/>
			<stop offset="1" stop-color="#5d5fd0"/>
		</linearGradient>
		<linearGradient id="g22" x1="1878.5" y1="1449.5" x2="1908.5" y2="1449.5" gradientUnits="userSpaceOnUse">
			<stop offset="0" stop-color="#60a1e3"/>
			<stop offset="1" stop-color="#5d5fd0"/>
		</linearGradient>
		<clipPath clipPathUnits="userSpaceOnUse" id="cp1">
			<path d="m329.19 1504.32l-21.41 0.47q-0.05 0.01-0.1 0l21.42-0.47q0.05 0 0.09 0z"/>
		</clipPath>
		<linearGradient id="g23" x1="287.1" y1="1484.1" x2="291.4" y2="1124.8" gradientUnits="userSpaceOnUse">
			<stop offset="0" stop-color="#68d2ff"/>
			<stop offset="1" stop-color="#2287d9"/>
		</linearGradient>
		<linearGradient id="g24" x1="215.5" y1="1008.1" x2="316.4" y2="1008.1" gradientUnits="userSpaceOnUse">
			<stop offset="0" stop-color="#68d2ff"/>
			<stop offset="1" stop-color="#2287d9"/>
		</linearGradient>
		<clipPath clipPathUnits="userSpaceOnUse" id="cp2">
			<path d="m215.43 1010.75l21.42-0.47q0.05 0 0.09 0l-21.42 0.47q-0.04 0-0.09 0z"/>
		</clipPath>
		<linearGradient id="g25" x1="220.1" y1="1499.8" x2="329.1" y2="1499.8" gradientUnits="userSpaceOnUse">
			<stop offset="0" stop-color="#68d2ff"/>
			<stop offset="1" stop-color="#2287d9"/>
		</linearGradient>
		<linearGradient id="g26" x1="238" y1="1022.3" x2="243.8" y2="1502.8" gradientUnits="userSpaceOnUse">
			<stop offset="0" stop-color="#68d2ff"/>
			<stop offset="1" stop-color="#2287d9"/>
		</linearGradient>
		<linearGradient id="g27" x1="263.9" y1="1008.6" x2="293.2" y2="1008.6" gradientUnits="userSpaceOnUse">
			<stop offset="0" stop-color="#68d2ff"/>
			<stop offset="1" stop-color="#2287d9"/>
		</linearGradient>
		<linearGradient id="g28" x1="1191.6" y1="1537.2" x2="1111.2" y2="1482.6" gradientUnits="userSpaceOnUse">
			<stop offset="0" stop-color="#aec9e8"/>
			<stop offset="1" stop-color="#f2f2f2"/>
		</linearGradient>
		<linearGradient id="g29" x1="2027" y1="1417.3" x2="2267.2" y2="1417.3" gradientUnits="userSpaceOnUse">
			<stop offset="0" stop-color="#aec9e8"/>
			<stop offset="1" stop-color="#f2f2f2"/>
		</linearGradient>
		<linearGradient id="g30" x1="2642.1" y1="1419.5" x2="2882.4" y2="1419.5" gradientUnits="userSpaceOnUse">
			<stop offset="0" stop-color="#aec9e8"/>
			<stop offset="1" stop-color="#f2f2f2"/>
		</linearGradient>
		<linearGradient id="g31" x1="549.6" y1="516" x2="561" y2="517.6" gradientUnits="userSpaceOnUse">
			<stop offset="0" stop-color="#68d2ff"/>
			<stop offset="1" stop-color="#2287d9"/>
		</linearGradient>
		<linearGradient id="g32" x1="344.6" y1="569.4" x2="349.8" y2="570.1" gradientUnits="userSpaceOnUse">
			<stop offset="0" stop-color="#68d2ff"/>
			<stop offset="1" stop-color="#2287d9"/>
		</linearGradient>
		<linearGradient id="g33" x1="349.5" y1="568.5" x2="358.5" y2="569.8" gradientUnits="userSpaceOnUse">
			<stop offset="0" stop-color="#68d2ff"/>
			<stop offset="1" stop-color="#2287d9"/>
		</linearGradient>
		<linearGradient id="g34" x1="307.1" y1="532.7" x2="392.7" y2="544.5" gradientUnits="userSpaceOnUse">
			<stop offset="0" stop-color="#68d2ff"/>
			<stop offset="1" stop-color="#2287d9"/>
		</linearGradient>
		<linearGradient id="g35" x1="77.7" y1="479.6" x2="198.1" y2="496.2" gradientUnits="userSpaceOnUse">
			<stop offset="0" stop-color="#68d2ff"/>
			<stop offset="1" stop-color="#2287d9"/>
		</linearGradient>
		<linearGradient id="g36" x1="136.3" y1="713.4" x2="74.8" y2="414.3" gradientUnits="userSpaceOnUse">
			<stop offset="0" stop-color="#68d2ff"/>
			<stop offset="1" stop-color="#2287d9"/>
		</linearGradient>
		<linearGradient id="g37" x1="102" y1="556.8" x2="175.6" y2="566.9" gradientUnits="userSpaceOnUse">
			<stop offset="0" stop-color="#68d2ff"/>
			<stop offset="1" stop-color="#2287d9"/>
		</linearGradient>
		<linearGradient id="g38" x1="404.9" y1="541.1" x2="439.5" y2="545.8" gradientUnits="userSpaceOnUse">
			<stop offset="0" stop-color="#68d2ff"/>
			<stop offset="1" stop-color="#2287d9"/>
		</linearGradient>
		<linearGradient id="g39" x1="390.6" y1="548.7" x2="409.9" y2="551.3" gradientUnits="userSpaceOnUse">
			<stop offset="0" stop-color="#68d2ff"/>
			<stop offset="1" stop-color="#2287d9"/>
		</linearGradient>
		<linearGradient id="g40" x1="429.7" y1="544.1" x2="441.8" y2="545.7" gradientUnits="userSpaceOnUse">
			<stop offset="0" stop-color="#68d2ff"/>
			<stop offset="1" stop-color="#2287d9"/>
		</linearGradient>
		<linearGradient id="g41" x1="423" y1="591.7" x2="287.3" y2="559.9" gradientUnits="userSpaceOnUse">
			<stop offset="0" stop-color="#68d2ff"/>
			<stop offset="1" stop-color="#2287d9"/>
		</linearGradient>
		<linearGradient id="g42" x1="364.2" y1="568.7" x2="366.1" y2="579.7" gradientUnits="userSpaceOnUse">
			<stop offset="0" stop-color="#68d2ff"/>
			<stop offset="1" stop-color="#2287d9"/>
		</linearGradient>
		<linearGradient id="g43" x1="361.9" y1="569.1" x2="363.8" y2="580.1" gradientUnits="userSpaceOnUse">
			<stop offset="0" stop-color="#68d2ff"/>
			<stop offset="1" stop-color="#2287d9"/>
		</linearGradient>
		<linearGradient id="g44" x1="564.5" y1="531" x2="563.8" y2="535.8" gradientUnits="userSpaceOnUse">
			<stop offset="0" stop-color="#68d2ff"/>
			<stop offset="1" stop-color="#2287d9"/>
		</linearGradient>
		<linearGradient id="g45" x1="562.4" y1="530.8" x2="561.8" y2="535.5" gradientUnits="userSpaceOnUse">
			<stop offset="0" stop-color="#68d2ff"/>
			<stop offset="1" stop-color="#2287d9"/>
		</linearGradient>
		<linearGradient id="g46" x1="350.6" y1="573.1" x2="352.5" y2="584.2" gradientUnits="userSpaceOnUse">
			<stop offset="0" stop-color="#68d2ff"/>
			<stop offset="1" stop-color="#2287d9"/>
		</linearGradient>
		<linearGradient id="g47" x1="348.3" y1="573.5" x2="350.2" y2="584.6" gradientUnits="userSpaceOnUse">
			<stop offset="0" stop-color="#68d2ff"/>
			<stop offset="1" stop-color="#2287d9"/>
		</linearGradient>
		<linearGradient id="g48" x1="731.9" y1="955.2" x2="772.1" y2="955.2" gradientUnits="userSpaceOnUse">
			<stop offset="0" stop-color="#ffc572"/>
			<stop offset="1" stop-color="#ff4eb3"/>
		</linearGradient>
		<linearGradient id="g49" x1="704.6" y1="818.7" x2="799.8" y2="818.7" gradientUnits="userSpaceOnUse">
			<stop offset="0" stop-color="#68d2ff"/>
			<stop offset="1" stop-color="#2287d9"/>
		</linearGradient>
		<clipPath clipPathUnits="userSpaceOnUse" id="cp3">
			<path d="m774.28 916.06c-1.14 1.68-7.19 12.28-8.84 12.28q-0.02 0-25.98 0c-7.18-11.24-15.48-20.6-24-30.75-2.45-2.92-4.55-6.13-6.22-9.55-1.55-3.17-1.91-7.35-3.59-10.31q-1.08-4.84-1.09-9.96c0-25.88 21.32-46.85 47.62-46.85 26.29 0 47.61 20.97 47.61 46.85 0 20.65-14.78 32.54-25.51 48.29z"/>
		</clipPath>
		<linearGradient id="g50" x1="739.3" y1="926.1" x2="765.4" y2="926.1" gradientUnits="userSpaceOnUse">
			<stop offset="0" stop-color="#68d2ff"/>
			<stop offset="1" stop-color="#2287d9"/>
		</linearGradient>
		<linearGradient id="g51" x1="2528" y1="531.8" x2="2573.6" y2="531.8" gradientUnits="userSpaceOnUse">
			<stop offset="0" stop-color="#68d2ff"/>
			<stop offset="1" stop-color="#2287d9"/>
		</linearGradient>
		<linearGradient id="g52" x1="2463.3" y1="514.2" x2="2501.9" y2="514.2" gradientUnits="userSpaceOnUse">
			<stop offset="0" stop-color="#68d2ff"/>
			<stop offset="1" stop-color="#2287d9"/>
		</linearGradient>
		<linearGradient id="g53" x1="2472.6" y1="510.5" x2="2480.7" y2="510.5" gradientUnits="userSpaceOnUse">
			<stop offset="0" stop-color="#68d2ff"/>
			<stop offset="1" stop-color="#2287d9"/>
		</linearGradient>
		<linearGradient id="g54" x1="2561.4" y1="528.1" x2="2569.7" y2="528.1" gradientUnits="userSpaceOnUse">
			<stop offset="0" stop-color="#68d2ff"/>
			<stop offset="1" stop-color="#2287d9"/>
		</linearGradient>
		<linearGradient id="g55" x1="2459.9" y1="553.2" x2="2548.5" y2="553.2" gradientUnits="userSpaceOnUse">
			<stop offset="0" stop-color="#ffc572"/>
			<stop offset="1" stop-color="#ff4eb3"/>
		</linearGradient>
		<linearGradient id="g56" x1="2490.8" y1="538" x2="2535.4" y2="538" gradientUnits="userSpaceOnUse">
			<stop offset="0" stop-color="#68d2ff"/>
			<stop offset="1" stop-color="#2287d9"/>
		</linearGradient>
		<clipPath clipPathUnits="userSpaceOnUse" id="cp4">
			<path d="m459.24 1502.73l-218.73-1.27-3.65-240.26 222.38 1.17z"/>
		</clipPath>
		<linearGradient id="g57" x1="329.7" y1="1300" x2="355.6" y2="1318.7" gradientUnits="userSpaceOnUse">
			<stop offset="0" stop-color="#92d2ff"/>
			<stop offset="1" stop-color="#28a0ff"/>
		</linearGradient>
		<linearGradient id="g58" x1="358.5" y1="1364.4" x2="369" y2="1444.1" gradientUnits="userSpaceOnUse">
			<stop offset="0" stop-color="#60a1e3"/>
			<stop offset="1" stop-color="#5d5fd0"/>
		</linearGradient>
		<linearGradient id="g59" x1="336.8" y1="1267" x2="364.1" y2="1267" gradientUnits="userSpaceOnUse">
			<stop offset="0" stop-color="#ffc572"/>
			<stop offset="1" stop-color="#ff4eb3"/>
		</linearGradient>
		<linearGradient id="g60" x1="361.6" y1="1287.2" x2="336.6" y2="1281.4" gradientUnits="userSpaceOnUse">
			<stop offset="0" stop-color="#ffc572"/>
			<stop offset="1" stop-color="#ff4eb3"/>
		</linearGradient>
		<linearGradient id="g61" x1="362.2" y1="1284.8" x2="337.2" y2="1279.1" gradientUnits="userSpaceOnUse">
			<stop offset="0" stop-color="#ffc572"/>
			<stop offset="1" stop-color="#ff4eb3"/>
		</linearGradient>
		<linearGradient id="g62" x1="250.9" y1="1281" x2="319.4" y2="1281" gradientUnits="userSpaceOnUse">
			<stop offset="0" stop-color="#ffc572"/>
			<stop offset="1" stop-color="#ff4eb3"/>
		</linearGradient>
		<linearGradient id="g63" x1="276.4" y1="1284.7" x2="317.1" y2="1284.7" gradientUnits="userSpaceOnUse">
			<stop offset="0" stop-color="#ffc572"/>
			<stop offset="1" stop-color="#ff4eb3"/>
		</linearGradient>
		<linearGradient id="g64" x1="330.8" y1="1367.8" x2="340.9" y2="1444.7" gradientUnits="userSpaceOnUse">
			<stop offset="0" stop-color="#60a1e3"/>
			<stop offset="1" stop-color="#5d5fd0"/>
		</linearGradient>
		<linearGradient id="g65" x1="372.4" y1="1352.1" x2="357.9" y2="1372.2" gradientUnits="userSpaceOnUse">
			<stop offset="0" stop-color="#92d2ff"/>
			<stop offset="1" stop-color="#28a0ff"/>
		</linearGradient>
		<linearGradient id="g66" x1="372.7" y1="1293.5" x2="327.3" y2="1285.9" gradientUnits="userSpaceOnUse">
			<stop offset="0" stop-color="#ffc572"/>
			<stop offset="1" stop-color="#ff4eb3"/>
		</linearGradient>
		<linearGradient id="g67" x1="337.5" y1="1299.4" x2="337.5" y2="1284.8" gradientUnits="userSpaceOnUse">
			<stop offset="0" stop-color="#ffc572"/>
			<stop offset="1" stop-color="#ff4eb3"/>
		</linearGradient>
		<linearGradient id="g68" x1="344.8" y1="1305.6" x2="344.8" y2="1285.4" gradientUnits="userSpaceOnUse">
			<stop offset="0" stop-color="#ffc572"/>
			<stop offset="1" stop-color="#ff4eb3"/>
		</linearGradient>
		<linearGradient id="g69" x1="114.8" y1="1494.2" x2="2952.8" y2="1494.2" gradientUnits="userSpaceOnUse">
			<stop offset="0" stop-color="#68d2ff"/>
			<stop offset="1" stop-color="#2287d9"/>
		</linearGradient>
		<linearGradient id="g70" x1="885.9" y1="1234.1" x2="953.9" y2="1234.1" gradientUnits="userSpaceOnUse">
			<stop offset="0" stop-color="#ffc572"/>
			<stop offset="1" stop-color="#ff4eb3"/>
		</linearGradient>
		<linearGradient id="g71" x1="243.1" y1="1052.9" x2="284.7" y2="1052.9" gradientUnits="userSpaceOnUse">
			<stop offset="0" stop-color="#ffc572"/>
			<stop offset="1" stop-color="#ff4eb3"/>
		</linearGradient>
	</defs>
	<style>
		.s0 { fill: #edf1f4 } 
		.s1 { fill: #ffffff } 
		.s2 { fill: #1f60b0 } 
		.s3 { fill: #808285 } 
		.s4 { fill: #350fa2 } 
		.s5 { fill: #ff6f69 } 
		.s6 { fill: #c132ae } 
		.s7 { fill: #6099dc } 
		.s8 { fill: url(#g1) } 
		.s9 { fill: url(#g2) } 
		.s10 { fill: #753397 } 
		.s11 { fill: url(#g3) } 
		.s12 { fill: url(#g4) } 
		.s13 { fill: #782388 } 
		.s14 { fill: url(#g5) } 
		.s15 { fill: #5876d6 } 
		.s16 { fill: url(#g6) } 
		.s17 { fill: #414042 } 
		.s18 { fill: #f8a595 } 
		.s19 { fill: #f7a08c } 
		.s20 { fill: url(#g7) } 
		.s21 { fill: url(#g8) } 
		.s22 { fill: url(#g9) } 
		.s23 { fill: url(#g10) } 
		.s24 { fill: #231f20 } 
		.s25 { fill: #e7eefe } 
		.s26 { fill: #cbdbfd } 
		.s27 { fill: url(#g11) } 
		.s28 { fill: url(#g12) } 
		.s29 { fill: url(#g13) } 
		.s30 { fill: #b1c9fd } 
		.s31 { fill: url(#g14) } 
		.s32 { fill: url(#g15) } 
		.s33 { fill: url(#g16) } 
		.s34 { fill: url(#g17) } 
		.s35 { fill: url(#g18) } 
		.s36 { fill: url(#g19) } 
		.s37 { fill: url(#g20) } 
		.s38 { fill: url(#g21) } 
		.s39 { fill: url(#g22) } 
		.s40 { fill: #858585 } 
		.s41 { fill: url(#g23) } 
		.s42 { fill: url(#g24) } 
		.s43 { fill: url(#g25) } 
		.s44 { fill: #dae3f2 } 
		.s45 { fill: url(#g26) } 
		.s46 { fill: url(#g27) } 
		.s47 { fill: #dbe2f2 } 
		.s48 { fill: url(#g28) } 
		.s49 { fill: #f8f5ff } 
		.s50 { fill: url(#g29) } 
		.s51 { fill: url(#g30) } 
		.s52 { fill: url(#g31) } 
		.s53 { fill: url(#g32) } 
		.s54 { fill: url(#g33) } 
		.s55 { fill: url(#g34) } 
		.s56 { fill: url(#g35) } 
		.s57 { fill: url(#g36) } 
		.s58 { fill: url(#g37) } 
		.s59 { fill: url(#g38) } 
		.s60 { fill: url(#g39) } 
		.s61 { fill: url(#g40) } 
		.s62 { fill: url(#g41) } 
		.s63 { fill: url(#g42) } 
		.s64 { fill: url(#g43) } 
		.s65 { fill: url(#g44) } 
		.s66 { fill: url(#g45) } 
		.s67 { fill: url(#g46) } 
		.s68 { fill: url(#g47) } 
		.s69 { fill: url(#g48) } 
		.s70 { fill: #ffc572 } 
		.s71 { fill: url(#g49) } 
		.s72 { fill: url(#g50) } 
		.s73 { fill: url(#g51) } 
		.s74 { fill: url(#g52) } 
		.s75 { fill: url(#g53) } 
		.s76 { fill: url(#g54) } 
		.s77 { fill: #ff7e78 } 
		.s78 { fill: url(#g55) } 
		.s79 { fill: url(#g56) } 
		.s80 { fill: url(#g57) } 
		.s81 { fill: url(#g58) } 
		.s82 { fill: url(#g59) } 
		.s83 { fill: url(#g60) } 
		.s84 { fill: url(#g61) } 
		.s85 { fill: #2888de } 
		.s86 { fill: url(#g62) } 
		.s87 { fill: url(#g63) } 
		.s88 { fill: #7b1ab5 } 
		.s89 { fill: #6d6e71 } 
		.s90 { fill: #000000 } 
		.s91 { fill: #3604a3 } 
		.s92 { fill: url(#g64) } 
		.s93 { fill: url(#g65) } 
		.s94 { fill: url(#g66) } 
		.s95 { fill: url(#g67) } 
		.s96 { fill: url(#g68) } 
		.s97 { fill: url(#g69) } 
		.s98 { fill: url(#g70) } 
		.s99 { fill: #eff3ff } 
		.s100 { fill: url(#g71) } 
	</style>
	<g id="Layer 1">
		<path id="&lt;Path&gt;" class="s0" d="m2952.8 1500.5l-2836.8-6.4c-42.3-44.9-79.1-98.6-87.4-159.7-8.2-61.2 19-130.2 75.3-155.4 47.6-21.3 103.9-8.3 153.8-23.4 58.3-17.7 101.3-76.8 100.1-137.8-0.7-29.3-10.4-57.8-13-87.1-3.8-41.6 8.1-85.6 36.9-115.9 28.8-30.2 75.4-44.3 114.6-29.7 34.9 12.9 59.2 45 91.9 62.8 51.5 28.2 116.1 16.8 169.7-7.2 53.5-24 101.6-59.5 156.4-80.7 54.7-21.2 121.5-25.7 168.1 9.9 18.3 14 32 33 48 49.6 66.9 69.5 178.3 91.7 266.8 53.2 27.4-11.9 52.3-28.8 77.7-44.6 55.2-34.1 114.7-63.3 178.7-73.4 64-10.1 133.4 0.8 184.8 40.2 52.9 40.6 82.8 107.4 139.9 141.8 58.7 35.3 140.5 26.1 189.9-21.4l1.1-2.2c37.7-62.9 102.9-110.5 175.7-119.9 72.7-9.5 151.2 22.7 190.5 84.6 31.4 49.3 43.7 119.2 98.2 140.3 19.6 7.5 41.2 6.9 61.9 9.7 90.7 12.3 164 101.8 158.1 193.1-2.9 45.2-19.9 98.3 12.1 130.2 15 14.9 37 20 54.9 31.3 37.9 23.9 52.7 78.3 32.1 118.1z"/>
		<g id="&lt;Group&gt;" style="opacity: .5">
			<g id="&lt;Group&gt;">
				<path id="&lt;Path&gt;" class="s1" d="m629.2 1503.3v-219.9h34.5v-91.2h42.5v92.7h10.4v-40.8h29.4v40.3h41.4v77.5h27.2v-29.3l35.1-35.1v34.6h20.9v-99.5h43.5v270.7z"/>
				<path id="&lt;Path&gt;" class="s1" d="m354.2 1503.3v-219.9h34.6v-91.2h42.4v92.7h10.5v-40.8h29.3v40.3h41.4v77.5h27.2v-29.3l35.1-35.1v34.6h21v-99.5h43.4v270.7z"/>
				<path id="&lt;Path&gt;" class="s1" d="m79.3 1503.3v-219.9h34.5v-91.2h42.5v92.7h10.4v-40.8h29.4v40.3h41.3v77.5h27.3v-29.3l35.1-35.1v34.6h20.9v-99.5h43.5v270.7z"/>
				<path id="&lt;Path&gt;" class="s1" d="m904.4 1503.3v-219.9h34.6v-91.2h42.4v92.7h10.5v-40.8h29.3v40.3h41.4v77.5h27.2v-29.3l35.1-35.1v34.6h21v-99.5h43.5v270.7z"/>
				<path id="&lt;Path&gt;" class="s1" d="m1180 1503.3v-219.9h34.6v-91.2h42.4v92.7h10.5v-40.8h29.3v40.3h41.4v77.5h27.2v-29.3l35.1-35.1v34.6h20.9v-99.5h43.5v270.7z"/>
			</g>
			<g id="&lt;Group&gt;" style="opacity: .1">
				<path id="&lt;Path&gt;" class="s2" d="m275.1 1198.1q-0.5 2.3-1.7 4.2c-2.7 5.7-7.8 14.8-14.1 25.6-7-11.4-11-18.8-13.9-25.3q-1.3-2-1.9-4.5 0 0 0 0-0.6-2-0.6-4.1c0-9.1 7.4-16.4 16.4-16.4 9 0 16.4 7.3 16.4 16.4q0 2.1-0.6 4.1 0 0 0 0z"/>
				<circle id="&lt;Path&gt;" class="s1" cx="259.3" cy="1194" r="7.8"/>
			</g>
			<g id="&lt;Group&gt;" style="opacity: .1">
				<path id="&lt;Path&gt;" class="s2" d="m1275.1 1124.5q-0.6 2.2-1.7 4.1c-2.7 5.7-7.8 14.8-14.1 25.6-7-11.3-11-18.8-13.9-25.2q-1.3-2.1-2-4.5 0 0 0 0-0.5-2-0.5-4.2c0-9.1 7.3-16.4 16.4-16.4 9 0 16.3 7.3 16.3 16.4q0 2.2-0.5 4.2 0 0 0 0z"/>
				<circle id="&lt;Path&gt;" class="s1" cx="1259.3" cy="1120.3" r="7.8"/>
			</g>
			<g id="&lt;Group&gt;" style="opacity: .1">
				<path id="&lt;Path&gt;" class="s2" d="m1376.1 1091.4q-0.5 2.2-1.7 4.1c-2.7 5.7-7.8 14.8-14.1 25.6-7-11.3-11-18.8-13.9-25.2q-1.3-2.1-1.9-4.5 0 0 0-0.1-0.6-2-0.6-4.1c0-9.1 7.4-16.4 16.4-16.4 9.1 0 16.4 7.3 16.4 16.4q0 2.1-0.6 4.1h0.1q-0.1 0.1-0.1 0.1z"/>
				<circle id="&lt;Path&gt;" class="s1" cx="1360.3" cy="1087.2" r="7.8"/>
			</g>
			<g id="&lt;Group&gt;" style="opacity: .1">
				<path id="&lt;Path&gt;" class="s2" d="m167.7 1156.1q-0.5 1.8-1.4 3.4c-2.2 4.6-6.3 12-11.4 20.8-5.7-9.3-8.9-15.3-11.3-20.5q-1-1.7-1.5-3.7-0.1 0-0.1 0-0.4-1.6-0.4-3.3c0-7.4 6-13.3 13.3-13.3 7.3 0 13.2 5.9 13.2 13.3q0 1.7-0.4 3.3 0 0 0 0z"/>
				<circle id="&lt;Path&gt;" class="s1" cx="154.9" cy="1152.8" r="6.3"/>
			</g>
		</g>
		<g id="&lt;Group&gt;" style="opacity: .5">
			<g id="&lt;Group&gt;">
				<path id="&lt;Path&gt;" class="s1" d="m1949.3 1503.3v-219.9h34.6v-91.2h42.4v92.7h10.5v-40.8h29.3v40.3h41.4v77.5h27.2v-29.3l35.1-35.1v34.6h20.9v-99.5h43.5v270.7z"/>
				<path id="&lt;Path&gt;" class="s1" d="m1674.3 1503.3v-219.9h34.6v-91.2h42.4v92.7h10.5v-40.8h29.3v40.3h41.4v77.5h27.3v-29.3l35-35.1v34.6h21v-99.5h43.5v270.7z"/>
				<path id="&lt;Path&gt;" class="s1" d="m1399.4 1503.3v-219.9h34.6v-91.2h42.4v92.7h10.5v-40.8h29.3v40.3h41.4v77.5h27.2v-29.3l35.1-35.1v34.6h20.9v-99.5h43.5v270.7z"/>
				<path id="&lt;Path&gt;" class="s1" d="m2224.6 1503.3v-219.9h34.5v-91.2h42.4v92.7h10.5v-40.8h29.3v40.3h41.4v77.5h27.3v-29.3l35.1-35.1v34.6h20.9v-99.5h43.5v270.7z"/>
				<path id="&lt;Path&gt;" class="s1" d="m2500.1 1503.3v-219.9h34.6v-91.2h42.4v92.7h10.5v-40.8h29.3v40.3h41.4v77.5h27.2v-29.3l35.1-35.1v34.6h21v-99.5h43.4v270.7z"/>
			</g>
			<g id="&lt;Group&gt;" style="opacity: .1">
				<path id="&lt;Path&gt;" class="s2" d="m1595.3 1198.1q-0.6 2.3-1.8 4.2c-2.7 5.7-7.7 14.8-14.1 25.6-7-11.4-10.9-18.8-13.9-25.3q-1.3-2-1.9-4.5 0 0 0 0-0.6-2-0.6-4.1c0-9.1 7.4-16.4 16.4-16.4 9.1 0 16.4 7.3 16.4 16.4q0 2.1-0.5 4.1 0 0 0 0z"/>
				<circle id="&lt;Path&gt;" class="s1" cx="1579.4" cy="1194" r="7.8"/>
			</g>
			<g id="&lt;Group&gt;" style="opacity: .1">
				<path id="&lt;Path&gt;" class="s2" d="m2595.2 1124.5q-0.6 2.2-1.7 4.1c-2.7 5.7-7.8 14.8-14.1 25.6-7-11.3-11-18.8-13.9-25.2q-1.3-2.1-2-4.5 0 0 0 0-0.5-2-0.5-4.2c0-9.1 7.3-16.4 16.4-16.4 9 0 16.3 7.3 16.3 16.4q0 2.2-0.5 4.2 0 0 0 0z"/>
				<circle id="&lt;Path&gt;" class="s1" cx="2579.4" cy="1120.3" r="7.8"/>
			</g>
			<g id="&lt;Group&gt;" style="opacity: .1">
				<path id="&lt;Path&gt;" class="s2" d="m2696.3 1091.4q-0.6 2.2-1.8 4.1c-2.7 5.7-7.7 14.8-14.1 25.6-7-11.3-10.9-18.8-13.9-25.2q-1.3-2.1-1.9-4.5 0 0 0-0.1-0.5-2-0.6-4.1c0-9.1 7.4-16.4 16.4-16.4 9.1 0 16.4 7.3 16.4 16.4q0 2.1-0.5 4.1 0 0.1 0 0.1z"/>
				<circle id="&lt;Path&gt;" class="s1" cx="2680.4" cy="1087.2" r="7.8"/>
			</g>
			<g id="&lt;Group&gt;" style="opacity: .1">
				<path id="&lt;Path&gt;" class="s2" d="m1487.8 1156.1q-0.4 1.8-1.4 3.4c-2.2 4.6-6.3 12-11.4 20.8-5.7-9.3-8.9-15.3-11.3-20.5q-1-1.7-1.5-3.7 0 0 0 0-0.5-1.6-0.5-3.3c0-7.4 6-13.3 13.3-13.3 7.3 0 13.3 5.9 13.3 13.3q0 1.7-0.5 3.3 0 0 0 0z"/>
				<circle id="&lt;Path&gt;" class="s1" cx="1475" cy="1152.8" r="6.3"/>
			</g>
		</g>
		<g id="&lt;Group&gt;">
			<g id="&lt;Group&gt;">
				<g id="&lt;Group&gt;">
					<path id="&lt;Path&gt;" class="s3" d="m872.7 1382.1l1.8-15.8h1.1l-1.5 15.8z"/>
					<g id="&lt;Group&gt;">
						<path id="&lt;Path&gt;" class="s4" d="m877.3 1379.7q1-0.4 8.9 0.2l-0.3 14.7-3 1.3-8.1-3.3z"/>
						<path id="&lt;Path&gt;" class="s1" d="m887.3 1386.7c0.1 4.2-1 7.8-1.4 7.9-0.5 0.2-1.2-2.9-1.2-7.1-0.1-4.1 1-7.6 1.5-7.6 0.5 0 1 2.6 1.1 6.8z"/>
					</g>
					<path id="&lt;Path&gt;" class="s5" d="m719.3 1425.3l-10.2 0.1v-3.2c-0.1-3.2 2.5-5.9 5.7-5.9l4.4-0.1z"/>
					<path id="&lt;Path&gt;" class="s6" d="m728.7 1419.8l-1.9-12.8 16.4-0.2 16.5 10.6 3.2 7.3-34.6 0.5z"/>
					<g id="&lt;Group&gt;">
						<g id="&lt;Group&gt;">
							<g id="&lt;Group&gt;">
								<path id="&lt;Path&gt;" class="s7" d="m909.9 1488.2q-0.2 0-0.3 0c-0.4-0.2-0.6-0.7-0.4-1.1l13.4-33.5c0.2-0.4 0.6-0.6 1-0.5 0.5 0.2 0.7 0.7 0.5 1.1l-13.5 33.5c-0.1 0.3-0.4 0.5-0.7 0.5z"/>
								<path id="&lt;Path&gt;" class="s7" d="m933.4 1478.2q-0.2 0-0.3-0.1l-33.5-13.4c-0.4-0.2-0.6-0.7-0.5-1.1 0.2-0.4 0.7-0.6 1.1-0.4l33.5 13.4c0.4 0.2 0.6 0.7 0.4 1.1-0.1 0.3-0.4 0.5-0.7 0.5z"/>
							</g>
							<g id="&lt;Group&gt;">
								<path id="&lt;Path&gt;" class="s7" d="m923.2 1488.3c-0.3 0-0.6-0.2-0.7-0.6l-13.2-33.6c-0.2-0.4 0-0.8 0.4-1 0.4-0.2 0.9 0 1.1 0.5l13.2 33.6c0.2 0.4 0 0.8-0.5 1q-0.1 0.1-0.3 0.1z"/>
								<path id="&lt;Path&gt;" class="s7" d="m899.8 1478.1c-0.3 0-0.6-0.2-0.7-0.5-0.2-0.4 0-0.9 0.4-1.1l33.6-13.2c0.4-0.2 0.9 0 1.1 0.4 0.1 0.4-0.1 0.9-0.5 1.1l-33.6 13.2q-0.1 0.1-0.3 0.1z"/>
							</g>
							<g id="&lt;Group&gt;">
								<path id="&lt;Path&gt;" class="s7" d="m929.6 1484q-0.3 0-0.6-0.2l-25.9-25.2c-0.3-0.3-0.3-0.8 0-1.1 0.3-0.3 0.8-0.3 1.1 0l25.9 25.2c0.4 0.3 0.4 0.8 0.1 1.1q-0.3 0.2-0.6 0.2z"/>
								<path id="&lt;Path&gt;" class="s7" d="m904 1484.4q-0.3 0-0.5-0.2c-0.3-0.3-0.3-0.8 0-1.2l25.1-25.9c0.3-0.3 0.8-0.3 1.2 0 0.3 0.3 0.3 0.8 0 1.2l-25.2 25.9q-0.2 0.2-0.6 0.2z"/>
							</g>
							<g id="&lt;Group&gt;">
								<path id="&lt;Path&gt;" class="s7" d="m898.6 1471.7c-0.5 0-0.8-0.3-0.8-0.8 0-0.4 0.3-0.8 0.8-0.8l36.1-0.5q0 0 0 0c0.4 0 0.8 0.3 0.8 0.8 0 0.4-0.4 0.8-0.8 0.8l-36.1 0.5q0 0 0 0z"/>
								<path id="&lt;Path&gt;" class="s7" d="m916.9 1489.5c-0.4 0-0.8-0.3-0.8-0.8l-0.5-36.1c-0.1-0.4 0.3-0.8 0.7-0.8 0.5 0 0.9 0.3 0.9 0.8l0.5 36.1c0 0.4-0.4 0.8-0.8 0.8q0 0 0 0z"/>
							</g>
						</g>
						<circle id="&lt;Path&gt;" class="s8" cx="916.6" cy="1470.7" r="7.6"/>
						<circle id="&lt;Path&gt;" class="s4" cx="916.6" cy="1470.7" r="3.3"/>
						<g id="&lt;Group&gt;">
							<path id="&lt;Compound Path&gt;" fill-rule="evenodd" class="s4" d="m916.6 1497.3c-14.7 0-26.6-11.9-26.6-26.6 0-14.8 11.9-26.7 26.6-26.7 14.8 0 26.7 11.9 26.7 26.7 0 14.7-11.9 26.6-26.7 26.6zm18.1-26.6c0-10-8.1-18.1-18.1-18.1-10 0-18 8.1-18 18.1 0 9.9 8 18 18 18 10 0 18.1-8.1 18.1-18z"/>
						</g>
					</g>
					<path id="&lt;Path&gt;" class="s6" d="m758 1419.5l-38.8 0.5q-16.8 11.3-20.9 35.4l-3.1 0.3q8.4-30.8 24-39.5l29.9-1.3z"/>
					<g id="&lt;Group&gt;">
						<g id="&lt;Group&gt;">
							<g id="&lt;Group&gt;">
								<path id="&lt;Path&gt;" class="s7" d="m735.7 1487.5q-0.1 0-0.3-0.1c-0.4-0.1-0.6-0.6-0.4-1l13.4-33.5c0.2-0.4 0.6-0.6 1.1-0.5 0.4 0.2 0.6 0.7 0.4 1.1l-13.4 33.5c-0.2 0.3-0.5 0.5-0.8 0.5z"/>
								<path id="&lt;Path&gt;" class="s7" d="m759.2 1477.5q-0.2 0-0.3-0.1l-33.5-13.4c-0.4-0.2-0.6-0.7-0.5-1.1 0.2-0.4 0.7-0.6 1.1-0.4l33.5 13.4c0.4 0.2 0.6 0.7 0.4 1.1-0.1 0.3-0.4 0.5-0.7 0.5z"/>
							</g>
							<g id="&lt;Group&gt;">
								<path id="&lt;Path&gt;" class="s7" d="m749.1 1487.5c-0.4 0-0.7-0.1-0.8-0.5l-13.2-33.6c-0.2-0.4 0-0.8 0.4-1 0.4-0.2 0.9 0 1.1 0.4l13.2 33.6c0.2 0.5 0 0.9-0.5 1.1q-0.1 0-0.2 0z"/>
								<path id="&lt;Path&gt;" class="s7" d="m725.6 1477.4c-0.3 0-0.6-0.2-0.7-0.5-0.2-0.5 0-0.9 0.4-1.1l33.6-13.2c0.5-0.2 0.9 0 1.1 0.4 0.1 0.4-0.1 0.9-0.5 1.1l-33.6 13.2q-0.1 0.1-0.3 0.1z"/>
							</g>
							<g id="&lt;Group&gt;">
								<path id="&lt;Path&gt;" class="s7" d="m755.4 1483.3q-0.3 0-0.6-0.2l-25.9-25.2c-0.3-0.3-0.3-0.8 0-1.1 0.3-0.3 0.8-0.3 1.1 0l25.9 25.1c0.4 0.3 0.4 0.9 0.1 1.2q-0.3 0.2-0.6 0.2z"/>
								<path id="&lt;Path&gt;" class="s7" d="m729.8 1483.7q-0.3 0-0.5-0.2c-0.3-0.3-0.3-0.8 0-1.2l25.1-25.9c0.3-0.3 0.9-0.3 1.2 0 0.3 0.3 0.3 0.8 0 1.1l-25.2 26q-0.2 0.2-0.6 0.2z"/>
							</g>
							<g id="&lt;Group&gt;">
								<path id="&lt;Path&gt;" class="s7" d="m724.4 1471c-0.5 0-0.8-0.3-0.8-0.8 0-0.4 0.3-0.8 0.8-0.8l36.1-0.5c0.4 0 0.8 0.3 0.8 0.8 0 0.4-0.4 0.8-0.8 0.8l-36.1 0.5q0 0 0 0z"/>
								<path id="&lt;Path&gt;" class="s7" d="m742.7 1488.8c-0.4 0-0.8-0.4-0.8-0.8l-0.5-36.1c0-0.5 0.3-0.8 0.8-0.8 0.4-0.1 0.8 0.3 0.8 0.8l0.5 36.1c0 0.4-0.3 0.8-0.8 0.8q0 0 0 0z"/>
							</g>
						</g>
						<circle id="&lt;Path&gt;" class="s9" cx="742.4" cy="1469.9" r="7.6"/>
						<circle id="&lt;Path&gt;" class="s4" cx="742.4" cy="1469.9" r="3.3"/>
						<g id="&lt;Group&gt;">
							<g id="&lt;Group&gt;">
								<path id="&lt;Compound Path&gt;" fill-rule="evenodd" class="s4" d="m742.4 1496.6c-14.7 0-26.6-11.9-26.6-26.7 0-14.7 11.9-26.6 26.6-26.6 14.8 0 26.7 11.9 26.7 26.6 0 14.8-11.9 26.7-26.7 26.7zm18.1-26.7c0-10-8.1-18-18.1-18-10 0-18 8-18 18 0 10 8 18.1 18 18.1 10 0 18.1-8.1 18.1-18.1z"/>
							</g>
						</g>
					</g>
					<g id="&lt;Group&gt;">
						<path id="&lt;Path&gt;" class="s10" d="m789.4 1473.4l-20.3-1.5-2.1-9.5q-24.3-27.6-56-10.3c-5.8 2.1-10-3-10-5.6 1-3.3 2.1-6.2 3.4-8.8 5.3-6.8 12.1-12.5 19.9-12.6 20-0.2 44-4.5 55.5 9.4 8.3 9.8 9.6 28.8 9.6 38.9z"/>
						<path id="&lt;Path&gt;" class="s11" d="m796 1473.9l-6.6-0.5c0-10.1-1.3-29.1-9.6-38.9-11.5-13.9-35.5-9.6-55.5-9.4-7.8 0.1-14.6 5.8-19.9 12.6q6.2-12.8 14.8-17.7l54.7-0.8 39.3-0.6q-5.8 5.8-4.4 20l9.7 20.3 9.2 9.9z"/>
					</g>
					<path id="&lt;Path&gt;" class="s12" d="m746.1 1402.5l-47.1 0.7-0.6-42.8 47-0.6z"/>
					<path id="&lt;Path&gt;" class="s13" d="m743.2 1406.8l-39 0.5-0.1-3.1 39-0.5z"/>
					<path id="&lt;Path&gt;" class="s14" d="m745.5 1364.9l-47 0.7-0.1-5.2 47-0.6z"/>
					<path id="&lt;Path&gt;" class="s4" d="m724.3 1425.1l-2.9 0.1-0.3-19.8h3z"/>
					<path id="&lt;Path&gt;" class="s10" d="m889.6 1436.7q31.3-10.7 44.7 6.4-39 4-48 24.8-7.5-10.2 3.3-31.2z"/>
					<path id="&lt;Path&gt;" class="s15" d="m908.7 1449l9.4 21.9-2 0.8-10.4-24.9 1.7-1z"/>
					<path id="&lt;Path&gt;" class="s4" d="m903.3 1430.7l6.8 16.4-5.5 2.4-7-17.8q2.6-2.3 5.7-1z"/>
					<path id="&lt;Path&gt;" class="s4" d="m880.7 1397.8l2.2-1.9q15.3 9.3 27.1 31.4l-0.7 2.3z"/>
					<path id="&lt;Path&gt;" class="s16" d="m877.3 1379.7l3.3 14.3c12.7 12.2 21.8 23.3 28.7 35.6q-22.6 9.3-35.8 48.5l-84.1-4.7q-1.4-4.1-0.1-7.4c20.6 3 31.5-1.4 31.7-2.3q0.2-0.9-2.5-4.8l2.6 1q13.8 3.5 33.5 1.7 9.2-4.7 29.2-35.9c-3.4-10.7-8.2-17.8-13.1-24.3l-2-10.4 4-8.9z"/>
					<path id="&lt;Path&gt;" class="s4" d="m873.4 1383.7l-3.1 6.5q-3.7-2.8-2.6-5.7 1.2-2.8 5-2.4z"/>
					<path id="&lt;Path&gt;" class="s17" d="m874.1 1387.8q0.2 1.1-0.6 1.7l-6 3.5-0.7-3.3 5.4-2.9c0.8-0.4 1.8 0.1 1.9 1z"/>
					<path id="&lt;Path&gt;" class="s4" d="m754.9 1419.5c-12.8-2.5-14.3-7.4-13-11.3 1.2-3.6 4.7-5.9 8.5-5.8 13.6 0.5 55.1 2 61.2 3.4 5.5 1.2 6 7.8 5.9 11 0 1-0.8 1.9-1.8 2.1l-9.4 2q-27.9 3.1-51.4-1.4z"/>
					<path id="&lt;Path&gt;" class="s4" d="m877.4 1367.1q-0.2 3.2-3.5 4.2l0.5-9c1.6 1.4 3.1 4.4 3 4.8z"/>
				</g>
				<g id="&lt;Group&gt;">
					<path id="&lt;Path&gt;" class="s18" d="m827.8 1327.7l-7.5-7.3c3-3.1 5.2-6.6 6.6-10.6l7.6 9.4c-2.6 1.9-4.9 4.6-6.7 8.5z"/>
					<path id="&lt;Path&gt;" class="s18" d="m845.7 1312q0.8 5 1.2 7.1l-3.1-0.4z"/>
					<path id="&lt;Path&gt;" class="s19" d="m845.3 1318q-0.4 1.4-2.2 5.8c-1.2 1.1-2.3 1.3-4 1.2-4-0.4-7.7-2.5-10.3-5.5-2.6-3.1-4.1-7-4.4-11-0.4-5.1 1.4-10.8 6-13 4.6-2.2 13.3-0.5 16.1 4.1 2.9 4.8 0 13.4-1.2 18.4z"/>
					<path id="&lt;Path&gt;" class="s4" d="m849.2 1299.1l6.8 4.6-0.1 0.9-14.6-1.7z"/>
					<path id="&lt;Path&gt;" class="s19" d="m858.3 1382.6c2.6 0.7 6.2 1.4 8.9 0.9 0.7-0.2 1.4-0.3 2.1-0.2 0.6 0.2 1.1 0.6 1.6 1q2.5 2.3 4.5 5.1c0.3 0.4 0.6 0.9 0.5 1.4-0.1 0.4-0.3 0.7-0.6 0.9-1.4 1.6-3.1 3.1-5.1 3.5-2.1 0.5-4.6-0.4-5.2-2.4q1.4-0.1 2.8 0.1c0.6-0.9 0.7-2.1 0.2-3.1-0.5-0.9-1.6-1.5-2.7-1.2-1 0.3-1.7 1.6-1.2 2.5-2.9 0.3-5.9-0.7-8-2.7z"/>
					<path id="&lt;Path&gt;" class="s20" d="m843.7 1302.4q0 0.3-5.9 13.3l-18.1-2q-8.5-23.9 9.3-26.3c17.8-2.4 21.2 10.7 21.5 12.1q0.3 1.4-6.8 2.9z"/>
					<path id="&lt;Path&gt;" class="s4" d="m836.8 1324.6l-2.8-1.1 1.2-9.8 2.8 0.3z"/>
					<path id="&lt;Path&gt;" class="s4" d="m853 1457.7l0.5 2.1 5.1 6 6.5 1.9c2.8 0.9 4.6 3.5 4.3 6.2l-30.1-3.4 0.6-4.8 2.5-9.7z"/>
					<g id="&lt;Group&gt;">
						<path id="&lt;Path&gt;" class="s21" d="m786.6 1388.6c1-9.4 7.2-23.3 13.8-42.6q11.3-33.3 22.3-25.7l5.1 7.4c6.3 8.2-7.7 59.1-8.3 61.6q-2.2 0.5-4.9 1.3c-8.2 2.3-21.8-0.4-28-2z"/>
						<path id="&lt;Path&gt;" class="s22" d="m853 1457.7l-10.7-1 8.3-40.3q-42.1-6-57.2-12.2c-6.3-2.5-7.5-9.5-6.8-15.8 6.2 1.5 19.8 4.1 28.1 2.1q2.6-0.7 4.8-1.2-0.1 0.1-0.1 0.1 49.6 11.4 50.1 20.4 0.4 9-16.5 47.9z"/>
					</g>
					<path id="&lt;Path&gt;" class="s23" d="m859.1 1382.1c-0.4 2.3-1.2 5.1-1.6 7.4-12.4-2.3-24.8-5.3-35-12.6-1.4-1-2.7-2.1-3.6-3.5-0.9-1.4-1.4-3.1-1.7-4.7-2.3-9.9-3-20.2-2.2-30.3 4-4 7.7-3.9 10.7 2.8q1.3 13.9 2.5 27.8c10.5 3.6 20.8 8.4 30.9 13.1z"/>
				</g>
				<circle id="&lt;Path&gt;" class="s4" cx="866" cy="1391.3" r="2.6"/>
			</g>
			<g id="&lt;Group&gt;">
				<path id="&lt;Path&gt;" class="s24" d="m632.1 1416.4h59.5v0.5h-59.5z"/>
			</g>
			<g id="&lt;Group&gt;">
				<path id="&lt;Path&gt;" class="s24" d="m647.3 1426.1h43.3v0.5h-43.3z"/>
			</g>
			<g id="&lt;Group&gt;">
				<path id="&lt;Path&gt;" class="s24" d="m651 1407h43.2v0.5h-43.2z"/>
			</g>
		</g>
		<g id="&lt;Group&gt;">
			<g id="&lt;Group&gt;">
				<path id="&lt;Path&gt;" class="s25" d="m2414.9 1496.9h-85.2v-361.7c33.3-33.3 51.9-51.9 85.2-85.2z"/>
				<path id="&lt;Path&gt;" class="s1" d="m2345.8 1140.5h16.4v22.1h-16.4z"/>
				<path id="&lt;Path&gt;" class="s1" d="m2382.4 1140.5h16.4v22.1h-16.4z"/>
				<path id="&lt;Path&gt;" class="s1" d="m2362.2 1200.6l-16.4 1.5v-22.1l16.4-1.6z"/>
				<path id="&lt;Path&gt;" class="s1" d="m2382.4 1178.4h16.4v22.2h-16.4z"/>
				<path id="&lt;Path&gt;" class="s1" d="m2362.2 1240.1l-16.4 1.5v-22.2l16.4-1.5z"/>
				<path id="&lt;Path&gt;" class="s1" d="m2382.4 1217.9h16.4v22.2h-16.4z"/>
				<path id="&lt;Path&gt;" class="s1" d="m2345.8 1257.4h16.4v22.2h-16.4z"/>
				<path id="&lt;Path&gt;" class="s1" d="m2398.8 1281.1h-16.4v-23.7l16.4 1.5z"/>
			</g>
			<g id="&lt;Group&gt;">
				<g id="&lt;Group&gt;">
					<g id="&lt;Group&gt;">
						<path id="&lt;Path&gt;" class="s26" d="m2415.2 1018.3h102.4v478.6h-102.4z"/>
						<path id="&lt;Path&gt;" class="s26" d="m2446.2 996.6h40.4v21.7h-40.4z"/>
					</g>
					<path id="&lt;Path&gt;" class="s26" d="m2464.9 949h3v47.6h-3z"/>
				</g>
				<path id="&lt;Path&gt;" class="s1" d="m2431.7 1057.1h16.3v22.1h-16.3z"/>
				<path id="&lt;Path&gt;" class="s1" d="m2480.1 1059.6h16.4v22.1h-16.4z"/>
				<path id="&lt;Path&gt;" class="s1" d="m2431.7 1094.9h16.3v22.1h-16.3z"/>
				<path id="&lt;Path&gt;" class="s1" d="m2478.6 1095.9h16.3v22.1h-16.3z"/>
				<path id="&lt;Path&gt;" class="s1" d="m2431.7 1132.7h16.3v22.1h-16.3z"/>
				<path id="&lt;Path&gt;" class="s1" d="m2478.6 1133.7h16.3v22.1h-16.3z"/>
				<path id="&lt;Path&gt;" class="s1" d="m2431.7 1170.5h16.3v22.2h-16.3z"/>
				<path id="&lt;Path&gt;" class="s1" d="m2478.6 1171.5h16.3v22.2h-16.3z"/>
				<path id="&lt;Path&gt;" class="s1" d="m2431.7 1208.4h16.3v22.1h-16.3z"/>
				<path id="&lt;Path&gt;" class="s1" d="m2478.6 1209.4h16.3v22.1h-16.3z"/>
				<path id="&lt;Path&gt;" class="s1" d="m2431.7 1246.2h16.3v22.1h-16.3z"/>
				<path id="&lt;Path&gt;" class="s1" d="m2478.6 1247.2h16.3v22.1h-16.3z"/>
			</g>
			<g id="&lt;Group&gt;">
				<path id="&lt;Path&gt;" class="s25" d="m2517.6 1162.6h73.3v334.3h-73.3z"/>
				<path id="&lt;Path&gt;" class="s1" d="m2530.4 1209.8h16.3v22.1h-16.3z"/>
				<path id="&lt;Path&gt;" class="s1" d="m2561 1209.8h16.3v22.1h-16.3z"/>
				<path id="&lt;Path&gt;" class="s1" d="m2530.4 1245.5h16.3v22.1h-16.3z"/>
				<path id="&lt;Path&gt;" class="s1" d="m2561 1245.5h16.3v22.1h-16.3z"/>
				<path id="&lt;Path&gt;" class="s1" d="m2530.4 1281.2h16.3v22.1h-16.3z"/>
				<path id="&lt;Path&gt;" class="s1" d="m2561 1281.2h16.3v22.1h-16.3z"/>
				<path id="&lt;Path&gt;" class="s1" d="m2530.4 1316.8h16.3v22.1h-16.3z"/>
				<path id="&lt;Path&gt;" class="s1" d="m2561 1316.8h16.3v22.1h-16.3z"/>
			</g>
			<g id="&lt;Group&gt;">
				<path id="&lt;Path&gt;" class="s26" d="m2670.8 1496.9h-79.9v-358.8c44.1 0 79.9 35.7 79.9 79.9z"/>
				<path id="&lt;Path&gt;" class="s1" d="m2604.4 1234.3h16.4v22.2h-16.4z"/>
				<path id="&lt;Path&gt;" class="s1" d="m2641 1234.3h16.3v22.2h-16.3z"/>
				<path id="&lt;Path&gt;" class="s1" d="m2604.4 1273.8h16.4v22.2h-16.4z"/>
				<path id="&lt;Path&gt;" class="s1" d="m2641 1273.8h16.3v22.2h-16.3z"/>
				<path id="&lt;Path&gt;" class="s1" d="m2604.4 1313.3h16.4v22.1h-16.4z"/>
				<path id="&lt;Path&gt;" class="s1" d="m2641 1313.3h16.3v22.1h-16.3z"/>
				<path id="&lt;Path&gt;" class="s1" d="m2604.4 1352.8h16.4v22.1h-16.4z"/>
				<path id="&lt;Path&gt;" class="s1" d="m2641 1352.8h16.3v22.1h-16.3z"/>
			</g>
			<g id="&lt;Group&gt;">
				<path id="&lt;Path&gt;" class="s26" d="m2233.5 1202.1h96.2v294.8h-96.2z"/>
				<path id="&lt;Path&gt;" class="s1" d="m2252.3 1241h16.4v22.1h-16.4z"/>
				<path id="&lt;Path&gt;" class="s1" d="m2288.9 1241h16.4v22.1h-16.4z"/>
				<path id="&lt;Path&gt;" class="s1" d="m2252.3 1282.5h16.4v22.1h-16.4z"/>
				<path id="&lt;Path&gt;" class="s1" d="m2288.9 1282.5h16.4v22.1h-16.4z"/>
				<path id="&lt;Path&gt;" class="s1" d="m2252.3 1324h16.4v22.2h-16.4z"/>
				<path id="&lt;Path&gt;" class="s1" d="m2288.9 1324h16.4v22.2h-16.4z"/>
				<path id="&lt;Path&gt;" class="s1" d="m2252.3 1365.6h16.4v22.1h-16.4z"/>
				<path id="&lt;Path&gt;" class="s1" d="m2288.9 1365.6h16.4v22.1h-16.4z"/>
			</g>
		</g>
		<g id="&lt;Group&gt;">
			<path id="&lt;Path&gt;" class="s27" d="m2507.5 1194.7c-1 3.9-2.6 7.7-4.6 11.1-7.3 15.4-20.9 39.9-38 69.1-18.9-30.6-29.6-50.7-37.5-68.1-2.3-3.7-4.1-7.8-5.2-12.1q0-0.1 0-0.1c-1-3.6-1.5-7.3-1.5-11.2 0-24.4 19.8-44.1 44.2-44.1 24.3 0 44.1 19.7 44.1 44.1 0 3.9-0.5 7.6-1.4 11.2q-0.1 0.1-0.1 0.1z"/>
			<circle id="&lt;Path&gt;" class="s1" cx="2464.9" cy="1183.4" r="20.9"/>
		</g>
		<g id="&lt;Group&gt;">
			<g id="&lt;Group&gt;">
				<path id="&lt;Path&gt;" class="s28" d="m2356 1385.3l53.2-44.6 53.2-44.5 53.2 44.5 53.2 44.6h-106.4z"/>
				<path id="&lt;Path&gt;" class="s29" d="m2377.8 1385.3h169.3v111.6h-169.3z"/>
			</g>
			<g id="&lt;Group&gt;">
				<path id="&lt;Path&gt;" class="s1" d="m2452.5 1347.3h10.5v12h-10.5z"/>
				<path id="&lt;Path&gt;" class="s1" d="m2466.4 1347.3h10.5v12h-10.5z"/>
				<path id="&lt;Path&gt;" class="s1" d="m2452.5 1362h10.5v12h-10.5z"/>
				<path id="&lt;Path&gt;" class="s1" d="m2466.4 1362h10.5v12h-10.5z"/>
			</g>
			<path id="&lt;Path&gt;" class="s1" d="m2444.7 1421.2h43.6v75.7h-43.6z"/>
		</g>
		<g id="&lt;Group&gt;">
			<g id="&lt;Group&gt;">
				<path id="&lt;Path&gt;" class="s30" d="m1440.7 1223.5h411.1v205h-411.1z"/>
				<path id="&lt;Path&gt;" class="s1" d="m1445.8 1223.5h2.9v205h-2.9z"/>
				<path id="&lt;Path&gt;" class="s1" d="m1454.1 1223.5h2.9v205h-2.9z"/>
				<path id="&lt;Path&gt;" class="s1" d="m1462.4 1223.5h2.9v205h-2.9z"/>
				<path id="&lt;Path&gt;" class="s1" d="m1470.7 1223.5h2.9v205h-2.9z"/>
				<path id="&lt;Path&gt;" class="s1" d="m1479 1223.5h2.9v205h-2.9z"/>
				<path id="&lt;Path&gt;" class="s1" d="m1487.3 1223.5h2.9v205h-2.9z"/>
				<path id="&lt;Path&gt;" class="s1" d="m1495.6 1223.5h2.9v205h-2.9z"/>
				<path id="&lt;Path&gt;" class="s1" d="m1503.9 1223.5h2.9v205h-2.9z"/>
				<path id="&lt;Path&gt;" class="s1" d="m1512.2 1223.5h2.9v205h-2.9z"/>
				<path id="&lt;Path&gt;" class="s1" d="m1520.4 1223.5h3v205h-3z"/>
				<path id="&lt;Path&gt;" class="s1" d="m1528.7 1223.5h3v205h-3z"/>
				<path id="&lt;Path&gt;" class="s1" d="m1537 1223.5h3v205h-3z"/>
				<path id="&lt;Path&gt;" class="s1" d="m1545.3 1223.5h3v205h-3z"/>
				<path id="&lt;Path&gt;" class="s1" d="m1553.6 1223.5h2.9v205h-2.9z"/>
				<path id="&lt;Path&gt;" class="s1" d="m1561.9 1223.5h2.9v205h-2.9z"/>
				<path id="&lt;Path&gt;" class="s1" d="m1570.2 1223.5h2.9v205h-2.9z"/>
				<path id="&lt;Path&gt;" class="s1" d="m1578.5 1223.5h2.9v205h-2.9z"/>
				<path id="&lt;Path&gt;" class="s1" d="m1586.8 1223.5h2.9v205h-2.9z"/>
				<path id="&lt;Path&gt;" class="s1" d="m1595.1 1223.5h2.9v205h-2.9z"/>
				<path id="&lt;Path&gt;" class="s1" d="m1603.4 1223.5h2.9v205h-2.9z"/>
				<path id="&lt;Path&gt;" class="s1" d="m1611.7 1223.5h2.9v205h-2.9z"/>
				<path id="&lt;Path&gt;" class="s1" d="m1620 1223.5h2.9v205h-2.9z"/>
				<path id="&lt;Path&gt;" class="s1" d="m1628.3 1223.5h2.9v205h-2.9z"/>
				<path id="&lt;Path&gt;" class="s1" d="m1636.6 1223.5h2.9v205h-2.9z"/>
				<path id="&lt;Path&gt;" class="s1" d="m1644.9 1223.5h2.9v205h-2.9z"/>
				<path id="&lt;Path&gt;" class="s1" d="m1653.2 1223.5h2.9v205h-2.9z"/>
				<path id="&lt;Path&gt;" class="s1" d="m1661.4 1223.5h3v205h-3z"/>
				<path id="&lt;Path&gt;" class="s1" d="m1669.7 1223.5h3v205h-3z"/>
				<path id="&lt;Path&gt;" class="s1" d="m1678 1223.5h3v205h-3z"/>
				<path id="&lt;Path&gt;" class="s1" d="m1686.3 1223.5h3v205h-3z"/>
				<path id="&lt;Path&gt;" class="s1" d="m1694.6 1223.5h2.9v205h-2.9z"/>
				<path id="&lt;Path&gt;" class="s1" d="m1702.9 1223.5h2.9v205h-2.9z"/>
				<path id="&lt;Path&gt;" class="s1" d="m1711.2 1223.5h2.9v205h-2.9z"/>
				<path id="&lt;Path&gt;" class="s1" d="m1719.5 1223.5h2.9v205h-2.9z"/>
				<path id="&lt;Path&gt;" class="s1" d="m1727.8 1223.5h2.9v205h-2.9z"/>
				<path id="&lt;Path&gt;" class="s1" d="m1736.1 1223.5h2.9v205h-2.9z"/>
				<path id="&lt;Path&gt;" class="s1" d="m1744.4 1223.5h2.9v205h-2.9z"/>
				<path id="&lt;Path&gt;" class="s1" d="m1752.7 1223.5h2.9v205h-2.9z"/>
				<path id="&lt;Path&gt;" class="s1" d="m1761 1223.5h2.9v205h-2.9z"/>
				<path id="&lt;Path&gt;" class="s1" d="m1769.3 1223.5h2.9v205h-2.9z"/>
				<path id="&lt;Path&gt;" class="s1" d="m1777.6 1223.5h2.9v205h-2.9z"/>
				<path id="&lt;Path&gt;" class="s1" d="m1785.9 1223.5h2.9v205h-2.9z"/>
				<path id="&lt;Path&gt;" class="s1" d="m1794.1 1223.5h3v205h-3z"/>
				<path id="&lt;Path&gt;" class="s1" d="m1802.4 1223.5h3v205h-3z"/>
				<path id="&lt;Path&gt;" class="s1" d="m1810.7 1223.5h3v205h-3z"/>
				<path id="&lt;Path&gt;" class="s1" d="m1819 1223.5h3v205h-3z"/>
				<path id="&lt;Path&gt;" class="s1" d="m1827.3 1223.5h2.9v205h-2.9z"/>
				<path id="&lt;Path&gt;" class="s1" d="m1835.6 1223.5h2.9v205h-2.9z"/>
				<path id="&lt;Path&gt;" class="s1" d="m1843.9 1223.5h2.9v205h-2.9z"/>
			</g>
			<g id="&lt;Group&gt;">
				<g id="&lt;Group&gt;">
					<path id="&lt;Path&gt;" class="s4" d="m1851.8 1489.2v-23.3h7.2v16.1c0 3.9-3.2 7.2-7.2 7.2z"/>
					<g id="&lt;Group&gt;">
						<path id="&lt;Path&gt;" class="s31" d="m1851.8 1428.6v33.6h-205.7c-1.2-7.4-4.8-14.1-10-19.2-6.4-6.5-15.3-10.5-25.1-10.5-17.7 0-32.3 12.9-35.1 29.7h-135.2v-33.6z"/>
						<path id="&lt;Path&gt;" class="s32" d="m1851.8 1462.2v8.4h-205.2v-2.5q0-3-0.5-5.9z"/>
						<path id="&lt;Path&gt;" class="s33" d="m1978.8 1377.6v89.1h-51.3v-0.3c0-18.9-15.4-34.3-34.3-34.3-19 0-34.3 15.4-34.3 34.3v0.3h-7.1v-44.2-118l85.9 9z"/>
						<path id="&lt;Path&gt;" class="s34" d="m1971.7 1412.2h7.1v16.4h-7.1z"/>
						<path id="&lt;Path&gt;" class="s35" d="m1872 1350.6v-25.7c0-3.5 3.1-6.3 6.6-5.9l47.4 5.4c3.2 0.4 6 2.1 7.9 4.8l34 49.7h-39.5l-51-20.3c-3.3-1.3-5.4-4.5-5.4-8z"/>
						<path id="&lt;Path&gt;" class="s36" d="m1870.2 1380h23v2.6h-23z"/>
						<path id="&lt;Path&gt;" class="s4" d="m1927.9 1425.5h-76.3v-1.5h74.8v-45.1h1.5z"/>
						<path id="&lt;Path&gt;" class="s4" d="m1931 1326.3l-1.3-0.8 7.4-12.4 1.3 0.7z"/>
					</g>
					<path id="&lt;Path&gt;" class="s37" d="m1440.7 1462.2h135.2q-0.5 2.9-0.5 5.9v2.5h-134.7z"/>
				</g>
				<g id="&lt;Group&gt;">
					<circle id="&lt;Path&gt;" class="s4" cx="1610.6" cy="1466.7" r="28.8"/>
					<circle id="&lt;Path&gt;" class="s38" cx="1610.6" cy="1466.7" r="15"/>
					<circle id="&lt;Path&gt;" class="s4" cx="1610.6" cy="1466.7" r="5.5"/>
				</g>
				<g id="&lt;Group&gt;">
					<circle id="&lt;Path&gt;" class="s4" cx="1893.5" cy="1466.7" r="28.8"/>
					<circle id="&lt;Path&gt;" class="s39" cx="1893.5" cy="1466.7" r="15"/>
					<circle id="&lt;Path&gt;" class="s4" cx="1893.5" cy="1465.9" r="5.5"/>
				</g>
			</g>
		</g>
		<g id="&lt;Group&gt;">
			<g id="&lt;Group&gt;">
				<g id="&lt;Clip Group&gt;" clip-path="url(#cp1)">
					<g id="&lt;Group&gt;">
						<path id="&lt;Path&gt;" class="s40" d="m329.2 1504.3l-21.4 0.5q-0.1 0-0.1 0l21.4-0.5q0 0 0.1 0z"/>
					</g>
				</g>
				<path id="&lt;Path&gt;" class="s41" d="m329.2 1483.4q0 0.1 0 0.2 0 0 0 0.1 0 0.1-0.1 0.2 0 0.2 0 0.3 0 0.3 0 0.6 0 0 0 0 0 0.1 0 0.1 0 0.2-0.1 0.4 0 0.3 0 0.6 0 0 0 0 0 0 0 0-0.1 0.3-0.1 0.5 0 0.2-0.1 0.4 0 0.1 0 0.1 0 0.1 0 0.1-0.1 0.3-0.1 0.6 0 0.1 0 0.2-0.1 0-0.1 0.1 0 0.1 0 0.2-0.1 0.3-0.1 0.5 0 0-0.1 0.1 0 0 0 0.1 0 0.1-0.1 0.3 0 0.2-0.1 0.4 0 0 0 0 0 0.1 0 0.1-0.1 0.2-0.1 0.4-0.1 0.1-0.2 0.3 0 0 0 0 0 0.1 0 0.1-0.1 0.2-0.2 0.4 0 0.1 0 0.2-0.1 0-0.1 0.1 0 0 0 0.1-0.1 0.2-0.2 0.3 0 0.1-0.1 0.1 0 0.1 0 0.1-0.1 0.1-0.1 0.2-0.1 0.1-0.2 0.2 0 0.1 0 0.1 0 0-0.1 0-0.1 0.2-0.2 0.3 0 0.1-0.1 0.1 0 0.1 0 0.1-0.1 0.1-0.2 0.2 0 0-0.1 0-0.1 0.1-0.1 0.2-0.1 0-0.1 0-0.1 0.1-0.1 0.1-0.1 0.1-0.2 0.1-0.1 0-0.1 0.1-0.1 0-0.3 0.1-0.1 0-0.2 0-0.1 0-0.2 0l-21.5 0.5q0.3 0 0.5-0.1 0.2 0 0.4-0.1 0.1-0.1 0.1-0.1 0.2-0.1 0.3-0.2 0 0 0.1-0.1 0.1-0.1 0.2-0.2 0.1-0.1 0.1-0.1 0.2-0.2 0.3-0.4 0.1-0.1 0.1-0.1 0.1-0.2 0.3-0.4 0-0.1 0-0.1 0.2-0.3 0.3-0.6 0 0 0-0.1 0.2-0.3 0.3-0.6 0 0 0 0 0.1-0.4 0.3-0.7 0-0.1 0-0.1 0.1-0.3 0.2-0.7 0-0.1 0-0.1 0.1-0.4 0.2-0.8 0-0.1 0-0.2 0.1-0.4 0.2-0.8 0-0.1 0-0.1 0.1-0.4 0.1-0.9 0 0 0.1 0 0-0.5 0.1-1 0-0.1 0-0.1 0-0.5 0-0.9 0-0.1 0-0.2 0-0.2 0.1-0.3 0-0.9 0-1.9 0 0 0 0l-6.6-369.5-1.5-87.3q0-0.6-0.1-1.2 0-0.1 0-0.1 0-0.6 0-1.1 0-0.1-0.1-0.1 0-0.6-0.1-1.1 0-0.1 0-0.1-0.1-0.5-0.1-1-0.1-0.1-0.1-0.1 0-0.5-0.2-1 0 0 0-0.1-0.1-0.5-0.2-0.9 0-0.1 0-0.1-0.1-0.4-0.3-0.9 0 0 0 0-0.1-0.5-0.3-0.8 0-0.1 0-0.1-0.1-0.3-0.3-0.7 0-0.1-0.1-0.2-0.1-0.2-0.2-0.4-0.1-0.1-0.1-0.2-0.1-0.2-0.2-0.3-0.1-0.2-0.2-0.4-0.1-0.1-0.2-0.2-0.2-0.2-0.3-0.3-0.1-0.1-0.2-0.2-0.1-0.1-0.3-0.3-0.1 0-0.2-0.1-0.1-0.1-0.3-0.1-0.1-0.1-0.2-0.1-0.2-0.1-0.5-0.1l21.5-0.5q0.2 0 0.5 0.1 0 0 0.1 0.1 0.2 0 0.4 0.1 0 0.1 0.1 0.2 0.2 0.1 0.3 0.2 0.1 0.1 0.2 0.2 0.2 0.2 0.3 0.3 0.1 0.1 0.1 0.2 0 0 0.1 0.1 0.1 0.1 0.2 0.3 0.1 0.1 0.1 0.2 0.1 0.1 0.1 0.1 0.1 0.1 0.1 0.2 0.1 0.2 0.2 0.3 0 0.1 0 0.2 0.1 0.1 0.1 0.2 0.1 0 0.1 0.1 0.1 0.3 0.2 0.5 0 0 0 0.1 0 0 0 0 0.1 0.2 0.2 0.4 0.1 0.2 0.1 0.4 0 0 0 0.1 0 0 0.1 0 0 0.2 0.1 0.5 0.1 0.2 0.1 0.3 0 0.1 0 0.1 0 0 0 0 0.1 0.3 0.1 0.5 0.1 0.2 0.1 0.4 0 0.1 0.1 0.1 0 0 0 0 0 0.2 0 0.4 0.1 0.2 0.1 0.5 0 0 0.1 0.1 0 0.1 0 0.1 0 0.1 0 0.2 0.1 0.3 0.1 0.5 0 0.2 0 0.3 0 0.1 0 0.1 0 0 0 0.1 0.1 0.2 0.1 0.4 0 0.2 0.1 0.5 0 0 0 0.1 0 0 0 0.1 0 0.1 0 0.2 0 0.2 0 0.4 0 0.2 0.1 0.4 0 0.1 0 0.1 0 0.1 0 0.1 0 0.1 0 0.2 0 0.3 0 0.5 0 0.3 0 0.5l1.6 87.3 6.5 369.5q0 0 0 0 0 0 0 0.1 0 0.9 0 1.8z"/>
				<g id="&lt;Group&gt;">
					<path id="&lt;Path&gt;" class="s42" d="m316.4 1012.4l-21.5 0.5-79.4-2.1 21.4-0.5z"/>
				</g>
				<g id="&lt;Clip Group&gt;" clip-path="url(#cp2)">
					<g id="&lt;Group&gt;">
						<path id="&lt;Path&gt;" class="s40" d="m236.9 1010.3l-21.4 0.5q0 0-0.1 0l21.5-0.5q0 0 0 0z"/>
					</g>
				</g>
				<g id="&lt;Group&gt;">
					<path id="&lt;Path&gt;" class="s43" d="m329.1 1504.3l-21.4 0.5-87.6-2.4 21.5-0.4z"/>
				</g>
				<g id="&lt;Group&gt;">
					<path id="&lt;Compound Path&gt;" fill-rule="evenodd" class="s44" d="m320.2 1001.9c2.7 0 5 5.9 5.1 13.1l8.4 476.4c0.1 6.7-1.6 12.1-4 12.8q-0.3 0.1-0.6 0.1l-87.5-2.3c-2.7-0.1-5-6-5.1-13.2l-8.5-476.4c-0.1-6.7 1.7-12.1 4-12.8q0.3-0.1 0.6-0.1zm1 22.8c-0.2-6.7-2.3-12.2-4.8-12.2l-79.4-2.2q-0.3 0-0.6 0.1c-2.2 0.7-3.8 5.8-3.7 12l1.5 87.3 6.6 369.4c0.1 6.8 2.2 12.3 4.7 12.3l79.4 2.2q0.3 0 0.6-0.1c2.2-0.7 3.9-5.7 3.7-12l-6.5-369.4z"/>
				</g>
				<path id="&lt;Path&gt;" class="s45" d="m218.9 1501.9q-0.2-0.1-0.4-0.2-0.1-0.1-0.1-0.2-0.2-0.2-0.4-0.4 0 0-0.1-0.1 0-0.1 0-0.1-0.2-0.2-0.3-0.4-0.1-0.1-0.1-0.2-0.1-0.1-0.1-0.1 0-0.1-0.1-0.2-0.1-0.2-0.2-0.3 0-0.1-0.1-0.2 0-0.1-0.1-0.2 0-0.1 0-0.2-0.2-0.3-0.3-0.6 0 0 0 0 0 0 0 0-0.1-0.2-0.2-0.5 0-0.2-0.1-0.4 0 0 0 0 0-0.1 0-0.1-0.1-0.2-0.2-0.5 0-0.2-0.1-0.4 0 0 0 0 0-0.1 0-0.1-0.1-0.2-0.1-0.5-0.1-0.2-0.2-0.5 0 0 0 0 0 0 0 0 0-0.2-0.1-0.4 0-0.3-0.1-0.5 0-0.1 0-0.2 0-0.1 0-0.1 0-0.1 0-0.2-0.1-0.3-0.1-0.5 0-0.2-0.1-0.4 0 0 0-0.1 0 0 0 0 0-0.3 0-0.5-0.1-0.3-0.1-0.5 0-0.1 0-0.2 0 0 0-0.1 0-0.1 0-0.1-0.1-0.3-0.1-0.5 0-0.2 0-0.4 0-0.1 0-0.2 0 0 0 0 0-0.2 0-0.3 0-0.2 0-0.5-0.1-0.3-0.1-0.5l-8.4-476.4q0 0 0 0 0-0.1 0-0.1 0-1 0-2 0 0 0-0.1 0-0.1 0-0.2 0-0.1 0.1-0.2 0-0.2 0-0.3 0-0.3 0-0.6 0-0.1 0-0.1 0 0 0-0.1 0.1-0.2 0.1-0.4 0-0.3 0-0.6 0 0 0 0 0 0 0.1-0.1 0-0.3 0-0.5 0.1-0.2 0.1-0.4 0-0.1 0-0.1 0-0.1 0-0.1 0.1-0.3 0.1-0.6 0.1-0.1 0.1-0.2 0-0.1 0-0.2 0-0.1 0.1-0.2 0-0.3 0.1-0.5 0-0.1 0-0.1 0-0.1 0-0.1 0.1-0.2 0.1-0.3 0.1-0.3 0.2-0.5 0 0 0 0 0-0.1 0-0.1 0.1-0.2 0.1-0.4 0.1-0.2 0.1-0.3 0.1-0.1 0.1-0.1 0 0 0 0 0.1-0.3 0.2-0.5 0-0.1 0-0.2 0.1 0 0.1-0.1 0 0 0-0.1 0.1-0.2 0.3-0.4 0 0 0 0 0-0.1 0.1-0.2 0-0.1 0.1-0.2 0.1-0.1 0.1-0.2 0.1-0.1 0.1-0.1 0 0 0 0 0.1-0.2 0.3-0.4 0 0 0 0 0.1-0.1 0.1-0.1 0.1-0.1 0.2-0.2 0 0 0.1-0.1 0.1 0 0.1-0.1 0.1 0 0.1-0.1 0.1 0 0.2-0.1 0.1 0 0.2-0.1 0 0 0 0 0.2-0.1 0.3-0.1 0.2-0.1 0.3-0.1 0.1 0 0.2 0l21.5-0.5q-0.3 0-0.6 0.1-0.1 0-0.3 0.1-0.1 0.1-0.2 0.2-0.1 0-0.2 0.1-0.1 0.1-0.2 0.1-0.1 0.2-0.3 0.3 0 0.1-0.1 0.1-0.1 0.2-0.3 0.4 0 0.1 0 0.1-0.2 0.2-0.3 0.5-0.1 0-0.1 0.1-0.1 0.3-0.3 0.6 0 0 0 0.1-0.2 0.3-0.3 0.6 0 0.1 0 0.1-0.2 0.4-0.3 0.7 0 0.1 0 0.1-0.1 0.4-0.2 0.8-0.1 0-0.1 0.1-0.1 0.4-0.2 0.8 0 0.1 0 0.2-0.1 0.4-0.2 0.9 0 0 0 0.1-0.1 0.5-0.1 1 0 0 0 0-0.1 0.5-0.2 1.1 0 0 0 0 0 0.5 0 1.1 0 0.1 0 0.2 0 0.1-0.1 0.3 0 0.9 0 2 0 0 0 0l8.5 476.4q0 0.6 0 1.3 0 0 0 0.1 0 0.6 0.1 1.2 0 0 0 0.1 0.1 0.6 0.1 1.1 0 0.1 0.1 0.1 0 0.6 0.1 1.1 0 0.1 0 0.1 0.1 0.6 0.2 1.1 0.1 0 0.1 0 0.1 0.6 0.2 1.1 0 0 0 0 0.2 0.5 0.3 1 0 0 0 0.1 0.2 0.4 0.3 0.8 0 0 0 0.1 0.2 0.3 0.4 0.7 0 0.1 0.1 0.2 0.1 0.2 0.2 0.5 0.1 0.1 0.1 0.2 0.1 0.2 0.2 0.3 0.1 0.2 0.3 0.4 0.1 0.1 0.2 0.3 0.1 0.1 0.3 0.3 0.1 0.1 0.2 0.2 0.1 0.1 0.3 0.3 0.1 0 0.2 0.1 0.2 0.1 0.3 0.2 0.1 0 0.2 0.1 0.3 0.1 0.6 0.1l-21.5 0.4q-0.2 0-0.5-0.1-0.1 0-0.2 0-0.2-0.1-0.3-0.2-0.1-0.1-0.2-0.2z"/>
			</g>
		</g>
		<g id="&lt;Group&gt;">
			<g id="&lt;Group&gt;">
				<path id="&lt;Path&gt;" class="s1" d="m273.8 1015.5q0 0 0.1 0l9.4 0.2c0.3 0 0.5 0.8 0.5 1.7 0 0.9-0.2 1.6-0.4 1.7q0 0-0.1 0l-9.4-0.2c-0.3 0-0.5-0.8-0.5-1.7 0-0.9 0.1-1.6 0.4-1.7z"/>
			</g>
			<g id="&lt;Group&gt;">
				<path id="&lt;Compound Path&gt;" fill-rule="evenodd" class="s46" d="m263.9 1010.8l29.4 0.9c0.2 7.4-1.4 13.5-3.5 14.1q-0.2 0.1-0.5 0.1l-20.8-0.4c-2.3 0-4.5-6.9-4.6-14.7zm19.5 8.3c0.2-0.1 0.4-0.8 0.4-1.7 0-0.9-0.2-1.7-0.5-1.7l-9.4-0.2q-0.1 0-0.1 0c-0.3 0.1-0.4 0.8-0.4 1.7 0 0.9 0.2 1.7 0.5 1.7l9.4 0.2q0.1 0 0.1 0z"/>
			</g>
		</g>
		<path id="&lt;Path&gt;" class="s47" d="m469 988.2h-31.7-10.1-0.6-19.5-13.6-19.3-4.9-5.2-18.8-7.9-27.5-26.1c0-14.8 12-26.9 26.8-26.9 5.2 0 10 1.5 14.1 4.1 4.4-2.6 9.5-4.1 14.9-4.1 0.7 0 1.4 0.1 2.1 0.2 4-15.3 17.9-26.6 34.5-26.6 16.6 0 30.6 11.5 34.5 26.9q2.3-0.4 4.7-0.5c9.8 0 18.1 6.4 21.1 15.1 3.3-1.9 7.2-3 11.3-3 9.8 0 18 6.1 21.2 14.8z"/>
		<path id="&lt;Path&gt;" class="s1" d="m818 1061.1c4.1 0 8 1.1 11.3 3 3.1-8.7 11.4-15 21.2-15q2.4 0 4.6 0.4c3.9-15.4 17.9-26.9 34.6-26.9 16.5 0 30.4 11.3 34.4 26.6 0.7-0.1 1.4-0.1 2.1-0.1 5.5 0 10.5 1.4 14.9 4 4.1-2.6 8.9-4 14.1-4 14.8 0 26.8 12 26.8 26.8h-26.1-27.5-7.8-18.8-5.2-4.9-19.3-13.6-19.6-0.6-10-31.8c3.2-8.7 11.5-14.8 21.2-14.8z"/>
		<path id="&lt;Path&gt;" class="s48" d="m1134.7 1496.2c-2.2-2.3-2.4-6.2-0.5-8.7 1.9-2.5 5.7-3.5 8.5-2.1-0.6-2.4-0.1-5.2 1.8-6.9 1.9-1.6 5.3-1.3 6.5 0.9-0.6-2.8 0.4-6 2.7-7.6 2.4-1.6 6-1.2 7.6 1.1 0.1-3.4 0.2-7 2.4-9.6 2.1-2.5 7-2.9 8.3 0.1 1.3-3 4.5-5 7.8-5 3.3 0.1 6.4 2.3 7.5 5.4 3-3.2 7.7-4.7 11.9-3.6 4.2 1.1 7.7 4.6 8.8 8.8 0.2 0.9 0.5 1.9 1.4 2.1 0.4 0 0.8-0.1 1.2-0.2 2.5-0.8 5.3 0.7 6.8 2.9 1.5 2.2 2 4.9 2.5 7.5 3-2.6 8.5-0.3 8.8 3.6 1.9-1.4 4.4-2.7 6.5-1.6 0.8 0.5 1.4 1.4 2.3 1.9 0.8 0.6 2.2 0.6 2.6-0.3 1.3 2 2.1 4.2 2.4 6.6 2.4-1.8 5.8-2.1 8.4-0.6 2.6 1.4 4.2 4.5 3.9 7.4z"/>
		<path id="&lt;Path&gt;" class="s47" d="m2673.4 1079.2c4.8 0 9.2 1.3 13.1 3.5 3.4-10 12.9-17.3 24.2-17.3q2.8 0 5.4 0.6c4.4-17.8 20.4-30.9 39.6-30.9 18.9 0 34.9 12.9 39.5 30.5 0.8-0.1 1.6-0.2 2.4-0.2 6.2 0 12.1 1.7 17.1 4.6 4.7-2.9 10.2-4.6 16.1-4.6 17 0 30.8 13.8 30.8 30.8h-30-31.5-9-21.6-5.9-5.6-22.2-15.6-22.4-0.7-11.6-36.4c3.7-9.9 13.2-17 24.3-17z"/>
		<path id="&lt;Path&gt;" class="s1" d="m1619 1034.6h-31.8-10-0.6-19.6-13.6-19.3-4.9-5.2-18.8-7.8-27.5-26.1c0-14.8 12-26.8 26.8-26.8 3.2 0 6.3 0.6 9.1 1.6 5.3-4.7 12.2-7.6 19.9-7.6 3.6 0 7 0.7 10.1 1.8 3.5-4 8.6-6.6 14.3-6.6 4.1 0 7.8 1.3 10.9 3.5 5.6-8.2 15.1-13.6 25.8-13.6 14.9 0 27.4 10.5 30.5 24.6 4.1-4.5 10-7.3 16.6-7.3 12.5 0 22.6 10.1 22.6 22.6 0 2.8-0.5 5.4-1.4 7.8z"/>
		<g id="&lt;Group&gt;">
			<path id="&lt;Path&gt;" class="s44" d="m1189.9 1423.3c5.6 2.8 7.4 10.7 4.8 16.4-2.5 5.4-8.2 8.2-13.5 10.3-3.4 1.3-6.8 2.3-10.1 3.7-3.2 1.3-6.7 2.8-10.3 2.4h-6.3c-12.9-0.3-27.1-3.4-34.2-14.1-2.1-3.2-3.5-7.3-2.3-11 2.1-6.4 10.2-8.3 16.9-9-5.5-3.8-7.4-11.1-8.8-17.6-1.7-7.8-3-17 2.3-22.8 4.8-5.2 12.9-5.5 19.7-3.6-2.6-9.3-1.7-20 4.5-27.3 6.1-7.4 18.1-10 25.7-4.1 4.9 3.8 7.1 10.2 8.6 16.3 2.6 11.1 3.4 22.7 2.4 34.1 3.9-2 9 0.4 10.9 4.4 1.9 3.9 1 8.8-1.2 12.5-2.2 3.8-5.7 6.7-9.1 9.4z"/>
			<path id="&lt;Path&gt;" class="s49" d="m1158.1 1496q0-10 0-20 0-35.2 0-70.5c0-3.8 5.9-3.8 5.9 0q0 10 0 20 0 35.3 0 70.5c0 3.8-5.9 3.8-5.9 0z"/>
			<path id="&lt;Path&gt;" class="s49" d="m1160.5 1433.4c-0.8-1.3-0.4-3.4 1-4.1q2.1-0.9 4-2.3c0.3-0.2 0.3-0.1 0 0.1 0.2-0.1 0.3-0.3 0.5-0.4q0.4-0.4 0.8-0.8 0.8-0.7 1.6-1.6c0.2-0.3 0.5-0.6 0.7-0.9-0.4 0.7-0.1 0.1 0.1 0q0.1-0.3 0.3-0.5 0.6-1 1.2-2 0.2-0.4 0.4-0.9 0.2-0.3 0.3-0.5c0.3-0.7-0.2 0.6 0-0.1q0.4-1.1 0.7-2.1c0.5-1.6 2.1-2.5 3.7-2.1 1.5 0.4 2.5 2.1 2 3.6-1.8 6.8-6.8 12.8-13.3 15.6-1.5 0.7-3.1 0.5-4-1z"/>
			<path id="&lt;Path&gt;" class="s49" d="m1162.1 1445.9c-0.4 1.6-2.1 2.4-3.6 2-3.9-0.9-8.1-1.9-11.4-4.3-3.4-2.5-5.9-6-6.1-10.4-0.1-1.6 1.4-2.9 2.9-2.9 1.7-0.1 2.9 1.4 3 2.9q0 0.3 0 0.5 0-0.2 0-0.3c0 0.1 0 0.4 0.1 0.5q0.1 0.5 0.3 1c0.2 0.7-0.3-0.5 0 0.1q0.1 0.3 0.2 0.5 0.3 0.5 0.6 0.9c0 0.1 0.5 0.6 0.2 0.3-0.2-0.3 0.2 0.2 0.2 0.3q0.4 0.4 0.8 0.8 0.5 0.4 0.9 0.8c-0.2-0.2-0.3-0.3 0-0.1q0.2 0.2 0.5 0.4 1.1 0.7 2.3 1.2c0.2 0.1 0.5 0.3 0.1 0.1q0.3 0.1 0.6 0.2 0.6 0.2 1.2 0.4c1.7 0.6 3.4 1 5.1 1.4 1.6 0.4 2.5 2.1 2.1 3.7z"/>
		</g>
		<g id="&lt;Group&gt;">
			<path id="&lt;Path&gt;" class="s44" d="m1279.8 1411.5c-3.5 3.3-7.7 5.8-11.3 9 9.7 6.8 11.8 20.5 6.2 30.6-5.5 10.1-17.3 16.4-29.3 17.8-30.9 1.6-44-15.7-46-33.7-0.5-4.7-0.1-9.8 3-13.5 3.1-3.6 9.6-5.1 13.2-1.8-7.6-7.1-12.9-16.5-14.7-26.5-0.8-4-0.9-8.5 1.6-12 2.5-3.4 8.3-4.8 11.4-1.8-2-5.5-5.3-10.5-7.2-16-1.9-5.5-2.3-12 1.4-16.7 3.6-4.7 12.2-6 15.9-1.4-0.8-11.4-1-23.3 4-33.8 1.5-3 3.6-6 6.6-7.8 5.4-3.1 12.8-1.5 17.5 2.4 4.7 4 7.1 9.7 8.6 15.4 3.1 11.4 3.1 23.6 0.1 35 3.8-5.9 14.1-5.6 18.9-0.5 4.9 5.1 4.8 13.1 1.9 19.4-2.9 6.3-8.3 11.3-13.5 16.2 1.7 2 4.9 0.2 7.6-0.4 4.8-1 9.5 3.3 9.9 7.9 0.5 4.5-2.3 8.9-5.8 12.2z"/>
			<path id="&lt;Path&gt;" class="s49" d="m1236.1 1498q0-15.4 0-30.7 0-54.6 0-109.1c0-3.8 5.9-3.8 5.9 0q0 15.3 0 30.7 0 54.5 0 109.1c0 3.8-5.9 3.8-5.9 0z"/>
			<path id="&lt;Path&gt;" class="s49" d="m1237.7 1410.4c-0.5-1.6 0.5-3.1 2-3.6 2.1-0.7 4.2-1.8 6.3-3.2 1.2-0.7 1.7-1.2 2.8-2.1q1.3-1.1 2.5-2.5c3.2-3.4 5.5-7.7 6.6-12.3 0.4-1.5 2.1-2.4 3.7-2 1.5 0.4 2.4 2.1 2 3.6-2.8 11.2-11.4 20.4-22.3 24.2-1.5 0.5-3.2-0.6-3.6-2.1z"/>
			<path id="&lt;Path&gt;" class="s49" d="m1238.9 1439.2c-0.5 1.7-2.1 2.3-3.7 2.1-5.3-0.8-9.7-5.3-12.3-9.7-2.6-4.6-3.9-9.9-3.5-15.2 0.1-1.6 1.2-2.9 2.9-2.9 1.5 0 3.1 1.3 3 2.9-0.3 4.2 0.5 8.2 2.5 11.9 2 3.4 5 6.7 9 7.3 1.6 0.3 2.5 2.3 2.1 3.6z"/>
			<path id="&lt;Path&gt;" class="s49" d="m1241 1380.8c-1.2 1.2-3 0.9-4.2 0-5.9-4.9-10.4-11.2-13.2-18.3-0.6-1.6 0.7-3.2 2.1-3.6 1.6-0.6 3 0.6 3.6 2q0.2 0.4 0.3 0.8c-0.1-0.3-0.1-0.2 0 0q0.3 0.7 0.6 1.3 0.6 1.1 1.2 2.2 1.2 2.2 2.7 4.3 0.2 0.3 0.4 0.6c-0.2-0.4 0 0 0.2 0.1q0.3 0.5 0.7 1 0.9 1 1.8 1.9 1.8 1.9 3.8 3.5c1.3 1 1 3.1 0 4.2z"/>
		</g>
		<path id="&lt;Path&gt;" class="s50" d="m2029.3 1494.5c-4.3-4.6-4.7-12.3-1-17.3 3.8-5.1 11.3-6.9 16.9-4.1-1.2-4.8-0.2-10.5 3.6-13.7 3.7-3.2 10.5-2.7 12.8 1.6-1.1-5.5 0.9-11.8 5.5-15 4.6-3.2 11.8-2.4 15.1 2.1 0.1-6.6 0.4-13.8 4.6-18.9 4.2-5.1 13.9-5.8 16.6 0.2 2.6-6 8.9-10.1 15.4-9.9 6.5 0.1 12.7 4.5 15 10.6 5.8-6.4 15.2-9.2 23.6-7.1 8.3 2.2 15.3 9.1 17.4 17.5 0.4 1.7 1 3.8 2.7 4.1 0.8 0.1 1.6-0.2 2.4-0.5 5.1-1.5 10.6 1.6 13.6 5.9 3 4.3 4 9.6 5 14.8 5.9-5.1 16.9-0.6 17.4 7.2 3.8-2.7 8.8-5.4 12.8-3.2 1.8 1 3 2.8 4.6 3.9 1.7 1 4.5 1.1 5.3-0.7 2.5 3.9 4.1 8.4 4.7 13.1 4.7-3.6 11.5-4.1 16.6-1.2 5.1 2.8 8.3 8.9 7.7 14.7z"/>
		<path id="&lt;Path&gt;" class="s51" d="m2644.4 1496.7c-4.2-4.6-4.6-12.3-0.9-17.3 3.8-5 11.3-6.8 16.9-4.1-1.2-4.8-0.2-10.4 3.5-13.7 3.8-3.2 10.6-2.7 12.9 1.7-1.1-5.6 0.9-11.8 5.5-15 4.6-3.2 11.8-2.5 15.1 2.1 0.1-6.6 0.4-13.8 4.6-18.9 4.2-5.1 13.9-5.9 16.6 0.2 2.5-6 8.9-10.1 15.4-10 6.5 0.2 12.7 4.5 15 10.6 5.8-6.3 15.2-9.1 23.6-7 8.3 2.1 15.2 9.1 17.3 17.4 0.5 1.7 1.1 3.8 2.8 4.1 0.8 0.2 1.6-0.2 2.4-0.4 5-1.5 10.6 1.5 13.6 5.8 3 4.3 4 9.7 5 14.9 5.8-5.2 16.9-0.6 17.4 7.1 3.8-2.6 8.7-5.4 12.8-3.1 1.7 1 2.9 2.7 4.6 3.8 1.7 1.1 4.5 1.1 5.3-0.7 2.5 4 4.1 8.5 4.7 13.1 4.7-3.5 11.4-4 16.6-1.2 5.1 2.9 8.3 8.9 7.7 14.8z"/>
		<g id="&lt;Group&gt;">
			<path id="&lt;Path&gt;" class="s44" d="m2219.3 1469.8c-5.2 10.7-13.9 18-25.2 21.8-9.2 3.2-19.1 3.4-28.6 2.2-8.5-1.1-18.1-1.6-24.7-7.8-6.2-5.7-7.6-14.8-8.1-23.2-0.3-5.1-0.3-10.4 1.9-15.1 2.1-4.6 7-8.4 12.1-7.6-1.6-0.2-4-5.5-4.6-6.9-1.2-2.5-2.1-5.2-2.7-7.9-1.4-5.9-2-12.2-2.1-18.3 0-1.4 0-2.9 0.4-4.3 0.7-2.3 2.6-3.7 4.5-4.9 5.3-3.2 11.8-4.4 17.9-3.2-0.6-10.8-1.1-21.9 2.5-32.1 2-5.4 5.3-10.6 10.5-13.1 4.8-2.3 10.7-1.8 15.7 0.1 9 3.4 16 11.4 18.4 20.7 2.2 8.5 0.2 18.1-5 25.2 3.1-2.9 8.7-2.8 12.1 0 4.1 3.2 5.5 8.7 5.5 13.9-0.2 8.7-4.1 17.2-10.5 23 7.9-0.7 14.5 7 15.5 14.9 1 7.9-2.2 15.6-5.5 22.6z"/>
			<path id="&lt;Path&gt;" class="s49" d="m2174.5 1498.3q0-33.5 0-66.9c0-4.8 7.5-4.8 7.5 0q0 33.4 0 66.9c0 4.8-7.5 4.8-7.5 0z"/>
			<path id="&lt;Path&gt;" class="s49" d="m2177 1472.4c-0.5-1.7 0.7-4.3 2.7-4.6q2.8-0.4 5.5-1.3 0.7-0.3 1.4-0.5 0.3-0.1 0.6-0.3c0.3-0.1 0.4-0.1 0 0q1.3-0.5 2.5-1.2 2.6-1.3 4.9-3.1c-0.3 0.3-0.3 0.2 0 0q0.2-0.2 0.5-0.4 0.5-0.5 1.1-1 1-0.9 2-1.9c1.4-1.5 3.8-1.3 5.3 0 1.5 1.4 1.3 3.9 0 5.3-5.8 6.1-13.6 10.3-21.9 11.6-2 0.4-3.9-0.5-4.6-2.6z"/>
			<path id="&lt;Path&gt;" class="s49" d="m2180.9 1457.8c0.6 1.9-0.6 4.2-2.6 4.6-5.2 1.2-10.3-0.7-14.3-4.1-3.7-3.1-6-7.4-8.2-11.6-1-1.8-0.5-4 1.3-5.1 1.6-1.1 4.2-0.4 5.1 1.3 1 1.9 2 3.7 3.1 5.5q0.4 0.6 0.8 1.1 0.2 0.4 0.4 0.7c0.6 0.8-0.3-0.4 0.1 0.1 0.7 0.7 1.3 1.5 2 2.1q0.3 0.3 0.6 0.5c0.3 0.3 0.4 0.4 0 0.1 0.4 0.3 0.8 0.6 1.2 0.8q0.6 0.4 1.3 0.7c0.1 0.1 0.4 0.2 0.5 0.3-0.7-0.1-0.2-0.1 0.1 0q0.7 0.2 1.4 0.4c0 0 0.7 0.1 0.7 0.1 0 0-0.8-0.1-0.2 0q0.7 0 1.4 0c0.2 0 1-0.1 0.4 0-0.6 0.1 0.3-0.1 0.3-0.1 2.1-0.5 4 0.6 4.6 2.6z"/>
		</g>
		<g id="&lt;Group&gt;">
			<path id="&lt;Path&gt;" class="s44" d="m2744 1466c-5.1 10.7-13.9 18-25.2 21.9-9.2 3.1-19 3.3-28.6 2.1-8.5-1.1-18-1.6-24.7-7.8-6.1-5.7-7.6-14.8-8-23.2-0.3-5.1-0.3-10.4 1.8-15.1 2.2-4.6 7.1-8.3 12.1-7.6-1.6-0.2-3.9-5.5-4.6-6.8-1.2-2.6-2-5.2-2.7-8-1.4-5.9-2-12.1-2-18.2 0-1.5 0-3 0.4-4.4 0.7-2.2 2.6-3.7 4.5-4.9 5.3-3.2 11.8-4.4 17.8-3.2-0.5-10.8-1.1-21.9 2.6-32.1 1.9-5.3 5.2-10.6 10.4-13 4.9-2.4 10.7-1.9 15.8 0 8.9 3.4 16 11.4 18.3 20.7 2.2 8.6 0.3 18.1-5 25.2 3.1-2.9 8.7-2.8 12.2 0 4 3.2 5.5 8.8 5.4 13.9-0.1 8.7-4 17.2-10.5 23 7.9-0.7 14.6 7 15.5 14.9 1 7.9-2.1 15.6-5.5 22.6z"/>
			<path id="&lt;Path&gt;" class="s49" d="m2699.2 1494.5q0-33.4 0-66.9c0-4.8 7.5-4.8 7.5 0q0 33.5 0 66.9c0 4.8-7.5 4.8-7.5 0z"/>
			<path id="&lt;Path&gt;" class="s49" d="m2701.8 1468.7c-0.6-1.8 0.7-4.3 2.6-4.6q2.8-0.5 5.6-1.4 0.7-0.2 1.3-0.5 0.4-0.1 0.7-0.2c0.3-0.2 0.3-0.2 0 0q1.2-0.6 2.5-1.3 2.5-1.3 4.8-3c-0.3 0.2-0.2 0.2 0 0q0.3-0.3 0.5-0.5 0.6-0.4 1.1-0.9 1.1-1 2-2c1.5-1.5 3.9-1.3 5.3 0 1.5 1.4 1.4 3.9 0 5.3-5.7 6.1-13.5 10.3-21.8 11.7-2.1 0.3-3.9-0.5-4.6-2.6z"/>
			<path id="&lt;Path&gt;" class="s49" d="m2705.7 1454c0.6 1.9-0.7 4.2-2.6 4.6-5.3 1.2-10.4-0.7-14.4-4.1-3.6-3-6-7.4-8.2-11.5-1-1.9-0.4-4 1.3-5.2 1.7-1 4.2-0.4 5.2 1.4 0.9 1.8 1.9 3.7 3.1 5.4q0.3 0.6 0.7 1.2 0.3 0.3 0.5 0.6c0.6 0.8-0.3-0.3 0.1 0.1 0.6 0.7 1.2 1.5 2 2.2q0.2 0.2 0.5 0.4c0.3 0.3 0.4 0.4 0 0.1 0.4 0.3 0.8 0.6 1.3 0.8q0.6 0.4 1.2 0.7c0.2 0.1 0.4 0.3 0.6 0.3-0.7-0.1-0.3-0.1 0 0q0.7 0.2 1.4 0.4c0.1 0 0.7 0.1 0.7 0.1 0 0-0.8 0-0.1 0q0.7 0.1 1.4 0c0.1 0 0.9-0.1 0.3 0-0.5 0.1 0.4-0.1 0.4-0.1 2-0.4 3.9 0.6 4.6 2.6z"/>
		</g>
		<g id="&lt;Group&gt;">
			<path id="&lt;Path&gt;" class="s52" d="m556 538.5l-2.9 0.6-4.2-19.1 2.9-0.6z"/>
			<path id="&lt;Path&gt;" class="s53" d="m345.9 582.4l-2.6-1 3.4-8.9 2.6 1z"/>
			<path id="&lt;Path&gt;" class="s54" d="m348.8 573.2l2.2-1.8 6 7.4-2.2 1.8z"/>
			<path id="&lt;Path&gt;" class="s55" d="m383.1 567.1l-64.9 13.1c-6.3 1.3-12.4-2.8-13.7-9.1l87.7-17.6c1.3 6.3-2.8 12.4-9.1 13.6z"/>
			<path id="&lt;Path&gt;" class="s56" d="m188.6 543.4l-46.8 41.7-64.6-99.8 29.5-1.2z"/>
			<path id="&lt;Path&gt;" class="s57" d="m583.7 515.3q-13.7 2.9-27.4 5.8-34.2 7.2-68.3 14.5-44 9.3-88.1 18.6-43.4 9.2-86.8 18.3c-14.6 3.1-28.7 7.5-43.4 10.6-8.9 1.9-18.2 3.4-27.1 5.2-8.9 1.9-17.1 1.9-26.2 1.4-21.2-1-42.3-3.6-63.5-5.6q-22.8-2-45.6-4l-2.5-12 89.2-25.8q24.8-5.3 49.6-10.5 56.6-12 113.3-24 62-13.1 124.1-26.2c27.5-5.9 55-11.6 82.6-17.6 19.3-4.2 45.2 5.5 56.2 22.4 3.2 4.9-10.6 15.1-14.2 17.8-6.6 4.9-14.1 8.4-21.9 11.1z"/>
			<path id="&lt;Path&gt;" class="s58" d="m174.9 562.1l-43.8 13-30.1-9.3 10-4.8z"/>
			<g id="&lt;Group&gt;">
				<g id="&lt;Group&gt;">
					<path id="&lt;Path&gt;" class="s59" d="m432.3 547l4 20q-1.6 0.7-3.3 1.3c-3.6 1.4-7.6 2.5-11.9 3.3-5.2 1.1-10.4 1.2-15 0.8-3.3-8.9-3.8-15.3-3.6-18.9 4.1-2.1 8.8-3.9 14.1-4.9 4.3-0.9 8.4-1.4 12.2-1.5q1.8-0.1 3.5-0.1z"/>
					<path id="&lt;Path&gt;" class="s60" d="m406.7 572.3c-10.3-0.8-18-4.3-18.4-6.2-0.3-1.9 5.4-8.1 14.8-12.8-0.2 3.7 0.3 10.1 3.6 19z"/>
				</g>
				<path id="&lt;Path&gt;" class="s61" d="m433.3 568.3l-4.2-21.3h3.5l3.9 20z"/>
			</g>
			<path id="&lt;Path&gt;" class="s62" d="m429 540.9l-69.2 17.8-58 2.9-25.9-6.3 128-16.9 21.5-0.4z"/>
			<g id="&lt;Group&gt;">
				<path id="&lt;Path&gt;" class="s63" d="m363.6 581.8c0 3.4-2.6 6.1-5.9 6.2-3.4 0-6.1-2.6-6.1-6-0.1-3.3 2.6-6 5.9-6.1 3.3 0 6 2.6 6.1 5.9z"/>
				<circle id="&lt;Path&gt;" class="s64" cx="357.6" cy="581.9" r="4.3"/>
			</g>
			<g id="&lt;Group&gt;">
				<path id="&lt;Path&gt;" class="s65" d="m561.2 538.6c0.1 3.4-2.6 6.1-5.9 6.1-3.3 0.1-6.1-2.6-6.1-5.9-0.1-3.3 2.6-6 5.9-6.1 3.3 0 6.1 2.6 6.1 5.9z"/>
				<circle id="&lt;Path&gt;" class="s66" cx="555.2" cy="538.7" r="4.3"/>
			</g>
			<g id="&lt;Group&gt;">
				<path id="&lt;Path&gt;" class="s67" d="m349.8 585.3c0 3.4-2.6 6.1-5.9 6.1-3.4 0.1-6.1-2.6-6.1-5.9-0.1-3.3 2.6-6 5.9-6.1 3.3 0 6 2.6 6.1 5.9z"/>
				<circle id="&lt;Path&gt;" class="s68" cx="343.8" cy="585.4" r="4.3"/>
			</g>
			<g id="&lt;Group&gt;">
				<path id="&lt;Path&gt;" class="s1" d="m581.2 475.4l2.2 7.1q-5.5 1.1-8.3 1l-0.1-7.2q3.5-0.4 6.2-0.9z"/>
				<path id="&lt;Path&gt;" class="s1" d="m602.1 476.7q-3.3 1.3-6.2 2.3l-3.7-6.4q1.8-0.7 2.6-1.1l7.4 3.5c0.7 0.4 0.6 1.4-0.1 1.7z"/>
				<path id="&lt;Path&gt;" class="s1" d="m590.8 473l3.8 6.4c-3.6 1.2-6.6 2-9.1 2.5l-2.2-7c3.4-0.6 5.9-1.3 7.5-1.9z"/>
			</g>
			<g id="&lt;Group&gt;">
				<path id="&lt;Path&gt;" class="s1" d="m507.1 498.3c-1.3 0.3-2.7-0.6-3-2l-0.5-2.1c-0.3-1.4 0.6-2.7 2-3 1.3-0.3 2.7 0.5 3 1.9l0.5 2.2c0.3 1.3-0.6 2.7-2 3z"/>
				<path id="&lt;Path&gt;" class="s1" d="m493.9 501.2c-1.3 0.3-2.7-0.6-3-1.9l-0.5-2.2c-0.3-1.4 0.6-2.7 2-3 1.3-0.3 2.7 0.5 3 1.9l0.5 2.2c0.3 1.3-0.6 2.7-2 3z"/>
				<path id="&lt;Path&gt;" class="s1" d="m480.7 504.1c-1.3 0.3-2.7-0.6-3-1.9l-0.5-2.2c-0.3-1.4 0.6-2.7 2-3 1.3-0.3 2.7 0.5 3 1.9l0.5 2.2c0.3 1.3-0.6 2.7-2 3z"/>
				<path id="&lt;Path&gt;" class="s1" d="m467.6 507c-1.4 0.3-2.8-0.6-3.1-1.9l-0.4-2.2c-0.3-1.4 0.5-2.7 1.9-3 1.4-0.3 2.7 0.5 3 1.9l0.5 2.2c0.3 1.4-0.6 2.7-1.9 3z"/>
				<path id="&lt;Path&gt;" class="s1" d="m454.4 509.9c-1.4 0.3-2.8-0.5-3.1-1.9l-0.4-2.2c-0.3-1.4 0.5-2.7 1.9-3 1.4-0.3 2.7 0.6 3 1.9l0.5 2.2c0.3 1.4-0.6 2.7-1.9 3z"/>
				<path id="&lt;Path&gt;" class="s1" d="m441.2 512.8c-1.4 0.3-2.7-0.5-3-1.9l-0.5-2.2c-0.3-1.3 0.5-2.7 1.9-3 1.4-0.3 2.7 0.6 3 1.9l0.5 2.2c0.3 1.4-0.5 2.7-1.9 3z"/>
				<path id="&lt;Path&gt;" class="s1" d="m428 515.7c-1.4 0.3-2.7-0.5-3-1.9l-0.5-2.2c-0.3-1.3 0.6-2.7 1.9-3 1.4-0.3 2.7 0.6 3 1.9l0.5 2.2c0.3 1.4-0.5 2.7-1.9 3z"/>
				<path id="&lt;Path&gt;" class="s1" d="m414.8 518.6c-1.4 0.3-2.7-0.5-3-1.9l-0.5-2.2c-0.3-1.3 0.6-2.7 1.9-3 1.4-0.3 2.8 0.6 3.1 2l0.4 2.1c0.3 1.4-0.5 2.7-1.9 3z"/>
				<path id="&lt;Path&gt;" class="s1" d="m401.6 521.6c-1.4 0.3-2.7-0.6-3-2l-0.5-2.1c-0.3-1.4 0.6-2.8 1.9-3.1 1.4-0.3 2.8 0.6 3.1 2l0.4 2.1c0.4 1.4-0.5 2.8-1.9 3.1z"/>
				<path id="&lt;Path&gt;" class="s1" d="m388.4 524.5c-1.3 0.3-2.7-0.6-3-2l-0.5-2.1c-0.3-1.4 0.6-2.8 2-3.1 1.3-0.3 2.7 0.6 3 2l0.5 2.1c0.3 1.4-0.6 2.8-2 3.1z"/>
				<path id="&lt;Path&gt;" class="s1" d="m375.2 527.4c-1.3 0.3-2.7-0.6-3-2l-0.5-2.1c-0.3-1.4 0.6-2.7 2-3 1.3-0.4 2.7 0.5 3 1.9l0.5 2.2c0.3 1.3-0.6 2.7-2 3z"/>
				<path id="&lt;Path&gt;" class="s1" d="m362.1 530.3c-1.4 0.3-2.8-0.6-3.1-1.9l-0.5-2.2c-0.3-1.4 0.6-2.7 2-3 1.4-0.3 2.7 0.5 3 1.9l0.5 2.2c0.3 1.3-0.6 2.7-1.9 3z"/>
				<path id="&lt;Path&gt;" class="s1" d="m348.9 533.2c-1.4 0.3-2.8-0.6-3.1-1.9l-0.4-2.2c-0.3-1.4 0.5-2.7 1.9-3 1.4-0.3 2.7 0.5 3 1.9l0.5 2.2c0.3 1.3-0.6 2.7-1.9 3z"/>
				<path id="&lt;Path&gt;" class="s1" d="m335.7 536.1c-1.4 0.3-2.7-0.6-3-1.9l-0.5-2.2c-0.3-1.4 0.5-2.7 1.9-3 1.4-0.3 2.7 0.5 3 1.9l0.5 2.2c0.3 1.3-0.6 2.7-1.9 3z"/>
				<path id="&lt;Path&gt;" class="s1" d="m322.5 539c-1.4 0.3-2.7-0.5-3-1.9l-0.5-2.2c-0.3-1.4 0.5-2.7 1.9-3 1.4-0.3 2.7 0.6 3 1.9l0.5 2.2c0.3 1.4-0.5 2.7-1.9 3z"/>
				<path id="&lt;Path&gt;" class="s1" d="m309.3 541.9c-1.4 0.3-2.7-0.5-3-1.9l-0.5-2.2c-0.3-1.3 0.6-2.7 1.9-3 1.4-0.3 2.8 0.6 3.1 1.9l0.4 2.2c0.3 1.4-0.5 2.7-1.9 3z"/>
				<path id="&lt;Path&gt;" class="s1" d="m296.1 544.8c-1.4 0.3-2.7-0.5-3-1.9l-0.5-2.2c-0.3-1.3 0.6-2.7 1.9-3 1.4-0.3 2.8 0.6 3.1 1.9l0.4 2.2c0.3 1.4-0.5 2.7-1.9 3z"/>
				<path id="&lt;Path&gt;" class="s1" d="m282.9 547.7c-1.3 0.3-2.7-0.5-3-1.9l-0.5-2.2c-0.3-1.3 0.6-2.7 2-3 1.3-0.3 2.7 0.6 3 1.9l0.5 2.2c0.3 1.4-0.6 2.7-2 3z"/>
				<path id="&lt;Path&gt;" class="s1" d="m269.7 550.7c-1.3 0.3-2.7-0.6-3-2l-0.5-2.1c-0.3-1.4 0.6-2.8 2-3.1 1.3-0.3 2.7 0.6 3 2l0.5 2.1c0.3 1.4-0.6 2.8-2 3.1z"/>
			</g>
		</g>
		<g id="&lt;Group&gt;">
			<path id="&lt;Path&gt;" class="s4" d="m764.7 961.6l-4.4-30.7 1.5-0.3 4.3 30.8z"/>
			<path id="&lt;Path&gt;" class="s4" d="m741.2 961.6l-1.5-0.2 4.4-30.8 1.5 0.3z"/>
			<path id="&lt;Path&gt;" class="s4" d="m751.6 930.7h1.5v30.8h-1.5z"/>
			<path id="&lt;Path&gt;" class="s69" d="m731.9 957.4h40.2v24.8h-40.2z"/>
			<g id="&lt;Group&gt;">
				<path id="&lt;Path&gt;" class="s70" d="m750.1 957.4h4.5v24.8h-4.5z"/>
			</g>
			<g id="&lt;Group&gt;">
				<path id="&lt;Path&gt;" class="s70" d="m731.9 967.6h40.2v4.5h-40.2z"/>
			</g>
			<path id="&lt;Path&gt;" class="s71" d="m774.3 916.1c-1.2 1.6-7.2 12.2-8.9 12.2q0 0-25.9 0c-7.2-11.2-15.5-20.6-24-30.7-2.5-2.9-4.6-6.1-6.3-9.6-1.5-3.1-1.9-7.3-3.6-10.3q-1-4.8-1-9.9c0-25.9 21.3-46.9 47.6-46.9 26.3 0 47.6 21 47.6 46.9 0 20.6-14.8 32.5-25.5 48.3z"/>
			<g id="&lt;Clip Group&gt;" clip-path="url(#cp3)">
				<path id="&lt;Path&gt;" class="s49" d="m744.1 817.8c-7.8 4.7-13.2 12-16.8 20.3-3.2 7.2-5.2 15.3-5.8 23.2-0.7 8.5 0.8 17 3.5 25.1 5.6 16.2 15.7 30.4 22.9 45.9 1.1 2.2-2.2 4-3.2 1.9-4.3-9.2-9.5-17.9-14.2-26.8-4.2-7.7-8-15.8-10.4-24.3-2.5-8.7-3.1-17.7-1.8-26.6 2.4-16.3 9.4-33.2 23.9-42 2.1-1.2 4 2 1.9 3.3z"/>
				<path id="&lt;Path&gt;" class="s49" d="m753.6 809c-4.4 8-7.8 16.5-10.2 25.2-2.2 7.9-3.7 15.9-4.2 24.1-0.4 8.1 0.4 15.9 2.5 23.8 4.3 15.6 12 31 9.5 47.7-0.1 1-1.4 1.5-2.3 1.3-1.1-0.3-1.5-1.3-1.3-2.3 1.3-9.2-0.9-18.3-3.5-27-2.5-8-5.5-15.9-7.3-24.1-1.6-7.9-1.8-15.9-1-23.9 1.7-16.2 6.6-32.4 14.6-46.7 1.2-2.1 4.4-0.2 3.2 1.9z"/>
				<path id="&lt;Path&gt;" class="s49" d="m750.7 820c4.7 7.7 9.7 15.5 12.9 24.1 5.1 14 4 29.7 2.6 44.4-0.8 8-2 16.1-3.7 24-1.4 6.5-3.2 13.3-6.5 19.2-1.2 2.1-4.4 0.2-3.2-1.9 3.6-6.5 5.3-14.2 6.8-21.5 1.4-7.6 2.4-15.3 3.1-23 0.6-6.9 1-14 0.8-20.9-0.3-7.4-1.6-14.7-4.4-21.5-3.1-7.4-7.5-14.2-11.6-21-1.3-2.1 1.9-4 3.2-1.9z"/>
				<path id="&lt;Path&gt;" class="s49" d="m753 812.2c8.8 5.1 16.8 11.6 23.2 19.5 4.1 5.3 7.7 11.1 9.8 17.4 2.9 8.7 3.2 18.3 1.6 27.2-1.7 10-5.3 19.7-10.2 28.5-5 9.1-11 17.4-16.6 26.1-1.3 2-4.5 0.1-3.2-1.9 6-9.4 12.6-18.4 17.8-28.2 4.5-8.5 7.7-18.1 9-27.7 1-8.1 0.4-16.9-2.6-24.6-5.4-14.3-17.7-25.6-30.7-33-2.1-1.2-0.2-4.4 1.9-3.3z"/>
			</g>
			<path id="&lt;Path&gt;" class="s72" d="m739.3 928.3h26.1v4.9h-26.1z"/>
		</g>
		<g id="&lt;Group&gt;">
			<path id="&lt;Path&gt;" class="s73" d="m2528 547.1l23.5-13.1 22.1 5.3-2.7 7.8-20.1-4.9-22.8 14.1z"/>
			<path id="&lt;Path&gt;" class="s74" d="m2497.9 551.6l-14.4-22.6-20.2-4.5 1-8.1 22.1 4.8 15.5 22.1z"/>
			<g id="&lt;Group&gt;">
				<path id="&lt;Path&gt;" class="s75" d="m2479.3 519.7l-6.7-0.7 1.6-6.3 6.5 1.7z"/>
				<path id="&lt;Path&gt;" class="s1" d="m2503.8 518.2c-0.2 1.1-12.7-0.8-27.7-4.3-15.1-3.5-27.1-7.2-26.8-8.4 0.3-1.1 12.7 0.8 27.8 4.3 15 3.5 27 7.2 26.7 8.4z"/>
			</g>
			<g id="&lt;Group&gt;">
				<path id="&lt;Path&gt;" class="s76" d="m2567.9 538.4l-6.5-1.4 1.8-6.7 6.5 1.7z"/>
				<path id="&lt;Path&gt;" class="s1" d="m2592.8 535.8c-0.2 1.2-12.7-0.7-27.7-4.2-15.1-3.5-27.1-7.3-26.8-8.4 0.2-1.2 12.7 0.7 27.7 4.2 15.1 3.5 27.1 7.3 26.8 8.4z"/>
			</g>
			<path id="&lt;Path&gt;" class="s77" d="m2522.5 546.8l-18.9-3.6 0.2-1c1-5.3 6.1-8.7 11.3-7.7 5.2 1.1 8.6 6.1 7.6 11.3z"/>
			<path id="&lt;Path&gt;" class="s4" d="m2536.6 570.6l-7.7-17.2 1.7-0.7 7.7 17.1z"/>
			<path id="&lt;Path&gt;" class="s4" d="m2511.7 566.4l-1.8-0.4 2.4-12.1 1.8 0.4z"/>
			<path id="&lt;Path&gt;" class="s4" d="m2485.4 563.8l-1.6-1 7.7-12.4 1.5 0.9z"/>
			<path id="&lt;Path&gt;" class="s78" d="m2535.8 635.3l-75.9-14.8 12.7-65.1 75.9 14.7z"/>
			<g id="&lt;Group&gt;">
				<path id="&lt;Path&gt;" class="s70" d="m2541.8 605.4l-75.9-14.7 1-5.4 75.9 14.7z"/>
			</g>
			<g id="&lt;Group&gt;">
				<path id="&lt;Path&gt;" class="s70" d="m2499.9 628.4l-5.4-1.2 14.2-64.9 5.4 1.2z"/>
			</g>
			<path id="&lt;Path&gt;" class="s79" d="m2533.4 558.9l-42.6-8.3 2-10.4 42.6 8.3z"/>
		</g>
		<g id="&lt;Clip Group&gt;" clip-path="url(#cp4)">
			<g id="&lt;Group&gt;">
				<g id="&lt;Group&gt;">
					<path id="&lt;Path&gt;" class="s18" d="m340.5 1310.4l-5.7-8.7c3.5-2.4 6.5-5.4 8.7-9l5.4 10.9c-2.9 1.3-5.8 3.4-8.4 6.8z"/>
					<path id="&lt;Path&gt;" class="s18" d="m360.2 1294.5q0.7 5.1 1 7.2l-3-0.4z"/>
					<path id="&lt;Path&gt;" class="s19" d="m359.6 1300.5q-0.4 1.4-2.3 5.8c-1.2 1.1-2.3 1.3-4 1.1-3.9-0.4-7.6-2.6-10.2-5.7-2.5-3-4-7-4.2-11-0.4-5 1.6-10.8 6.2-12.9 4.7-2.1 13.3-0.3 16 4.4 2.8 4.8-0.2 13.3-1.5 18.3z"/>
					<path id="&lt;Path&gt;" class="s4" d="m339.2 1424.4v1.9l3.3 6.2 5.2 2.9c2.3 1.2 3.4 3.9 2.6 6.2l-25.4-8.8 1.4-4 4.1-8z"/>
					<g id="&lt;Group&gt;">
						<path id="&lt;Path&gt;" class="s80" d="m287.1 1361c3.1-9 12.2-21.1 22.8-38.7q18.1-30 27.3-20.2l3.3 8.3c4.4 9.3-16.8 57-18 59.3-1.4 0-6.5-0.8-8.4-0.7-8.6 0.4-21.2-5.1-27-8z"/>
						<path id="&lt;Path&gt;" class="s81" d="m338.4 1425.9l-8.5-3.9 11.2-34q-37.3-1-50.7-10.3c-5.5-3.8-5.3-10.9-3.2-16.9 5.8 2.8 18.4 8.3 27 8.1q2.7-0.1 4.9-0.1 0 0 4.8-2.1 35.8 11 34.3 19.9-1.5 8.9-19.8 39.3z"/>
					</g>
				</g>
				<path id="&lt;Path&gt;" class="s4" d="m339.2 1298.1q-1.2-3-2-5.4c-0.8-2.4-1.8-8.1-1.7-9.6q0.1-1.4 15.2-0.8l11.3 4.4-11.4-0.1-2.8 6.8q-1.5-3.4-3.6-2.1c-2.2 1.3-1.2 3.7-0.5 4.7q0.7 1-4.5 2.1z"/>
				<path id="&lt;Path&gt;" class="s82" d="m360.9 1286.7q0 0.3-10.3-1.1l-15.1-0.4q-1.8-15.5 11.2-16.1c22.2-1.2 19.4 16.1 19.6 17.4q0.3 1.4-5.4 0.2z"/>
				<path id="&lt;Path&gt;" class="s83" d="m340.4 1279.8q10.2-7 22.9 5.1-11.9-8.4-22.9-5.1z"/>
				<path id="&lt;Path&gt;" class="s84" d="m363 1282.6q-3.8-12.5-17.7-9.1 11.9-0.6 17.7 9.1z"/>
				<path id="&lt;Path&gt;" class="s85" d="m290.8 1349.7l-0.3-1.4c12.2-2.2 27.4-5.6 35.8-13.3 4.5-4.1 9.2-11.5 9-17.3-0.2-2.7-1.3-4.9-3.5-6.6-2.3-1.8-6.3-1.8-9.8-1.9-2 0-3.9-0.1-5.4-0.4l0.3-1.4c1.4 0.3 3.2 0.3 5.1 0.3 3.8 0.1 8 0.1 10.7 2.2 2.6 2 3.9 4.6 4.1 7.8 0.2 7-5.5 14.9-9.5 18.4-8.7 7.9-24.1 11.5-36.5 13.6z"/>
				<g id="&lt;Group&gt;">
					<path id="&lt;Path&gt;" class="s86" d="m290.8 1354l-39.9-25 28.6-45.8 39.9 24.9z"/>
					<path id="&lt;Path&gt;" class="s87" d="m316.3 1313.1l-39.9-24.9 0.8-1.3 39.9 25z"/>
				</g>
				<g id="&lt;Group&gt;">
					<path id="&lt;Path&gt;" class="s88" d="m327.1 1457.6q-0.4 0-0.7-0.2c-1-0.3-1.5-1.4-1.1-2.4l6.8-17.7c0.4-1 1.5-1.5 2.5-1.1 1 0.4 1.4 1.5 1.1 2.4l-6.9 17.8c-0.3 0.7-1 1.2-1.7 1.2z"/>
					<path id="&lt;Path&gt;" class="s88" d="m345 1443.7q-0.3 0-0.6-0.1l-16.5-5.7c-1-0.4-1.5-1.4-1.2-2.4 0.4-1 1.4-1.5 2.4-1.2l16.5 5.7c1 0.3 1.5 1.4 1.2 2.4-0.3 0.8-1 1.3-1.8 1.3z"/>
				</g>
				<path id="&lt;Path&gt;" class="s89" d="m325.3 1476.6c-1 0-1.8-0.7-1.9-1.7l-0.8-13.7c-0.1-1.1 0.7-2 1.8-2 1-0.1 1.9 0.7 2 1.7l0.8 13.8c0 1-0.8 1.9-1.8 1.9q-0.1 0-0.1 0z"/>
				<path id="&lt;Path&gt;" class="s44" d="m325.8 1461.8l-58.6 2.2c-4.1 0.1-7.5-3.1-7.5-7.2v-4.1c0-4.1 3.4-7.3 7.5-7.2l58.6 2c3.9 0.1 7 3.3 7 7.1 0 3.9-3.1 7-7 7.2z"/>
				<g id="&lt;Group&gt;">
					<g id="&lt;Group&gt;">
						<g id="&lt;Group&gt;">
							<path id="&lt;Compound Path&gt;" fill-rule="evenodd" class="s90" d="m415.5 1496c-22.8 0-41.3-18.4-41.3-41.3 0-22.8 18.5-41.3 41.3-41.3 22.9 0 41.3 18.5 41.3 41.3 0 22.9-18.4 41.3-41.3 41.3zm40.7-41.3c0-22.5-18.2-40.6-40.7-40.6-22.5 0-40.6 18.1-40.6 40.6 0 22.5 18.1 40.7 40.6 40.7 22.5 0 40.7-18.2 40.7-40.7z"/>
							<path id="&lt;Compound Path&gt;" fill-rule="evenodd" class="s90" d="m415.5 1492.3c-20.7 0-37.5-16.8-37.5-37.6 0-20.7 16.8-37.5 37.5-37.5 20.8 0 37.6 16.8 37.6 37.5 0 20.8-16.8 37.6-37.6 37.6zm37.2-37.6c0-20.5-16.6-37.2-37.2-37.2-20.6 0-37.2 16.7-37.2 37.2 0 20.6 16.6 37.3 37.2 37.3 20.6 0 37.2-16.7 37.2-37.3z"/>
							<path id="&lt;Compound Path&gt;" fill-rule="evenodd" class="s90" d="m415.5 1492c-20.6 0-37.2-16.7-37.2-37.3 0-20.5 16.6-37.2 37.2-37.2 20.6 0 37.2 16.7 37.2 37.2 0 20.6-16.6 37.3-37.2 37.3zm36.9-37.3c0-20.4-16.5-36.9-36.9-36.9-20.4 0-36.9 16.5-36.9 36.9 0 20.4 16.5 36.9 36.9 36.9 20.4 0 36.9-16.5 36.9-36.9z"/>
						</g>
					</g>
					<g id="&lt;Group&gt;">
						<g id="&lt;Group&gt;">
							<g id="&lt;Group&gt;">
								<path id="&lt;Path&gt;" class="s7" d="m415.1 1417.5h0.9v74.5h-0.9z"/>
								<path id="&lt;Path&gt;" class="s7" d="m378.3 1454.3h74.4v0.9h-74.4z"/>
							</g>
							<g id="&lt;Group&gt;">
								<path id="&lt;Path&gt;" class="s7" d="m389.5 1481.4l-0.6-0.7 52.6-52.6 0.7 0.7z"/>
								<path id="&lt;Path&gt;" class="s7" d="m441.5 1481.4l-52.6-52.6 0.6-0.7 52.7 52.6z"/>
							</g>
						</g>
						<g id="&lt;Group&gt;">
							<g id="&lt;Group&gt;">
								<path id="&lt;Path&gt;" class="s7" d="m401.2 1489.1l-0.9-0.4 29.6-68.3 0.8 0.4z"/>
								<path id="&lt;Path&gt;" class="s7" d="m449.5 1469.9l-68.3-29.5 0.4-0.9 68.3 29.6z"/>
							</g>
							<g id="&lt;Group&gt;">
								<path id="&lt;Path&gt;" class="s7" d="m381.1 1468.9l-0.3-0.9 69.1-27.4 0.4 0.9z"/>
								<path id="&lt;Path&gt;" class="s7" d="m428.8 1489.5l-27.4-69.2 0.8-0.3 27.5 69.2z"/>
							</g>
						</g>
					</g>
					<circle id="&lt;Path&gt;" class="s91" cx="415.5" cy="1454.7" r="4.7"/>
				</g>
				<g id="&lt;Group&gt;">
					<g id="&lt;Group&gt;">
						<g id="&lt;Group&gt;">
							<path id="&lt;Compound Path&gt;" fill-rule="evenodd" class="s90" d="m273.4 1496c-22.8 0-41.3-18.4-41.3-41.3 0-22.8 18.5-41.3 41.3-41.3 22.8 0 41.3 18.5 41.3 41.3 0 22.9-18.5 41.3-41.3 41.3zm40.7-41.3c0-22.5-18.2-40.6-40.7-40.6-22.5 0-40.7 18.1-40.7 40.6 0 22.5 18.2 40.7 40.7 40.7 22.5 0 40.7-18.2 40.7-40.7z"/>
							<path id="&lt;Compound Path&gt;" fill-rule="evenodd" class="s90" d="m273.4 1492.3c-20.7 0-37.5-16.8-37.5-37.6 0-20.7 16.8-37.5 37.5-37.5 20.8 0 37.5 16.8 37.5 37.5 0 20.8-16.7 37.6-37.5 37.6zm37.2-37.6c0-20.5-16.6-37.2-37.2-37.2-20.6 0-37.2 16.7-37.2 37.2 0 20.6 16.6 37.3 37.2 37.3 20.6 0 37.2-16.7 37.2-37.3z"/>
							<path id="&lt;Compound Path&gt;" fill-rule="evenodd" class="s90" d="m273.4 1492c-20.6 0-37.2-16.7-37.2-37.3 0-20.5 16.6-37.2 37.2-37.2 20.6 0 37.2 16.7 37.2 37.2 0 20.6-16.6 37.3-37.2 37.3zm36.9-37.3c0-20.4-16.5-36.9-36.9-36.9-20.4 0-36.9 16.5-36.9 36.9 0 20.4 16.5 36.9 36.9 36.9 20.4 0 36.9-16.5 36.9-36.9z"/>
						</g>
					</g>
					<g id="&lt;Group&gt;">
						<g id="&lt;Group&gt;">
							<g id="&lt;Group&gt;">
								<path id="&lt;Path&gt;" class="s7" d="m272.9 1417.5h1v74.5h-1z"/>
								<path id="&lt;Path&gt;" class="s7" d="m236.2 1454.3h74.4v0.9h-74.4z"/>
							</g>
							<g id="&lt;Group&gt;">
								<path id="&lt;Path&gt;" class="s7" d="m247.4 1481.4l-0.6-0.7 52.6-52.6 0.7 0.7z"/>
								<path id="&lt;Path&gt;" class="s7" d="m299.4 1481.4l-52.6-52.6 0.6-0.7 52.7 52.6z"/>
							</g>
						</g>
						<g id="&lt;Group&gt;">
							<g id="&lt;Group&gt;">
								<path id="&lt;Path&gt;" class="s7" d="m259.1 1489.1l-0.9-0.4 29.5-68.3 0.9 0.4z"/>
								<path id="&lt;Path&gt;" class="s7" d="m307.4 1469.9l-68.3-29.5 0.3-0.9 68.4 29.6z"/>
							</g>
							<g id="&lt;Group&gt;">
								<path id="&lt;Path&gt;" class="s7" d="m239 1468.9l-0.4-0.9 69.2-27.4 0.4 0.9z"/>
								<path id="&lt;Path&gt;" class="s7" d="m286.7 1489.5l-27.5-69.2 0.9-0.3 27.5 69.2z"/>
							</g>
						</g>
					</g>
					<circle id="&lt;Path&gt;" class="s91" cx="273.4" cy="1454.7" r="4.7"/>
				</g>
				<path id="&lt;Path&gt;" class="s88" d="m415.5 1456.6q-0.2 0-0.4 0c-18.4-4.2-29.7-26.4-30.2-27.3q0-0.1-0.1-0.2l-8.2-21q-0.2-0.3-0.2-0.6l-1.2-18.2c-0.1-1 0.7-1.9 1.8-2 1-0.1 1.9 0.7 2 1.8l1.2 17.9 8.1 20.6c0.7 1.4 11.4 21.6 27.6 25.3 1.1 0.2 1.7 1.2 1.5 2.3-0.2 0.8-1 1.4-1.9 1.4z"/>
				<path id="&lt;Path&gt;" class="s88" d="m380.9 1389.9h-9.1c-1 0-1.8-0.8-1.8-1.9 0-1 0.8-1.9 1.8-1.9h9.1c1.1 0 1.9 0.9 1.9 1.9 0 1.1-0.8 1.9-1.9 1.9z"/>
				<path id="&lt;Path&gt;" class="s88" d="m376.4 1388.5c-1.1 0-1.9-0.9-1.9-1.9v-4.9c0-1 0.8-1.8 1.9-1.9 5.3-0.1 10.7-1.5 11-2.9 0.4-2.4-0.3-6.2-0.9-8.6-4.4 1.1-16 3.9-25.7 4.4-1 0.1-1.9-0.8-2-1.8 0-1 0.8-1.9 1.8-2 11.6-0.6 26.6-4.7 26.7-4.8 1-0.2 2 0.3 2.3 1.3 0.1 0.3 2.4 7.6 1.5 12.2-0.9 4.6-8.6 5.7-12.8 5.9v3.1c0 1-0.9 1.9-1.9 1.9z"/>
				<path id="&lt;Path&gt;" class="s88" d="m370.3 1464.3h-5.5c-1.1 0-1.9-0.8-1.9-1.9 0-1 0.8-1.9 1.9-1.9h3.1c-2.4-10.3 0-19 2.2-24.9 10.2-25.8 34.2-29.6 35.2-29.8 1-0.1 2 0.6 2.1 1.6 0.2 1-0.5 2-1.6 2.2-0.2 0-22.8 3.7-32.2 27.4-2.3 6.2-4.5 14.7-1.5 24.9 0.2 0.6 0.1 1.2-0.3 1.7-0.3 0.4-0.9 0.7-1.5 0.7z"/>
				<path id="&lt;Path&gt;" class="s88" d="m333 1430.3h-16.4c-1.1 0-1.9-0.8-1.9-1.9 0-1 0.8-1.9 1.9-1.9h15.7l42.9-35.6c0.8-0.7 2-0.6 2.6 0.2 0.7 0.8 0.6 2-0.2 2.7l-43.4 36.1c-0.3 0.3-0.8 0.4-1.2 0.4z"/>
				<path id="&lt;Path&gt;" class="s88" d="m337.1 1450.6h-14.6c-1 0-1.9-0.9-1.9-1.9 0-1.1 0.9-1.9 1.9-1.9h13.7l40.6-43.4c0.7-0.8 1.9-0.8 2.6-0.1 0.8 0.7 0.8 1.9 0.1 2.7l-41.1 44c-0.3 0.3-0.8 0.6-1.3 0.6z"/>
				<path id="&lt;Path&gt;" class="s88" d="m324.3 1456.6c-0.8 0-1.6-0.5-1.8-1.3l-20.7-70.5c-0.3-1 0.3-2.1 1.3-2.4 1-0.3 2 0.3 2.3 1.3l20.7 70.5c0.3 1-0.3 2.1-1.3 2.4q-0.2 0-0.5 0z"/>
				<circle id="&lt;Path&gt;" class="s3" cx="324.3" cy="1454.7" r="4.7"/>
				<path id="&lt;Path&gt;" class="s88" d="m311.3 1412.3h-72.5c-1 0-1.9-0.9-1.9-1.9 0-1.1 0.9-1.9 1.9-1.9h72.5c1 0 1.9 0.8 1.9 1.9 0 1-0.9 1.9-1.9 1.9z"/>
				<path id="&lt;Path&gt;" class="s88" d="m273.4 1456.6q-0.1 0-0.2 0c-0.7-0.1-1.3-0.5-1.5-1.1l-18.3-44.4c-0.4-1 0.1-2.1 1-2.5 1-0.4 2.1 0.1 2.5 1.1l17 41.3 31.3-41.8c0.6-0.8 1.8-1 2.6-0.3 0.9 0.6 1 1.8 0.4 2.6l-33.3 44.4c-0.3 0.5-0.9 0.7-1.5 0.7z"/>
				<path id="&lt;Path&gt;" class="s88" d="m227.8 1467.3h-5.8c-1.1 0-1.9-0.8-1.9-1.8 0-1.1 0.8-1.9 1.9-1.9h3.7c-3.8-41.4 28.9-53.8 29.2-53.9 1-0.4 2.1 0.1 2.5 1.1 0.3 1-0.2 2.1-1.2 2.4-1.3 0.5-31.3 12-26.5 52 0.1 0.6-0.1 1.1-0.5 1.5-0.3 0.4-0.8 0.6-1.4 0.6z"/>
				<path id="&lt;Path&gt;" class="s88" d="m334.8 1478.9q-0.1 0-0.2 0l-17.1-2.3c-1.1-0.1-1.8-1.1-1.7-2.1 0.2-1 1.1-1.8 2.2-1.6l17.1 2.2c1 0.2 1.7 1.1 1.6 2.2-0.1 0.9-0.9 1.6-1.9 1.6z"/>
				<path id="&lt;Path&gt;" class="s4" d="m287.1 1375.9l24.1 1.9c2.7 0.2 5 1.9 5.9 4.4l0.8 2.1c0 0.1-0.1 0.3-0.2 0.3h-24.3c-1.8 0-3.5-1.1-4.2-2.8l-2.3-5.6c-0.1-0.1 0.1-0.3 0.2-0.3z"/>
				<path id="&lt;Path&gt;" class="s4" d="m327.7 1462l0.3 1.8 4.2 5.6 5.5 1.9c2.4 0.9 3.9 3.3 3.5 5.7l-26.1-4.6 0.8-4.1 2.7-8.3z"/>
				<path id="&lt;Path&gt;" class="s92" d="m316.6 1373.4q12.6 21.9 17.8 38l-6.5 52.6-10-1.9 4.1-48.3q-31.1-34.5-32.3-39z"/>
				<path id="&lt;Path&gt;" class="s93" d="m359.8 1361.2c-0.5 2.3-1.4 5-1.9 7.3-12.3-2.7-24.5-6-34.5-13.7-1.4-1-2.7-2.1-3.6-3.6-0.8-1.4-1.2-3.1-1.5-4.7-1.9-10 2.7-21.3 4.9-28.9 5.3-3.1 8.5-1.5 10.3 3.4-1.2 8.7-4.7 16.8-4.2 26.1 10.4 3.9 20.6 9.1 30.5 14.1z"/>
				<path id="&lt;Path&gt;" class="s19" d="m376.3 1370.5c-0.1 0.3-0.4 0.6-0.6 0.9-1.5 1.4-3.2 2.9-5.3 3.3-2 0.4-4.5-0.6-5.1-2.6l0.2-1.1c-0.6 0.1-0.9-0.3-1.1-0.6-2.9 0.1-5.8-1-7.8-3l2.3-5.7c2.6 0.8 6.3 1.6 8.9 1.1 0.7-0.1 1.4-0.2 2.1 0 0.6 0.1 1.1 0.6 1.6 1q2.5 2.4 4.3 5.2c0.3 0.4 0.6 1 0.5 1.5z"/>
				<path id="&lt;Path&gt;" class="s94" d="m335.5 1284.5l15.4 0.4 15.4 1.6q0.5 0.7-2.1 0.7-2.6-0.1-13.3-1.4l-15.4-0.6z"/>
				<path id="&lt;Path&gt;" class="s95" d="m347.5 1299.4l-2.1-1c-3.1-1.4-5.1-4.4-5.3-7.8l-0.4-5.7 1.5-0.1 0.4 5.7c0.1 2.9 1.8 5.4 4.4 6.6l2.1 1z"/>
				<path id="&lt;Path&gt;" class="s96" d="m348.5 1305.6h-1.5l0.1-11.3 2.7-8.9 1.5 0.4-2.8 8.8z"/>
			</g>
		</g>
		<path id="&lt;Path&gt;" class="s97" d="m114.8 1505.6v-4.5l2838-4.7v4.5z"/>
		<g id="&lt;Group&gt;">
			<path id="&lt;Path&gt;" class="s98" d="m953.9 1261c0 13.7-14.2 24.8-31.8 24.8-7.7 0-14.7-2.2-20.3-5.7l-15.9 5.7 11-9.8c-4.1-4.2-6.6-9.3-6.6-15 0-13.6 14.3-24.7 31.8-24.7 17.6 0 31.8 11.1 31.8 24.7z"/>
			<circle id="&lt;Path&gt;" class="s99" cx="905.3" cy="1260.5" r="3.8"/>
			<circle id="&lt;Path&gt;" class="s99" cx="922.1" cy="1260.5" r="3.8"/>
			<circle id="&lt;Path&gt;" class="s99" cx="939" cy="1260.5" r="3.8"/>
		</g>
		<g id="&lt;Group&gt;">
			<circle id="&lt;Path&gt;" class="s100" cx="263.9" cy="1075.9" r="20.8"/>
			<path id="&lt;Path&gt;" class="s1" d="m258.8 1086.4q-0.2 0-0.4 0c-1-0.1-1.7-0.7-2.2-1.5l-5.5-10.2c-0.7-1.4-0.2-3.2 1.2-3.9 1.4-0.8 3.2-0.3 3.9 1.1l3.7 6.8 12.8-13.1c1.2-1.2 3-1.2 4.2 0 1.1 1.1 1.1 2.9 0 4.1l-15.7 15.9c-0.5 0.5-1.3 0.8-2 0.8z"/>
		</g>
	</g>
</svg>