<svg version="1.2" xmlns="http://www.w3.org/2000/svg" viewBox="0 0 1000 1000" width="1000" height="1000">
	<title>2957187-ai</title>
	<style>
		.s0 { fill: #263238 } 
		.s1 { fill: #455a64 } 
		.s2 { fill: #e8505b } 
		.s3 { fill: #000000 } 
		.s4 { opacity: .5;fill: #ffffff } 
		.s5 { fill: #ffffff } 
		.s6 { fill: #ffbe9d } 
		.s7 { fill: #eb996e } 
		.s8 { fill: #f5f5f5 } 
	</style>
	<g id="Floor">
		<g id="&lt;Group&gt;">
			<g id="&lt;Group&gt;">
				<ellipse id="&lt;Path&gt;" class="s0" cx="500" cy="1000.2" rx="399.8" ry=".5"/>
			</g>
		</g>
	</g>
	<g id="Bench">
		<g id="&lt;Group&gt;">
			<path id="&lt;Path&gt;" class="s0" d="m238.6 1000.2h-17.1v-213.5h17.1z"/>
			<path id="&lt;Path&gt;" class="s0" d="m772.7 1000.2h-17v-213.5h17z"/>
			<rect id="&lt;Path&gt;" class="s1" x="203.4" y="761.9" width="595.9" height="27" rx="11.9"></rect>
		</g>
	</g>
	<g id="Shield">
		<g id="&lt;Group&gt;">
			<g id="&lt;Group&gt;">
				<g id="&lt;Group&gt;">
					<g id="&lt;Group&gt;">
						<g id="&lt;Group&gt;">
							<path id="&lt;Path&gt;" class="s2" d="m648.7 328.7v35.7c0 27.5-7.2 54.8-22.1 79-12.5 20.2-32.9 44-60.3 52.9-29.8-13.3-49.2-34.2-61.7-54.5-14.9-24.1-22.1-51.4-22.1-79v-39.7c0-8 7.5-10.4 16.1-14.4l67-24 67.7 24.3c9.4 2.7 15.4 8.3 15.4 19.7z"/>
						</g>
					</g>
					<g id="&lt;Group&gt;" style="opacity: .3">
						<path id="&lt;Compound Path&gt;" class="s3" d="m566.3 496.3c-29.8-13.3-49.2-34.2-61.7-54.5-14.9-24.1-22.1-51.4-22.1-79v-39.7c0-8 9-11.4 16.1-14.4l67-24v18.7l-54.2 20.3c-7.6 3.5-11.4 9.4-11.4 15.7v27.9c0 21.8 5.7 43.4 17.5 62.5 9.9 16 25.2 32.9 48.8 43.4z"/>
					</g>
					<g id="&lt;Group&gt;" style="opacity: .4">
						<path id="&lt;Compound Path&gt;" class="s3" d="m566.3 473.2c23.6-10.5 38.2-27 48.1-43.1 11.8-19.1 17.5-40.7 17.5-62.5v-27.8c0-6.3-3.8-12.2-11.4-15.8l-54.9-20.6v-18.7l67.7 24.3c7 3.1 15.4 4.3 15.5 20.6l-0.1 32.8c0.7 28.3-6.6 55.6-21.4 79.7-5.3 8.6-11.4 17.8-19.6 26.3-7.3 7.6-16.9 16.1-28.1 22.2-4.2 2.3-8.6 4.1-13.3 5.7z"/>
					</g>
				</g>
				<path id="&lt;Compound Path&gt;" fill-rule="evenodd" class="s4" d="m592.5 375.3v31.6c0 5.4-4.4 9.8-9.8 9.8h-32.8c-5.5 0-9.9-4.4-9.9-9.8v-31.6c0-4.9 3.7-9 8.4-9.7l0.1-5.5c0-9.6 7.9-17.5 17.6-17.5 9.7 0 17.5 7.9 17.5 17.5v5.4c5 0.5 8.9 4.7 8.9 9.8zm-23.3 17.4c1.4-0.9 2.3-2.5 2.3-4.3 0-2.9-2.3-5.2-5.2-5.2-2.9 0-5.3 2.3-5.3 5.2 0 1.9 1 3.5 2.5 4.4l-1.3 6.2h8.6q-1-3.9-1.6-6.3zm10.7-32.6c0-7.6-6.2-13.7-13.8-13.7-7.6 0-13.8 6.1-13.8 13.7l-0.1 5.4h27.6z"/>
				<g id="&lt;Group&gt;">
					<path id="&lt;Path&gt;" class="s5" d="m511 365.1c-0.2 0-0.7-2.1-1-5.5-0.5-3.4-0.8-8.2-0.6-13.5 0.1-2.6 0.3-5.1 0.5-7.4 0.2-2.2 0.6-4.4 1.5-6 0.9-1.6 2.1-2.5 3-2.9 0.9-0.5 1.5-0.5 1.5-0.4 0.1 0.2-2.3 0.6-3.7 3.7-0.8 1.5-1.1 3.5-1.2 5.7-0.2 2.3-0.3 4.8-0.4 7.4-0.2 5.2 0 9.9 0.2 13.3 0.2 3.5 0.3 5.6 0.2 5.6z"/>
				</g>
				<g id="&lt;Group&gt;">
					<ellipse id="&lt;Path&gt;" class="s5" cx="511.9" cy="378.7" rx=".6" ry="3.7"/>
				</g>
			</g>
			<g id="&lt;Group&gt;">
				<g id="&lt;Group&gt;">
					<g id="&lt;Group&gt;">
						<g id="&lt;Group&gt;">
							<path id="&lt;Path&gt;" class="s2" d="m656.3 288.9q1.9 0.4 5.3 1.8c1.8 0.6 3.9 1.7 6.1 3.2 2.2 1.6 4.6 3.8 6.3 7 1.8 3.1 2.8 7.1 2.9 11.5 0.1 4.3 0.1 9 0.1 14.1 0 10.2 0.1 21.9 0 34.8-0.1 13-1.7 27.3-5.4 42.3-3.8 15-9.8 30.7-18.7 46-8.8 15.2-20.1 30.3-34.1 43.7-14.1 13.4-31.3 25.3-51.5 31.5l-0.2 0.1-0.2-0.1c-6.9-3-13.8-6.3-20.6-10.2-6.8-3.9-13.4-8.3-19.8-13.1-12.7-9.7-24.3-21.5-34.4-34.8-10.9-14.4-19.5-30.3-25.6-46.7-6-16.4-9.6-33.3-10.7-49.9-0.7-8.3-0.5-16.5-0.5-24.6q0-12 0-23.7 0-5.9 0-11.6c0-1.9-0.1-3.8 0.2-5.8 0.3-1.9 1.1-3.8 2.3-5.3 2.4-3.1 5.9-4.9 9.2-6.6 3.3-1.6 6.7-2.9 9.9-4.4h0.1c33.8-11.4 63.9-21.6 89.2-30.1h0.1 0.1c28.2 9.7 50.7 17.4 66.1 22.7 7.7 2.6 13.7 4.7 17.7 6.1q3 1 4.5 1.5 1.1 0.4 1.6 0.6-0.6-0.1-1.6-0.5-1.6-0.5-4.6-1.5c-4-1.3-10-3.3-17.7-5.9-15.4-5.2-38-12.8-66.2-22.3h0.2c-25.2 8.5-55.3 18.8-89.1 30.2-3.3 1.5-6.7 2.9-9.9 4.4-3.3 1.7-6.6 3.5-8.9 6.4-1.1 1.4-1.8 3.1-2.1 4.9-0.2 1.8-0.1 3.7-0.2 5.6q0 5.7 0 11.6 0.1 11.7 0.1 23.7c0 8.1-0.2 16.3 0.5 24.5 1.1 16.5 4.7 33.3 10.7 49.7 6 16.3 14.6 32 25.5 46.4 9.9 13.2 21.5 24.9 34.2 34.6 6.3 4.8 12.9 9.1 19.6 13 6.7 3.9 13.6 7.2 20.5 10.2h-0.3c20-6.2 37.1-18 51.1-31.3 14-13.3 25.3-28.3 34.1-43.5 8.8-15.2 14.8-30.7 18.6-45.6 3.7-15 5.4-29.2 5.6-42.2 0-12.9 0.1-24.6 0.1-34.8 0-5.1 0.1-9.8 0-14.1-0.1-4.3-1.1-8.2-2.8-11.3-1.6-3.2-4-5.4-6.2-7-2.2-1.5-4.2-2.6-5.9-3.3-1.7-0.7-3.1-1.1-4-1.4q-0.9-0.3-1.3-0.5z"/>
						</g>
					</g>
				</g>
			</g>
		</g>
	</g>
	<g id="Character">
		<g id="&lt;Group&gt;">
			<g id="&lt;Group&gt;">
				<g id="&lt;Group&gt;">
					<g id="&lt;Group&gt;">
						<g id="&lt;Group&gt;">
							<path id="&lt;Path&gt;" class="s1" d="m405.7 599.6q-0.4-54 38.7-75.2 19.7-10.8 37.8-8.4l38.5 0.6q49 2.4 55.3 37.4l-9.6 74.7 9.3 73-125.1-2.8-5-94.1"/>
						</g>
						<g id="&lt;Group&gt;">
							<g id="&lt;Group&gt;">
								<path id="&lt;Path&gt;" class="s0" d="m520.8 517.8c-0.4 1.4-1 3.5-2.4 5.8-1.3 2.3-3.6 4.7-6.6 6.5-3 1.9-6.9 3.1-11 3.1-4.1 0-7.9-1.1-11-3-3-1.8-5.3-4.2-6.6-6.5-1.3-2.3-1.9-4.4-2.1-5.9-0.3-1.4-0.3-2.3-0.2-2.3 0.1 0 0.2 0.8 0.6 2.2 0.4 1.4 1.1 3.4 2.4 5.6 2.6 4.3 9.1 8.8 16.9 8.7 7.9 0.1 14.2-4.6 16.9-8.9 2.7-4.3 3.1-7.7 3.4-7.6 0.1 0 0 0.9-0.3 2.3z"/>
							</g>
						</g>
					</g>
					<g id="&lt;Group&gt;">
						<g id="&lt;Group&gt;">
							<g id="&lt;Group&gt;">
								<path id="&lt;Path&gt;" class="s6" d="m553.2 544.8c12.5-0.1 23.1 8.9 25 21.2 4.7 31.2 2.6 111.8-9.8 120q-37.9 25.1-131.6-5.3-22.9-6-33-18-3.1-3.7-6.8-15.5l6.2 1.7c1.5 1.1 25.6 7.9 23.3-0.8-2.4-8.6-14.3-11.4-11.2-15.8q3-4.4 19.9 10.2c5.3 1.6 8 2.5 9.2 2.8 7.7 0.6 80 4.9 82.8-0.2 0.9-1.6 2.3-34.8 3.3-58.7 0.6-15.4 7.9-29.8 20-39.4z"/>
							</g>
							<g id="&lt;Group&gt;">
								<g id="&lt;Group&gt;">
									<path id="&lt;Path&gt;" class="s7" d="m405.4 658.1c-3.2-1.6-5.6-3.3-5.4-3.4 0.1-0.2 2.6 1.2 5.7 2.8 3.2 1.6 5.8 2.8 5.7 3 0 0.2-2.8-0.7-6-2.4z"/>
								</g>
							</g>
						</g>
						<g id="&lt;Group&gt;">
							<g id="&lt;Group&gt;">
								<path id="&lt;Path&gt;" class="s1" d="m565.9 535.7c11.6 11.1 22.7 33.2 18.6 77.6l-61.5-2.6 1.6-60.6c0.1-6.2 3.1-11.9 7.9-15.7 10-7.7 24.3-7.4 33.4 1.3z"/>
							</g>
						</g>
					</g>
				</g>
				<g id="&lt;Group&gt;">
					<g id="&lt;Group&gt;">
						<g id="&lt;Group&gt;">
							<g id="&lt;Group&gt;">
								<g id="&lt;Group&gt;">
									<g id="&lt;Group&gt;">
										<path id="&lt;Path&gt;" class="s2" d="m443.4 988l-1.6-23.3 43.5-3.3 2.8 34-2.7 0.3c-11.9 1.6-60.9 7.3-69.1 5.5q-9.2-2 27.1-13.2z"/>
									</g>
								</g>
							</g>
							<g id="&lt;Group&gt;" style="opacity: .3">
								<g id="&lt;Group&gt;">
									<g id="&lt;Group&gt;">
										<path id="&lt;Path&gt;" class="s5" d="m472.3 996.2c0.3-3.6 2.1-7.2 4.8-9.7 2.8-2.5 6.3-3.9 10-3.9l0.9 12.1z"/>
									</g>
								</g>
							</g>
						</g>
						<g id="&lt;Group&gt;" style="opacity: .3">
							<g id="&lt;Group&gt;">
								<g id="&lt;Group&gt;">
									<path id="&lt;Path&gt;" class="s5" d="m430 999.4l58-5 0.1 1c-21.8 3.6-71.5 7.5-73.3 5.5q-1.7-2 10.9-6.8 2.6-0.1 4.3 5.3z"/>
								</g>
							</g>
						</g>
						<g id="&lt;Group&gt;">
							<g id="&lt;Group&gt;">
								<g id="&lt;Group&gt;">
									<g id="&lt;Group&gt;">
										<path id="&lt;Path&gt;" class="s0" d="m488.7 994.3q0 0-0.8 0.2-0.9 0.1-2.1 0.3-3.2 0.3-7.9 0.9c-6.7 0.8-15.9 1.7-26.1 2.5-10.2 0.8-19.5 1.3-26.2 1.6q-4.7 0.2-7.9 0.3-1.2 0.1-2.2 0.1-0.7 0-0.7-0.1 0 0 0.7 0 1-0.1 2.2-0.2 3.2-0.2 7.9-0.4c6.7-0.4 15.9-1 26.2-1.8 10.2-0.8 19.4-1.7 26.1-2.4q4.6-0.4 7.9-0.8 1.1-0.1 2.1-0.2 0.8 0 0.8 0z"/>
									</g>
								</g>
							</g>
						</g>
						<g id="&lt;Group&gt;">
							<g id="&lt;Group&gt;">
								<g id="&lt;Group&gt;">
									<g id="&lt;Group&gt;">
										<path id="&lt;Path&gt;" class="s0" d="m430.1 1000.1c-0.2 0-0.4-1.8-1.8-3.7-1.3-1.8-3-2.6-2.9-2.8 0-0.1 1.9 0.6 3.3 2.5 1.5 2 1.5 4 1.4 4z"/>
									</g>
								</g>
							</g>
						</g>
						<g id="&lt;Group&gt;">
							<g id="&lt;Group&gt;">
								<g id="&lt;Group&gt;">
									<g id="&lt;Group&gt;">
										<path id="&lt;Path&gt;" class="s0" d="m442.4 992.6c-0.1 0.1-0.8-0.6-1.5-1.6-0.7-0.9-1.2-1.8-1.1-1.9 0.2-0.1 0.8 0.6 1.5 1.6 0.8 0.9 1.2 1.8 1.1 1.9z"/>
									</g>
								</g>
							</g>
						</g>
						<g id="&lt;Group&gt;">
							<g id="&lt;Group&gt;">
								<g id="&lt;Group&gt;">
									<g id="&lt;Group&gt;">
										<path id="&lt;Path&gt;" class="s0" d="m445.8 990.4c-0.1 0.2-0.8-0.3-1.6-0.9-0.8-0.6-1.4-1.2-1.3-1.3 0.1-0.1 0.8 0.3 1.6 0.9 0.8 0.6 1.4 1.2 1.3 1.3z"/>
									</g>
								</g>
							</g>
						</g>
						<g id="&lt;Group&gt;">
							<g id="&lt;Group&gt;">
								<g id="&lt;Group&gt;">
									<g id="&lt;Group&gt;">
										<path id="&lt;Path&gt;" class="s0" d="m447.7 986.2c0 0.1-1 0.3-2.2 0.4-1.3 0.1-2.3 0.1-2.3 0 0-0.2 1-0.4 2.2-0.5 1.3-0.1 2.3-0.1 2.3 0.1z"/>
									</g>
								</g>
							</g>
						</g>
						<g id="&lt;Group&gt;">
							<g id="&lt;Group&gt;">
								<g id="&lt;Group&gt;">
									<g id="&lt;Group&gt;">
										<path id="&lt;Path&gt;" class="s0" d="m448.3 983.2c0 0.1-1.1 0.7-2.5 0.9-1.5 0.3-2.7 0-2.7-0.1 0-0.2 1.2-0.2 2.6-0.4 1.4-0.2 2.5-0.5 2.6-0.4z"/>
									</g>
								</g>
							</g>
						</g>
						<g id="&lt;Group&gt;">
							<g id="&lt;Group&gt;">
								<g id="&lt;Group&gt;">
									<g id="&lt;Group&gt;">
										<path id="&lt;Path&gt;" class="s0" d="m440.7 988.9c0 0.1-1.1 0.3-2.8 0.2-0.9 0-2-0.2-3.1-0.4-0.5-0.2-1.1-0.3-1.7-0.6-0.3-0.2-0.7-0.4-0.8-0.8-0.1-0.4 0-0.9 0.3-1.2 2.6-1.6 5.4-0.3 6.5 1 0.6 0.7 0.9 1.4 1.1 1.8 0.1 0.5 0.1 0.8 0.1 0.8-0.1 0-0.3-1.1-1.5-2.3-0.6-0.6-1.4-1.1-2.5-1.4-1-0.2-2.4-0.2-3.3 0.5-0.4 0.4-0.2 0.9 0.3 1.1 0.5 0.3 1.1 0.4 1.6 0.6 1.1 0.3 2.1 0.4 3 0.5 1.7 0.2 2.7 0.1 2.8 0.2z"/>
									</g>
								</g>
							</g>
						</g>
						<g id="&lt;Group&gt;">
							<g id="&lt;Group&gt;">
								<g id="&lt;Group&gt;">
									<g id="&lt;Group&gt;">
										<path id="&lt;Path&gt;" class="s0" d="m439.9 989.1c0 0-0.5-0.7-0.4-1.9 0-0.7 0.2-1.4 0.6-2.1 0.4-0.7 1-1.6 2.2-1.6 0.6 0 1 0.7 0.9 1.2 0 0.5-0.2 0.9-0.3 1.3-0.4 0.7-0.8 1.3-1.2 1.8-0.8 0.9-1.5 1.3-1.5 1.2-0.1 0 0.5-0.5 1.2-1.5 0.3-0.4 0.7-1 1-1.7 0.4-0.7 0.5-1.7-0.2-1.8-0.7 0-1.3 0.7-1.7 1.3-0.4 0.7-0.6 1.3-0.7 1.9-0.1 1.2 0.2 1.9 0.1 1.9z"/>
									</g>
								</g>
							</g>
						</g>
						<g id="&lt;Group&gt;">
							<g id="&lt;Group&gt;">
								<g id="&lt;Group&gt;">
									<g id="&lt;Group&gt;">
										<path id="&lt;Path&gt;" class="s0" d="m486.8 982.5c0 0.1-1.2-0.1-3.2 0.3-1.9 0.4-4.5 1.4-6.8 3.5-2.2 2-3.4 4.6-3.9 6.5-0.5 1.9-0.4 3.2-0.5 3.2-0.1 0-0.1-0.3-0.1-0.9 0-0.6 0.1-1.4 0.3-2.4 0.4-2 1.6-4.7 3.9-6.8 2.3-2.2 5.1-3.2 7.1-3.4 1-0.2 1.8-0.2 2.4-0.2 0.5 0.1 0.8 0.1 0.8 0.2z"/>
									</g>
								</g>
							</g>
						</g>
						<g id="&lt;Group&gt;">
							<g id="&lt;Group&gt;">
								<g id="&lt;Group&gt;">
									<g id="&lt;Group&gt;">
										<path id="&lt;Path&gt;" class="s0" d="m480.9 964.7c0.2 0 0.6 4 1.1 8.9 0.4 5 0.7 9 0.5 9-0.1 0-0.6-4-1-8.9-0.5-5-0.7-9-0.6-9z"/>
									</g>
								</g>
							</g>
						</g>
						<g id="&lt;Group&gt;">
							<g id="&lt;Group&gt;">
								<g id="&lt;Group&gt;">
									<g id="&lt;Group&gt;">
										<path id="&lt;Path&gt;" class="s0" d="m466.5 992.4c0 0.2-2.8 0.9-6.3 1.2-3.5 0.3-6.4 0.1-6.4-0.1 0-0.1 2.8-0.2 6.3-0.5 3.5-0.3 6.4-0.7 6.4-0.6z"/>
									</g>
								</g>
							</g>
						</g>
						<g id="&lt;Group&gt;">
							<g id="&lt;Group&gt;">
								<g id="&lt;Group&gt;">
									<g id="&lt;Group&gt;">
										<path id="&lt;Path&gt;" class="s0" d="m475 991.7c0.1 0.1-0.2 0.7-0.4 1.3-0.2 0.7-0.3 1.3-0.5 1.3-0.1 0-0.3-0.7 0-1.4 0.3-0.8 0.8-1.3 0.9-1.2z"/>
									</g>
								</g>
							</g>
						</g>
						<g id="&lt;Group&gt;">
							<g id="&lt;Group&gt;">
								<g id="&lt;Group&gt;">
									<g id="&lt;Group&gt;">
										<path id="&lt;Path&gt;" class="s0" d="m477.9 987.5c0.1 0.1-0.1 0.6-0.5 1.1-0.4 0.4-0.9 0.8-1 0.7-0.1-0.1 0.2-0.6 0.6-1.1 0.4-0.5 0.8-0.8 0.9-0.7z"/>
									</g>
								</g>
							</g>
						</g>
						<g id="&lt;Group&gt;">
							<g id="&lt;Group&gt;">
								<g id="&lt;Group&gt;">
									<g id="&lt;Group&gt;">
										<path id="&lt;Path&gt;" class="s0" d="m482.4 985.3c0 0.2-0.6 0.2-1.2 0.5-0.7 0.2-1.1 0.6-1.2 0.5-0.1 0 0.2-0.7 1-1 0.7-0.4 1.4-0.1 1.4 0z"/>
									</g>
								</g>
							</g>
						</g>
						<g id="&lt;Group&gt;">
							<g id="&lt;Group&gt;">
								<g id="&lt;Group&gt;">
									<g id="&lt;Group&gt;">
										<path id="&lt;Path&gt;" class="s0" d="m485.6 984.2c0.1 0.1-0.2 0.4-0.5 0.5-0.4 0.2-0.7 0.2-0.8 0.1 0-0.1 0.2-0.4 0.6-0.5 0.3-0.2 0.6-0.2 0.7-0.1z"/>
									</g>
								</g>
							</g>
						</g>
					</g>
				</g>
				<g id="&lt;Group&gt;">
					<g id="&lt;Group&gt;">
						<g id="&lt;Group&gt;">
							<g id="&lt;Group&gt;">
								<g id="&lt;Group&gt;">
									<g id="&lt;Group&gt;">
										<path id="&lt;Path&gt;" class="s2" d="m309.6 989.1l0.6-23.3 43.7 0.8-0.5 34.1-2.8 0.2c-12 0.4-61.3 1.3-69.3-1.2q-9-2.9 28.3-10.6z"/>
									</g>
								</g>
							</g>
							<g id="&lt;Group&gt;" style="opacity: .3">
								<g id="&lt;Group&gt;">
									<g id="&lt;Group&gt;">
										<path id="&lt;Path&gt;" class="s5" d="m337.5 1000.1c0.7-3.6 2.8-7 5.8-9.2 2.9-2.2 6.6-3.4 10.2-3l-0.2 12.2z"/>
									</g>
								</g>
							</g>
						</g>
						<g id="&lt;Group&gt;" style="opacity: .3">
							<g id="&lt;Group&gt;">
								<g id="&lt;Group&gt;">
									<path id="&lt;Path&gt;" class="s5" d="m295.1 999.2l58.2 0.6 0.1 0.9c-22.1 1.6-71.9 0.6-73.5-1.5q-1.6-2.2 11.5-5.7 2.5 0.1 3.7 5.7z"/>
								</g>
							</g>
						</g>
						<g id="&lt;Group&gt;">
							<g id="&lt;Group&gt;">
								<g id="&lt;Group&gt;">
									<g id="&lt;Group&gt;">
										<path id="&lt;Path&gt;" class="s0" d="m354 999.7q0 0.1-0.8 0.1-0.9 0-2.1 0.1-3.3 0.1-8 0.2c-6.7 0.1-15.9 0.2-26.2 0-10.2-0.2-19.5-0.6-26.2-0.9q-4.7-0.3-7.9-0.5-1.2-0.1-2.2-0.2-0.7 0-0.7-0.1 0 0 0.7 0 1 0.1 2.2 0.1 3.2 0.1 7.9 0.3c6.7 0.3 16 0.6 26.2 0.7 10.3 0.2 19.5 0.2 26.2 0.2q4.7 0 8 0 1.2 0 2.1 0 0.8 0 0.8 0z"/>
									</g>
								</g>
							</g>
						</g>
						<g id="&lt;Group&gt;">
							<g id="&lt;Group&gt;">
								<g id="&lt;Group&gt;">
									<g id="&lt;Group&gt;">
										<path id="&lt;Path&gt;" class="s0" d="m295.1 999.9c-0.1 0-0.2-1.9-1.4-3.8-1.1-2-2.7-3-2.6-3.1 0-0.2 1.9 0.7 3.1 2.8 1.2 2.1 1.1 4.1 0.9 4.1z"/>
									</g>
								</g>
							</g>
						</g>
						<g id="&lt;Group&gt;">
							<g id="&lt;Group&gt;">
								<g id="&lt;Group&gt;">
									<g id="&lt;Group&gt;">
										<path id="&lt;Path&gt;" class="s0" d="m308.1 993.6c-0.1 0-0.7-0.7-1.3-1.7-0.6-1.1-1-1.9-0.9-2 0.1-0.1 0.7 0.7 1.3 1.7 0.7 1 1.1 1.9 0.9 2z"/>
									</g>
								</g>
							</g>
						</g>
						<g id="&lt;Group&gt;">
							<g id="&lt;Group&gt;">
								<g id="&lt;Group&gt;">
									<g id="&lt;Group&gt;">
										<path id="&lt;Path&gt;" class="s0" d="m311.7 991.8c-0.1 0.1-0.8-0.4-1.5-1.1-0.8-0.7-1.3-1.3-1.2-1.4 0.1-0.1 0.8 0.3 1.5 1 0.8 0.7 1.3 1.4 1.2 1.5z"/>
									</g>
								</g>
							</g>
						</g>
						<g id="&lt;Group&gt;">
							<g id="&lt;Group&gt;">
								<g id="&lt;Group&gt;">
									<g id="&lt;Group&gt;">
										<path id="&lt;Path&gt;" class="s0" d="m314 987.7c0 0.1-1 0.2-2.3 0.2-1.2 0-2.2-0.1-2.2-0.3 0-0.1 1-0.2 2.2-0.2 1.3 0 2.3 0.1 2.3 0.3z"/>
									</g>
								</g>
							</g>
						</g>
						<g id="&lt;Group&gt;">
							<g id="&lt;Group&gt;">
								<g id="&lt;Group&gt;">
									<g id="&lt;Group&gt;">
										<path id="&lt;Path&gt;" class="s0" d="m314.8 984.8c0.1 0.1-1 0.6-2.5 0.7-1.5 0.1-2.7-0.3-2.6-0.4 0-0.2 1.1-0.1 2.6-0.2 1.4 0 2.5-0.3 2.5-0.1z"/>
									</g>
								</g>
							</g>
						</g>
						<g id="&lt;Group&gt;">
							<g id="&lt;Group&gt;">
								<g id="&lt;Group&gt;">
									<g id="&lt;Group&gt;">
										<path id="&lt;Path&gt;" class="s0" d="m306.7 989.7c0 0.1-1.1 0.2-2.8 0-0.8-0.2-1.9-0.4-3-0.8-0.5-0.2-1.1-0.3-1.7-0.7-0.2-0.2-0.5-0.4-0.6-0.9-0.1-0.4 0.1-0.9 0.4-1.1 2.7-1.3 5.4 0.2 6.4 1.6 0.5 0.7 0.7 1.4 0.8 1.9 0.1 0.5 0.1 0.8 0.1 0.8-0.1 0-0.2-1.1-1.2-2.4-0.6-0.7-1.4-1.3-2.4-1.6-1-0.3-2.4-0.5-3.4 0.1-0.4 0.4-0.2 0.9 0.2 1.2 0.5 0.3 1.1 0.5 1.6 0.7 1.1 0.4 2 0.6 2.9 0.8 1.7 0.3 2.7 0.3 2.7 0.4z"/>
									</g>
								</g>
							</g>
						</g>
						<g id="&lt;Group&gt;">
							<g id="&lt;Group&gt;">
								<g id="&lt;Group&gt;">
									<g id="&lt;Group&gt;">
										<path id="&lt;Path&gt;" class="s0" d="m306 989.9c0 0-0.4-0.7-0.3-2 0.1-0.6 0.3-1.4 0.8-2 0.5-0.7 1.2-1.5 2.4-1.4 0.6 0.1 0.9 0.8 0.8 1.3 0 0.5-0.3 0.9-0.5 1.2-0.4 0.7-0.9 1.3-1.3 1.7-0.9 0.8-1.6 1.2-1.7 1.1 0-0.1 0.6-0.5 1.4-1.4 0.4-0.4 0.8-0.9 1.2-1.6 0.4-0.6 0.7-1.7 0-1.8-0.7-0.1-1.5 0.6-1.9 1.2-0.4 0.6-0.7 1.2-0.8 1.8-0.3 1.1 0 1.8-0.1 1.9z"/>
									</g>
								</g>
							</g>
						</g>
						<g id="&lt;Group&gt;">
							<g id="&lt;Group&gt;">
								<g id="&lt;Group&gt;">
									<g id="&lt;Group&gt;">
										<path id="&lt;Path&gt;" class="s0" d="m353.3 987.8c0 0.1-1.2-0.2-3.2 0-2 0.2-4.7 1-7.1 2.8-2.4 1.8-3.8 4.3-4.5 6.1-0.7 1.9-0.8 3.2-0.9 3.1 0 0 0-0.3 0-0.8 0.1-0.6 0.2-1.4 0.5-2.4 0.6-1.9 2.1-4.5 4.6-6.4 2.5-1.9 5.3-2.7 7.4-2.7 1-0.1 1.8 0 2.4 0.1 0.5 0 0.8 0.1 0.8 0.2z"/>
									</g>
								</g>
							</g>
						</g>
						<g id="&lt;Group&gt;">
							<g id="&lt;Group&gt;">
								<g id="&lt;Group&gt;">
									<g id="&lt;Group&gt;">
										<ellipse id="&lt;Path&gt;" class="s0" cx="349.1" cy="978.5" rx=".3" ry="9"/>
									</g>
								</g>
							</g>
						</g>
						<g id="&lt;Group&gt;">
							<g id="&lt;Group&gt;">
								<g id="&lt;Group&gt;">
									<g id="&lt;Group&gt;">
										<ellipse id="&lt;Path&gt;" class="s0" cx="325.7" cy="995.9" rx="6.4" ry=".3"/>
									</g>
								</g>
							</g>
						</g>
						<g id="&lt;Group&gt;">
							<g id="&lt;Group&gt;">
								<g id="&lt;Group&gt;">
									<g id="&lt;Group&gt;">
										<path id="&lt;Path&gt;" class="s0" d="m340.7 995.9c0.1 0.1-0.3 0.6-0.6 1.2-0.3 0.7-0.4 1.2-0.6 1.2-0.1 0-0.2-0.7 0.1-1.4 0.4-0.8 1-1.1 1.1-1z"/>
									</g>
								</g>
							</g>
						</g>
						<g id="&lt;Group&gt;">
							<g id="&lt;Group&gt;">
								<g id="&lt;Group&gt;">
									<g id="&lt;Group&gt;">
										<path id="&lt;Path&gt;" class="s0" d="m344 991.9c0.1 0.1-0.2 0.6-0.7 1-0.4 0.5-0.9 0.8-1 0.6-0.1-0.1 0.2-0.5 0.7-1 0.4-0.4 0.9-0.7 1-0.6z"/>
									</g>
								</g>
							</g>
						</g>
						<g id="&lt;Group&gt;">
							<g id="&lt;Group&gt;">
								<g id="&lt;Group&gt;">
									<g id="&lt;Group&gt;">
										<path id="&lt;Path&gt;" class="s0" d="m348.6 990.2c0 0.1-0.6 0.1-1.2 0.3-0.7 0.2-1.2 0.6-1.3 0.5-0.1-0.1 0.3-0.7 1.1-1 0.8-0.2 1.5 0 1.4 0.2z"/>
									</g>
								</g>
							</g>
						</g>
						<g id="&lt;Group&gt;">
							<g id="&lt;Group&gt;">
								<g id="&lt;Group&gt;">
									<g id="&lt;Group&gt;">
										<path id="&lt;Path&gt;" class="s0" d="m351.9 989.4c0.1 0.1-0.2 0.3-0.5 0.5-0.4 0.1-0.8 0.1-0.8-0.1-0.1-0.1 0.2-0.3 0.6-0.4 0.3-0.2 0.7-0.2 0.7 0z"/>
									</g>
								</g>
							</g>
						</g>
					</g>
				</g>
				<g id="&lt;Group&gt;">
					<g id="&lt;Group&gt;">
						<g id="&lt;Group&gt;">
							<path id="&lt;Path&gt;" class="s0" d="m348 696.1l149.8-1.8-31.3 70.4-95.8 0.4-9.2 215.7h-58.6l5.6-240.6c0.5-22.4 17.3-41.1 39.5-44.1z"/>
						</g>
						<g id="&lt;Group&gt;">
							<g id="&lt;Group&gt;">
								<ellipse id="&lt;Path&gt;" class="s1" cx="333.1" cy="964.2" rx="30.3" ry=".6"/>
							</g>
						</g>
					</g>
					<g id="&lt;Group&gt;">
						<g id="&lt;Group&gt;">
							<path id="&lt;Path&gt;" class="s0" d="m490.4 770.4l4.2 207.2-67.7 3.3q-10.8-203-5.4-260.6 3.7-39.4 154.1-22.4 2.2 78.5-85.2 72.5z"/>
						</g>
						<g id="&lt;Group&gt;">
							<g id="&lt;Group&gt;">
								<path id="&lt;Path&gt;" class="s1" d="m492 961.6q-2.9 0.2-7.1 0.6c-5.9 0.4-14.2 0.9-23.3 1.3-9.2 0.5-17.4 0.8-23.4 1q-4.2 0.1-7.1 0.2c-1.7 0-2.6 0-2.6-0.1 0-0.1 0.9-0.2 2.6-0.4q2.8-0.2 7-0.5c6-0.4 14.3-0.9 23.4-1.4 9.1-0.4 17.4-0.8 23.4-1q4.2-0.1 7.1-0.1c1.7-0.1 2.6 0 2.6 0.1 0 0-0.9 0.2-2.6 0.3z"/>
							</g>
						</g>
						<g id="&lt;Group&gt;">
							<g id="&lt;Group&gt;">
								<path id="&lt;Path&gt;" class="s1" d="m491.2 763.1c-0.3 5.5-0.8 10-1.1 10-0.3 0-0.4-4.5 0-10.1 0.3-5.5 0.8-10 1.1-10 0.3 0 0.4 4.6 0 10.1z"/>
							</g>
						</g>
					</g>
					<g id="&lt;Group&gt;">
						<g id="&lt;Group&gt;">
							<path id="&lt;Path&gt;" class="s1" d="m492.6 694.8q-1.5 0.2-3.7 0.3c-3.3 0.3-7.9 0.6-13.4 1-5.7 0.4-12.4 1-19.8 2.2-7.3 1.2-15.5 3.4-22.6 8.2-3.5 2.3-6.5 5.4-7.8 9.2-1.3 3.8-1.9 7.7-2.4 11.4-0.8 7.5-0.9 14.2-1.1 19.9-0.1 5.7-0.2 10.3-0.3 13.5q-0.2 2.4-0.3 3.6-0.1 1.3-0.2 1.3 0 0 0-1.3 0-1.4 0-3.6c0-3.4 0-7.9 0-13.5 0-5.7 0-12.5 0.8-20 0.5-3.8 1.1-7.7 2.4-11.7 0.7-2 1.8-3.9 3.3-5.5 1.4-1.6 3.1-3.1 4.9-4.3 7.4-4.9 15.7-7.1 23.1-8.3 7.5-1.1 14.2-1.6 19.9-1.9 5.7-0.4 10.3-0.5 13.5-0.6q2.2-0.1 3.7-0.1 1.2 0 1.2 0.1 0 0-1.2 0.1z"/>
						</g>
					</g>
				</g>
				<g id="&lt;Group&gt;">
					<g id="&lt;Group&gt;">
						<g id="&lt;Group&gt;">
							<g id="&lt;Group&gt;">
								<g id="&lt;Group&gt;">
									<g id="&lt;Group&gt;">
										<path id="&lt;Path&gt;" class="s6" d="m500.3 533.1c-11.4 0-20.5-9.2-20.4-20.6q0.1-7 0.2-13.1-16.3-1.6-17.5-17.7-1.2-16.2-0.7-53.6c18.2-9.2 40-7.8 57 3.7l2.5 1.7-0.8 79.5c-0.1 11.1-9.2 20.1-20.3 20.1z"/>
									</g>
								</g>
								<g id="&lt;Group&gt;">
									<g id="&lt;Group&gt;">
										<g id="&lt;Group&gt;">
											<path id="&lt;Path&gt;" class="s0" d="m479.7 471.7c0 0.2-1.4 0.3-3.7 0.3-0.2 0.1-0.6 0.1-1 0-0.4-0.1-0.8-0.4-1-0.9-0.4-0.9 0-1.7 0.2-2.4q0.6-2.3 1.3-4.7c2.1-6.6 4-11.9 4.3-11.8 0.4 0.1-1 5.6-3.1 12.2q-0.7 2.4-1.4 4.6c-0.3 0.7-0.5 1.4-0.4 1.7 0.1 0.3 0.6 0.4 1.2 0.5 2.2 0.1 3.6 0.3 3.6 0.5z"/>
										</g>
									</g>
								</g>
								<g id="&lt;Group&gt;">
									<g id="&lt;Group&gt;">
										<path id="&lt;Path&gt;" class="s7" d="m480.1 499.1q10.3 0.2 20.7-7.3-4.3 12-20.5 11.5z"/>
									</g>
								</g>
							</g>
						</g>
						<g id="&lt;Group&gt;">
							<g id="&lt;Group&gt;">
								<g id="&lt;Group&gt;">
									<path id="&lt;Path&gt;" class="s6" d="m517.2 451.4c0.3-0.2 10.2-1.5 9.3 10.3-0.9 11.7-12.5 6.9-12.5 6.6q0-0.4 3.2-16.9z"/>
								</g>
							</g>
							<g id="&lt;Group&gt;">
								<g id="&lt;Group&gt;">
									<g id="&lt;Group&gt;">
										<path id="&lt;Path&gt;" class="s7" d="m518 464.4c0 0 0.1 0.2 0.5 0.4 0.3 0.2 0.9 0.3 1.5 0.1 1.3-0.3 2.5-2.2 2.7-4.3 0.1-1.1 0-2.1-0.3-3-0.3-0.9-0.8-1.5-1.4-1.7-0.7-0.2-1.1 0.1-1.3 0.5-0.2 0.3-0.1 0.5-0.2 0.5 0 0.1-0.2-0.2-0.1-0.7 0.1-0.2 0.2-0.5 0.5-0.7 0.3-0.2 0.8-0.2 1.2-0.2 0.9 0.2 1.6 1.1 2 2 0.4 1 0.6 2.2 0.4 3.4-0.2 2.3-1.6 4.4-3.4 4.8-0.8 0.1-1.5-0.2-1.8-0.5-0.4-0.3-0.4-0.6-0.3-0.6z"/>
									</g>
								</g>
							</g>
						</g>
						<g id="&lt;Group&gt;">
							<g id="&lt;Group&gt;">
								<path id="&lt;Path&gt;" class="s0" d="m463.2 429.1c-4-1-6.9-5.1-6.7-9.2 0.1-4.2 3-7.9 6.7-9.7 3.8-1.7 8.3-1.4 12 0.2 1.2-5.9 7-10.7 13.1-10.5 6.1 0.2 11.7 5.2 12.5 11.2 0.4-3.1 3.9-4.8 7-5 3.2-0.2 6.5 0.7 8.6 3.1 2 2.4 2.2 6.4-0.1 8.5 3.5-0.4 7.2 0.4 10 2.4 2.9 2.1 4.8 5.6 4.5 9.1-0.3 3.5-2.9 6.9-6.3 7.6-1.2 0.2-1.5-0.6-2.1 0.5-0.4 0.5-0.5 2.7-0.5 3.4 0.1 3.8 0.1 7.2-0.7 11-2-1-4.6 0.5-5.6 2.6-1 2-0.8 4.4-0.6 6.7-1 1.5-3.6 1.1-4.6-0.3-1.1-1.5-1.2-3.4-1.2-5.2q-0.1-9.4-0.3-18.7c-1.8 1-4.1 1-6 0-1.8-1.1-3.1-3.1-3.2-5.2-2.6 2.6-6.4 3.8-10 3.4-3.7-0.4-7.1-2.6-9-5.7-1.9 1.5-3.9 3.1-6.1 4.1-2.3 1-4.9 1.4-7.2 0.6-2.4-0.8-4.3-3-4.3-5.5q0.4-0.3 0.9-0.7"/>
							</g>
						</g>
					</g>
				</g>
			</g>
			<g id="&lt;Group&gt;">
				<path id="&lt;Path&gt;" class="s2" d="m521.1 697.1h-159.9l-26.4-102.1h133.4l21.2 95.4 31.7 0.8z"/>
			</g>
			<g id="&lt;Group&gt;">
				<g id="&lt;Group&gt;">
					<g id="&lt;Group&gt;">
						<path id="&lt;Path&gt;" class="s0" d="m473.1 452.7c0.1 0.2-1.3 1.4-3.5 1.4-2.2 0.1-3.8-1-3.6-1.2 0.1-0.3 1.6 0.3 3.5 0.2 1.9 0 3.4-0.6 3.6-0.4z"/>
					</g>
				</g>
				<g id="&lt;Group&gt;">
					<g id="&lt;Group&gt;">
						<path id="&lt;Path&gt;" class="s0" d="m471.5 453.8c-0.1 1.2-1 2.1-2.1 2.1-1.2 0-2.1-0.9-2.1-2.1"/>
					</g>
				</g>
			</g>
			<g id="&lt;Group&gt;">
				<g id="&lt;Group&gt;">
					<g id="&lt;Group&gt;">
						<path id="&lt;Path&gt;" class="s0" d="m495.6 452.9c0.2 0.2-1.3 1.3-3.5 1.4-2.2 0-3.8-1-3.6-1.3 0.1-0.2 1.6 0.3 3.5 0.2 1.9 0 3.4-0.6 3.6-0.3z"/>
					</g>
				</g>
				<g id="&lt;Group&gt;">
					<g id="&lt;Group&gt;">
						<path id="&lt;Path&gt;" class="s0" d="m494 454c0 1.1-1 2.1-2.1 2.1-1.2 0-2.1-1-2.1-2.2"/>
					</g>
				</g>
			</g>
			<g id="&lt;Group&gt;">
				<g id="&lt;Group&gt;">
					<ellipse id="&lt;Path&gt;" class="s0" cx="491.8" cy="447.3" rx="5.2" ry="1.6"/>
				</g>
			</g>
			<g id="&lt;Group&gt;">
				<g id="&lt;Group&gt;">
					<ellipse id="&lt;Path&gt;" class="s0" cx="468.6" cy="448.6" rx="5.2" ry="1.6"/>
				</g>
			</g>
			<g id="&lt;Group&gt;">
				<path id="&lt;Path&gt;" class="s1" d="m532.3 457.4c0 6.1-5 11-11.1 11-6 0-8.2-4.9-8.2-11 0-6.1 2.2-11 8.2-11 6.1 0 11.1 4.9 11.1 11z"/>
			</g>
			<g id="&lt;Group&gt;">
				<path id="&lt;Path&gt;" class="s1" d="m520.3 449q8.5-40.9-19.5-39.3l-1.3-2.5q16.9-4 23.1 9.2 4.9 10.3 1.7 32.2z"/>
			</g>
			<g id="&lt;Group&gt;">
				<g id="&lt;Group&gt;">
					<path id="&lt;Path&gt;" class="s0" d="m522.6 468.4c0.1 0.1-1.6 0.2-3.6-1.3-2-1.5-4.3-4.3-4.8-8.2-0.4-3.7 0.6-7.1 2-9.2 1.4-2.2 3.2-2.4 3.1-2.3 0.1 0.1-1.4 0.6-2.5 2.7-1.1 1.9-1.9 5.2-1.6 8.7 0.5 3.5 2.5 6.2 4.2 7.7 1.8 1.5 3.3 1.8 3.2 1.9z"/>
				</g>
			</g>
			<g id="&lt;Group&gt;">
				<g id="&lt;Group&gt;">
					<path id="&lt;Path&gt;" class="s0" d="m480.4 475.9c0.2 0.2-0.1 0.7-0.8 0.9-0.6 0.2-1.1-0.1-1.1-0.4 0-0.3 0.4-0.5 0.9-0.6 0.4-0.1 0.9-0.1 1 0.1z"/>
				</g>
			</g>
			<g id="&lt;Group&gt;">
				<g id="&lt;Group&gt;">
					<g id="&lt;Group&gt;">
						<circle id="&lt;Path&gt;" class="s0" cx="437.1" cy="478" r="4.7"/>
					</g>
					<g id="&lt;Group&gt;">
						<g id="&lt;Group&gt;">
							<path id="&lt;Path&gt;" class="s0" d="m441.2 476.4c-0.2 0.2-3.3-3.7-6.2-9.1-2.8-5.4-5-9.7-4.8-9.9 0.3-0.1 2.9 4 5.8 9.4 2.8 5.4 5.4 9.5 5.2 9.6z"/>
						</g>
					</g>
					<g id="&lt;Group&gt;">
						<g id="&lt;Group&gt;">
							<path id="&lt;Path&gt;" class="s0" d="m438.9 452.2c0.3 0.1-0.7 2.6-3.4 4.3-2.6 1.7-5.3 1.6-5.3 1.3 0-0.3 2.4-0.6 4.7-2.2 2.5-1.5 3.8-3.5 4-3.4z"/>
						</g>
					</g>
					<g id="&lt;Group&gt;">
						<g id="&lt;Group&gt;">
							<path id="&lt;Path&gt;" class="s0" d="m441 456.7c0.2 0-0.7 2.5-3.4 4-2.7 1.5-5.3 0.9-5.2 0.7 0-0.3 2.4-0.3 4.7-1.6 2.4-1.3 3.6-3.3 3.9-3.1z"/>
						</g>
					</g>
				</g>
				<g id="&lt;Group&gt;">
					<g id="&lt;Group&gt;">
						<g id="&lt;Group&gt;">
							<path id="&lt;Path&gt;" class="s0" d="m412.6 475.3c-1.1 1.3-2.9 1.5-4.3 0.5-1.3-1-1.5-2.9-0.5-4.2 1-1.3 2.9-1.6 4.2-0.5 1.3 1 1.6 2.9 0.6 4.2z"/>
						</g>
						<g id="&lt;Group&gt;">
							<g id="&lt;Group&gt;">
								<path id="&lt;Path&gt;" class="s0" d="m412.8 474.2c-0.3 0-0.4-3.2 0.3-7 0.7-3.8 1.3-6.8 1.6-6.8 0.3 0 0.1 3.2-0.6 7-0.6 3.7-1 6.8-1.3 6.8z"/>
							</g>
						</g>
						<g id="&lt;Group&gt;">
							<g id="&lt;Group&gt;">
								<path id="&lt;Path&gt;" class="s0" d="m423.8 463.8c0 0.3-2.4 1-5.3 0.2-1.4-0.4-2.6-1.2-3.3-1.9-0.7-0.8-0.8-1.5-0.7-1.5 0.2-0.1 0.5 0.4 1.2 0.9 0.7 0.5 1.8 1.1 3.1 1.5 2.6 0.7 4.9 0.5 5 0.8z"/>
							</g>
						</g>
					</g>
					<g id="&lt;Group&gt;">
						<path id="&lt;Path&gt;" class="s0" d="m421.7 478.7c-1.1 1.3-2.9 1.6-4.3 0.5-1.3-1-1.5-2.9-0.5-4.2 1-1.3 2.9-1.5 4.2-0.5 1.3 1 1.6 2.9 0.6 4.2z"/>
					</g>
					<g id="&lt;Group&gt;">
						<g id="&lt;Group&gt;">
							<path id="&lt;Path&gt;" class="s0" d="m421.9 477.6c-0.3 0-0.4-3.1 0.3-7 0.6-3.8 1.3-6.8 1.6-6.8 0.3 0.1 0.1 3.2-0.6 7-0.6 3.8-1 6.8-1.3 6.8z"/>
						</g>
					</g>
					<g id="&lt;Group&gt;">
						<g id="&lt;Group&gt;">
							<path id="&lt;Path&gt;" class="s0" d="m423.5 465.9c0.1 0.2-2.1 1.1-4.9 0.4-2.8-0.7-4.4-2.4-4.2-2.6 0.2-0.2 1.9 1 4.4 1.6 2.5 0.6 4.6 0.3 4.7 0.6z"/>
						</g>
					</g>
				</g>
			</g>
			<g id="&lt;Group&gt;">
				<g id="&lt;Group&gt;">
					<path id="&lt;Path&gt;" class="s0" d="m584.5 613.3q0 0-1.1 0-1.2 0-3 0c-2.9-0.1-6.7-0.3-11.3-0.5-9.6-0.4-22.7-1-37.3-1.7-2.5-0.2-5.1-0.3-7.4-0.4l-0.5-0.1v-0.4c0-12.8 0.1-24 0.1-32.3 0.1-3.9 0.2-7.2 0.2-9.5q0.1-1.6 0.1-2.6 0-0.9 0.1-0.9 0 0 0.1 0.9 0 1 0.1 2.6c0 2.3 0.1 5.6 0.1 9.5 0.1 8.3 0.1 19.5 0.2 32.3l-0.5-0.6c2.4 0.2 4.9 0.3 7.5 0.4 14.5 0.8 27.7 1.5 37.2 2.1 4.6 0.3 8.5 0.6 11.3 0.8q1.8 0.1 3 0.2 1.1 0.1 1.1 0.2z"/>
				</g>
			</g>
			<g id="&lt;Group&gt;">
				<g id="&lt;Group&gt;">
					<path id="&lt;Path&gt;" class="s0" d="m556 526c-0.1 0.2-2.8-0.6-7.2-0.2-4.4 0.4-10.5 2.5-15.2 7.3-4.8 4.8-7 10.8-7.8 15.1-0.9 4.4-0.7 7.2-0.9 7.2-0.1 0-0.2-0.7-0.3-2 0-1.2 0.1-3.1 0.4-5.3 0.7-4.5 2.9-10.7 7.8-15.7 5-5.1 11.4-7.1 15.9-7.3 2.3-0.2 4.1 0 5.4 0.3 1.2 0.3 1.9 0.6 1.9 0.6z"/>
				</g>
			</g>
			<g id="&lt;Group&gt;">
				<g id="&lt;Group&gt;">
					<path id="&lt;Path&gt;" class="s0" d="m445.6 557c0.1 0 0.2 2.2 0.3 5.9 0.1 3.6 0.1 8.6 0 14.2-0.1 5.2-0.2 10-0.3 13.8 0 2.3 0 3.9 0 5.4-0.1-1.8-0.1-3.6-0.1-6.1-0.1-3.9-0.2-8.6-0.3-13.9-0.1-5.3-0.1-10.1 0-13.6 0.1-3.5 0.2-5.7 0.4-5.7z"/>
				</g>
			</g>
			<g id="&lt;Group&gt;">
				<circle id="&lt;Path&gt;" class="s8" cx="405.7" cy="646" r="9"/>
			</g>
		</g>
	</g>
</svg>